<?xml version="1.0" encoding="utf-8"?>
<!-- Generator: Adobe Illustrator 16.0.0, SVG Export Plug-In . SVG Version: 6.00 Build 0)  -->
<!DOCTYPE svg PUBLIC "-//W3C//DTD SVG 1.1//EN" "http://www.w3.org/Graphics/SVG/1.1/DTD/svg11.dtd">
<svg version="1.1" id="Layer_1" xmlns="http://www.w3.org/2000/svg" xmlns:xlink="http://www.w3.org/1999/xlink" x="0px" y="0px"
	 width="700px" height="700px" viewBox="0 0 700 700" enable-background="new 0 0 700 700" xml:space="preserve">
<g>
	<g>
		
			<path fill-rule="evenodd" clip-rule="evenodd" fill="none" stroke="#53412B" stroke-width="4" stroke-linecap="round" stroke-linejoin="round" stroke-miterlimit="3" d="
			M326.4,509.7h2.1 M688.1,509.7h2.1 M370.5,509.7h317.6 M8.9,509.7h317.6"/>
		
			<path fill-rule="evenodd" clip-rule="evenodd" fill="none" stroke="#16100C" stroke-width="4" stroke-linecap="round" stroke-linejoin="round" stroke-miterlimit="3" d="
			M368.4,627.8V507.4h319.7v2.3v118.1v48.7H370.5 M6.8,627.8V507.4h319.7v2.3v118.1v48.7H8.9 M368.4,627.8v48.7h2.1 M6.8,627.8v48.7
			h2.1"/>
		
			<path fill-rule="evenodd" clip-rule="evenodd" fill="none" stroke="#3E2F20" stroke-width="4" stroke-linecap="round" stroke-linejoin="round" stroke-miterlimit="3" d="
			M328.5,509.7v118.1 M690.2,509.7v118.1v51H370.5v-2.3v-48.7V509.7 M8.9,676.5v2.3h319.7v-51 M8.9,676.5v-48.7V509.7"/>
		<path fill-rule="evenodd" clip-rule="evenodd" fill="none" d="M328.5,627.8h39.9 M690.2,627.8h35.3 M370.5,627.8h-2.1
			 M326.4,627.8h2.1 M8.9,627.8H6.8H-3.4 M8.9,627.8h317.6 M688.1,627.8h2.1 M370.5,627.8h317.6"/>
	</g>
	
		<linearGradient id="SVGID_1_" gradientUnits="userSpaceOnUse" x1="54.8071" y1="-648.6504" x2="427.3071" y2="-648.6504" gradientTransform="matrix(3.660799e-006 0.907 -1.3636 -6.012479e-005 -534.5013 -47.3997)">
		<stop  offset="0.5686" style="stop-color:#493D33"/>
		<stop  offset="1" style="stop-color:#342B24"/>
	</linearGradient>
	<rect x="0.5" y="0.2" fill-rule="evenodd" clip-rule="evenodd" fill="url(#SVGID_1_)" width="699.1" height="342.1"/>
	<rect x="0.2" y="283.6" fill-rule="evenodd" clip-rule="evenodd" fill="#271E14" width="698.9" height="425.2"/>
	
		<radialGradient id="SVGID_2_" cx="648.6504" cy="241.1001" r="318.25" gradientTransform="matrix(1.3616 0 0 1.1416 -532.8506 136.9502)" gradientUnits="userSpaceOnUse">
		<stop  offset="0" style="stop-color:#B58638"/>
		<stop  offset="1" style="stop-color:#815913"/>
	</radialGradient>
	<rect x="1.3" y="196.9" fill-rule="evenodd" clip-rule="evenodd" fill="url(#SVGID_2_)" width="698.1" height="430.6"/>
	<rect x="1.3" y="627.7" fill-rule="evenodd" clip-rule="evenodd" fill="#5F3912" width="698" height="17.5"/>
	<g>
		
			<linearGradient id="SVGID_3_" gradientUnits="userSpaceOnUse" x1="-253.6997" y1="-604.3125" x2="-253.6997" y2="-216.8875" gradientTransform="matrix(1.1666 0 0 1.1666 464.55 334.2502)">
			<stop  offset="0" style="stop-color:#FFFFFF"/>
			<stop  offset="0.3647" style="stop-color:#FFFFFF;stop-opacity:0.2471"/>
			<stop  offset="1" style="stop-color:#FFFFFF;stop-opacity:0"/>
		</linearGradient>
		<path fill-rule="evenodd" clip-rule="evenodd" fill="url(#SVGID_3_)" d="M233-62.3l155,190.9H-50.9L104.5-62.8
			C142.7-62.7,185.6-62.5,233-62.3z"/>
	</g>
	<g>
		
			<linearGradient id="SVGID_4_" gradientUnits="userSpaceOnUse" x1="51.6499" y1="-604.3125" x2="51.6499" y2="-216.8875" gradientTransform="matrix(1.1666 0 0 1.1666 464.55 334.2502)">
			<stop  offset="0" style="stop-color:#FFFFFF"/>
			<stop  offset="0.3647" style="stop-color:#FFFFFF;stop-opacity:0.2471"/>
			<stop  offset="1" style="stop-color:#FFFFFF;stop-opacity:0"/>
		</linearGradient>
		<path fill-rule="evenodd" clip-rule="evenodd" fill="url(#SVGID_4_)" d="M744.2,128.6H305.4L460.8-62.8c38.2,0.1,81,0.3,128.5,0.5
			L744.2,128.6z"/>
	</g>
</g>
</svg>
