<?xml version="1.0" encoding="utf-8"?>
<!-- Generator: Adobe Illustrator 16.0.0, SVG Export Plug-In . SVG Version: 6.00 Build 0)  -->
<!DOCTYPE svg PUBLIC "-//W3C//DTD SVG 1.1//EN" "http://www.w3.org/Graphics/SVG/1.1/DTD/svg11.dtd">
<svg version="1.1" id="Layer_1" xmlns="http://www.w3.org/2000/svg" xmlns:xlink="http://www.w3.org/1999/xlink" x="0px" y="0px"
	 width="700px" height="700px" viewBox="0 0 700 700" enable-background="new 0 0 700 700" xml:space="preserve">
<symbol  id="glacee" viewBox="-2.3 -2.3 4.5 4.6">
	<g id="Layer_3_2_">
		<radialGradient id="SVGID_1_" cx="-4.980469e-002" cy="9.960938e-002" r="2.3622" gradientUnits="userSpaceOnUse">
			<stop  offset="0" style="stop-color:#FFFFFF"/>
			<stop  offset="0.1765" style="stop-color:#FFFFFF"/>
			<stop  offset="0.3059" style="stop-color:#FFFFFF;stop-opacity:0.4235"/>
			<stop  offset="0.4902" style="stop-color:#FFFFFF;stop-opacity:0.2314"/>
			<stop  offset="0.651" style="stop-color:#FFFFFF;stop-opacity:8.235294e-002"/>
			<stop  offset="1" style="stop-color:#FFFFFF;stop-opacity:0"/>
		</radialGradient>
		<path fill="url(#SVGID_1_)" d="M1.6,1.7c0.5-0.4,0.7-1,0.7-1.6c0-0.7-0.2-1.2-0.7-1.6C1.2-2,0.6-2.3,0-2.3s-1.2,0.2-1.6,0.7
			C-2-1.2-2.3-0.6-2.3,0c0,0.6,0.2,1.2,0.6,1.6c0.5,0.5,1,0.7,1.6,0.7S1.2,2.2,1.6,1.7z"/>
	</g>
</symbol>
<g>
	<g>
		
			<radialGradient id="SVGID_2_" cx="8.5425" cy="222.373" r="10.6253" fx="8.5842" fy="222.373" gradientTransform="matrix(1 0 -9.411765e-003 -1.0282 210.2001 788.223)" gradientUnits="userSpaceOnUse">
			<stop  offset="0" style="stop-color:#000000"/>
			<stop  offset="0.8078" style="stop-color:#000000;stop-opacity:0.498"/>
			<stop  offset="1" style="stop-color:#000000;stop-opacity:0"/>
		</radialGradient>
		<path fill="url(#SVGID_2_)" d="M216.7,550.3c3.7,0,6.9,1.2,9.5,3.5c2.7,2.3,4,5.2,4,8.5s-1.3,6.1-3.9,8.4
			c-2.6,2.3-5.7,3.5-9.4,3.5c-3.7,0-6.9-1.2-9.5-3.5c-2.7-2.3-4-5.1-4-8.4s1.2-6.1,3.8-8.4C209.9,551.4,213,550.3,216.7,550.3z"/>
	</g>
	<g>
		<g>
			
				<linearGradient id="SVGID_3_" gradientUnits="userSpaceOnUse" x1="-321.6353" y1="1477.0605" x2="-305.2853" y2="1477.0605" gradientTransform="matrix(-1 0 0 1 -96.6602 -920.96)">
				<stop  offset="0" style="stop-color:#5F5F5F"/>
				<stop  offset="0.149" style="stop-color:#A09A9A"/>
				<stop  offset="0.3137" style="stop-color:#A09A9A"/>
				<stop  offset="0.4471" style="stop-color:#D6D3D3"/>
				<stop  offset="0.5843" style="stop-color:#A09A9A"/>
				<stop  offset="1" style="stop-color:#625C5C"/>
			</linearGradient>
			<path fill="url(#SVGID_3_)" d="M224.6,561.4c0.1-0.5,0.1-1,0.1-1.5c0-2.3-0.8-4.2-2.4-5.9c-1-1-2.1-1.6-3.3-2
				c-0.5-0.1-1.1-0.2-1.6-0.3c-0.3-0.1-0.6-0.1-0.9-0.1c-2.3,0-4.2,0.8-5.8,2.4c-1,1.1-1.8,2.2-2.1,3.5c0.3-1.7,1.1-3.1,2.4-4.3
				c1.6-1.6,3.5-2.4,5.8-2.4c0.3,0,0.5,0,0.9,0c0.5,0,1,0.1,1.5,0.3c1.3,0.4,2.5,1.1,3.5,2.1c1.6,1.6,2.4,3.5,2.4,5.8
				C225,559.9,224.9,560.7,224.6,561.4z"/>
			<path fill="#756C6D" d="M224.6,561.4c-0.3,1.6-1,3.1-2.3,4.4c-1.6,1.6-3.5,2.4-5.8,2.4s-4.2-0.8-5.8-2.4
				c-1.6-1.6-2.5-3.6-2.5-5.8c0-0.8,0.1-1.6,0.3-2.4c0.4-1.3,1.1-2.4,2.1-3.5c1.6-1.6,3.5-2.4,5.8-2.4c0.3,0,0.6,0,0.9,0.1
				c0.6,0,1.1,0.1,1.6,0.3c1.2,0.4,2.3,1.1,3.3,2c1.6,1.6,2.4,3.6,2.4,5.9C224.8,560.5,224.7,560.9,224.6,561.4z"/>
		</g>
	</g>
	<g>
		<g>
			<polygon fill="#B3AEB1" points="224.5,561 220.4,554.2 220.6,552.9 224.6,559.7 224.6,559.8 			"/>
			<polygon fill="#7D787C" points="212.4,554.2 212.5,553 212.5,552.8 220.5,552.8 220.6,552.9 220.4,554.2 220.4,554.1 
				212.4,554.1 			"/>
			<polygon fill="#504F5D" points="208.5,561 208.9,560.3 212.4,554.2 212.4,554.1 220.4,554.1 220.4,554.2 224.5,561 220.5,568 
				212.5,568 208.5,561.2 			"/>
			<polygon fill="#6D676B" points="212.5,553 212.4,554.2 208.9,560.3 208.5,561 208.6,559.9 			"/>
		</g>
	</g>
	<g>
		<g>
			<path fill="#414046" d="M210.4,561c0.3-0.8,0.7-1.5,1.4-2.1c1.2-1.2,2.6-1.8,4.3-1.8c1.7,0,3.1,0.6,4.3,1.8
				c1.2,1.2,1.8,2.6,1.8,4.3c0,0,0,0.1,0,0.2c0,1.6-0.6,2.9-1.8,4c-1.2,1.2-2.6,1.8-4.3,1.8c-1.7,0-3.1-0.6-4.3-1.8
				c-1.2-1.2-1.8-2.6-1.8-4.3C210,562.4,210.1,561.7,210.4,561z M212.9,560.5c-0.8,0.8-1.2,1.8-1.2,3s0.4,2.1,1.2,3
				c0.8,0.9,1.8,1.3,3,1.3c1.2,0,2.1-0.4,3-1.3c0.8-0.8,1.3-1.8,1.3-3s-0.4-2.2-1.3-3c-0.8-0.8-1.8-1.2-3-1.2
				C214.7,559.3,213.7,559.7,212.9,560.5z"/>
			
				<linearGradient id="SVGID_4_" gradientUnits="userSpaceOnUse" x1="-319.0728" y1="1480.21" x2="-307.0478" y2="1480.21" gradientTransform="matrix(-1 0 0 1 -96.6602 -920.96)">
				<stop  offset="0" style="stop-color:#484545"/>
				<stop  offset="0.2588" style="stop-color:#A29C9E"/>
				<stop  offset="0.4471" style="stop-color:#D0C8CB"/>
				<stop  offset="0.5843" style="stop-color:#A09A9A"/>
				<stop  offset="1" style="stop-color:#544B4E"/>
			</linearGradient>
			<path fill="url(#SVGID_4_)" d="M222,563.4c0-0.1,0-0.2,0-0.2c0-1.6-0.6-3-1.8-4.3c-1.2-1.2-2.6-1.8-4.3-1.8
				c-1.7,0-3.1,0.6-4.3,1.8c-0.6,0.6-1.1,1.3-1.4,2.1c0-1.6,0.6-3,1.8-4.1c1.2-1.2,2.6-1.8,4.3-1.8c1.6,0,3,0.6,4.2,1.8
				c1.2,1.2,1.8,2.6,1.8,4.3C222.4,562,222.3,562.7,222,563.4z"/>
			<path d="M212.9,560.5c0.8-0.8,1.8-1.2,3-1.2c1.2,0,2.1,0.4,3,1.2c0.8,0.8,1.3,1.8,1.3,3s-0.4,2.1-1.3,3c-0.8,0.9-1.8,1.3-3,1.3
				c-1.2,0-2.2-0.4-3-1.3c-0.8-0.8-1.2-1.8-1.2-3S212.1,561.3,212.9,560.5z"/>
		</g>
	</g>
	<g>
		<g>
			
				<radialGradient id="SVGID_5_" cx="-313.6104" cy="1301.4775" r="6.9376" gradientTransform="matrix(-1 0 0 -0.6937 -96.6602 1455.3826)" gradientUnits="userSpaceOnUse">
				<stop  offset="0" style="stop-color:#FFFFFF"/>
				<stop  offset="0.4471" style="stop-color:#FFFFFF;stop-opacity:0.7804"/>
				<stop  offset="1" style="stop-color:#FFFFFF;stop-opacity:7.843138e-003"/>
			</radialGradient>
			<path fill="url(#SVGID_5_)" d="M223.6,555.8L223.6,555.8L223.6,555.8c-0.4-0.6-0.9-1.2-1.4-1.7c-1.6-1.5-3.5-2.3-5.7-2.3
				s-4.1,0.8-5.6,2.3c-0.6,0.5-1,1.1-1.4,1.8h-0.1l0,0c0.4-0.6,0.8-1.2,1.3-1.8c1.6-1.6,3.5-2.3,5.8-2.3c2.2,0,4.2,0.8,5.8,2.3
				C222.8,554.5,223.2,555.1,223.6,555.8z"/>
			<path fill="#FFFFFF" fill-opacity="0.2471" d="M220.5,554.1L220.5,554.1L220.5,554.1L220.5,554.1z M220.5,554.2h-8.1V554h8.1
				V554.2L220.5,554.2z"/>
			<polygon fill="#FFFFFF" fill-opacity="0.3294" points="220.5,554.1 221.5,555.8 221.5,555.8 221.4,555.8 220.5,554.2 
				220.4,554.1 220.5,554 			"/>
		</g>
	</g>
	<g>
		<g>
			
				<radialGradient id="SVGID_6_" cx="-312.9102" cy="1112.7881" r="4.55" gradientTransform="matrix(-1 0 0 -0.239 -96.6602 823.0622)" gradientUnits="userSpaceOnUse">
				<stop  offset="0" style="stop-color:#FFFFFF"/>
				<stop  offset="0.1765" style="stop-color:#FFFFFF"/>
				<stop  offset="0.3059" style="stop-color:#FFFFFF;stop-opacity:0.4235"/>
				<stop  offset="0.4902" style="stop-color:#FFFFFF;stop-opacity:0.2314"/>
				<stop  offset="0.651" style="stop-color:#FFFFFF;stop-opacity:8.235294e-002"/>
				<stop  offset="1" style="stop-color:#FFFFFF;stop-opacity:0"/>
			</radialGradient>
			<path fill="url(#SVGID_6_)" d="M213,556.3c0.9-0.2,2-0.3,3.2-0.3c1.2,0,2.3,0.1,3.1,0.3c0.8,0.2,1.3,0.4,1.3,0.8
				c0,0.3-0.4,0.6-1.3,0.8c-0.9,0.2-1.9,0.3-3.1,0.3c-1.2,0-2.3-0.1-3.2-0.3c-0.9-0.2-1.3-0.4-1.3-0.8
				C211.7,556.8,212.1,556.5,213,556.3z"/>
			
				<radialGradient id="SVGID_7_" cx="-317.21" cy="1318.0166" r="0.9375" gradientTransform="matrix(-1 0 0 -0.8133 -96.6602 1626.1105)" gradientUnits="userSpaceOnUse">
				<stop  offset="0" style="stop-color:#FFFFFF"/>
				<stop  offset="0.1765" style="stop-color:#FFFFFF"/>
				<stop  offset="0.3059" style="stop-color:#FFFFFF;stop-opacity:0.4235"/>
				<stop  offset="0.4902" style="stop-color:#FFFFFF;stop-opacity:0.2314"/>
				<stop  offset="0.651" style="stop-color:#FFFFFF;stop-opacity:8.235294e-002"/>
				<stop  offset="1" style="stop-color:#FFFFFF;stop-opacity:0"/>
			</radialGradient>
			<path fill="url(#SVGID_7_)" d="M221.2,554.7c-0.2,0.2-0.4,0.3-0.7,0.3s-0.5-0.1-0.6-0.3c-0.2-0.2-0.3-0.4-0.3-0.5
				c0-0.2,0.1-0.3,0.3-0.5c0.2-0.2,0.4-0.3,0.6-0.3s0.5,0.1,0.7,0.3c0.2,0.2,0.3,0.3,0.3,0.5C221.5,554.3,221.4,554.5,221.2,554.7z"
				/>
		</g>
	</g>
	<g>
		<g>
			<g>
				
					<radialGradient id="SVGID_8_" cx="94.626" cy="201.2139" r="4.272" gradientTransform="matrix(-0.4682 0.8836 -0.9276 -0.4915 450.7833 581.9301)" gradientUnits="userSpaceOnUse">
					<stop  offset="0" style="stop-color:#FFFFFF"/>
					<stop  offset="0.2627" style="stop-color:#FEF9FD"/>
					<stop  offset="0.6314" style="stop-color:#897F8C"/>
					<stop  offset="1" style="stop-color:#382D3B"/>
				</radialGradient>
				<path fill="url(#SVGID_8_)" d="M219.1,568.8c-0.3-0.8-0.2-1.6,0.2-2.3c0.3-0.4,0.6-0.7,0.9-1c0.3-0.2,0.6-0.3,0.9-0.4
					c0.8-0.3,1.6-0.2,2.3,0.2h0.1l0.2,0.2c0.6,0.3,1,0.8,1.2,1.5c0.3,0.8,0.2,1.6-0.2,2.4c-0.4,0.7-1,1.2-1.8,1.5
					c-0.8,0.2-1.6,0.1-2.3-0.3c-0.3-0.1-0.6-0.3-0.8-0.5C219.6,569.7,219.3,569.3,219.1,568.8z"/>
				
					<linearGradient id="SVGID_9_" gradientUnits="userSpaceOnUse" x1="0.3984" y1="217.6367" x2="3.7376" y2="212.6603" gradientTransform="matrix(-1 0 0 -1 219.8232 780.0391)">
					<stop  offset="0" style="stop-color:#2A2A2A"/>
					<stop  offset="0.1529" style="stop-color:#777670"/>
					<stop  offset="0.2588" style="stop-color:#BDB9AC"/>
					<stop  offset="0.3765" style="stop-color:#C8C2BF"/>
					<stop  offset="0.4863" style="stop-color:#FFFFFF"/>
					<stop  offset="0.698" style="stop-color:#8C8571"/>
					<stop  offset="0.8667" style="stop-color:#8C8571"/>
					<stop  offset="1" style="stop-color:#35332F"/>
				</linearGradient>
				<path fill="url(#SVGID_9_)" d="M221.2,565.1c-0.3,0.1-0.6,0.2-0.9,0.4c-0.3,0.2-0.6,0.6-0.9,1c-0.4,0.7-0.5,1.5-0.2,2.3
					c0.1,0.5,0.3,0.9,0.6,1.3l-5.3-3.8c-0.2-0.1-0.4-0.3-0.6-0.4c-0.3-0.3-0.6-0.7-0.7-1.2c-0.1-0.7,0-1.4,0.3-2.1
					c0-0.1,0.1-0.1,0.1-0.2c0.2-0.4,0.5-0.7,0.9-0.9c0.2-0.1,0.4-0.2,0.6-0.3c0.6-0.2,1.3-0.2,1.9,0.1l6.4,4
					C222.7,564.8,222,564.8,221.2,565.1z"/>
			</g>
		</g>
		
			<use xlink:href="#glacee"  width="4.5" height="4.6" x="-2.3" y="-2.3" transform="matrix(-0.2461 0.3238 -1.4946 -1.0105 218.4634 563.9014)" overflow="visible"/>
	</g>
</g>
</svg>
