<?xml version="1.0" encoding="utf-8"?>
<!-- Generator: Adobe Illustrator 16.0.0, SVG Export Plug-In . SVG Version: 6.00 Build 0)  -->
<!DOCTYPE svg PUBLIC "-//W3C//DTD SVG 1.1//EN" "http://www.w3.org/Graphics/SVG/1.1/DTD/svg11.dtd">
<svg version="1.1" id="Layer_1" xmlns="http://www.w3.org/2000/svg" xmlns:xlink="http://www.w3.org/1999/xlink" x="0px" y="0px"
	 width="700px" height="700px" viewBox="0 0 700 700" enable-background="new 0 0 700 700" xml:space="preserve">
<symbol  id="glacee" viewBox="-2.3 -2.4 4.6 4.6">
	<g id="Layer_3_1_">
		<radialGradient id="SVGID_1_" cx="0" cy="0" r="2.3625" gradientUnits="userSpaceOnUse">
			<stop  offset="0" style="stop-color:#FFFFFF"/>
			<stop  offset="0.1765" style="stop-color:#FFFFFF"/>
			<stop  offset="0.3059" style="stop-color:#FFFFFF;stop-opacity:0.4235"/>
			<stop  offset="0.4902" style="stop-color:#FFFFFF;stop-opacity:0.2314"/>
			<stop  offset="0.651" style="stop-color:#FFFFFF;stop-opacity:8.235294e-002"/>
			<stop  offset="1" style="stop-color:#FFFFFF;stop-opacity:0"/>
		</radialGradient>
		<path fill-rule="evenodd" clip-rule="evenodd" fill="url(#SVGID_1_)" d="M1.6,1.6c0.5-0.4,0.7-1,0.7-1.6c0-0.7-0.2-1.2-0.7-1.6
			C1.2-2.1,0.6-2.4,0-2.4s-1.2,0.2-1.6,0.7c-0.4,0.4-0.6,1-0.6,1.6c0,0.6,0.2,1.2,0.6,1.6c0.5,0.5,1,0.7,1.6,0.7S1.2,2.1,1.6,1.6z"
			/>
	</g>
</symbol>
<g>
	<polygon fill-rule="evenodd" clip-rule="evenodd" fill-opacity="0.2471" points="-3.3,320.9 238.7,320.9 248.3,223.7 33.5,224 	"/>
	<polygon fill-rule="evenodd" clip-rule="evenodd" fill-opacity="0.4" points="23.6,305.9 48.7,224 244.9,224 236.5,305.9 
		229.5,305.9 229.5,303.9 212,303.9 211.8,303.9 133.5,303.9 129.5,303.9 34.7,303.9 33.9,305.9 	"/>
	<g>
		<g>
			<polygon fill-rule="evenodd" clip-rule="evenodd" fill="#1C1C1C" points="65.1,149.6 34.3,206.2 33.5,207.6 28.6,207.6 
				29.4,206.2 60,149.6 60.1,149.6 			"/>
			
				<linearGradient id="SVGID_2_" gradientUnits="userSpaceOnUse" x1="-43.6777" y1="-227.3496" x2="-9.0586" y2="-227.3496" gradientTransform="matrix(-1 0 3.217503e-004 -1 -2.714483e-004 0)">
				<stop  offset="0" style="stop-color:#3A5E83"/>
				<stop  offset="1" style="stop-color:#5588BB"/>
			</linearGradient>
			<path fill-rule="evenodd" clip-rule="evenodd" fill="url(#SVGID_2_)" d="M65.1,149.6v74.5L30.5,305v-3.6v-0.1v-81.6v-1.4v-1.9
				c0-0.1,0-0.2,0-0.3c-0.1-1.1,0.1-2.3,0.4-3.8l0.2-0.3l2.4-4.4l0.8-1.4L65.1,149.6z"/>
			<linearGradient id="SVGID_3_" gradientUnits="userSpaceOnUse" x1="25.5752" y1="212.9502" x2="30.5252" y2="212.9502">
				<stop  offset="0" style="stop-color:#000000"/>
				<stop  offset="0.5725" style="stop-color:#171717"/>
				<stop  offset="0.8078" style="stop-color:#333232"/>
				<stop  offset="1" style="stop-color:#333232"/>
			</linearGradient>
			<path fill-rule="evenodd" clip-rule="evenodd" fill="url(#SVGID_3_)" d="M33.5,207.6l-2.4,4.4l-0.2,0.3c-0.3,1.4-0.5,2.7-0.4,3.8
				c0,0.1,0,0.2,0,0.3v1.9h-4.9v-1.6v-0.4c0-0.1-0.1-0.2-0.1-0.3c-0.2-0.8,0-2,0.5-3.8l0.2-0.3l2.4-4.4H33.5z"/>
			<polygon fill-rule="evenodd" clip-rule="evenodd" points="25.6,218.3 30.5,218.3 30.5,219.6 30.5,301.3 30.5,301.4 30.5,305 
				25.6,305 25.6,219.6 			"/>
		</g>
	</g>
	<g>
		<g>
			<linearGradient id="SVGID_4_" gradientUnits="userSpaceOnUse" x1="42.457" y1="181.2373" x2="46.5584" y2="183.4848">
				<stop  offset="0" style="stop-color:#000000"/>
				<stop  offset="0.5765" style="stop-color:#1E1D1D"/>
				<stop  offset="0.8314" style="stop-color:#333232"/>
				<stop  offset="1" style="stop-color:#333232"/>
			</linearGradient>
			<path fill-rule="evenodd" clip-rule="evenodd" fill="url(#SVGID_4_)" d="M28.1,214.1c-0.6,0.1-1.1,0-1.5-0.3
				c-0.3-0.3-0.6,0.5-1,2.3l0-0.1c-0.4-1.2-0.3-2.4,0.4-3.6l0-0.1l3.4-6.1L60,149.6h0.1h5l-30.9,56.6l-0.8,1.4l-2.3,4.3l-0.1,0.1
				l-0.1,0.2C29.8,213.3,28.8,213.9,28.1,214.1z"/>
			<linearGradient id="SVGID_5_" gradientUnits="userSpaceOnUse" x1="25.5752" y1="259.3926" x2="30.5249" y2="259.3926">
				<stop  offset="0" style="stop-color:#000000"/>
				<stop  offset="0.5725" style="stop-color:#171717"/>
				<stop  offset="0.8078" style="stop-color:#333232"/>
				<stop  offset="1" style="stop-color:#333232"/>
			</linearGradient>
			<path fill-rule="evenodd" clip-rule="evenodd" fill="url(#SVGID_5_)" d="M28.1,214.1c0.6,0.3,1.1,0.4,1.4,0.4
				c0.1,0,0.3,0,0.5-0.1c-0.1,0.2-0.2,0.5-0.3,0.9l0.8,0.7l0,3.7V251v50.3v0.1v3.6h-4.9V251v-31.3v-1.4v-1v-1V216l0,0.1
				c0.4-1.8,0.7-2.5,1-2.3C27,214.1,27.5,214.2,28.1,214.1z"/>
		</g>
	</g>
	<g>
		<g>
			<linearGradient id="SVGID_6_" gradientUnits="userSpaceOnUse" x1="35.3086" y1="264.9976" x2="231.9341" y2="317.7458">
				<stop  offset="0" style="stop-color:#1E1D1D"/>
				<stop  offset="0.2431" style="stop-color:#252222"/>
				<stop  offset="0.6549" style="stop-color:#434242"/>
				<stop  offset="0.8941" style="stop-color:#191919"/>
				<stop  offset="1" style="stop-color:#000000"/>
			</linearGradient>
			<path fill-rule="evenodd" clip-rule="evenodd" fill="url(#SVGID_6_)" d="M235.5,297.4c-0.1,2.2-1.3,3.3-3.5,3.3H35.5
				c-2-0.2-3.2-0.7-3.6-1.5c0-0.1-0.1-0.1-0.1-0.1c-0.1-0.3-0.1-0.7,0-1.1c0-0.2,0.1-0.5,0.2-0.7l6.3-11.4c1.5-2.4,3.2-3.6,5.2-3.5
				H232c2.3,0,3.5,1.2,3.5,3.5V297.4z"/>
			<path fill-rule="evenodd" clip-rule="evenodd" d="M235.5,297.4v1.3c0,2.3-1.2,3.5-3.5,3.5H35.5c-2.6-0.2-3.9-0.8-3.9-1.8v-2.1
				c0,0.3,0.1,0.6,0.2,0.7c0,0,0,0.1,0.1,0.1c0.4,0.8,1.6,1.4,3.6,1.5H232C234.2,300.6,235.4,299.6,235.5,297.4z"/>
		</g>
	</g>
	<g>
		<g>
			<linearGradient id="SVGID_7_" gradientUnits="userSpaceOnUse" x1="184.6338" y1="181.1973" x2="99.1519" y2="306.1018">
				<stop  offset="0" style="stop-color:#E9E9E7"/>
				<stop  offset="0.6627" style="stop-color:#E9E9E7"/>
				<stop  offset="1" style="stop-color:#CBC7C7"/>
			</linearGradient>
			<rect x="33.4" y="213.6" fill-rule="evenodd" clip-rule="evenodd" fill="url(#SVGID_7_)" width="200.3" height="84.7"/>
			<linearGradient id="SVGID_8_" gradientUnits="userSpaceOnUse" x1="-3.0625" y1="184.4502" x2="203.9873" y2="184.4502">
				<stop  offset="0" style="stop-color:#436E9A"/>
				<stop  offset="0.4196" style="stop-color:#5385B7"/>
				<stop  offset="1" style="stop-color:#639AD3"/>
			</linearGradient>
			<polygon fill-rule="evenodd" clip-rule="evenodd" fill="url(#SVGID_8_)" points="233.6,213.6 33.4,213.6 65.5,155.3 240.4,155.3 
				233.8,212.9 			"/>
			<polygon fill-rule="evenodd" clip-rule="evenodd" fill="#15375A" points="233.6,298.3 233.6,213.6 233.8,212.9 240.4,155.3 
				240.4,213.6 240.4,226.3 			"/>
		</g>
	</g>
	<g>
		<g>
			<g>
				
					<linearGradient id="SVGID_9_" gradientUnits="userSpaceOnUse" x1="-0.3076" y1="195.4404" x2="222.3948" y2="195.4404" gradientTransform="matrix(0.9942 0.108 0.1259 1.0196 7.539988e-005 -3.081411e-004)">
					<stop  offset="0" style="stop-color:#1E1D1D"/>
					<stop  offset="0.2431" style="stop-color:#252222"/>
					<stop  offset="0.6549" style="stop-color:#434242"/>
					<stop  offset="0.8941" style="stop-color:#191919"/>
					<stop  offset="1" style="stop-color:#000000"/>
				</linearGradient>
				<path fill-rule="evenodd" clip-rule="evenodd" fill="url(#SVGID_9_)" d="M235.7,215.5H36.4c-2-0.1-3.3-0.3-4.1-0.6
					c-0.1-0.1-0.2-0.1-0.3-0.2c-0.1,0-0.1,0-0.1,0c0-0.1-0.1-0.1-0.1-0.1c-0.2-0.1-0.3-0.2-0.3-0.4c0,0,0-0.1,0-0.1
					c0-0.1,0-0.1,0-0.3l2.8-5.2c0.6-0.9,1.6-1.5,3.1-1.6l198.8,0.1L235.7,215.5z"/>
				<path fill-rule="evenodd" clip-rule="evenodd" d="M235.7,215.5v1.5H36.4c-2.8,0-4.5-0.5-4.9-1.4c0-0.5,0-1,0-1.5
					c0,0,0,0.1,0,0.1c0,0.1,0.1,0.3,0.3,0.4c0,0,0.1,0.1,0.1,0.1c0,0,0,0,0.1,0c0.1,0,0.2,0.1,0.3,0.2c0.8,0.3,2.1,0.5,4.1,0.6
					H235.7z"/>
			</g>
		</g>
		<g>
			<g>
				<path fill-rule="evenodd" clip-rule="evenodd" fill="none" d="M36.1,215.5H36c-3,0-4.5-0.4-4.5-1.4"/>
				
					<line fill-rule="evenodd" clip-rule="evenodd" fill="none" stroke="#FFFFFF" stroke-linecap="round" stroke-linejoin="round" stroke-miterlimit="3" stroke-opacity="0.3098" x1="238" y1="215.5" x2="36.1" y2="215.5"/>
			</g>
		</g>
	</g>
	<g>
		<path fill-rule="evenodd" clip-rule="evenodd" d="M155.1,281.1c0.2,0.1,0.3,0.2,0.3,0.4c0.1,0.2,0.1,0.4,0.1,0.6v1.4
			c0,0.2,0,0.3,0,0.4c0,0,0.1,0.1,0.2,0.1c0,0,0.1,0.1,0.3,0.1c0.2,0,0.3-0.1,0.4-0.1c0.1-0.1,0.2-0.3,0.4-0.7l1.6-3.8h0.1l1.6,3.9
			c0.1,0.3,0.3,0.5,0.4,0.5c0.1,0.1,0.3,0.2,0.4,0.2v0.1H159v-0.1c0.2,0,0.3-0.1,0.4-0.1c0.1,0,0.1-0.1,0.1-0.2c0-0.1,0-0.3-0.1-0.4
			l-0.3-0.7h-1.9l-0.3,0.8c-0.1,0.2-0.1,0.3-0.1,0.4c0,0.1,0.1,0.1,0.1,0.2c0,0.1,0.2,0.1,0.4,0.1v0.1h-3.1v-0.1h0.1
			c0.2,0,0.3,0,0.3-0.1c0-0.1,0.1-0.1,0.2-0.2c0,0,0-0.1,0-0.4v-1.4c0-0.3-0.1-0.4-0.2-0.5c-0.1-0.2-0.2-0.3-0.4-0.3
			c-0.1,0-0.2,0-0.4,0.1c-0.1,0.1-0.3,0.2-0.4,0.3v1.7c0,0.2,0,0.3,0,0.4c0,0,0,0.1,0.1,0.1c0.1,0,0.2,0.1,0.4,0.1v0.1h-1.6v-0.1
			c0.1,0,0.3,0,0.4-0.1c0.1-0.1,0.1-0.1,0.1-0.2c0,0,0-0.1,0-0.4v-1.4c0-0.3,0-0.4-0.1-0.5c-0.1-0.1-0.3-0.2-0.5-0.2
			c-0.1,0-0.3,0-0.4,0.1c-0.2,0.1-0.4,0.3-0.4,0.3v1.7c0,0.2,0,0.3,0,0.4c0.1,0,0.1,0.1,0.2,0.1c0,0,0.1,0.1,0.3,0.1v0.1h-1.6v-0.1
			c0.2,0,0.3,0,0.3-0.1c0-0.1,0.1-0.1,0.1-0.1c0-0.1,0-0.2,0-0.4v-1.2c0-0.3,0-0.5,0-0.6c0-0.1,0-0.2-0.1-0.2c0,0-0.1,0-0.1,0
			c-0.1,0-0.1,0-0.3,0l0-0.1l0.9-0.4h0.2v0.6c0.2-0.2,0.4-0.4,0.4-0.4c0.1-0.1,0.1-0.2,0.3-0.2c0.1,0,0.3,0,0.4,0
			c0.2,0,0.4,0,0.5,0.1c0.2,0.1,0.3,0.3,0.3,0.5c0.2-0.3,0.4-0.4,0.5-0.5c0.2-0.1,0.4-0.1,0.6-0.1C154.9,281,155,281,155.1,281.1z
			 M159,282.4l-0.8-1.9l-0.8,1.9H159z M144.7,280.7c0,0.2-0.1,0.5-0.2,0.7c-0.2,0.4-0.4,0.8-0.8,1.1c-0.6,0.6-0.9,1-1,1.2h1.2
			c0.2,0,0.4,0,0.6,0c0.1-0.1,0.1-0.1,0.2-0.2c0.1-0.1,0.2-0.1,0.3-0.2h0.1l-0.4,0.9H142v-0.1c0.8-0.7,1.3-1.3,1.6-1.8
			c0.3-0.5,0.5-0.9,0.5-1.3c0-0.3-0.1-0.5-0.3-0.7c-0.2-0.2-0.4-0.3-0.7-0.3c-0.2,0-0.4,0.1-0.6,0.2c-0.2,0.1-0.3,0.3-0.4,0.5h-0.1
			c0-0.4,0.2-0.7,0.4-0.9s0.5-0.4,1-0.4c0.3,0,0.6,0.1,0.9,0.4C144.6,280.1,144.7,280.4,144.7,280.7z M146.3,280.8
			c0,0.4,0,0.8,0,1.2c0,0.7,0.1,1.2,0.2,1.5s0.3,0.6,0.6,0.6c0.1,0,0.3-0.1,0.4-0.2c0.2-0.1,0.3-0.3,0.4-0.5c0.1-0.4,0.1-1,0.1-1.6
			c0-0.5-0.1-1-0.1-1.4c-0.1-0.2-0.2-0.4-0.3-0.5c-0.1-0.1-0.2-0.1-0.4-0.1c-0.2,0-0.3,0.1-0.4,0.2
			C146.5,280.1,146.4,280.4,146.3,280.8z M146.4,279.7c0.2-0.1,0.5-0.2,0.6-0.2c0.4,0,0.7,0.2,1,0.5c0.3,0.5,0.5,1.1,0.5,1.9
			c0,0.5-0.1,1-0.2,1.4c-0.2,0.4-0.4,0.7-0.6,0.8c-0.3,0.1-0.5,0.2-0.7,0.2c-0.5,0-0.8-0.3-1.1-0.8c-0.3-0.4-0.4-1-0.4-1.5
			c0-0.6,0.1-1,0.2-1.4C146,280.2,146.2,279.9,146.4,279.7z M158.5,290.6v1.9c0,0,0.1,0,0.1,0h0.1c0.4,0,0.8-0.1,1-0.3
			c0.2-0.2,0.3-0.4,0.3-0.7c0-0.3-0.1-0.5-0.3-0.7c-0.1-0.2-0.4-0.3-0.7-0.3C158.9,290.5,158.8,290.6,158.5,290.6z M160,290.4
			c0.2,0.1,0.4,0.2,0.6,0.4c0.1,0.2,0.2,0.4,0.2,0.7s-0.1,0.5-0.3,0.8c-0.2,0.2-0.5,0.3-0.9,0.4l1,1.4c0.2,0.3,0.4,0.5,0.6,0.6
			c0.1,0.1,0.3,0.1,0.5,0.1c0.2,0,0.3-0.1,0.4-0.1c0.1-0.1,0.3-0.3,0.4-0.7l1.7-3.8h0.1l1.7,3.8c0.1,0.3,0.3,0.5,0.3,0.6
			c0.1,0.1,0.2,0.1,0.4,0.1v0.2h-1.8v-0.2c0.2,0,0.3,0,0.4-0.1c0.1,0,0.1-0.1,0.1-0.2c0-0.1,0-0.3-0.1-0.5l-0.3-0.7h-1.8l-0.3,0.8
			c-0.1,0.2-0.1,0.4-0.1,0.4c0,0.1,0,0.1,0.1,0.2c0,0,0.2,0.1,0.4,0.1v0.2h-2.6l-1.6-2.2c-0.1,0-0.2,0-0.3,0c0,0-0.1,0-0.1,0h-0.1
			v1.3c0,0.3,0,0.5,0.1,0.5c0.1,0.1,0.3,0.1,0.4,0.1h0.2v0.2h-2v-0.2h0.2c0.2,0,0.3,0,0.4-0.1c0-0.1,0.1-0.3,0.1-0.5v-3
			c0-0.3,0-0.5-0.1-0.6c-0.1-0.1-0.2-0.1-0.4-0.1h-0.2v-0.1h1.7C159.4,290.4,159.8,290.4,160,290.4z M181.4,279.9
			c0.2,0.2,0.4,0.5,0.4,0.9c0,0.2-0.1,0.5-0.2,0.7c-0.2,0.4-0.4,0.8-0.8,1.1c-0.5,0.6-0.9,1-1.1,1.2h1.3c0.2,0,0.4,0,0.5,0
			c0.1-0.1,0.2-0.1,0.3-0.2c0.1-0.1,0.1-0.1,0.3-0.2h0.1l-0.4,0.9H179v-0.1c0.8-0.7,1.4-1.3,1.7-1.8c0.3-0.5,0.5-0.9,0.5-1.3
			c0-0.3-0.1-0.5-0.2-0.7c-0.2-0.2-0.4-0.3-0.7-0.3c-0.2,0-0.4,0.1-0.6,0.2c-0.2,0.1-0.3,0.3-0.4,0.5h-0.1c0-0.4,0.2-0.7,0.4-0.9
			s0.5-0.4,0.9-0.4S181.1,279.6,181.4,279.9z M171.2,290.6c0,0.1-0.1,0.3-0.1,0.5v3.9H171l-3.1-3.8v2.9c0,0.3,0,0.5,0.1,0.5
			c0.1,0.1,0.2,0.1,0.4,0.1h0.1v0.2H167v-0.2h0.2c0.2,0,0.3,0,0.4-0.1c0-0.1,0-0.3,0-0.5v-3.2c-0.1-0.1-0.2-0.2-0.3-0.3
			c-0.1-0.1-0.2-0.1-0.3-0.1c-0.1,0-0.2,0-0.3,0v-0.1h1.3l2.9,3.4v-2.6c0-0.3,0-0.5-0.1-0.6c-0.1-0.1-0.2-0.1-0.4-0.1h-0.2v-0.1h1.6
			v0.1h-0.2C171.4,290.5,171.3,290.5,171.2,290.6z M163.3,293.1h1.6l-0.8-1.9L163.3,293.1z M177.3,290.5h-0.1v-0.1h3.6l0,0.9h-0.1
			c0-0.2-0.1-0.4-0.1-0.5c-0.1-0.1-0.2-0.1-0.3-0.2c-0.1,0-0.3-0.1-0.5-0.1h-1.3v1.8h1c0.2,0,0.4,0,0.5-0.1c0.1-0.1,0.2-0.2,0.2-0.5
			h0.1v1.5h-0.1c0-0.2-0.1-0.3-0.2-0.4c0-0.1-0.1-0.1-0.1-0.2c-0.1,0-0.2-0.1-0.4-0.1h-1v1.6c0,0.2,0,0.3,0,0.3c0,0,0,0.1,0,0.1
			c0,0,0.1,0.1,0.3,0.1h0.8c0.3,0,0.5,0,0.6-0.1c0.1,0,0.2-0.1,0.3-0.3c0.1-0.1,0.2-0.4,0.4-0.6h0.1l-0.4,1.2h-3.6v-0.2h0.1
			c0.1,0,0.3,0,0.4-0.1c0.1,0,0.1,0,0.1-0.1c0-0.1,0-0.3,0-0.5v-3c0-0.3,0-0.5-0.1-0.6C177.6,290.5,177.5,290.5,177.3,290.5z
			 M175.6,290.5c0.1,0,0.2,0,0.3,0c0,0,0.1,0,0.1,0c0,0,0-0.1,0-0.3h0.2l0.1,1.4h-0.1c-0.1-0.4-0.3-0.6-0.5-0.8
			c-0.3-0.3-0.6-0.4-1.1-0.4c-0.6,0-1,0.2-1.4,0.7c-0.2,0.4-0.3,0.9-0.3,1.4c0,0.4,0.1,0.8,0.3,1.2c0.1,0.4,0.4,0.6,0.7,0.8
			c0.3,0.2,0.5,0.3,0.8,0.3c0.2,0,0.4,0,0.5,0c0.1,0,0.3-0.1,0.5-0.2v-1.3c0-0.2,0-0.4-0.1-0.4c0-0.1-0.1-0.2-0.2-0.2
			c-0.1,0-0.2-0.1-0.4-0.1v-0.1h1.8v0.1h-0.1c-0.2,0-0.3,0.1-0.4,0.2c0,0.1,0,0.3,0,0.5v1.4c-0.3,0.1-0.5,0.2-0.8,0.3
			c-0.3,0.1-0.6,0.1-0.9,0.1c-0.9,0-1.6-0.3-2.1-0.8c-0.3-0.4-0.5-0.9-0.5-1.5c0-0.4,0.1-0.8,0.3-1.2c0.2-0.4,0.5-0.8,0.9-1
			c0.3-0.2,0.7-0.3,1.2-0.3c0.2,0,0.4,0,0.4,0C175.2,290.2,175.4,290.3,175.6,290.5z M195.6,281.1c0.1,0.1,0.2,0.2,0.3,0.4
			c0.1,0.2,0.1,0.4,0.1,0.6v1.4c0,0.2,0,0.3,0,0.4c0,0,0.1,0.1,0.1,0.1c0.1,0,0.2,0.1,0.3,0.1c0.2,0,0.3-0.1,0.3-0.1
			c0.1-0.1,0.3-0.3,0.4-0.7l1.6-3.8h0.1l1.6,3.9c0.1,0.3,0.3,0.5,0.4,0.5c0.1,0.1,0.2,0.2,0.4,0.2v0.1h-1.8v-0.1
			c0.2,0,0.3-0.1,0.4-0.1c0.1,0,0.1-0.1,0.1-0.2c0-0.1,0-0.3-0.1-0.4l-0.3-0.7h-1.8l-0.3,0.8c-0.1,0.2-0.1,0.3-0.1,0.4
			c0,0.1,0,0.1,0.1,0.2c0,0.1,0.2,0.1,0.4,0.1v0.1h-3v-0.1h0.1c0.2,0,0.3,0,0.3-0.1c0-0.1,0.1-0.1,0.1-0.2c0,0,0-0.1,0-0.4v-1.4
			c0-0.3,0-0.4-0.1-0.5c-0.1-0.2-0.2-0.3-0.4-0.3c-0.1,0-0.3,0-0.4,0.1c-0.1,0.1-0.3,0.2-0.5,0.3v1.7c0,0.2,0,0.3,0.1,0.4
			c0,0,0,0.1,0.1,0.1c0.1,0,0.2,0.1,0.4,0.1v0.1H193v-0.1c0.2,0,0.3,0,0.4-0.1c0.1-0.1,0.1-0.1,0.1-0.2c0,0,0-0.1,0-0.4v-1.4
			c0-0.3,0-0.4-0.1-0.5c-0.1-0.1-0.3-0.2-0.5-0.2c-0.1,0-0.2,0-0.4,0.1c-0.2,0.1-0.3,0.3-0.4,0.3v1.7c0,0.2,0,0.3,0,0.4
			c0,0,0.1,0.1,0.2,0.1c0,0,0.1,0.1,0.3,0.1v0.1h-1.5v-0.1c0.2,0,0.3,0,0.3-0.1c0-0.1,0.1-0.1,0.1-0.1c0-0.1,0.1-0.2,0.1-0.4v-1.2
			c0-0.3,0-0.5-0.1-0.6c0-0.1,0-0.2,0-0.2c0,0-0.1,0-0.1,0c-0.1,0-0.2,0-0.3,0l0-0.1l0.9-0.4h0.2v0.6c0.2-0.2,0.4-0.4,0.4-0.4
			c0.1-0.1,0.2-0.2,0.3-0.2c0.1,0,0.3,0,0.4,0c0.2,0,0.4,0,0.5,0.1c0.1,0.1,0.2,0.3,0.3,0.5c0.2-0.3,0.4-0.4,0.6-0.5
			c0.2-0.1,0.4-0.1,0.6-0.1C195.3,281,195.5,281,195.6,281.1z M199.5,282.4l-0.8-1.9l-0.9,1.9H199.5z M186.9,279.7
			c0.2-0.1,0.5-0.2,0.6-0.2c0.3,0,0.7,0.2,1,0.5c0.3,0.5,0.5,1.1,0.5,1.9c0,0.5-0.1,1-0.3,1.4c-0.1,0.4-0.3,0.7-0.5,0.8
			c-0.3,0.1-0.5,0.2-0.7,0.2c-0.5,0-0.8-0.3-1.1-0.8c-0.3-0.4-0.5-1-0.5-1.5c0-0.6,0.1-1,0.3-1.4
			C186.5,280.2,186.7,279.9,186.9,279.7z M186.8,280.8c-0.1,0.4-0.1,0.8-0.1,1.2c0,0.7,0.1,1.2,0.3,1.5c0.1,0.4,0.3,0.6,0.6,0.6
			c0.1,0,0.2-0.1,0.4-0.2c0.1-0.1,0.3-0.3,0.4-0.5c0.1-0.4,0.1-1,0.1-1.6c0-0.5-0.1-1-0.1-1.4c-0.1-0.2-0.2-0.4-0.3-0.5
			s-0.2-0.1-0.4-0.1c-0.2,0-0.3,0.1-0.4,0.2C187,280.1,186.9,280.4,186.8,280.8z M183.4,279.7c0.2-0.1,0.5-0.2,0.6-0.2
			c0.3,0,0.7,0.2,1,0.5c0.3,0.5,0.5,1.1,0.5,1.9c0,0.5-0.1,1-0.3,1.4c-0.1,0.4-0.3,0.7-0.5,0.8c-0.3,0.1-0.5,0.2-0.7,0.2
			c-0.5,0-0.8-0.3-1.1-0.8c-0.3-0.4-0.5-1-0.5-1.5c0-0.6,0.1-1,0.3-1.4C183,280.2,183.2,279.9,183.4,279.7z M183.6,279.9
			c-0.2,0.2-0.3,0.5-0.4,0.9c-0.1,0.4-0.1,0.8-0.1,1.2c0,0.7,0.1,1.2,0.3,1.5c0.1,0.4,0.3,0.6,0.6,0.6c0.1,0,0.2-0.1,0.4-0.2
			c0.1-0.1,0.3-0.3,0.4-0.5c0.1-0.4,0.1-1,0.1-1.6c0-0.5-0.1-1-0.1-1.4c-0.1-0.2-0.2-0.4-0.3-0.5s-0.2-0.1-0.4-0.1
			C183.9,279.7,183.8,279.8,183.6,279.9z"/>
	</g>
	<g>
		<path fill-rule="evenodd" clip-rule="evenodd" d="M225.1,268.5c-0.2,0-0.3,0-0.4,0c-0.1,0.1-0.1,0.2-0.2,0.3c0,0.1,0,0.2,0,0.5
			v3.9h-0.1l-3.1-3.9v3c0,0.3,0.1,0.4,0.2,0.5c0.1,0.1,0.2,0.2,0.4,0.2h0.1v0.1h-1.7v-0.1c0.2,0,0.4-0.1,0.6-0.2
			c0.1-0.1,0.1-0.2,0.1-0.5v-3.3l-0.1-0.1c-0.1-0.1-0.2-0.2-0.3-0.3c-0.1,0-0.2,0-0.3,0v-0.1h1.7l2.3,2.9v-2c0-0.3,0-0.5-0.1-0.5
			c-0.1-0.1-0.3-0.2-0.5-0.2v-0.1h1.5V268.5z M216.3,270.8c0,0.8,0.1,1.4,0.4,1.8c0.2,0.2,0.5,0.4,0.8,0.4c0.2,0,0.4-0.1,0.6-0.2
			c0.2-0.1,0.4-0.3,0.4-0.6c0.1-0.3,0.2-0.8,0.2-1.3c0-0.6-0.1-1.1-0.2-1.4c-0.1-0.3-0.2-0.5-0.4-0.6c-0.2-0.1-0.4-0.2-0.6-0.2
			c-0.4,0-0.7,0.2-1,0.6C216.4,269.5,216.3,270,216.3,270.8z M217.5,268.3c0.7,0,1.3,0.2,1.8,0.7c0.5,0.4,0.7,1,0.7,1.6
			c0,0.6-0.2,1.1-0.5,1.6c-0.5,0.6-1.1,0.9-2,0.9c-0.8,0-1.4-0.3-1.9-0.9c-0.4-0.4-0.6-1-0.6-1.6c0-0.7,0.2-1.3,0.7-1.6
			C216.2,268.5,216.8,268.3,217.5,268.3z"/>
	</g>
	<g>
		
			<linearGradient id="SVGID_10_" gradientUnits="userSpaceOnUse" x1="213.0518" y1="-54.895" x2="542.5518" y2="-54.895" gradientTransform="matrix(8.316040e-002 0 0 8.316040e-002 137.4998 259.9998)">
			<stop  offset="0.1961" style="stop-color:#000000"/>
			<stop  offset="0.5059" style="stop-color:#837C7C"/>
			<stop  offset="0.8431" style="stop-color:#060606"/>
		</linearGradient>
		<path fill-rule="evenodd" clip-rule="evenodd" fill="url(#SVGID_10_)" d="M159.2,245.8c2.7-2.7,5.9-4,9.7-4c3.8,0,7,1.3,9.7,4
			c2.7,2.7,4,5.9,4,9.7c0,3.8-1.3,7-4,9.7c-2.7,2.7-5.9,4-9.7,4c-3.8,0-7-1.3-9.7-4c-2.7-2.7-4-5.9-4-9.7
			C155.2,251.7,156.6,248.4,159.2,245.8z"/>
		<path fill-rule="evenodd" clip-rule="evenodd" fill="#262525" d="M182.6,256.6c0,3.8-1.3,7-4,9.7s-5.9,4-9.7,4s-7-1.3-9.7-4
			s-4-5.9-4-9.7s1.3-7,4-9.7s5.9-4,9.7-4s7,1.3,9.7,4S182.6,252.9,182.6,256.6z"/>
		<g>
			<path fill-rule="evenodd" clip-rule="evenodd" d="M158.7,256.1c0.5-1,1.2-2,2-2.9c0,0,0,0,0,0c0,0,0,0,0,0
				c0.3,0.4,0.8,0.5,1.3,0.5c0.5,0,0.9-0.2,1.3-0.5c0.1-0.1,0.3-0.3,0.4-0.5c0.1-0.2,0.2-0.5,0.2-0.8c0,0,0,0,0-0.1
				c0-0.2,0-0.4-0.1-0.5c0-0.1-0.1-0.2-0.1-0.4c0,0,0-0.1-0.1-0.1c0,0,0,0,0,0c0,0,0,0,0,0c0,0,0,0,0.1,0c1-0.5,2-0.9,3.1-1.1
				c0,0,0,0,0.1,0c0,0.4,0.2,0.8,0.5,1.1c0.3,0.3,0.7,0.5,1.2,0.5h0.1c0.5,0,0.9-0.2,1.3-0.5c0.4-0.3,0.5-0.8,0.6-1.2c0,0,0,0,0,0
				c1.2,0.1,2.3,0.5,3.3,1c0,0,0.1,0.1,0.2,0.1c0,0,0,0,0,0c0,0,0,0,0,0.1c-0.1,0.2-0.2,0.4-0.2,0.6l0,0.2c0,0,0,0.1,0,0.1
				c0,0.4,0.2,0.8,0.5,1.1c0.3,0.4,0.8,0.5,1.3,0.5c0.5,0,0.9-0.2,1.3-0.5c0,0,0,0,0,0c0,0,0,0,0.1,0.1c0,0,0,0,0,0
				c0.1,0.1,0.2,0.2,0.3,0.3c0.6,0.7,1.1,1.4,1.5,2.1c0,0,0,0.1,0,0.1c0,0,0,0,0,0c-0.2,0.1-0.3,0.2-0.5,0.3
				c-0.4,0.4-0.6,0.8-0.6,1.3c0,0.1,0,0.1,0,0.2c0,0.4,0.2,0.8,0.5,1.1c0.3,0.4,0.8,0.5,1.3,0.5c0.1,0,0.2,0,0.3,0c0,0,0,0,0,0
				c0,0,0,0,0,0.1c0,0,0,0.1,0,0.1c0,0.5,0.1,1,0.1,1.6c0,0.5-0.1,0.9-0.1,1.3c0,0,0,0.1,0,0.1c0,0,0,0,0,0c-0.1,0-0.3,0-0.4,0
				c-0.5,0-0.9,0.2-1.3,0.5c-0.4,0.4-0.6,0.8-0.6,1.3c0,0.1,0,0.1,0,0.2c0,0.4,0.2,0.7,0.4,1c0,0,0,0.1,0.1,0.1
				c0.2,0.2,0.4,0.3,0.7,0.4c-0.5,0.9-1.1,1.7-1.8,2.5c0,0-0.1-0.1-0.1-0.1c-0.3-0.4-0.8-0.5-1.3-0.5c-0.1,0-0.2,0-0.2,0
				c-0.4,0-0.8,0.2-1.1,0.5c-0.1,0.1-0.2,0.2-0.2,0.3c-0.2,0.3-0.3,0.6-0.3,1c0,0.1,0,0.1,0,0.2c0,0.2,0.1,0.4,0.2,0.6
				c0,0.1,0.1,0.2,0.2,0.3c-0.4,0.2-0.8,0.4-1.3,0.6c-0.6,0.2-1.2,0.4-1.8,0.5c0,0,0-0.1,0-0.1c0-0.4-0.2-0.8-0.5-1.1
				c-0.1-0.1-0.2-0.2-0.3-0.2c-0.3-0.2-0.6-0.3-1-0.3c-0.4,0-0.7,0.1-1,0.3c-0.1,0.1-0.2,0.1-0.3,0.2c-0.4,0.3-0.5,0.8-0.6,1.3
				c0,0,0,0,0,0c0,0,0,0,0,0.1c-0.9-0.1-1.7-0.3-2.5-0.5c-0.3-0.1-0.5-0.2-0.8-0.3c0.1-0.2,0.2-0.5,0.3-0.8c0,0,0-0.1,0-0.1
				c0,0,0,0,0-0.1c0-0.5-0.1-0.9-0.5-1.3c0,0-0.1-0.1-0.1-0.1c-0.2-0.2-0.5-0.4-0.8-0.4c-0.1,0-0.2,0-0.4,0c-0.5,0-0.9,0.2-1.3,0.5
				c-0.1,0.1-0.1,0.1-0.2,0.2c-0.1-0.1-0.2-0.2-0.3-0.3c-0.7-0.7-1.2-1.4-1.6-2.1c0.2-0.1,0.3-0.2,0.5-0.3c0.1-0.1,0.2-0.2,0.3-0.4
				c0.2-0.3,0.3-0.6,0.3-0.9c0,0,0,0,0-0.1c0-0.5-0.1-0.9-0.5-1.3c-0.3-0.4-0.8-0.5-1.3-0.5c-0.1,0-0.2,0-0.3,0c-0.1,0-0.1,0-0.2,0
				c0-0.2-0.1-0.4-0.1-0.7c-0.1-0.5-0.1-1.1-0.1-1.7c0-0.3,0-0.6,0.1-0.8c0-0.1,0-0.2,0-0.3c0,0,0,0,0,0c0.1,0,0.2,0,0.3,0
				c0.5,0,0.9-0.2,1.3-0.5c0.4-0.3,0.5-0.8,0.6-1.2c0,0,0,0,0-0.1c0-0.5-0.1-0.9-0.5-1.3C159.2,256.4,158.9,256.2,158.7,256.1z"/>
			
				<linearGradient id="SVGID_11_" gradientUnits="userSpaceOnUse" x1="-81.1196" y1="-135.7061" x2="-42.7946" y2="-137.1794" gradientTransform="matrix(8.377075e-002 0 -2.441406e-003 8.377075e-002 169.7003 260.0001)">
				<stop  offset="0" style="stop-color:#202020"/>
				<stop  offset="1" style="stop-color:#5D5D5D"/>
			</linearGradient>
			<path fill-rule="evenodd" clip-rule="evenodd" fill="url(#SVGID_11_)" d="M166.9,246.1l-0.1,3.7c-1.1,0.2-2.1,0.6-3.1,1.1
				c0,0,0,0-0.1,0l0.1-2.7l0-1.2c0.9-0.5,1.9-0.8,3-1C166.8,246.1,166.8,246.1,166.9,246.1L166.9,246.1z"/>
			
				<linearGradient id="SVGID_12_" gradientUnits="userSpaceOnUse" x1="-141.6538" y1="-84.6299" x2="-113.7797" y2="-86.8168" gradientTransform="matrix(8.377075e-002 0 -2.441406e-003 8.377075e-002 169.7003 260.0001)">
				<stop  offset="0" style="stop-color:#202020"/>
				<stop  offset="1" style="stop-color:#5D5D5D"/>
			</linearGradient>
			<path fill-rule="evenodd" clip-rule="evenodd" fill="url(#SVGID_12_)" d="M160.9,249.4l-0.2,3.9h0c-0.8,0.9-1.5,1.8-2,2.9
				c0,0,0,0-0.1,0l0.1-1.2l0.1-3.4c0,0,0,0,0,0c0.1-0.2,0.2-0.3,0.3-0.5C159.5,250.6,160,250.1,160.9,249.4L160.9,249.4z"/>
			
				<linearGradient id="SVGID_13_" gradientUnits="userSpaceOnUse" x1="-112.7754" y1="-106.6304" x2="-58.7254" y2="-106.6179" gradientTransform="matrix(8.377075e-002 0 -2.441406e-003 8.377075e-002 169.7003 260.0001)">
				<stop  offset="0" style="stop-color:#4D4444"/>
				<stop  offset="1" style="stop-color:#000000"/>
			</linearGradient>
			<path fill-rule="evenodd" clip-rule="evenodd" fill="url(#SVGID_13_)" d="M160.7,253.3l0.2-3.9c0.3,0.2,0.6,0.2,1,0.2
				c0.5,0,0.9-0.2,1.3-0.5c0.3-0.2,0.4-0.5,0.5-0.8l-0.1,2.7c0,0,0,0,0,0c0,0,0,0,0,0c0,0,0,0.1,0.1,0.1c0.1,0.1,0.1,0.2,0.1,0.4
				c0,0.2,0.1,0.3,0.1,0.5c0,0,0,0,0,0.1c0,0.3-0.1,0.5-0.2,0.8c-0.1,0.2-0.2,0.3-0.4,0.5c-0.4,0.4-0.8,0.5-1.3,0.5
				C161.5,253.8,161.1,253.7,160.7,253.3C160.7,253.3,160.7,253.3,160.7,253.3L160.7,253.3z"/>
			
				<linearGradient id="SVGID_14_" gradientUnits="userSpaceOnUse" x1="-166.9854" y1="-33.7778" x2="-111.5116" y2="-30.358" gradientTransform="matrix(8.377075e-002 0 -2.441406e-003 8.377075e-002 169.7003 260.0001)">
				<stop  offset="0" style="stop-color:#CBC9C9"/>
				<stop  offset="0.4706" style="stop-color:#4D4444"/>
				<stop  offset="1" style="stop-color:#000000"/>
			</linearGradient>
			<path fill-rule="evenodd" clip-rule="evenodd" fill="url(#SVGID_14_)" d="M158.7,255l-0.1,1.2c0,0,0,0,0.1,0
				c0.3,0.1,0.5,0.2,0.7,0.4c0.3,0.4,0.5,0.8,0.5,1.3c0,0,0,0,0,0.1c0,0.5-0.2,0.9-0.6,1.2c-0.4,0.4-0.8,0.5-1.3,0.5
				c-0.1,0-0.2,0-0.3,0l0.4-4.6L158.7,255z"/>
			
				<linearGradient id="SVGID_15_" gradientUnits="userSpaceOnUse" x1="-6.5498" y1="-138.6011" x2="36.749" y2="-138.6011" gradientTransform="matrix(8.377075e-002 0 -2.441406e-003 8.377075e-002 169.7003 260.0001)">
				<stop  offset="0" style="stop-color:#202020"/>
				<stop  offset="1" style="stop-color:#5D5D5D"/>
			</linearGradient>
			<path fill-rule="evenodd" clip-rule="evenodd" fill="url(#SVGID_15_)" d="M174,248.1l-0.1,2.7c-0.1,0-0.1-0.1-0.2-0.1
				c-1-0.5-2.1-0.8-3.3-1l0-3.7c0,0,0.1,0,0.1,0c1.2,0.1,2.4,0.5,3.4,1L174,248.1z"/>
			
				<linearGradient id="SVGID_16_" gradientUnits="userSpaceOnUse" x1="45.4502" y1="-110.0747" x2="85.1484" y2="-110.0747" gradientTransform="matrix(8.377075e-002 0 -2.441406e-003 8.377075e-002 169.7003 260.0001)">
				<stop  offset="0" style="stop-color:#666666"/>
				<stop  offset="1" style="stop-color:#282423"/>
			</linearGradient>
			<path fill-rule="evenodd" clip-rule="evenodd" fill="url(#SVGID_16_)" d="M174,250.8l0.1-2.7c0.1,0.3,0.2,0.6,0.4,0.8
				c0.3,0.4,0.8,0.5,1.3,0.5c0.3,0,0.8-0.1,1.4-0.3c0,0,0,0,0,0.1l-0.2,3.8c0,0,0,0-0.1-0.1c0,0,0,0,0,0c-0.4,0.4-0.8,0.5-1.3,0.5
				c-0.5,0-0.9-0.2-1.3-0.5c-0.3-0.3-0.5-0.7-0.5-1.1c0,0,0-0.1,0-0.1l0-0.2C173.8,251.3,173.9,251.1,174,250.8
				C174,250.8,174,250.8,174,250.8C174,250.8,174,250.8,174,250.8z"/>
			
				<linearGradient id="SVGID_17_" gradientUnits="userSpaceOnUse" x1="76.2998" y1="-91.6035" x2="98.4038" y2="-91.6035" gradientTransform="matrix(8.377075e-002 0 -2.441406e-003 8.377075e-002 169.7003 260.0001)">
				<stop  offset="0" style="stop-color:#202020"/>
				<stop  offset="1" style="stop-color:#5D5D5D"/>
			</linearGradient>
			<path fill-rule="evenodd" clip-rule="evenodd" fill="url(#SVGID_17_)" d="M178.7,254.5l0,1c-0.4-0.8-0.9-1.5-1.5-2.1
				c-0.1-0.1-0.2-0.2-0.3-0.3c0,0,0,0,0,0l0.2-3.8c0.4,0.4,0.6,0.7,0.7,0.7c0.4,0.4,0.7,0.8,1,1.3L178.7,254.5z"/>
			
				<linearGradient id="SVGID_18_" gradientUnits="userSpaceOnUse" x1="-46.2998" y1="-134.2759" x2="4.9002" y2="-134.2759" gradientTransform="matrix(8.377075e-002 0 -2.441406e-003 8.377075e-002 169.7003 260.0001)">
				<stop  offset="0.2863" style="stop-color:#706969"/>
				<stop  offset="1" style="stop-color:#211F1F"/>
			</linearGradient>
			<path fill-rule="evenodd" clip-rule="evenodd" fill="url(#SVGID_18_)" d="M166.8,249.9l0.1-3.7c0,0,0,0,0,0
				c0.1,0.4,0.2,0.7,0.4,0.9c0.3,0.4,0.8,0.5,1.3,0.5c0.5,0,0.9-0.2,1.3-0.5c0.3-0.3,0.5-0.7,0.6-1.1c0,0,0,0,0,0l0,3.7c0,0,0,0,0,0
				c0,0.5-0.2,0.9-0.6,1.2c-0.4,0.3-0.8,0.5-1.3,0.5h-0.1c-0.5,0-0.9-0.2-1.2-0.5C167,250.7,166.8,250.3,166.8,249.9
				C166.8,249.9,166.8,249.9,166.8,249.9z"/>
			
				<linearGradient id="SVGID_19_" gradientUnits="userSpaceOnUse" x1="97.4458" y1="-38.7104" x2="118.3708" y2="-38.3382" gradientTransform="matrix(8.377075e-002 0 -2.441406e-003 8.377075e-002 169.7003 260.0001)">
				<stop  offset="0" style="stop-color:#202020"/>
				<stop  offset="1" style="stop-color:#5D5D5D"/>
			</linearGradient>
			<path fill-rule="evenodd" clip-rule="evenodd" fill="url(#SVGID_19_)" d="M179.7,259c-0.1,0-0.2,0-0.3,0c-0.5,0-0.9-0.2-1.3-0.5
				c-0.3-0.3-0.5-0.7-0.5-1.1c0-0.1,0-0.1,0-0.2c0-0.5,0.2-0.9,0.6-1.3c0.1-0.1,0.3-0.3,0.5-0.3c0,0,0,0,0,0c0,0,0-0.1,0-0.1l0-1
				c0,0,0,0,0,0c0,0,0,0,0.1,0.1c0.3,0.3,0.6,0.4,0.9,0.5L179.7,259z"/>
		</g>
		<g>
			<g>
				<g>
					<linearGradient id="SVGID_20_" gradientUnits="userSpaceOnUse" x1="164.2568" y1="263.5054" x2="163.9986" y2="259.4559">
						<stop  offset="0" style="stop-color:#94867A"/>
						<stop  offset="1" style="stop-color:#FFFDFC"/>
					</linearGradient>
					<path fill-rule="evenodd" clip-rule="evenodd" fill="url(#SVGID_20_)" d="M160,260l8.4,1.3l-7.4,4c-0.7-1.2-1.1-2.5-1.1-4
						C159.9,260.9,159.9,260.4,160,260z"/>
					<linearGradient id="SVGID_21_" gradientUnits="userSpaceOnUse" x1="164.1001" y1="262.0254" x2="164.3937" y2="257.9749">
						<stop  offset="0" style="stop-color:#A69A90"/>
						<stop  offset="1" style="stop-color:#786759"/>
					</linearGradient>
					<path fill-rule="evenodd" clip-rule="evenodd" fill="url(#SVGID_21_)" d="M168.4,261.3L160,260c0.1-0.6,0.2-1.1,0.4-1.6
						c0.4-1,1.1-1.9,2-2.8c0.1-0.1,0.2-0.1,0.3-0.2L168.4,261.3L168.4,261.3z"/>
					<linearGradient id="SVGID_22_" gradientUnits="userSpaceOnUse" x1="165.8115" y1="264.4561" x2="169.0092" y2="266.8841">
						<stop  offset="0" style="stop-color:#94867A"/>
						<stop  offset="1" style="stop-color:#FFFFFF"/>
					</linearGradient>
					<path fill-rule="evenodd" clip-rule="evenodd" fill="url(#SVGID_22_)" d="M168.5,261.4l0.1,7.9h-0.1c-0.9,0-1.8-0.1-2.6-0.4
						c-1.1-0.3-2.1-0.8-3-1.5c0,0-0.1,0-0.1-0.1c-0.2-0.1-0.3-0.3-0.4-0.3c-0.5-0.4-0.9-0.8-1.3-1.3c-0.1-0.1-0.1-0.2-0.2-0.4
						L168.5,261.4L168.5,261.4L168.5,261.4z"/>
					<linearGradient id="SVGID_23_" gradientUnits="userSpaceOnUse" x1="175.0112" y1="263.7109" x2="172.0688" y2="258.9563">
						<stop  offset="0" style="stop-color:#FFFFFF"/>
						<stop  offset="1" style="stop-color:#937D76"/>
					</linearGradient>
					<path fill-rule="evenodd" clip-rule="evenodd" fill="url(#SVGID_23_)" d="M168.5,261.2l5.8-5.9c0.2,0.1,0.3,0.1,0.4,0.3
						c0.5,0.5,0.9,1.1,1.3,1.6c0.4,0.6,0.7,1.3,1,2L168.5,261.2L168.5,261.2z"/>
					<linearGradient id="SVGID_24_" gradientUnits="userSpaceOnUse" x1="167.5806" y1="256.5298" x2="172.833" y2="258.5985">
						<stop  offset="0" style="stop-color:#FFFFFF"/>
						<stop  offset="0.2157" style="stop-color:#EFECEB"/>
						<stop  offset="1" style="stop-color:#937D76"/>
					</linearGradient>
					<path fill-rule="evenodd" clip-rule="evenodd" fill="url(#SVGID_24_)" d="M168.5,261.2l-0.1-7.9h0.1c0.9,0,1.8,0.1,2.6,0.3
						c1.2,0.3,2.2,0.9,3.2,1.7L168.5,261.2z"/>
					<linearGradient id="SVGID_25_" gradientUnits="userSpaceOnUse" x1="164.4468" y1="259.0303" x2="169.9238" y2="255.4584">
						<stop  offset="0" style="stop-color:#756355"/>
						<stop  offset="1" style="stop-color:#F1EDEC"/>
					</linearGradient>
					<path fill-rule="evenodd" clip-rule="evenodd" fill="url(#SVGID_25_)" d="M168.4,253.4l0.1,7.9v0.1l-5.8-5.9
						c0.9-0.8,2-1.4,3.1-1.7C166.6,253.5,167.4,253.4,168.4,253.4L168.4,253.4z"/>
					<linearGradient id="SVGID_26_" gradientUnits="userSpaceOnUse" x1="173.8638" y1="263.687" x2="172.0864" y2="258.3628">
						<stop  offset="0" style="stop-color:#B1A3A3"/>
						<stop  offset="1" style="stop-color:#937D76"/>
					</linearGradient>
					<path fill-rule="evenodd" clip-rule="evenodd" fill="url(#SVGID_26_)" d="M176.4,264.9l-7.9-3.5v-0.1l8.5-2.1
						c0.2,0.7,0.3,1.4,0.3,2.1c0,1-0.2,1.9-0.5,2.7C176.6,264.3,176.5,264.6,176.4,264.9z"/>
					<linearGradient id="SVGID_27_" gradientUnits="userSpaceOnUse" x1="172.0054" y1="264.0884" x2="169.2339" y2="265.5452">
						<stop  offset="0" style="stop-color:#B1A3A3"/>
						<stop  offset="1" style="stop-color:#F1EDEC"/>
					</linearGradient>
					<path fill-rule="evenodd" clip-rule="evenodd" fill="url(#SVGID_27_)" d="M168.5,261.4l7.9,3.5c-0.2,0.2-0.3,0.5-0.5,0.8
						c-0.3,0.5-0.7,0.9-1.1,1.3c-0.1,0.1-0.2,0.2-0.4,0.3l0,0.1c-0.9,0.7-2,1.3-3.1,1.5c-0.8,0.2-1.6,0.4-2.4,0.4c0,0-0.1,0-0.1,0
						L168.5,261.4z"/>
				</g>
			</g>
			<g>
				
					<linearGradient id="SVGID_28_" gradientUnits="userSpaceOnUse" x1="295.1221" y1="91.0161" x2="303.1053" y2="91.0161" gradientTransform="matrix(0.7641 0.6451 -0.6608 0.7508 -1.094341e-004 6.783009e-005)">
					<stop  offset="0" style="stop-color:#FFFFFF;stop-opacity:7.843138e-003"/>
					<stop  offset="0.4039" style="stop-color:#FFFFFF"/>
					<stop  offset="0.5647" style="stop-color:#FFFFFF"/>
					<stop  offset="0.898" style="stop-color:#FFFFFF"/>
					<stop  offset="1" style="stop-color:#FFFFFF;stop-opacity:0"/>
				</linearGradient>
				<path fill-rule="evenodd" clip-rule="evenodd" fill="url(#SVGID_28_)" d="M161.6,266.2c-1.5-1.8-2.2-3.8-1.9-6
					c0.2-2.2,1.3-4,3.3-5.4c1.9-1.3,4-1.9,6.4-1.6c2.4,0.3,4.3,1.3,5.8,3.1c1.5,1.8,2.2,3.8,2,6c-0.3,2.2-1.4,3.9-3.3,5.3
					c-1.9,1.4-4.1,1.9-6.5,1.6S163.1,267.9,161.6,266.2z M160.1,260.3c-0.2,2.1,0.4,3.9,1.9,5.6c1.4,1.7,3.3,2.7,5.5,3
					c2.3,0.3,4.3-0.2,6.1-1.5c1.8-1.3,2.8-3,3.1-5.1c0.2-2-0.4-3.9-1.8-5.6c-1.5-1.7-3.3-2.7-5.5-2.9c-2.3-0.3-4.3,0.2-6.1,1.5
					C161.4,256.5,160.4,258.2,160.1,260.3z"/>
			</g>
		</g>
	</g>
	<g>
		<g>
			<g>
				
					<linearGradient id="SVGID_29_" gradientUnits="userSpaceOnUse" x1="233.5195" y1="-130.2188" x2="268.0205" y2="-130.2188" gradientTransform="matrix(-9.426703e-003 1 -1.0001 7.407789e-004 2.979301e-005 0)">
					<stop  offset="0" style="stop-color:#7E8892"/>
					<stop  offset="1" style="stop-color:#2B2E31"/>
				</linearGradient>
				<polygon fill-rule="evenodd" clip-rule="evenodd" fill="url(#SVGID_29_)" points="127.4,234.9 128.4,233.5 128.4,263.8 
					127.4,268 127.4,235 127.4,234.9 				"/>
				<linearGradient id="SVGID_30_" gradientUnits="userSpaceOnUse" x1="128.4253" y1="234.8652" x2="41.4262" y2="233.3851">
					<stop  offset="0" style="stop-color:#7E8892"/>
					<stop  offset="1" style="stop-color:#4D5054"/>
				</linearGradient>
				<polygon fill-rule="evenodd" clip-rule="evenodd" fill="url(#SVGID_30_)" points="128.4,233.5 127.4,234.9 85.7,234.9 
					81.7,234.9 78.9,234.9 70.1,234.9 66.1,234.9 41.4,234.9 43,233.4 43,233.4 70.1,233.4 78.9,233.4 81.7,233.4 85.7,233.4 
					128.5,233.4 				"/>
				<path fill-rule="evenodd" clip-rule="evenodd" fill="#5B656E" d="M41.4,234.9h24.8h4h8.8h2.8h4h41.6h0v0.1V268v0.1h0H85.7h-4
					h-2.8h-8.8h-4H41.4V234.9z M123.6,236.6H85.7h-4h-2.8h-8.8h-4H44.9v29.7h21.3h4h8.8h2.8h4h37.9v-0.1L123.6,236.6L123.6,236.6z
					 M42.6,266.5l0.4-0.1h-0.4V266.5z"/>
				
					<linearGradient id="SVGID_31_" gradientUnits="userSpaceOnUse" x1="120.1729" y1="251.8926" x2="129.2979" y2="251.8926" gradientTransform="matrix(1 -3.592054e-003 3.592054e-003 1 2.449062e-004 -1.333263e-004)">
					<stop  offset="0" style="stop-color:#363D41"/>
					<stop  offset="1" style="stop-color:#59646A"/>
					<stop  offset="1" style="stop-color:#393939"/>
					<stop  offset="1" style="stop-color:#1A1A1A"/>
				</linearGradient>
				<polygon fill-rule="evenodd" clip-rule="evenodd" fill="url(#SVGID_31_)" points="119.3,238.6 123.6,236.6 123.6,236.6 
					123.6,266.3 119.3,264.1 119.3,263.6 119.3,251.1 119.3,249.5 119.3,247.4 119.3,242.3 119.3,242.2 119.3,239.5 119.3,238.8 
									"/>
				<polygon fill-rule="evenodd" clip-rule="evenodd" fill="#0E1014" points="119.3,238.6 119.3,238.8 118.3,239.1 85.7,239.1 
					81.7,239.1 78.9,239.1 70.1,239.1 66.1,239.1 50,239.1 50,263.6 49,264.1 49,263.6 49,251.1 49,249.5 49,247.4 49,242.3 
					49,242.2 49,239.5 49,239.1 49,238.6 50,238.6 66.1,238.6 70.1,238.6 78.9,238.6 81.7,238.6 85.7,238.6 118.3,238.6 				"/>
				<polygon fill-rule="evenodd" clip-rule="evenodd" fill="#1E212A" points="49,238.6 44.9,236.6 66.1,236.6 70.1,236.6 
					78.9,236.6 81.7,236.6 85.7,236.6 123.6,236.6 119.3,238.6 118.3,238.6 85.7,238.6 81.7,238.6 78.9,238.6 70.1,238.6 
					66.1,238.6 50,238.6 				"/>
				<polygon fill-rule="evenodd" clip-rule="evenodd" fill="#3E0404" points="118.3,239.1 118.3,263.6 85.7,263.6 81.7,263.6 
					78.9,263.6 70.1,263.6 66.1,263.6 50,263.6 50,239.1 66.1,239.1 70.1,239.1 78.9,239.1 81.7,239.1 85.7,239.1 				"/>
				<polygon fill-rule="evenodd" clip-rule="evenodd" fill="#323627" points="50,263.6 66.1,263.6 70.1,263.6 78.9,263.6 
					81.7,263.6 85.7,263.6 118.3,263.6 118.3,239.1 119.3,238.8 119.3,239.5 119.3,242.2 119.3,242.3 119.3,247.4 119.3,249.5 
					119.3,251.1 119.3,263.6 119.3,264.1 118.3,264.1 85.7,264.1 81.7,264.1 78.9,264.1 70.1,264.1 66.1,264.1 49,264.1 				"/>
				<polygon fill-rule="evenodd" clip-rule="evenodd" fill="#2B303C" points="44.9,266.4 49,264.1 66.1,264.1 70.1,264.1 
					78.9,264.1 81.7,264.1 85.7,264.1 118.3,264.1 119.3,264.1 123.6,266.3 123.6,266.4 85.7,266.4 81.7,266.4 78.9,266.4 
					70.1,266.4 66.1,266.4 				"/>
				
					<linearGradient id="SVGID_32_" gradientUnits="userSpaceOnUse" x1="-42.7749" y1="-251.5" x2="-38.7249" y2="-251.5" gradientTransform="matrix(-1 0 0 -1 0 0)">
					<stop  offset="0" style="stop-color:#7B838E"/>
					<stop  offset="1" style="stop-color:#535860"/>
					<stop  offset="1" style="stop-color:#1A1A1A"/>
					<stop  offset="1" style="stop-color:#7B838C"/>
				</linearGradient>
				<polygon fill-rule="evenodd" clip-rule="evenodd" fill="url(#SVGID_32_)" points="44.9,236.6 49,238.6 49,239.1 49,239.5 
					49,242.2 49,242.3 49,247.4 49,249.5 49,251.1 49,263.6 49,264.1 44.9,266.4 				"/>
				
					<linearGradient id="SVGID_33_" gradientUnits="userSpaceOnUse" x1="-43.6626" y1="-266.4004" x2="-32.0376" y2="-266.4004" gradientTransform="matrix(-1 0 0 -1 0 0)">
					<stop  offset="0" style="stop-color:#7B838E"/>
					<stop  offset="1" style="stop-color:#535860"/>
					<stop  offset="1" style="stop-color:#1A1A1A"/>
					<stop  offset="1" style="stop-color:#7B838C"/>
				</linearGradient>
				<polygon fill-rule="evenodd" clip-rule="evenodd" fill="url(#SVGID_33_)" points="42.6,266.5 42.6,266.4 43,266.4 				"/>
			</g>
		</g>
	</g>
	<g>
		<g>
			<polygon fill-rule="evenodd" clip-rule="evenodd" fill="#1C1C1C" points="243.2,148.5 236.3,209 231.4,209 238,148.5 
				238.1,148.5 			"/>
			<linearGradient id="SVGID_34_" gradientUnits="userSpaceOnUse" x1="233.4331" y1="208.9502" x2="233.4331" y2="218.0498">
				<stop  offset="0" style="stop-color:#1C1C1C"/>
				<stop  offset="0.4078" style="stop-color:#434040"/>
				<stop  offset="0.5725" style="stop-color:#646464"/>
				<stop  offset="0.7333" style="stop-color:#333333"/>
				<stop  offset="1" style="stop-color:#000000"/>
			</linearGradient>
			<path fill-rule="evenodd" clip-rule="evenodd" fill="url(#SVGID_34_)" d="M236.3,209l-0.3,2.1c-0.3,1.5-0.5,2.9-0.4,4.1v2.8h-4.9
				v-2.5v-0.3c-0.3-0.8-0.1-2.1,0.4-4.1l0.3-2.1H236.3z"/>
			<linearGradient id="SVGID_35_" gradientUnits="userSpaceOnUse" x1="230.8579" y1="224.9727" x2="246.7565" y2="227.1583">
				<stop  offset="0" style="stop-color:#5585B0"/>
				<stop  offset="1" style="stop-color:#314D66"/>
			</linearGradient>
			<path fill-rule="evenodd" clip-rule="evenodd" fill="url(#SVGID_35_)" d="M243.2,148.5V223l-7.6,80.9v-3.6v-0.1V218v-2.8
				c-0.1-1.2,0.1-2.6,0.4-4.1l0.3-2.1L243.2,148.5z"/>
			<polygon fill-rule="evenodd" clip-rule="evenodd" points="235.6,303.9 230.7,303.9 230.7,218 235.6,218 235.6,300.1 235.6,300.3 
							"/>
		</g>
	</g>
	<g>
		<g>
			<linearGradient id="SVGID_36_" gradientUnits="userSpaceOnUse" x1="233.8882" y1="181.3398" x2="239.6377" y2="181.9938">
				<stop  offset="0" style="stop-color:#000000"/>
				<stop  offset="0.6078" style="stop-color:#232323"/>
				<stop  offset="0.702" style="stop-color:#2E2C2C"/>
				<stop  offset="0.8118" style="stop-color:#333333"/>
				<stop  offset="1" style="stop-color:#000000"/>
			</linearGradient>
			<path fill-rule="evenodd" clip-rule="evenodd" fill="url(#SVGID_36_)" d="M235.6,214.9c0,0,0-0.1,0-0.1h-0.1
				c-2.2,0.5-3.9,0.5-4.9,0c0-0.1,0-0.1,0-0.1c-0.1-0.8,0.1-2,0.5-3.5v0l0.3-2.1l6.7-60.5h0.1h5.1l-6.9,60.5l-0.3,2.1v0L235.6,214.9
				z"/>
			<linearGradient id="SVGID_37_" gradientUnits="userSpaceOnUse" x1="230.625" y1="208.9502" x2="230.625" y2="218.0502">
				<stop  offset="0" style="stop-color:#1C1C1C"/>
				<stop  offset="0.4078" style="stop-color:#434040"/>
				<stop  offset="0.5725" style="stop-color:#646464"/>
				<stop  offset="0.7333" style="stop-color:#333333"/>
				<stop  offset="1" style="stop-color:#000000"/>
			</linearGradient>
			<path fill-rule="evenodd" clip-rule="evenodd" fill="url(#SVGID_37_)" d="M230.6,214.8c0-0.1,0-0.1,0-0.1
				C230.6,214.6,230.6,214.7,230.6,214.8L230.6,214.8z"/>
			<linearGradient id="SVGID_38_" gradientUnits="userSpaceOnUse" x1="230.6748" y1="259.2998" x2="235.6248" y2="259.2998">
				<stop  offset="0" style="stop-color:#000000"/>
				<stop  offset="0.6078" style="stop-color:#232323"/>
				<stop  offset="0.702" style="stop-color:#2E2C2C"/>
				<stop  offset="0.8118" style="stop-color:#333333"/>
				<stop  offset="1" style="stop-color:#000000"/>
			</linearGradient>
			<path fill-rule="evenodd" clip-rule="evenodd" fill="url(#SVGID_38_)" d="M230.6,214.8L230.6,214.8c1.1,0.5,2.7,0.5,4.9,0h0.1
				c0,0,0,0.1,0,0.1c0,0.1,0,0.2,0,0.4v2.8v82.1v0.1v3.6h-4.9V218v-2.5v-0.3C230.7,215,230.6,214.9,230.6,214.8z"/>
		</g>
	</g>
	<g>
		<g>
			
				<radialGradient id="SVGID_39_" cx="61.5" cy="287.75" r="10.225" fx="61.5401" fy="287.75" gradientTransform="matrix(1 0 0 1.1528 0 -43.9716)" gradientUnits="userSpaceOnUse">
				<stop  offset="7.843138e-003" style="stop-color:#000000;stop-opacity:0.498"/>
				<stop  offset="0.8078" style="stop-color:#000000;stop-opacity:0.498"/>
				<stop  offset="1" style="stop-color:#000000;stop-opacity:0"/>
			</radialGradient>
			<path fill-rule="evenodd" clip-rule="evenodd" fill="url(#SVGID_39_)" d="M52.5,281.4c2.5-2.4,5.5-3.6,9.1-3.6
				c3.6,0,6.6,1.2,9.1,3.6c2.5,2.6,3.8,5.6,3.8,9.1c0,3.6-1.3,6.6-3.8,9.1c-2.5,2.5-5.5,3.8-9.1,3.8c-3.6,0-6.6-1.3-9.1-3.8
				c-2.5-2.5-3.8-5.5-3.8-9.1C48.7,287,50,284,52.5,281.4z"/>
		</g>
		<g>
			<g>
				<linearGradient id="SVGID_40_" gradientUnits="userSpaceOnUse" x1="53.8794" y1="280.3862" x2="69.4518" y2="285.0948">
					<stop  offset="0" style="stop-color:#6D6C69"/>
					<stop  offset="0.2863" style="stop-color:#B6AFA5"/>
					<stop  offset="0.7098" style="stop-color:#B6AFA5"/>
					<stop  offset="1" style="stop-color:#7E7B78"/>
				</linearGradient>
				<path fill-rule="evenodd" clip-rule="evenodd" fill="url(#SVGID_40_)" d="M53.5,283.7c0.4-1.3,1-2.5,2-3.5
					c1.6-1.6,3.6-2.5,6-2.5c2.2,0,4.2,0.8,5.8,2.5s2.5,3.6,2.5,5.9c0,1-0.1,1.9-0.5,2.8c0,0.1-0.1,0.1-0.1,0.3
					c-0.1,0.3-0.3,0.6-0.5,0.9c0.2-0.8,0.4-1.6,0.4-2.4c0-2.3-0.8-4.3-2.5-5.9c-0.8-0.8-1.6-1.4-2.5-1.8c-0.7-0.3-1.5-0.5-2.4-0.6
					c-0.3,0-0.6,0-0.9,0c-2.3,0-4.3,0.8-5.9,2.4C54.3,282.4,53.9,283,53.5,283.7z"/>
				<linearGradient id="SVGID_41_" gradientUnits="userSpaceOnUse" x1="53.0151" y1="284.7637" x2="68.5651" y2="290.5887">
					<stop  offset="0" style="stop-color:#191918"/>
					<stop  offset="0.3608" style="stop-color:#7A7366"/>
					<stop  offset="0.4471" style="stop-color:#F5F2D3"/>
					<stop  offset="0.6235" style="stop-color:#ECE9CB"/>
					<stop  offset="0.702" style="stop-color:#80796A"/>
					<stop  offset="0.8078" style="stop-color:#5E564C"/>
					<stop  offset="1" style="stop-color:#3D342F"/>
				</linearGradient>
				<path fill-rule="evenodd" clip-rule="evenodd" fill="url(#SVGID_41_)" d="M68.8,290.1c-0.4,1.3-1.1,2.4-2.1,3.4
					c-1.6,1.6-3.6,2.5-5.9,2.5c-1.4,0-2.7-0.3-3.8-0.9c-0.4-0.2-0.8-0.5-1.2-0.8c-0.3-0.2-0.6-0.5-0.9-0.8c-1.6-1.6-2.4-3.5-2.4-5.8
					c0-0.9,0.1-1.8,0.4-2.7l0.6-1.2c0,0,0-0.1,0-0.1c0.4-0.7,0.8-1.3,1.4-1.9c1.6-1.6,3.6-2.4,5.9-2.4c0.3,0,0.6,0,0.9,0
					c0.9,0.1,1.7,0.3,2.4,0.6c0.9,0.4,1.8,1,2.5,1.8c1.6,1.6,2.5,3.6,2.5,5.9C69.1,288.6,69,289.4,68.8,290.1z"/>
			</g>
		</g>
		<g>
			<g>
				<linearGradient id="SVGID_42_" gradientUnits="userSpaceOnUse" x1="61.0039" y1="279.3027" x2="59.6284" y2="294.4337">
					<stop  offset="0" style="stop-color:#F4F3EF"/>
					<stop  offset="1" style="stop-color:#746E6D"/>
				</linearGradient>
				<path fill-rule="evenodd" clip-rule="evenodd" fill="url(#SVGID_42_)" d="M67.5,291.9c-0.1,0-0.1,0.1-0.1,0.1
					c-0.3,1.3-1,2.4-2,3.4c-1.5,1.5-3.3,2.2-5.3,2.2c-2.2,0-4-0.7-5.5-2.2s-2.2-3.3-2.2-5.4c0-1.3,0.3-2.5,0.8-3.5
					c0-0.1,0.1-0.2,0.2-0.3c0.3-0.6,0.7-1.1,1.2-1.6c1.1-1.1,2.4-1.8,3.9-2.1c0.5-0.1,1-0.1,1.6-0.1c0.3,0,0.5,0,0.8,0
					c0.8,0.1,1.5,0.3,2.3,0.6c0.9,0.3,1.6,0.9,2.3,1.6c1.5,1.5,2.2,3.3,2.2,5.4C67.6,290.6,67.5,291.3,67.5,291.9z M60.1,283.1
					c-0.6,0-1.3,0.1-1.9,0.2c-1.2,0.3-2.2,0.9-3.1,1.8c-0.5,0.5-0.8,1-1.1,1.5c-0.6,1-0.9,2.2-0.9,3.4c0,1.9,0.6,3.6,2,5
					c1.4,1.3,3,2,5,2c1.9,0,3.5-0.7,4.9-2c0.9-0.9,1.5-1.9,1.8-3.1c0.1-0.6,0.2-1.2,0.2-1.9c0-1.9-0.7-3.5-2-4.9
					c-0.7-0.7-1.4-1.2-2.3-1.5c-0.7-0.3-1.4-0.4-2.2-0.5C60.4,283.1,60.2,283.1,60.1,283.1z"/>
				<path fill-rule="evenodd" clip-rule="evenodd" fill="#414141" d="M60.1,283.1c0.1,0,0.3,0,0.4,0c0.8,0,1.5,0.2,2.2,0.5
					c0.8,0.4,1.6,0.9,2.3,1.5c1.3,1.4,2,3,2,4.9c0,0.7-0.1,1.3-0.2,1.9c-0.3,1.2-0.9,2.2-1.8,3.1c-1.4,1.3-3,2-4.9,2
					c-2,0-3.6-0.7-5-2c-1.3-1.4-2-3-2-5c0-1.3,0.3-2.4,0.9-3.4c0.2-0.5,0.6-1,1.1-1.5c0.9-0.9,2-1.5,3.1-1.8
					C58.9,283.2,59.5,283.1,60.1,283.1z"/>
				<linearGradient id="SVGID_43_" gradientUnits="userSpaceOnUse" x1="54.0903" y1="282.7627" x2="68.2633" y2="287.4689">
					<stop  offset="0" style="stop-color:#383635"/>
					<stop  offset="0.1569" style="stop-color:#5B5752"/>
					<stop  offset="0.2588" style="stop-color:#A89D92"/>
					<stop  offset="0.3098" style="stop-color:#A19295"/>
					<stop  offset="0.4863" style="stop-color:#BAAFB0"/>
					<stop  offset="0.5373" style="stop-color:#F4F3EF"/>
					<stop  offset="0.7098" style="stop-color:#F4F3EF"/>
					<stop  offset="0.8" style="stop-color:#6F7178"/>
					<stop  offset="1" style="stop-color:#323642"/>
				</linearGradient>
				<path fill-rule="evenodd" clip-rule="evenodd" fill="url(#SVGID_43_)" d="M53.3,286.5c0-0.1,0-0.2,0.1-0.2
					c0.3-1.2,1-2.4,1.9-3.4c1.1-1,2.4-1.7,3.8-1.9c0.5-0.2,1-0.3,1.5-0.3c0.3,0,0.5,0,0.8,0c0.9,0.1,1.8,0.3,2.6,0.7
					c0.7,0.4,1.4,0.9,2,1.4c1.5,1.5,2.2,3.3,2.2,5.5c0,1.3-0.3,2.4-0.8,3.5c0.1-0.6,0.1-1.2,0.1-1.9c0-2.1-0.7-3.9-2.2-5.4
					c-0.7-0.7-1.4-1.2-2.3-1.6c-0.7-0.4-1.5-0.6-2.3-0.6c-0.2,0-0.5,0-0.8,0c-0.6,0-1.1,0-1.6,0.1c-1.5,0.3-2.8,1-3.9,2.1
					c-0.5,0.5-0.9,1-1.2,1.6C53.4,286.3,53.3,286.4,53.3,286.5z"/>
			</g>
		</g>
		<g>
			<g>
				<linearGradient id="SVGID_44_" gradientUnits="userSpaceOnUse" x1="52.6714" y1="286.7373" x2="66.4748" y2="292.3289">
					<stop  offset="0" style="stop-color:#171717"/>
					<stop  offset="0.251" style="stop-color:#808375"/>
					<stop  offset="0.4627" style="stop-color:#B1B4A3"/>
					<stop  offset="0.5647" style="stop-color:#FFFFFF"/>
					<stop  offset="0.651" style="stop-color:#C4C6BE"/>
					<stop  offset="0.8392" style="stop-color:#7B7E6E"/>
					<stop  offset="1" style="stop-color:#272727"/>
					<stop  offset="1" style="stop-color:#746E6D"/>
					<stop  offset="1" style="stop-color:#746E6D"/>
				</linearGradient>
				<path fill-rule="evenodd" clip-rule="evenodd" fill="url(#SVGID_44_)" d="M63.9,298.2c0.2-0.7,0.3-1.3,0.3-1.8
					c0-1.2-0.3-2.3-1-3.4c-0.3-0.5-0.6-0.9-1-1.4c-1.3-1.3-2.9-2-4.8-2c-0.5,0-1.1,0.1-1.7,0.2c-1.1,0.3-2.1,0.9-3,1.8
					c-0.4,0.4-0.8,0.9-1.1,1.4l2.1-5.1c0-0.1,0.1-0.2,0.1-0.3l0.1-0.1c0-0.1,0-0.1,0-0.2c0.1-0.2,0.2-0.5,0.4-0.7
					c0.3-0.5,0.7-1,1.1-1.4c1.3-1.3,2.9-1.9,4.6-1.9c1.9,0,3.5,0.6,4.8,1.9c1.3,1.3,2,2.9,2,4.8c0,0.6-0.1,1.2-0.3,1.8
					c0,0.1-0.1,0.2-0.1,0.3c-0.1,0.2-0.2,0.5-0.3,0.8L63.9,298.2z"/>
				<linearGradient id="SVGID_45_" gradientUnits="userSpaceOnUse" x1="59.3525" y1="288.4844" x2="56.122" y2="301.5192">
					<stop  offset="0" style="stop-color:#A3918D"/>
					<stop  offset="0.4549" style="stop-color:#6E605D"/>
					<stop  offset="1" style="stop-color:#6E605D"/>
					<stop  offset="1" style="stop-color:#746E6D"/>
					<stop  offset="1" style="stop-color:#746E6D"/>
				</linearGradient>
				<path fill-rule="evenodd" clip-rule="evenodd" fill="url(#SVGID_45_)" d="M51.5,293c0.3-0.5,0.6-1,1.1-1.4c1-0.9,2-1.5,3-1.8
					c0.6-0.1,1.2-0.2,1.7-0.2c1.9,0,3.4,0.6,4.8,2c0.4,0.4,0.8,0.9,1,1.4c0.6,1.1,1,2.3,1,3.4c0,0.5-0.1,1.1-0.3,1.8
					c-0.2,0.5-0.3,0.9-0.5,1.3c-0.4,0.7-0.9,1.2-1.3,1.5c-1.3,1.3-2.9,2-4.8,2c-1.8,0-3.4-0.7-4.8-2c-1.3-1.2-1.9-2.8-1.9-4.6
					c0-0.7,0.1-1.5,0.3-2.2L51.5,293z"/>
			</g>
		</g>
		<g>
			<g>
				<linearGradient id="SVGID_46_" gradientUnits="userSpaceOnUse" x1="50.0625" y1="296.7251" x2="53.0375" y2="296.7251">
					<stop  offset="0" style="stop-color:#A7A49A"/>
					<stop  offset="1" style="stop-color:#5D5B56"/>
					<stop  offset="1" style="stop-color:#746E6D"/>
					<stop  offset="1" style="stop-color:#9A978D"/>
					<stop  offset="1" style="stop-color:#AEABA2"/>
				</linearGradient>
				<polygon fill-rule="evenodd" clip-rule="evenodd" fill="url(#SVGID_46_)" points="53,297.5 50,297.5 50.9,296 53,296 				"/>
				<polygon fill-rule="evenodd" clip-rule="evenodd" fill="#222223" points="50,297.5 53,297.5 53,299.5 50.1,299.5 				"/>
			</g>
		</g>
		<g>
			<g>
				<linearGradient id="SVGID_47_" gradientUnits="userSpaceOnUse" x1="52.396" y1="293.2837" x2="62.3441" y2="297.513">
					<stop  offset="0" style="stop-color:#585754"/>
					<stop  offset="0.3647" style="stop-color:#AEABA2"/>
					<stop  offset="0.5098" style="stop-color:#E0DAC9"/>
					<stop  offset="0.6235" style="stop-color:#AEABA2"/>
					<stop  offset="0.7843" style="stop-color:#AEABA2"/>
					<stop  offset="1" style="stop-color:#746E6D"/>
					<stop  offset="1" style="stop-color:#746E6D"/>
					<stop  offset="1" style="stop-color:#9A978D"/>
					<stop  offset="1" style="stop-color:#AEABA2"/>
				</linearGradient>
				<path fill-rule="evenodd" clip-rule="evenodd" fill="url(#SVGID_47_)" d="M61.2,300.9L61.2,300.9c0-0.2,0-0.4,0-0.5
					c0-0.1,0-0.3,0-0.5c0-0.1,0-0.2,0-0.3c0-1.4-0.5-2.6-1.4-3.6c-1-1-2.2-1.5-3.6-1.5c-1.5,0-2.7,0.5-3.7,1.5
					c-0.1,0.1-0.2,0.2-0.3,0.4c-0.2,0.2-0.4,0.4-0.5,0.6c0,0.1-0.1,0.1-0.1,0.2l0.9-2.1c0.1-0.3,0.2-0.6,0.4-1.1
					c0.2-0.3,0.5-0.7,0.8-1c1-1,2.3-1.5,3.6-1.5c1.4,0,2.6,0.5,3.6,1.5c1,1,1.5,2.2,1.5,3.7c0,0.5-0.1,0.9-0.2,1.3
					c0,0.2-0.1,0.3-0.2,0.5l-0.1,0.1L61.2,300.9z"/>
				<linearGradient id="SVGID_48_" gradientUnits="userSpaceOnUse" x1="56.9497" y1="289.8418" x2="55.7991" y2="304.9597">
					<stop  offset="0" style="stop-color:#AEABA2"/>
					<stop  offset="1" style="stop-color:#565251"/>
					<stop  offset="1" style="stop-color:#746E6D"/>
					<stop  offset="1" style="stop-color:#9A978D"/>
					<stop  offset="1" style="stop-color:#AEABA2"/>
				</linearGradient>
				<path fill-rule="evenodd" clip-rule="evenodd" fill="url(#SVGID_48_)" d="M51.6,297.3c0.1-0.1,0.1-0.1,0.1-0.2
					c0.1-0.2,0.3-0.4,0.5-0.6c0.1-0.2,0.2-0.3,0.3-0.4c1-1,2.2-1.5,3.7-1.5c1.4,0,2.6,0.5,3.6,1.5c1,1,1.4,2.2,1.4,3.6
					c0,0.1,0,0.2,0,0.3c0,0.2,0,0.3,0,0.5c0,0.2,0,0.3,0,0.5v0v0.1c0,0.1-0.1,0.2-0.2,0.3c-0.1,0.3-0.2,0.6-0.4,1
					c-0.2,0.3-0.5,0.6-0.8,1c-1,1-2.2,1.5-3.6,1.5c-1.5,0-2.7-0.5-3.7-1.5c-1-1-1.4-2.2-1.4-3.6c0-0.5,0.1-1,0.3-1.5L51.6,297.3z"/>
			</g>
		</g>
		<g>
			<path fill-rule="evenodd" clip-rule="evenodd" fill="#27262C" d="M56,301.7c-0.6,0-1-0.2-1.4-0.7c-0.4-0.4-0.6-0.8-0.6-1.4
				c0-0.4,0.1-0.7,0.3-1c0.1-0.1,0.2-0.3,0.4-0.4c0.4-0.4,0.9-0.6,1.4-0.6c0.5,0,1,0.2,1.4,0.6c0.4,0.4,0.6,0.9,0.6,1.4
				c0,0.2,0,0.4,0,0.6c-0.1,0.3-0.3,0.6-0.5,0.8C57,301.5,56.6,301.7,56,301.7z"/>
		</g>
		<g>
			<g>
				<polygon fill-rule="evenodd" clip-rule="evenodd" fill="#A7A49A" points="63.6,296 63,297.5 61.3,297.5 62,296 				"/>
				<polygon fill-rule="evenodd" clip-rule="evenodd" fill="#7D7D80" points="63,297.5 63.6,296 63.6,297.5 63,299.5 				"/>
				<path fill-rule="evenodd" clip-rule="evenodd" fill="#313131" d="M63,297.5v2v0h-1.4c0-0.7-0.1-1.4-0.4-2H63z"/>
			</g>
		</g>
		<g>
			<radialGradient id="SVGID_49_" cx="61.9502" cy="283" r="8.0875" gradientUnits="userSpaceOnUse">
				<stop  offset="0" style="stop-color:#FFFFFF;stop-opacity:0.498"/>
				<stop  offset="0.4078" style="stop-color:#FFFFFF;stop-opacity:0.498"/>
				<stop  offset="1" style="stop-color:#FFFFFF;stop-opacity:0"/>
			</radialGradient>
			<path fill-rule="evenodd" clip-rule="evenodd" fill="url(#SVGID_49_)" d="M55.9,283.5c1.2-0.7,2.5-1.1,4.1-1.1
				c2.1,0,3.9,0.7,5.4,2.2c0.9,0.9,1.6,2,1.9,3.1c0.2,0.7,0.3,1.5,0.3,2.3v0c0,0.1,0,0.2,0,0.4c0,0.2,0,0.4,0,0.5
				c-0.2-0.1-0.4-0.3-0.4-0.5c0-0.1,0-0.3,0-0.4v0c0-0.8-0.1-1.5-0.4-2.3c-0.3-1.1-0.9-2-1.8-2.9c-1.4-1.4-3.1-2.1-5.1-2.1
				c-2,0-3.7,0.7-5.1,2.1c-0.3,0.2-0.6,0.5-0.9,0.7h-0.3c0.3-0.4,0.6-0.7,0.8-0.9c0.3-0.3,0.6-0.6,0.9-0.8
				C55.6,283.7,55.7,283.6,55.9,283.5z"/>
		</g>
		<g>
			<radialGradient id="SVGID_50_" cx="63" cy="280" r="9" gradientUnits="userSpaceOnUse">
				<stop  offset="0" style="stop-color:#FFFFFF;stop-opacity:0.498"/>
				<stop  offset="0.2196" style="stop-color:#FFFFFF;stop-opacity:0.498"/>
				<stop  offset="1" style="stop-color:#FFFFFF;stop-opacity:0"/>
			</radialGradient>
			<path fill-rule="evenodd" clip-rule="evenodd" fill="url(#SVGID_50_)" d="M60.7,279.7c-2.2,0-4.1,0.8-5.7,2.4
				c-0.2,0.2-0.4,0.4-0.6,0.6h-0.1c0-0.3,0.2-0.6,0.5-0.9c1.6-1.6,3.6-2.4,6-2.4c2.4,0,4.4,0.8,6,2.4c1.3,1.4,2.1,3,2.2,4.9h-0.2
				c-0.2-1.7-1-3.3-2.3-4.5C64.9,280.5,63,279.7,60.7,279.7z"/>
		</g>
		<g>
			<radialGradient id="SVGID_51_" cx="59.1499" cy="290.25" r="7.3" gradientUnits="userSpaceOnUse">
				<stop  offset="0" style="stop-color:#FFFFFF;stop-opacity:0.498"/>
				<stop  offset="0.4078" style="stop-color:#FFFFFF;stop-opacity:0.498"/>
				<stop  offset="1" style="stop-color:#FFFFFF;stop-opacity:0"/>
			</radialGradient>
			<path fill-rule="evenodd" clip-rule="evenodd" fill="url(#SVGID_51_)" d="M57.3,290.1c-1.8,0-3.4,0.6-4.6,1.9
				c-0.2,0.2-0.4,0.5-0.5,0.7h-0.5c0.2-0.3,0.5-0.6,0.8-0.9h0.1c1.3-1.3,2.9-2,4.8-2c1.9,0,3.6,0.7,5,2c1.1,1.1,1.6,2.4,1.8,3.9
				h-0.2c-0.2-1.4-0.8-2.6-1.8-3.6C60.6,290.7,59.1,290.1,57.3,290.1z"/>
		</g>
		<g>
			
				<radialGradient id="SVGID_52_" cx="57.5498" cy="295" r="5.375" gradientTransform="matrix(1 0 0 0.9744 0 7.5465)" gradientUnits="userSpaceOnUse">
				<stop  offset="0" style="stop-color:#FFFFFF;stop-opacity:0.498"/>
				<stop  offset="0.4078" style="stop-color:#FFFFFF;stop-opacity:0.498"/>
				<stop  offset="1" style="stop-color:#FFFFFF;stop-opacity:0"/>
			</radialGradient>
			<path fill-rule="evenodd" clip-rule="evenodd" fill="url(#SVGID_52_)" d="M56.1,294.6c1.4,0,2.6,0.5,3.7,1.4c1,1,1.5,2,1.4,2.9
				c0,0.4-0.1,0.8-0.2,1.1h0c0-0.1,0-0.1,0-0.2c0-0.1,0-0.2,0-0.2c0-1.3-0.5-2.4-1.4-3.3c-1-0.9-2.1-1.3-3.5-1.3
				c-1.3,0-2.4,0.4-3.3,1.3c-0.2,0.1-0.4,0.3-0.6,0.6h-0.4c0.2-0.3,0.4-0.6,0.6-0.9C53.5,295.1,54.7,294.6,56.1,294.6z"/>
		</g>
		<g>
			
				<radialGradient id="SVGID_53_" cx="55.7998" cy="301.5498" r="1.9024" gradientTransform="matrix(0.9793 0.2025 -9.915257e-002 0.4795 31.0553 145.6463)" gradientUnits="userSpaceOnUse">
				<stop  offset="0" style="stop-color:#FFFFFF"/>
				<stop  offset="0.1765" style="stop-color:#FFFFFF"/>
				<stop  offset="0.3059" style="stop-color:#FFFFFF;stop-opacity:0.4235"/>
				<stop  offset="0.4902" style="stop-color:#FFFFFF;stop-opacity:0.2314"/>
				<stop  offset="0.651" style="stop-color:#FFFFFF;stop-opacity:8.235294e-002"/>
				<stop  offset="1" style="stop-color:#FFFFFF;stop-opacity:0"/>
			</radialGradient>
			<path fill-rule="evenodd" clip-rule="evenodd" fill="url(#SVGID_53_)" d="M57,302.5c-0.4,0.1-0.9,0-1.4,0
				c-0.5-0.1-0.9-0.3-1.3-0.6c-0.3-0.2-0.4-0.5-0.4-0.8c0-0.2,0.3-0.4,0.6-0.5c0.4-0.1,0.9-0.1,1.4,0c0.5,0.1,0.9,0.3,1.3,0.6
				c0.3,0.3,0.4,0.5,0.4,0.8C57.7,302.2,57.4,302.4,57,302.5z"/>
		</g>
		<g>
			
				<radialGradient id="SVGID_54_" cx="57.2998" cy="294.7002" r="3.3342" gradientTransform="matrix(0.979 0.2037 -5.692443e-002 0.2735 17.9775 202.4136)" gradientUnits="userSpaceOnUse">
				<stop  offset="0" style="stop-color:#FFFFFF"/>
				<stop  offset="0.1765" style="stop-color:#FFFFFF"/>
				<stop  offset="0.3059" style="stop-color:#FFFFFF;stop-opacity:0.4235"/>
				<stop  offset="0.4902" style="stop-color:#FFFFFF;stop-opacity:0.2314"/>
				<stop  offset="0.651" style="stop-color:#FFFFFF;stop-opacity:8.235294e-002"/>
				<stop  offset="1" style="stop-color:#FFFFFF;stop-opacity:0"/>
			</radialGradient>
			<path fill-rule="evenodd" clip-rule="evenodd" fill="url(#SVGID_54_)" d="M59.5,295.9c-0.7,0.1-1.5,0-2.4-0.2
				c-0.9-0.2-1.6-0.4-2.3-0.8c-0.5-0.3-0.8-0.6-0.7-0.9c0-0.3,0.4-0.4,1-0.4c0.7,0,1.5,0,2.4,0.3c0.9,0.2,1.7,0.4,2.3,0.8
				c0.6,0.3,0.8,0.6,0.8,0.8C60.5,295.7,60.1,295.8,59.5,295.9z"/>
		</g>
		<g>
			
				<radialGradient id="SVGID_55_" cx="59.2998" cy="289.8501" r="4.8541" gradientTransform="matrix(0.9781 0.2081 -5.864439e-002 0.2757 18.2961 197.6097)" gradientUnits="userSpaceOnUse">
				<stop  offset="0" style="stop-color:#FFFFFF"/>
				<stop  offset="0.1765" style="stop-color:#FFFFFF"/>
				<stop  offset="0.3059" style="stop-color:#FFFFFF;stop-opacity:0.4235"/>
				<stop  offset="0.4902" style="stop-color:#FFFFFF;stop-opacity:0.2314"/>
				<stop  offset="0.651" style="stop-color:#FFFFFF;stop-opacity:8.235294e-002"/>
				<stop  offset="1" style="stop-color:#FFFFFF;stop-opacity:0"/>
			</radialGradient>
			<path fill-rule="evenodd" clip-rule="evenodd" fill="url(#SVGID_55_)" d="M59.6,288.5c1.3,0.3,2.4,0.7,3.2,1.1
				c0.9,0.5,1.3,0.9,1.3,1.2c-0.1,0.4-0.6,0.6-1.6,0.7c-1,0-2.1-0.1-3.4-0.3c-1.3-0.3-2.4-0.6-3.3-1.1c-0.8-0.5-1.2-0.9-1.1-1.3
				c0.1-0.3,0.6-0.5,1.5-0.6C57.2,288.2,58.3,288.3,59.6,288.5z"/>
		</g>
		<g>
			
				<radialGradient id="SVGID_56_" cx="62.7998" cy="279.6001" r="5.3936" gradientTransform="matrix(0.9775 0.211 -5.956869e-002 0.2759 18.0695 189.1961)" gradientUnits="userSpaceOnUse">
				<stop  offset="0" style="stop-color:#FFFFFF"/>
				<stop  offset="0.1765" style="stop-color:#FFFFFF"/>
				<stop  offset="0.3059" style="stop-color:#FFFFFF;stop-opacity:0.4235"/>
				<stop  offset="0.4902" style="stop-color:#FFFFFF;stop-opacity:0.2314"/>
				<stop  offset="0.651" style="stop-color:#FFFFFF;stop-opacity:8.235294e-002"/>
				<stop  offset="1" style="stop-color:#FFFFFF;stop-opacity:0"/>
			</radialGradient>
			<path fill-rule="evenodd" clip-rule="evenodd" fill="url(#SVGID_56_)" d="M66.8,279.4c1,0.5,1.4,0.9,1.3,1.4
				c-0.1,0.4-0.7,0.7-1.8,0.7c-1.1,0.1-2.3,0-3.8-0.3c-1.4-0.3-2.6-0.7-3.6-1.2c-0.9-0.5-1.3-1-1.2-1.4c0.1-0.4,0.6-0.6,1.7-0.7
				c1,0,2.3,0.1,3.7,0.4C64.5,278.5,65.8,278.9,66.8,279.4z"/>
		</g>
	</g>
	<g>
		<path fill-rule="evenodd" clip-rule="evenodd" d="M146.4,221.9c-0.1-0.2-0.2-0.3-0.4-0.3c-0.1,0-0.2-0.1-0.3-0.1v-0.1h1.9l2.6,3.4
			v-2.3c0-0.3,0-0.6-0.1-0.7c-0.1-0.2-0.4-0.3-0.6-0.3v-0.1h1.8v0.1c-0.2,0-0.4,0.1-0.4,0.1c-0.1,0.1-0.1,0.1-0.2,0.3
			c0,0.1,0,0.3,0,0.6v4.4h-0.1l-3.7-4.4v3.4c0,0.3,0.1,0.5,0.2,0.6c0.2,0.1,0.3,0.1,0.5,0.1h0.1v0.1h-1.9v-0.1
			c0.3,0,0.5-0.1,0.6-0.2c0.1-0.1,0.2-0.3,0.2-0.6V222L146.4,221.9z M143.2,221.8c-0.2,0-0.4,0-0.8,0h-0.6v2.1h0.1
			c0.4,0,0.6-0.1,0.8-0.3c0.1-0.2,0.2-0.6,0.3-1h0.1v2.9H143c0-0.3-0.1-0.6-0.2-0.8c-0.1-0.2-0.2-0.3-0.4-0.4
			c-0.1-0.1-0.3-0.1-0.6-0.1v1.5c0,0.3,0,0.5,0.1,0.5c0,0.1,0,0.1,0.1,0.2c0.1,0,0.2,0,0.4,0h0.4c0.5,0,0.8-0.1,1.1-0.4
			c0.3-0.2,0.5-0.6,0.7-1h0.1l-0.2,1.7h-4.7v-0.1h0.2c0.1,0,0.3,0,0.3-0.1c0.1,0,0.1-0.1,0.2-0.1c0-0.1,0-0.3,0-0.5v-3.6
			c0-0.2,0-0.4,0-0.4c0-0.1-0.1-0.1-0.1-0.2c-0.1-0.1-0.3-0.1-0.4-0.1h-0.2v-0.1h4.5v1.6h-0.1c-0.1-0.4-0.2-0.6-0.4-0.9
			C143.7,222,143.5,221.9,143.2,221.8z M157.2,221.4v1.5h-0.1c-0.1-0.3-0.2-0.6-0.3-0.7c-0.1-0.2-0.3-0.3-0.4-0.4
			c-0.1,0-0.3,0-0.5,0h-0.4v4.1c0,0.3,0,0.5,0,0.5c0,0.1,0.1,0.1,0.2,0.1c0.1,0.1,0.2,0.1,0.3,0.1h0.2v0.1h-2.9v-0.1h0.2
			c0.1,0,0.3,0,0.4-0.1c0.1,0,0.1-0.1,0.1-0.1c0-0.1,0-0.3,0-0.5v-4.1h-0.4c-0.4,0-0.6,0.1-0.8,0.2c-0.2,0.2-0.4,0.5-0.4,0.9h-0.2
			v-1.5H157.2z M162,222.6c0,0.1,0.1,0.3,0.3,0.4c0.1,0.1,0.4,0.3,0.9,0.4c0.6,0.3,1.1,0.6,1.3,1c0.2,0.3,0.3,0.6,0.3,0.9
			c0,0.4-0.2,0.8-0.5,1.2c-0.3,0.3-0.8,0.4-1.4,0.4c-0.1,0-0.3,0-0.5,0c-0.2,0-0.4-0.1-0.6-0.1c-0.1,0-0.2-0.1-0.3-0.1
			c-0.1,0-0.1,0-0.2,0.1c-0.1,0-0.2,0.1-0.2,0.2H161v-2h0.1c0.1,0.6,0.4,1,0.6,1.3c0.4,0.3,0.7,0.4,1.1,0.4c0.3,0,0.6-0.1,0.7-0.3
			c0.2-0.2,0.3-0.4,0.3-0.5c0-0.1,0-0.3-0.1-0.4c-0.1-0.1-0.2-0.2-0.3-0.4c-0.2-0.1-0.4-0.2-0.8-0.4c-0.5-0.2-0.9-0.4-1.1-0.6
			c-0.2-0.2-0.4-0.4-0.5-0.6c-0.1-0.2-0.1-0.5-0.1-0.7c0-0.4,0.1-0.8,0.4-1.1c0.4-0.3,0.8-0.5,1.3-0.5c0.1,0,0.3,0,0.5,0
			c0.1,0.1,0.3,0.1,0.5,0.2c0.2,0.1,0.3,0.1,0.4,0.1c0.1,0,0.2,0,0.2-0.1c0,0,0.1-0.1,0.1-0.3h0.1l0.1,1.8h-0.2
			c-0.1-0.5-0.3-0.8-0.5-1.1c-0.3-0.3-0.7-0.4-1-0.4c-0.3,0-0.5,0.1-0.7,0.3c-0.2,0.1-0.3,0.3-0.3,0.5
			C161.8,222.4,161.9,222.5,162,222.6z M122.5,221.6c-0.1,0-0.1,0.1-0.1,0.2c0,0.1,0,0.3,0,0.6v2.6c0,0.5,0,0.8,0.1,1
			c0,0.1,0.1,0.3,0.4,0.4c0.2,0.1,0.4,0.1,0.6,0.1s0.5,0,0.7-0.1c0.2-0.2,0.4-0.4,0.4-0.6c0.1-0.2,0.2-0.6,0.2-1.2v-2.3
			c0-0.2,0-0.4-0.1-0.5c-0.1-0.1-0.1-0.2-0.2-0.3c-0.1,0-0.3-0.1-0.5-0.1v-0.1h1.9v0.1h-0.2c-0.1,0-0.3,0-0.4,0.1
			c-0.1,0.1-0.1,0.2-0.1,0.3c0,0.1,0,0.2,0,0.5v2c0,0.7-0.1,1.1-0.2,1.4c-0.1,0.3-0.3,0.5-0.6,0.8c-0.3,0.2-0.7,0.4-1.3,0.4
			c-0.5,0-0.8,0-1.1-0.1c-0.4-0.2-0.6-0.4-0.8-0.6c-0.1-0.3-0.2-0.6-0.2-1.1v-2.6c0-0.3,0-0.5,0-0.6c0-0.1-0.1-0.2-0.2-0.2
			c-0.1,0-0.2-0.1-0.4-0.1v-0.1h2.8v0.1H123C122.8,221.5,122.6,221.6,122.5,221.6z M127.5,221.8c0-0.1-0.1-0.2-0.2-0.2
			c-0.1,0-0.3-0.1-0.5-0.1v-0.1h2.5c0.6,0,1.1,0.1,1.4,0.1c0.3,0.1,0.6,0.2,0.8,0.5c0.2,0.2,0.3,0.5,0.3,0.9c0,0.4-0.1,0.7-0.4,1
			c-0.2,0.1-0.5,0.3-0.8,0.4l1.4,1.9c0.1,0.2,0.3,0.4,0.4,0.4c0.1,0.1,0.2,0.1,0.4,0.1v0.1h-1.7l-1.8-2.4h-0.4v1.5
			c0,0.3,0,0.5,0.1,0.5c0,0.1,0.1,0.1,0.2,0.1c0.1,0.1,0.3,0.1,0.5,0.1v0.1h-2.8v-0.1c0.2,0,0.4,0,0.5-0.1c0.1,0,0.2-0.1,0.2-0.1
			c0-0.1,0-0.3,0-0.5v-3.5C127.5,222,127.5,221.9,127.5,221.8z M129.3,221.6h-0.5v2.4h0.3c0.4,0,0.6,0,0.8-0.1
			c0.2-0.1,0.4-0.2,0.4-0.4c0.1-0.2,0.2-0.4,0.2-0.7c0-0.4-0.1-0.8-0.3-0.9C130,221.8,129.7,221.6,129.3,221.6z M133.8,221.6
			c-0.1,0-0.2-0.1-0.5-0.1v-0.1h2.5c0.6,0,1.1,0.1,1.4,0.1c0.3,0.1,0.5,0.2,0.8,0.5c0.2,0.2,0.3,0.5,0.3,0.9c0,0.4-0.1,0.7-0.4,1
			c-0.2,0.1-0.5,0.3-0.9,0.4l1.4,1.9c0.2,0.2,0.3,0.4,0.4,0.4c0.1,0.1,0.3,0.1,0.3,0.1v0.1h-1.7l-1.8-2.4h-0.4v1.5
			c0,0.3,0,0.5,0.1,0.5c0,0.1,0.1,0.1,0.1,0.1c0.1,0.1,0.3,0.1,0.5,0.1v0.1h-2.8v-0.1c0.2,0,0.4,0,0.5-0.1c0.1,0,0.2-0.1,0.3-0.1
			c0-0.1,0-0.3,0-0.5v-3.5c0-0.3,0-0.5,0-0.6C134,221.7,133.9,221.6,133.8,221.6z M135.8,221.6h-0.5v2.4h0.3c0.4,0,0.7,0,0.8-0.1
			c0.2-0.1,0.4-0.2,0.5-0.4c0.1-0.2,0.1-0.4,0.1-0.7c0-0.4-0.1-0.8-0.3-0.9C136.5,221.8,136.2,221.6,135.8,221.6z M104.5,221.5
			c-0.2,0-0.4,0.1-0.5,0.1c-0.1,0.1-0.1,0.1-0.1,0.3c-0.1,0.1-0.1,0.3-0.1,0.6v4.4h-0.1l-3.6-4.4v3.4c0,0.3,0,0.5,0.1,0.6
			c0.2,0.1,0.4,0.1,0.6,0.1h0.1v0.1h-1.9v-0.1c0.3,0,0.5-0.1,0.6-0.2c0.1-0.1,0.2-0.3,0.2-0.6V222l-0.2-0.1
			c-0.1-0.2-0.2-0.3-0.3-0.3c-0.1,0-0.2-0.1-0.4-0.1v-0.1h1.9l2.7,3.4v-2.3c0-0.3-0.1-0.6-0.2-0.7c-0.1-0.2-0.3-0.3-0.6-0.3v-0.1
			h1.8V221.5z M106.9,221.8c-0.4,0-0.6,0.1-0.8,0.2c-0.2,0.2-0.4,0.5-0.4,0.9h-0.2v-1.5h4.9v1.5h-0.1c-0.1-0.3-0.2-0.6-0.3-0.7
			c-0.1-0.2-0.2-0.3-0.4-0.4c-0.1,0-0.3,0-0.5,0h-0.4v4.1c0,0.3,0,0.5,0,0.5c0,0.1,0.1,0.1,0.2,0.1c0.1,0.1,0.2,0.1,0.4,0.1h0.1v0.1
			h-2.9v-0.1h0.2c0.1,0,0.3,0,0.4-0.1c0.1,0,0.1-0.1,0.1-0.1c0-0.1,0-0.3,0-0.5v-4.1H106.9z M115.6,222.6c-0.1,0.4-0.2,0.9-0.2,1.4
			c0,0.5,0,1,0.1,1.4c0.1,0.4,0.3,0.7,0.6,0.9c0.3,0.2,0.6,0.3,1,0.3c0.3,0,0.7-0.1,1-0.2c0.3-0.2,0.5-0.4,0.8-0.8v0.4
			c-0.3,0.3-0.6,0.5-0.9,0.7c-0.3,0.1-0.7,0.2-1.1,0.2c-0.6,0-1.1-0.1-1.5-0.4c-0.5-0.2-0.8-0.5-1.1-0.9c-0.2-0.4-0.4-0.9-0.4-1.4
			c0-0.5,0.1-1,0.4-1.5c0.2-0.5,0.6-0.8,1-1.1c0.5-0.3,1-0.4,1.5-0.4c0.4,0,0.8,0.1,1.3,0.3c0.2,0.1,0.4,0.1,0.4,0.1
			c0.1,0,0.1,0,0.3-0.1c0,0,0.1-0.1,0.1-0.3h0.1v1.9H119c-0.1-0.5-0.4-0.9-0.6-1.1c-0.3-0.3-0.7-0.4-1.1-0.4c-0.4,0-0.7,0.1-1,0.3
			C116,222.1,115.8,222.4,115.6,222.6z M83,222.3c0,0.1,0,0.2,0.1,0.3c0.1,0.1,0.2,0.3,0.4,0.4c0.1,0.1,0.4,0.3,0.9,0.4
			c0.6,0.3,1.1,0.6,1.3,1c0.2,0.3,0.3,0.6,0.3,0.9c0,0.4-0.2,0.8-0.5,1.2c-0.4,0.3-0.8,0.4-1.4,0.4c-0.2,0-0.3,0-0.4,0
			c-0.2,0-0.4-0.1-0.6-0.1c-0.1,0-0.2-0.1-0.3-0.1c-0.1,0-0.1,0-0.2,0.1c-0.1,0-0.2,0.1-0.2,0.2h-0.1v-2h0.1c0.1,0.6,0.4,1,0.7,1.3
			c0.3,0.3,0.7,0.4,1.1,0.4c0.3,0,0.5-0.1,0.7-0.3c0.2-0.2,0.3-0.4,0.3-0.5c0-0.1,0-0.3-0.1-0.4c-0.1-0.1-0.2-0.2-0.3-0.4
			c-0.2-0.1-0.4-0.2-0.8-0.4c-0.5-0.2-0.9-0.4-1-0.6c-0.2-0.2-0.4-0.4-0.6-0.6c-0.1-0.2-0.1-0.5-0.1-0.7c0-0.4,0.1-0.8,0.5-1.1
			c0.3-0.3,0.7-0.5,1.2-0.5c0.2,0,0.4,0,0.6,0c0.1,0.1,0.3,0.1,0.4,0.2c0.2,0.1,0.3,0.1,0.4,0.1c0.1,0,0.2,0,0.2-0.1
			c0,0,0.1-0.1,0.1-0.3h0.1l0.1,1.8h-0.2c-0.1-0.5-0.3-0.8-0.6-1.1c-0.3-0.3-0.6-0.4-1-0.4c-0.3,0-0.5,0.1-0.6,0.3
			C83.1,221.9,83,222.1,83,222.3z M87.8,222c-0.2,0.2-0.4,0.5-0.5,0.9h-0.1v-1.5H92v1.5h-0.1c-0.1-0.3-0.1-0.6-0.3-0.7
			c-0.1-0.2-0.3-0.3-0.5-0.4c-0.1,0-0.3,0-0.5,0h-0.4v4.1c0,0.3,0,0.5,0,0.5c0,0.1,0.1,0.1,0.2,0.1c0.1,0.1,0.2,0.1,0.3,0.1H91v0.1
			h-2.9v-0.1h0.1c0.2,0,0.3,0,0.4-0.1c0.1,0,0.2-0.1,0.2-0.1c0-0.1,0-0.3,0-0.5v-4.1h-0.4C88.1,221.8,87.9,221.8,87.8,222z
			 M95.3,221.3l2,4.5c0.2,0.4,0.4,0.7,0.5,0.8c0.1,0.1,0.2,0.1,0.4,0.1v0.1h-2.6v-0.1h0.1c0.2,0,0.3,0,0.4-0.1
			c0.1,0,0.1-0.1,0.1-0.1c0,0,0-0.1-0.1-0.2l-0.4-0.9h-1.9l-0.2,0.5c-0.1,0.2-0.1,0.3-0.1,0.4c0,0.2,0,0.3,0.1,0.3
			c0.1,0.1,0.3,0.1,0.5,0.1v0.1h-1.8v-0.1c0.2,0,0.4-0.1,0.4-0.3c0.2-0.1,0.3-0.4,0.5-0.8L95.3,221.3L95.3,221.3z M94.8,223.1
			l-0.9,1.9h1.6L94.8,223.1z M64.5,221.9c-0.3,0.2-0.5,0.5-0.7,0.8c-0.1,0.4-0.2,0.9-0.2,1.4c0,0.5,0,1,0.1,1.4
			c0.1,0.4,0.3,0.7,0.6,0.9c0.3,0.2,0.6,0.3,1,0.3c0.3,0,0.6-0.1,0.9-0.2c0.3-0.2,0.6-0.4,0.9-0.8v0.4c-0.3,0.3-0.6,0.5-1,0.7
			s-0.7,0.2-1.1,0.2c-0.6,0-1.1-0.1-1.5-0.4c-0.5-0.2-0.8-0.5-1.1-0.9c-0.2-0.4-0.3-0.9-0.3-1.4c0-0.5,0.1-1,0.4-1.5
			c0.2-0.5,0.6-0.8,1-1.1c0.5-0.3,1-0.4,1.5-0.4c0.4,0,0.8,0.1,1.2,0.3c0.2,0.1,0.4,0.1,0.5,0.1c0.1,0,0.1,0,0.2-0.1
			c0.1,0,0.1-0.1,0.1-0.3h0.1v1.9h-0.1c-0.1-0.5-0.4-0.9-0.6-1.1c-0.4-0.3-0.7-0.4-1.1-0.4S64.7,221.7,64.5,221.9z M75.4,221.5v-0.1
			h1.9l2.7,3.4v-2.3c0-0.3-0.1-0.6-0.2-0.7c-0.1-0.2-0.3-0.3-0.6-0.3v-0.1H81v0.1c-0.2,0-0.4,0.1-0.5,0.1c-0.1,0.1-0.1,0.1-0.2,0.3
			c0,0.1,0,0.3,0,0.6v4.4h-0.1l-3.6-4.4v3.4c0,0.3,0.1,0.5,0.2,0.6c0.2,0.1,0.3,0.1,0.5,0.1h0.1v0.1h-1.9v-0.1
			c0.3,0,0.5-0.1,0.6-0.2c0.1-0.1,0.2-0.3,0.2-0.6V222l-0.2-0.1c-0.1-0.2-0.2-0.3-0.3-0.3C75.6,221.6,75.5,221.5,75.4,221.5z
			 M71.5,221.5c-0.5,0-0.9,0.3-1.1,0.8c-0.2,0.4-0.4,1-0.4,1.8c0,0.9,0.2,1.6,0.5,2c0.2,0.3,0.6,0.5,1,0.5c0.3,0,0.5-0.1,0.7-0.2
			c0.2-0.2,0.4-0.5,0.5-0.8c0.1-0.4,0.1-0.9,0.1-1.4c0-0.8,0-1.3-0.1-1.7c-0.2-0.4-0.4-0.6-0.5-0.8C72,221.6,71.8,221.5,71.5,221.5z
			 M73.5,222.1c0.5,0.5,0.8,1.2,0.8,1.9c0,0.7-0.2,1.3-0.6,1.8c-0.6,0.7-1.3,1-2.3,1s-1.7-0.3-2.3-0.9c-0.4-0.5-0.6-1.2-0.6-1.9
			c0-0.8,0.3-1.4,0.9-1.9c0.6-0.6,1.2-0.8,2-0.8C72.3,221.3,73,221.5,73.5,222.1z M183.9,222c0.2,0.2,0.3,0.5,0.3,0.9
			c0,0.4-0.1,0.7-0.4,1c-0.2,0.1-0.5,0.3-0.8,0.4l1.4,1.9c0.1,0.2,0.3,0.4,0.4,0.4c0.1,0.1,0.2,0.1,0.3,0.1v0.1h-1.7l-1.8-2.4h-0.4
			v1.5c0,0.3,0,0.5,0,0.5c0,0.1,0.1,0.1,0.2,0.1c0.1,0.1,0.3,0.1,0.5,0.1v0.1h-2.8v-0.1c0.2,0,0.4,0,0.5-0.1c0.1,0,0.2-0.1,0.3-0.1
			c0-0.1,0-0.3,0-0.5v-3.5c0-0.3,0-0.5,0-0.6c0-0.1-0.1-0.2-0.3-0.2c-0.1,0-0.2-0.1-0.5-0.1v-0.1h2.5c0.6,0,1.1,0.1,1.4,0.1
			C183.5,221.6,183.7,221.8,183.9,222z M188.8,221.3c0.4,0,0.8,0.1,1.3,0.3c0.2,0.1,0.4,0.1,0.5,0.1c0.1,0,0.2,0,0.3-0.1
			c0,0,0.1-0.1,0.1-0.3h0.1v1.9h-0.1c-0.1-0.5-0.3-0.9-0.6-1.1c-0.3-0.3-0.7-0.4-1.1-0.4c-0.3,0-0.6,0.1-0.9,0.3
			c-0.3,0.2-0.5,0.5-0.7,0.8c-0.2,0.4-0.3,0.9-0.3,1.4c0,0.5,0.1,1,0.2,1.4c0.1,0.4,0.3,0.7,0.5,0.9c0.3,0.2,0.6,0.3,1,0.3
			c0.4,0,0.7-0.1,1-0.2c0.3-0.2,0.6-0.4,0.9-0.8v0.4c-0.3,0.3-0.6,0.5-0.9,0.7c-0.4,0.1-0.8,0.2-1.2,0.2c-0.6,0-1.1-0.1-1.5-0.4
			c-0.5-0.2-0.8-0.5-1-0.9c-0.2-0.4-0.4-0.9-0.4-1.4c0-0.5,0.1-1,0.4-1.5c0.2-0.5,0.6-0.8,1.1-1.1
			C187.8,221.4,188.3,221.3,188.8,221.3z M192.2,221.4h4.5v1.6h-0.1c-0.1-0.4-0.2-0.6-0.4-0.9c-0.1-0.2-0.3-0.3-0.6-0.4
			c-0.2,0-0.4,0-0.8,0h-0.6v2.1h0.1c0.4,0,0.6-0.1,0.8-0.3c0.2-0.2,0.3-0.6,0.3-1h0.1v2.9h-0.1c0-0.3-0.1-0.6-0.2-0.8
			c-0.1-0.2-0.2-0.3-0.4-0.4c-0.1-0.1-0.3-0.1-0.6-0.1v1.5c0,0.3,0,0.5,0,0.5c0,0.1,0,0.1,0.1,0.2c0.1,0,0.2,0,0.4,0h0.4
			c0.5,0,0.9-0.1,1.2-0.4c0.3-0.2,0.5-0.6,0.7-1h0.1l-0.3,1.7h-4.6v-0.1h0.2c0.1,0,0.3,0,0.4-0.1c0.1,0,0.1-0.1,0.1-0.1
			c0-0.1,0.1-0.3,0.1-0.5v-3.6c0-0.2,0-0.4,0-0.4c0-0.1-0.1-0.1-0.2-0.2c-0.1-0.1-0.3-0.1-0.4-0.1h-0.2V221.4z M168.9,221.5
			c-0.5,0-0.9,0.3-1.1,0.8c-0.2,0.4-0.4,1-0.4,1.8c0,0.9,0.2,1.6,0.5,2c0.2,0.3,0.6,0.5,1,0.5c0.3,0,0.5-0.1,0.7-0.2
			c0.2-0.2,0.4-0.5,0.6-0.8c0.1-0.4,0.1-0.9,0.1-1.4c0-0.8,0-1.3-0.1-1.7c-0.2-0.4-0.4-0.6-0.6-0.8
			C169.4,221.6,169.1,221.5,168.9,221.5z M170.9,222.1c0.6,0.5,0.9,1.2,0.9,1.9c0,0.7-0.2,1.3-0.6,1.8c-0.5,0.7-1.3,1-2.3,1
			c-1,0-1.7-0.3-2.3-0.9c-0.4-0.5-0.6-1.2-0.6-1.9c0-0.8,0.3-1.4,0.9-1.9c0.5-0.6,1.2-0.8,1.9-0.8
			C169.7,221.3,170.4,221.5,170.9,222.1z M173.3,221.6c-0.1,0-0.2-0.1-0.5-0.1v-0.1h2.8v0.1h-0.1c-0.2,0-0.4,0-0.5,0.1
			s-0.1,0.1-0.2,0.2c0,0.1,0,0.3,0,0.6v2.6c0,0.5,0.1,0.8,0.2,1c0,0.1,0.1,0.3,0.3,0.4c0.1,0.1,0.4,0.1,0.7,0.1c0.3,0,0.5,0,0.7-0.1
			c0.2-0.2,0.4-0.4,0.5-0.6c0.1-0.2,0.1-0.6,0.1-1.2v-2.3c0-0.2,0-0.4,0-0.5c-0.1-0.1-0.1-0.2-0.2-0.3c-0.1,0-0.3-0.1-0.5-0.1v-0.1
			h1.9v0.1h-0.1c-0.1,0-0.3,0-0.4,0.1c-0.1,0.1-0.1,0.2-0.1,0.3c-0.1,0.1-0.1,0.2-0.1,0.5v2c0,0.7,0,1.1-0.1,1.4
			c-0.1,0.3-0.3,0.5-0.6,0.8c-0.3,0.2-0.8,0.4-1.4,0.4c-0.5,0-0.8,0-1-0.1c-0.3-0.2-0.6-0.4-0.8-0.6c-0.1-0.3-0.2-0.6-0.2-1.1v-2.6
			c0-0.3,0-0.5-0.1-0.6C173.4,221.7,173.4,221.6,173.3,221.6z M181.3,221.6v2.4h0.2c0.4,0,0.7,0,0.8-0.1c0.2-0.1,0.4-0.2,0.5-0.4
			c0.1-0.2,0.1-0.4,0.1-0.7c0-0.4-0.1-0.8-0.3-0.9c-0.2-0.2-0.5-0.3-0.9-0.3H181.3z"/>
	</g>
	<g>
		<g>
			
				<radialGradient id="SVGID_57_" cx="219.2002" cy="257.7002" r="7.9125" fx="219.2312" fy="257.7002" gradientTransform="matrix(1 0 0 1.1532 0 -39.4896)" gradientUnits="userSpaceOnUse">
				<stop  offset="0" style="stop-color:#000000;stop-opacity:0.502"/>
				<stop  offset="0.8078" style="stop-color:#000000;stop-opacity:0.498"/>
				<stop  offset="1" style="stop-color:#000000;stop-opacity:0"/>
			</radialGradient>
			<path fill-rule="evenodd" clip-rule="evenodd" fill="url(#SVGID_57_)" d="M229.3,259.9c0,2.7-1,5.1-2.9,7.1c-2,1.9-4.3,2.9-7,2.9
				c-2.8,0-5.1-1-7.1-2.9c-1.9-2-2.9-4.3-2.9-7.1c0-2.8,1-5.1,2.9-7.1c2-1.9,4.3-2.9,7.1-2.9c2.7,0,5.1,1,7,2.9
				C228.3,254.8,229.3,257.1,229.3,259.9z"/>
		</g>
		<g>
			<g>
				<linearGradient id="SVGID_58_" gradientUnits="userSpaceOnUse" x1="218.9751" y1="250.7124" x2="218.9252" y2="262.7874">
					<stop  offset="0" style="stop-color:#797676"/>
					<stop  offset="1" style="stop-color:#545353"/>
				</linearGradient>
				<path fill-rule="evenodd" clip-rule="evenodd" fill="url(#SVGID_58_)" d="M213.1,255c0.3-0.9,0.8-1.8,1.6-2.6
					c1.2-1.2,2.6-1.8,4.3-1.8c0.2,0,0.4,0,0.6,0c0.4,0.1,0.9,0.2,1.3,0.3c0.9,0.3,1.7,0.8,2.4,1.5c1.2,1.2,1.8,2.6,1.8,4.3
					c0,0.4,0,0.7,0,1.1c-0.2,1.2-0.8,2.3-1.7,3.1c-1.2,1.2-2.6,1.8-4.3,1.8c-1.7,0-3.1-0.6-4.3-1.8c-1.2-1.2-1.8-2.6-1.8-4.3
					C212.9,256.1,213,255.6,213.1,255z"/>
				<linearGradient id="SVGID_59_" gradientUnits="userSpaceOnUse" x1="213.4873" y1="253.9751" x2="225.5123" y2="253.9751">
					<stop  offset="0" style="stop-color:#585858"/>
					<stop  offset="0.2588" style="stop-color:#9A9394"/>
					<stop  offset="0.4196" style="stop-color:#C5C1C2"/>
					<stop  offset="0.4784" style="stop-color:#FFFFFF"/>
					<stop  offset="0.5255" style="stop-color:#FFFFFF"/>
					<stop  offset="0.5765" style="stop-color:#C8C4C4"/>
					<stop  offset="0.7333" style="stop-color:#A09A9A"/>
					<stop  offset="1" style="stop-color:#545353"/>
				</linearGradient>
				<path fill-rule="evenodd" clip-rule="evenodd" fill="url(#SVGID_59_)" d="M213.1,255c0.2-1.2,0.8-2.3,1.7-3.2
					c1.2-1.2,2.6-1.8,4.3-1.8c0.2,0,0.4,0,0.6,0c0.4,0,0.8,0.1,1.2,0.2c0.9,0.3,1.8,0.8,2.5,1.6c1.2,1.2,1.8,2.6,1.8,4.3
					c0,0.6-0.1,1.2-0.2,1.8c0-0.4,0-0.7,0-1.1c0-1.7-0.6-3.1-1.8-4.3c-0.7-0.7-1.5-1.2-2.4-1.5c-0.4-0.1-0.8-0.2-1.3-0.3
					c-0.2,0-0.4,0-0.6,0c-1.7,0-3.1,0.6-4.3,1.8C213.9,253.3,213.4,254.1,213.1,255z"/>
			</g>
		</g>
		<g>
			<g>
				<polygon fill-rule="evenodd" clip-rule="evenodd" fill="#B3AEB1" points="224.8,257.5 221.8,252.5 222,251.6 225,256.5 
					224.9,256.6 				"/>
				<linearGradient id="SVGID_60_" gradientUnits="userSpaceOnUse" x1="217.1123" y1="252.0498" x2="223.1873" y2="252.0498">
					<stop  offset="0" style="stop-color:#7D787C"/>
					<stop  offset="0.5255" style="stop-color:#8D888C"/>
					<stop  offset="1" style="stop-color:#A19EA0"/>
				</linearGradient>
				<polygon fill-rule="evenodd" clip-rule="evenodd" fill="url(#SVGID_60_)" points="215.9,252.5 216,251.6 216,251.5 221.9,251.5 
					222,251.6 221.8,252.5 221.8,252.5 				"/>
				<polygon fill-rule="evenodd" clip-rule="evenodd" fill="#504F5D" points="224.8,257.5 221.9,262.6 216,262.6 213,257.6 
					213.1,257.6 213.4,257.1 215.9,252.5 215.9,252.5 221.8,252.5 221.8,252.5 				"/>
				<polygon fill-rule="evenodd" clip-rule="evenodd" fill="#6D676B" points="213.1,257.6 213.1,256.8 216,251.6 215.9,252.5 
					215.9,252.5 213.4,257.1 				"/>
			</g>
		</g>
		<g>
			<g>
				<linearGradient id="SVGID_61_" gradientUnits="userSpaceOnUse" x1="214.4502" y1="256.2749" x2="223.25" y2="256.2749">
					<stop  offset="0" style="stop-color:#6B6869"/>
					<stop  offset="0.5255" style="stop-color:#A29C9E"/>
					<stop  offset="1" style="stop-color:#918E8F"/>
				</linearGradient>
				<path fill-rule="evenodd" clip-rule="evenodd" fill="url(#SVGID_61_)" d="M223,259.3C223,259.3,223,259.2,223,259.3
					c0-1.4-0.4-2.4-1.3-3.3c-0.8-0.9-1.9-1.3-3.1-1.3c-1.2,0-2.3,0.4-3.1,1.3c-0.4,0.5-0.7,1-0.9,1.5c0-1.2,0.4-2.2,1.3-3
					c0.9-0.8,1.9-1.3,3.1-1.3c1.2,0,2.2,0.4,3.1,1.3c0.9,0.9,1.3,2,1.3,3.1C223.3,258.3,223.1,258.8,223,259.3z"/>
				<linearGradient id="SVGID_62_" gradientUnits="userSpaceOnUse" x1="215.8315" y1="262.6606" x2="221.2315" y2="255.7106">
					<stop  offset="0" style="stop-color:#3E3E3F"/>
					<stop  offset="1" style="stop-color:#5B5B5B"/>
				</linearGradient>
				<path fill-rule="evenodd" clip-rule="evenodd" fill="url(#SVGID_62_)" d="M214.5,257.5c0.2-0.5,0.5-1,0.9-1.5
					c0.9-0.9,1.9-1.3,3.1-1.3c1.2,0,2.3,0.4,3.1,1.3c0.9,0.8,1.3,1.9,1.3,3.2c0,0,0,0.1,0,0.1c0,1.2-0.4,2.2-1.3,3
					c-0.8,0.9-1.9,1.3-3.1,1.3c-1.2,0-2.3-0.4-3.1-1.3c-0.8-0.8-1.3-1.9-1.3-3C214.1,258.6,214.3,258,214.5,257.5z M215.4,259.4
					c0,0.8,0.3,1.5,0.9,2.1c0.6,0.6,1.4,1,2.2,1c0.9,0,1.6-0.3,2.1-1c0.6-0.6,1-1.3,1-2.1c0-0.9-0.3-1.6-1-2.2
					c-0.6-0.6-1.3-0.9-2.1-0.9c-0.8,0-1.6,0.3-2.2,0.9C215.7,257.8,215.4,258.5,215.4,259.4z"/>
				<path fill-rule="evenodd" clip-rule="evenodd" d="M215.4,259.4c0-0.9,0.3-1.6,0.9-2.2c0.6-0.6,1.4-0.9,2.2-0.9
					c0.9,0,1.6,0.3,2.1,0.9c0.6,0.6,1,1.3,1,2.2c0,0.8-0.3,1.5-1,2.1c-0.6,0.6-1.3,1-2.1,1c-0.8,0-1.6-0.3-2.2-1
					C215.7,260.9,215.4,260.2,215.4,259.4z"/>
				
					<path fill-rule="evenodd" clip-rule="evenodd" fill="none" stroke="#000000" stroke-linecap="round" stroke-linejoin="round" stroke-miterlimit="3" d="
					M215.4,259.4c0,0.8,0.3,1.5,0.9,2.1c0.6,0.6,1.4,1,2.2,1c0.9,0,1.6-0.3,2.1-1c0.6-0.6,1-1.3,1-2.1c0-0.9-0.3-1.6-1-2.2
					c-0.6-0.6-1.3-0.9-2.1-0.9c-0.8,0-1.6,0.3-2.2,0.9C215.7,257.8,215.4,258.5,215.4,259.4z"/>
			</g>
		</g>
		<g>
			<g>
				<linearGradient id="SVGID_63_" gradientUnits="userSpaceOnUse" x1="216.0894" y1="260.7329" x2="220.8404" y2="261.3248">
					<stop  offset="0" style="stop-color:#8C8571"/>
					<stop  offset="0.349" style="stop-color:#ABA696"/>
					<stop  offset="0.4392" style="stop-color:#FFFFFF"/>
					<stop  offset="0.5255" style="stop-color:#FBFBFA"/>
					<stop  offset="0.5843" style="stop-color:#B4AFA1"/>
					<stop  offset="1" style="stop-color:#A6A090"/>
				</linearGradient>
				<path fill-rule="evenodd" clip-rule="evenodd" fill="url(#SVGID_63_)" d="M220.1,264.8c0-0.6-0.3-1.1-0.7-1.5
					c-0.2-0.1-0.4-0.3-0.5-0.4c-0.3-0.2-0.6-0.3-1.1-0.3c-0.6,0-1.1,0.2-1.5,0.6c-0.2,0.2-0.4,0.5-0.5,0.9l0.6-4.8
					c0-0.2,0-0.3,0-0.5c0.1-0.4,0.3-0.7,0.6-0.9c0.4-0.3,0.9-0.5,1.4-0.5c0.1,0,0.1,0,0.3,0c0.3,0,0.6,0.1,0.8,0.2
					c0.2,0.1,0.3,0.2,0.4,0.3c0.4,0.4,0.6,0.8,0.6,1.3L220.1,264.8z"/>
				<radialGradient id="SVGID_64_" cx="218" cy="263.6001" r="4.175" gradientUnits="userSpaceOnUse">
					<stop  offset="0" style="stop-color:#FFFFFF"/>
					<stop  offset="0.1216" style="stop-color:#FFFFFF"/>
					<stop  offset="0.2627" style="stop-color:#B6B3AC"/>
					<stop  offset="1" style="stop-color:#464441"/>
				</radialGradient>
				<path fill-rule="evenodd" clip-rule="evenodd" fill="url(#SVGID_64_)" d="M220.1,264.8L220.1,264.8l-0.1,0.1v0.1
					c-0.1,0.5-0.3,1-0.6,1.4c-0.4,0.4-1,0.6-1.7,0.6c-0.6,0-1.1-0.2-1.5-0.6c-0.4-0.5-0.6-1-0.6-1.6c0-0.2,0-0.4,0.1-0.6
					c0.1-0.4,0.3-0.7,0.5-0.9c0.5-0.4,1-0.6,1.5-0.6c0.4,0,0.8,0.1,1.1,0.3c0.2,0.1,0.4,0.3,0.5,0.4
					C219.8,263.7,220.1,264.2,220.1,264.8z"/>
			</g>
		</g>
	</g>
</g>
</svg>
