<?xml version="1.0" encoding="utf-8"?>
<!-- Generator: Adobe Illustrator 16.0.0, SVG Export Plug-In . SVG Version: 6.00 Build 0)  -->
<!DOCTYPE svg PUBLIC "-//W3C//DTD SVG 1.1//EN" "http://www.w3.org/Graphics/SVG/1.1/DTD/svg11.dtd">
<svg version="1.1" id="Layer_1" xmlns="http://www.w3.org/2000/svg" xmlns:xlink="http://www.w3.org/1999/xlink" x="0px" y="0px"
	 width="700px" height="700px" viewBox="0 0 700 700" enable-background="new 0 0 700 700" xml:space="preserve">
<g>
	<g>
		<g>
			<path fill-rule="evenodd" clip-rule="evenodd" fill="#999999" d="M399.2,237.6c0,0.2,0,0.3,0,0.4c0,0,0,0.1,0,0.2V282
				c0,0.6-0.1,1.2-0.4,1.8c-0.1,0.3-0.2,0.5-0.3,0.8c-1.7,3-6.1,5.6-13.4,7.9c-1.4,0.4-2.8,0.8-4.2,1.1c-2.5,0.6-5.1,1.1-7.8,1.5
				c-3.8,0.6-7.8,1.1-12,1.4c-1.3,0.1-2.6,0.2-4,0.2c-0.7,0-1.4,0-2.1,0c-1.3,0-2.7,0-4.1,0c-3.6,0-7-0.1-10.3-0.3
				c-4.2-0.2-8.1-0.7-11.9-1.3c-2.7-0.4-5.3-0.9-7.8-1.5c-1.4-0.4-2.8-0.8-4.2-1.1c-4.7-1.5-8.3-3.1-10.6-4.9c-1.3-1-2.2-2-2.8-3.1
				c-0.1-0.2-0.2-0.5-0.3-0.8c-0.1-0.4-0.2-0.9-0.3-1.3c-0.1-0.2-0.1-0.4-0.1-0.6c0-0.2,0-0.4,0.1-0.6v-42.6
				c-0.1-0.2-0.1-0.5-0.1-0.7c0-0.1,0-0.3,0.1-0.4c0,0,0-0.1,0-0.2c0.3-2.8,2.9-5.4,7.8-7.5h80.8
				C396.3,232.1,398.9,234.7,399.2,237.6z"/>
			<path fill-rule="evenodd" clip-rule="evenodd" fill="none" d="M386.4,343.4c0,0.1-0.1,0.2-0.2,0.3c-0.1,0.2-0.1,0.4-0.2,0.6
				c-0.1,0.2-0.3,0.4-0.4,0.6c-1.4,1.9-4.4,3.5-9.1,5c-0.2,0.1-0.3,0.2-0.5,0.2c-2.4,0.7-5.1,1.3-8,1.8c-1,0.2-2,0.3-3,0.4
				c-1.8,0.2-3.6,0.3-5.4,0.4c0,0-0.1,0-0.1,0c-0.9,0.1-1.9,0.2-2.8,0.2c-0.3,0-0.5,0-0.8,0c-0.2,0-0.4,0-0.7,0c-1,0-1.9,0-2.9,0
				c-1.5,0-3,0-4.5,0c-1,0-1.9-0.1-2.9-0.2c-3-0.1-5.8-0.4-8.4-0.8c-1.3-0.2-2.5-0.5-3.7-0.7c-1.7-0.4-3.3-0.8-4.8-1.3
				c-4.6-1.4-7.7-3.1-9.1-5c-0.1-0.2-0.3-0.4-0.4-0.6c-0.1-0.1-0.2-0.3-0.3-0.6c0-0.1-0.1-0.2-0.1-0.3"/>
		</g>
		<g>
			<g>
				<path fill-rule="evenodd" clip-rule="evenodd" fill="#333333" d="M448.3,394.2c-1,9.4-10.5,17.4-28.5,24.1
					c-19,7.1-41.9,10.6-68.8,10.6c-26.8,0-49.8-3.5-68.9-10.6c-17.8-6.6-27.3-14.6-28.4-24.1h0v-2.8h0c0.6-9.3,10.1-17.4,28.4-24.2
					c19.1-7,42.1-10.5,68.9-10.5c26.9,0,49.8,3.5,68.8,10.5c18,6.7,27.5,14.7,28.5,23.8V394.2z"/>
				<path fill-rule="evenodd" clip-rule="evenodd" fill="#0A0C0B" d="M253.8,394.2c1.1,9.5,10.6,17.5,28.4,24.1
					c19.1,7.1,42.1,10.6,68.9,10.6c26.9,0,49.8-3.5,68.8-10.6c18-6.7,27.5-14.8,28.5-24.1v5.6v2.8c-0.9,9.3-10.4,17.4-28.5,24.2
					c-19,7-41.9,10.5-68.8,10.5c-26.9,0-49.9-3.5-68.9-10.5c-18.1-6.8-27.6-14.8-28.4-24.2h0L253.8,394.2L253.8,394.2z"/>
				
					<path fill-rule="evenodd" clip-rule="evenodd" fill="none" stroke="#000000" stroke-linecap="round" stroke-linejoin="round" stroke-miterlimit="3" d="
					M253.8,394.2L253.8,394.2l0-2.8h0c0.6-9.3,10.1-17.4,28.4-24.2c19.1-7,42.1-10.5,68.9-10.5c26.9,0,49.8,3.5,68.8,10.5
					c18,6.7,27.5,14.7,28.5,23.8v3.1v5.6c0,0.4,0.1,0.9,0.1,1.4c0,0.4,0,0.9-0.1,1.4c-0.9,9.3-10.4,17.4-28.5,24.2
					c-19,7-41.9,10.5-68.8,10.5c-26.9,0-49.9-3.5-68.9-10.5c-18.1-6.8-27.6-14.8-28.4-24.2h0L253.8,394.2L253.8,394.2z M448.3,402.5
					v-2.8 M448.3,394.2c-1,9.4-10.5,17.4-28.5,24.1c-19,7.1-41.9,10.6-68.8,10.6c-26.8,0-49.8-3.5-68.9-10.6
					c-17.8-6.6-27.3-14.6-28.4-24.1"/>
			</g>
		</g>
		<g>
			<radialGradient id="SVGID_1_" cx="350.9492" cy="415.8496" r="95.1519" gradientUnits="userSpaceOnUse">
				<stop  offset="0" style="stop-color:#FFFFFF;stop-opacity:0.498"/>
				<stop  offset="1" style="stop-color:#FFFFFF;stop-opacity:0"/>
			</radialGradient>
			<path fill-rule="evenodd" clip-rule="evenodd" fill="url(#SVGID_1_)" d="M258.3,402.1c4.3,5.7,12.4,10.7,24.3,15.2v0
				c19,7,41.8,10.5,68.5,10.5c26.7,0,49.5-3.5,68.4-10.5v0c11.7-4.3,19.8-9.2,24.1-14.7c0.2-0.3,0.4-0.4,0.8-0.5
				c0.3-0.1,0.6,0,0.9,0.3c0.2,0.1,0.3,0.3,0.3,0.5c-0.1,0.1-0.1,0.1-0.2,0.2c-4.5,5.8-12.9,10.9-25.1,15.5
				c-19.1,7.1-42.2,10.7-69.3,10.7c-27,0-50.1-3.6-69.3-10.7c-12.4-4.6-20.9-9.9-25.4-15.9c0-0.1-0.1-0.2-0.1-0.3
				c0.1-0.1,0.2-0.3,0.4-0.4c0.3-0.2,0.6-0.3,0.9-0.3C257.9,401.7,258.1,401.8,258.3,402.1z"/>
		</g>
		<g>
			<g>
				<g>
					<path fill-rule="evenodd" clip-rule="evenodd" fill="#2E2E2C" d="M269.5,247.9h-16c0.7-9.2,10.2-17.3,28.4-24
						c19.1-7.1,42.1-10.6,68.9-10.6c26.9,0,49.8,3.5,68.9,10.6c18,6.7,27.4,14.6,28.4,23.9v0.2h-16.3v-1
						c-0.8-7.1-8.7-13.3-23.7-18.5c-15.8-5.5-34.9-8.2-57.3-8.2c-22.3,0-41.4,2.7-57.3,8.2c-15.2,5.3-23.1,11.6-23.6,18.8v0.8H269.5
						z"/>
					<path fill-rule="evenodd" clip-rule="evenodd" d="M269.5,389.9v-142h0.4v-0.8c0.5-7.2,8.4-13.4,23.6-18.8
						c15.9-5.5,35-8.2,57.3-8.2c22.4,0,41.5,2.7,57.3,8.2c15,5.2,22.9,11.4,23.7,18.5v1v0.5l0.2,141.5v5.9h-0.3l-0.1-0.2
						c0,0-0.1,0-0.1,0.1c-2.5-2-5.4-3.9-8.9-5.8c-4.1-2.2-8.9-4.2-14.4-6.2c-15.8-5.4-34.9-8.2-57.3-8.2c-22.3,0-41.4,2.7-57.3,8.2
						c-5.5,1.9-10.2,4-14.2,6.2c-3.5,1.9-6.4,3.8-8.7,5.9h-1.1h0V389.9z"/>
					<path fill-rule="evenodd" clip-rule="evenodd" fill="#1F1F1D" d="M448.1,247.9v2.9v139.1h-16.2l-0.2-141.5v-0.5H448.1z
						 M269.5,247.9v142h-16V250.8V248c0,0,0-0.1,0-0.1H269.5z M431.7,395.8L431.7,395.8l-0.1,0v-0.2v0.2c0-0.1-0.1-0.1-0.1-0.1
						c0.1,0,0.1-0.1,0.1-0.1L431.7,395.8z"/>
					<path fill-rule="evenodd" clip-rule="evenodd" fill="#333333" d="M431.4,395.7c-0.1,0.1-0.3,0.1-0.5,0.1H270.6
						c2.3-2.1,5.2-4,8.7-5.9c4-2.2,8.7-4.2,14.2-6.2c15.9-5.4,35-8.2,57.3-8.2c22.4,0,41.5,2.7,57.3,8.2c5.5,1.9,10.3,4,14.4,6.2
						C426,391.7,428.9,393.7,431.4,395.7z"/>
					<linearGradient id="SVGID_2_" gradientUnits="userSpaceOnUse" x1="440" y1="389.2754" x2="440" y2="398.7254">
						<stop  offset="0" style="stop-color:#1F1F1D"/>
						<stop  offset="0.6196" style="stop-color:#1F1F1D"/>
						<stop  offset="1" style="stop-color:#1F1F1D;stop-opacity:0"/>
					</linearGradient>
					<path fill-rule="evenodd" clip-rule="evenodd" fill="url(#SVGID_2_)" d="M448.1,389.9v5.8v0h0c-2.6,8-8,12.5-16,13.7v-13.7
						h-0.1v-5.9H448.1z"/>
					<linearGradient id="SVGID_3_" gradientUnits="userSpaceOnUse" x1="261.5078" y1="390.0264" x2="261.5338" y2="398.7764">
						<stop  offset="0" style="stop-color:#1F1F1D"/>
						<stop  offset="0.6196" style="stop-color:#1F1F1D"/>
						<stop  offset="1" style="stop-color:#1F1F1D;stop-opacity:0"/>
					</linearGradient>
					<path fill-rule="evenodd" clip-rule="evenodd" fill="url(#SVGID_3_)" d="M269.5,389.9v5.9h0v11.3c-6.9-0.3-12.3-4-16-11.3v-5.9
						H269.5z"/>
					
						<path fill-rule="evenodd" clip-rule="evenodd" fill="none" stroke="#000000" stroke-linecap="round" stroke-linejoin="round" stroke-miterlimit="3" d="
						M270.6,395.8c2.3-2.1,5.2-4,8.7-5.9c4-2.2,8.7-4.2,14.2-6.2c15.9-5.4,35-8.2,57.3-8.2c22.4,0,41.5,2.7,57.3,8.2
						c5.5,1.9,10.3,4,14.4,6.2c3.5,1.8,6.4,3.8,8.9,5.8 M431.5,395.6l0.1,0.2 M431.5,395.8c0-0.1-0.1-0.1-0.1-0.1 M431.5,395.6v0.2"
						/>
				</g>
			</g>
		</g>
		<g>
			<g>
				<path fill-rule="evenodd" clip-rule="evenodd" fill="#D9DEE1" d="M414.2,244.4c-0.3,2.6-1.8,5-4.6,7.2c-0.3-0.3-0.6-0.5-1-0.8
					c-3-2.3-7.4-4.4-13.1-6.4c-3-1-6.1-1.8-9.4-2.5c-2.9-0.7-5.9-1.3-9-1.7c-4.6-0.7-9.4-1.2-14.5-1.4c-3.4-0.2-6.9-0.3-10.5-0.3
					c-1.6,0-3.2,0.1-4.8,0.1c-14.9,0.3-27.8,2.2-38.6,5.8c-6.4,2.1-11,4.4-13.9,6.9c-0.1,0-0.2,0.1-0.2,0.1c-2.7-2.1-4.2-4.5-4.6-7
					v-1.6c0.4-5.3,6.5-9.9,18.1-13.8c12.2-4,26.8-6,44-6c17.1,0,31.8,2,43.9,6c11.5,3.9,17.6,8.4,18.2,13.6V244.4z"/>
				<path fill-rule="evenodd" clip-rule="evenodd" fill="#857055" d="M294.7,251.6c-0.1-0.1-0.2-0.1-0.2-0.2c0,0,0.1-0.1,0.2-0.1
					c2.9-2.5,7.5-4.8,13.9-6.9c10.8-3.6,23.6-5.5,38.6-5.8c1.6-0.1,3.3-0.1,4.8-0.1c3.6,0,7.1,0.1,10.5,0.3
					c5.1,0.2,9.9,0.7,14.5,1.4c3.1,0.4,6.1,1,9,1.7c3.3,0.7,6.4,1.5,9.4,2.5c5.7,2,10.1,4.1,13.1,6.4c0.4,0.3,0.7,0.6,1,0.8
					c-0.3,0.2-0.6,0.5-1,0.8c-1.5,1-3.3,2.1-5.5,3.1c-0.1-0.2-0.3-0.4-0.5-0.6c-2.3-2.4-6.9-4.5-13.6-6.4c-1-0.2-1.9-0.5-2.9-0.7
					c-2.8-0.7-5.8-1.3-9-1.8c-4.5-0.7-9.3-1.2-14.5-1.6c-3.4-0.2-7-0.3-10.8-0.3c-1.6,0-3.1,0-4.6,0.1c-7.7,0.1-14.7,0.7-21.1,1.8
					c-4.1,0.7-7.9,1.5-11.4,2.4c-6.8,1.9-11.4,4.1-13.6,6.5c-0.1,0.1-0.3,0.3-0.4,0.4C298.3,254.1,296.3,252.9,294.7,251.6z"/>
				<linearGradient id="SVGID_4_" gradientUnits="userSpaceOnUse" x1="351.1494" y1="418.7969" x2="352.3968" y2="278.6968">
					<stop  offset="0" style="stop-color:#585D5F"/>
					<stop  offset="0.3647" style="stop-color:#AAB6BB"/>
					<stop  offset="1" style="stop-color:#AAB6BB"/>
				</linearGradient>
				<path fill-rule="evenodd" clip-rule="evenodd" fill="url(#SVGID_4_)" d="M294.5,251.4c0,0.1,0.1,0.1,0.2,0.2V393h113.8v-4.2
					v-3.8v-9.8v-123c0.4-0.3,0.7-0.5,1-0.8c2.8-2.2,4.3-4.6,4.6-7.2v130.9v9.8v3.8v4.2v3.3H289.9V244.4
					C290.3,246.9,291.8,249.3,294.5,251.4z"/>
				<linearGradient id="SVGID_5_" gradientUnits="userSpaceOnUse" x1="306.25" y1="316.2002" x2="398.4004" y2="316.2002">
					<stop  offset="0" style="stop-color:#675120"/>
					<stop  offset="0.1961" style="stop-color:#412819"/>
					<stop  offset="0.3647" style="stop-color:#643E17"/>
					<stop  offset="0.5882" style="stop-color:#976F1A"/>
					<stop  offset="0.8157" style="stop-color:#704E20"/>
					<stop  offset="1" style="stop-color:#311C0C"/>
				</linearGradient>
				<path fill-rule="evenodd" clip-rule="evenodd" fill="url(#SVGID_5_)" d="M398.4,257.3c0,0-0.1,0-0.1,0.1v127.7h0
					c-1.3-1.3-3.3-2.4-5.8-3.5c-1.8-0.7-3.9-1.3-6.3-1.9c0-0.1-0.1-0.1-0.1-0.1c-0.4-0.1-0.7-0.1-1-0.3c-2.5-0.6-5.1-1.2-8-1.6
					c-0.1,0-0.2,0-0.3,0c-4.4-0.7-9.1-1.2-14.2-1.4c-0.1,0-0.2,0-0.3,0c-3.2-0.2-6.5-0.3-9.9-0.3c-1.8,0-3.5,0-5.2,0.1
					c-0.1,0-0.2,0-0.3,0c-7.7,0.2-14.6,0.8-20.8,2c-0.1,0-0.2,0-0.2,0c-2.2,0.3-4.3,0.7-6.4,1.3c-6.7,1.7-11,3.6-12.6,5.8
					c-0.2,0-0.4,0.1-0.6,0.2v-0.2h-0.1c0,0,0.1-0.1,0.1-0.1V258.2v-0.6c0,0-0.1-0.1-0.1-0.1c0-0.1,0.1-0.2,0.1-0.3
					c1.1-2.6,5.5-4.9,13.3-6.8c2.1-0.5,4.3-0.9,6.5-1.3c6.2-1.1,13.3-1.8,21.1-1.9c1.7-0.1,3.4-0.1,5.2-0.1c3.5,0,6.9,0.1,10.2,0.3
					c5.2,0.2,10,0.7,14.5,1.4c2.8,0.4,5.5,1,8,1.6c0.3,0.1,0.6,0.2,1,0.3C393.2,252.6,397.3,254.8,398.4,257.3z"/>
				<path fill-rule="evenodd" clip-rule="evenodd" fill="#C1B07A" d="M306.3,257.5c-1.8-0.7-3.5-1.3-5-2c-0.1-0.1-0.3-0.1-0.5-0.3
					c0.1-0.1,0.3-0.3,0.4-0.4c2.2-2.4,6.8-4.6,13.6-6.5c3.5-0.9,7.3-1.8,11.4-2.4c6.4-1,13.4-1.6,21.1-1.8c1.5,0,3.1-0.1,4.6-0.1
					c3.7,0,7.3,0.1,10.8,0.3c5.2,0.3,10,0.9,14.5,1.6c3.2,0.4,6.2,1,9,1.8c1,0.2,1.9,0.5,2.9,0.7c6.8,1.9,11.3,4,13.6,6.4
					c0.2,0.2,0.3,0.4,0.5,0.6c-0.2,0.1-0.3,0.1-0.5,0.3c-1.3,0.6-2.7,1.2-4.1,1.7c-1.1-2.5-5.2-4.7-12.4-6.5c-0.4-0.1-0.7-0.2-1-0.3
					c-2.5-0.6-5.1-1.2-8-1.6c-4.5-0.7-9.3-1.2-14.5-1.4c-3.3-0.2-6.7-0.3-10.2-0.3c-1.8,0-3.5,0.1-5.2,0.1
					c-7.8,0.1-14.8,0.8-21.1,1.9c-2.3,0.4-4.4,0.8-6.5,1.3c-7.7,1.9-12.1,4.1-13.3,6.8C306.3,257.3,306.3,257.4,306.3,257.5z"/>
				<linearGradient id="SVGID_6_" gradientUnits="userSpaceOnUse" x1="351.8496" y1="390.8496" x2="351.8496" y2="253.5496">
					<stop  offset="0" style="stop-color:#705F2D"/>
					<stop  offset="0.4039" style="stop-color:#9C8849"/>
					<stop  offset="1" style="stop-color:#B09A57"/>
				</linearGradient>
				<path fill-rule="evenodd" clip-rule="evenodd" fill="url(#SVGID_6_)" d="M307,385.1h91.3c-0.2,0-0.3,0.1-0.3,0.2l0.3-0.2V257.4
					c0,0,0.1-0.1,0.1-0.1c1.4-0.5,2.8-1.1,4.1-1.7v119.7v9.8v3.8H301.2V255.5c1.5,0.7,3.2,1.4,5,2c-0.1,0.2-0.1,0.4,0.1,0.7V385
					c0,0-0.1,0.1-0.1,0.1h0.1v0.2C306.5,385.2,306.7,385.1,307,385.1z"/>
				<linearGradient id="SVGID_7_" gradientUnits="userSpaceOnUse" x1="352.085" y1="409.5371" x2="351.4831" y2="295.6621">
					<stop  offset="0" style="stop-color:#62523F"/>
					<stop  offset="1" style="stop-color:#7B674F"/>
				</linearGradient>
				<path fill-rule="evenodd" clip-rule="evenodd" fill="url(#SVGID_7_)" d="M408.5,252.3v123v9.8v3.8v4.2H294.7V251.6
					c1.6,1.3,3.6,2.5,6,3.6c0.2,0.1,0.3,0.2,0.5,0.3v133.3h101.3v-3.8v-9.8V255.6c0.2-0.1,0.4-0.2,0.5-0.3
					C405.2,254.4,407,253.3,408.5,252.3z"/>
				<linearGradient id="SVGID_8_" gradientUnits="userSpaceOnUse" x1="352.5996" y1="391.2754" x2="352.5996" y2="373.4254">
					<stop  offset="0" style="stop-color:#775715"/>
					<stop  offset="1" style="stop-color:#513B0E"/>
				</linearGradient>
				<path fill-rule="evenodd" clip-rule="evenodd" fill="url(#SVGID_8_)" d="M398.3,385.1H307c1.7-2.2,5.9-4.1,12.6-5.8
					c2.1-0.5,4.2-1,6.4-1.3c0,0,0.1,0,0.2,0c6.2-1.1,13.1-1.8,20.8-2c0.1,0,0.1,0,0.3,0c1.7-0.1,3.4-0.1,5.2-0.1
					c3.4,0,6.8,0.1,9.9,0.3c0.1,0,0.2,0,0.3,0c5.1,0.2,9.8,0.7,14.2,1.4c0.1,0,0.2,0,0.3,0c2.8,0.4,5.5,1,8,1.6
					c0.3,0.1,0.6,0.2,1,0.3c0,0,0.1,0,0.1,0.1c2.4,0.6,4.4,1.2,6.3,1.9C395,382.7,397,383.8,398.3,385.1z"/>
			</g>
		</g>
		<g>
			<polygon fill-rule="evenodd" clip-rule="evenodd" fill="#D6D6D6" fill-opacity="0.2471" points="396.7,384 398.3,385.1 
				306.4,385.2 306.3,271.3 307.4,271.3 307.5,384 			"/>
		</g>
		<g>
			<g>
				<linearGradient id="SVGID_9_" gradientUnits="userSpaceOnUse" x1="253.5" y1="233.9248" x2="448" y2="233.9248">
					<stop  offset="0" style="stop-color:#FFFFFF;stop-opacity:0"/>
					<stop  offset="0.1412" style="stop-color:#FFFFFF;stop-opacity:0.1137"/>
					<stop  offset="0.4431" style="stop-color:#FFFFFF"/>
					<stop  offset="0.6353" style="stop-color:#FFFFFF"/>
					<stop  offset="1" style="stop-color:#FFFFFF;stop-opacity:0"/>
				</linearGradient>
				<path fill-rule="evenodd" clip-rule="evenodd" fill="url(#SVGID_9_)" d="M432.8,248.4l-0.9-0.1h-0.3v0.3c-0.2-0.7-0.4-1.4-0.6-2
					c0-0.3-0.1-0.7-0.1-1c-1.7-6.7-9.4-12.3-23.2-16.9c-15.7-5.3-34.7-8-57-8c-22.2,0-41.3,2.7-57.1,8.2h0
					c-14.9,5.2-22.9,11.3-24,18.5l-0.1-0.3v0.6c0,0.2,0,0.5,0,0.8l-0.3-0.2v0c0,0-0.1,0-0.1,0c-0.6-0.1-1-0.1-1.1-0.1v0.2h-14.7
					v-1.1h15.8h0c0,0,0-0.1,0-0.1v-0.1c0.5-7.4,8.5-13.8,24.1-19.3c15.9-5.5,35-8.2,57.4-8.2c22.4,0,41.5,2.7,57.3,8.1
					c15.3,5.1,23.3,11.6,24.2,19.3l15.7,0.4v1.1h-14.9v0.1H432.8z"/>
				<path fill-rule="evenodd" clip-rule="evenodd" fill="#FFFFFF" fill-opacity="0.1333" d="M432.8,248.4l0.2,147.4
					c0,0.1-0.1,0.3-0.2,0.4c-0.1,0.1-0.2,0.1-0.4,0.1c-0.2,0-0.3,0-0.4-0.1c-0.1-0.1-0.2-0.3-0.2-0.4l-0.1-146.9c0-0.2,0-0.4,0-0.4
					v-0.3h0.3L432.8,248.4z"/>
				<path fill-rule="evenodd" clip-rule="evenodd" d="M269.3,247.1V247C269.3,247,269.3,247.1,269.3,247.1L269.3,247.1z"/>
				<path fill-rule="evenodd" clip-rule="evenodd" fill="#FFFFFF" fill-opacity="9.411765e-002" d="M269.4,248.1v147.4
					c0,0.2-0.1,0.3-0.1,0.4c-0.1,0.1-0.3,0.2-0.4,0.2c-0.2,0-0.3-0.1-0.4-0.2c-0.1-0.1-0.2-0.2-0.2-0.4V248.3V248
					C268.3,248,268.7,248,269.4,248.1C269.3,248.1,269.3,248.1,269.4,248.1L269.4,248.1z"/>
			</g>
		</g>
		<g>
			<g>
				<linearGradient id="SVGID_10_" gradientUnits="userSpaceOnUse" x1="387.7998" y1="347.7993" x2="317.0493" y2="347.7993">
					<stop  offset="0" style="stop-color:#5D4A3F"/>
					<stop  offset="1" style="stop-color:#1A130F"/>
				</linearGradient>
				<path fill-rule="evenodd" clip-rule="evenodd" fill="url(#SVGID_10_)" d="M387.8,348.3c0,0.3-0.1,0.7-0.3,1
					c-0.1,0.2-0.2,0.4-0.3,0.5c-0.1,0.2-0.2,0.4-0.4,0.6c-0.2,0.3-0.5,0.6-0.8,0.9c-1.7,1.6-4.6,3-8.7,4.3c-0.2,0.1-0.3,0.1-0.5,0.2
					c-0.4,0.1-0.7,0.2-1.1,0.3c-2.3,0.6-4.7,1.2-7.2,1.6c-1,0.1-2,0.3-3.1,0.4c-0.2,0-0.3,0-0.5,0.1c-1.6,0.2-3.3,0.3-5.1,0.4h0.5
					c0.3,0,0.3,0-0.2,0.1s-1.2,0.1-2.2,0.1c-1,0-1.7,0-2,0.1c0,0-0.1,0-0.1,0c-0.2,0-0.4,0-0.5,0c-1,0-2,0-3,0c-1.5,0-3,0-4.5,0
					c-0.1,0-0.1,0-0.3,0c-1,0-1.9-0.1-2.9-0.2c-3.1-0.1-6-0.4-8.7-0.9c-1-0.2-2-0.4-2.9-0.6c-0.3-0.1-0.6-0.1-0.9-0.1
					c-1.7-0.4-3.4-0.9-5-1.4c-4.1-1.3-7-2.7-8.7-4.3c-0.3-0.3-0.5-0.6-0.7-0.8c-0.1-0.2-0.3-0.5-0.4-0.7c-0.1-0.2-0.2-0.3-0.3-0.5
					c-0.1-0.3-0.2-0.6-0.2-1c0-0.1,0-0.2-0.1-0.3v-0.4c0-0.1,0-0.2,0.1-0.3v-0.1c0-0.2,0.1-0.5,0.1-0.7c0.2-0.7,0.7-1.4,1.4-2.1
					c1.6-1.7,4.6-3.2,8.8-4.5c6.9-2.1,15.3-3.2,25.1-3.2c9.8,0,18.1,1.1,25,3.2c4.3,1.3,7.2,2.8,8.8,4.5c0.6,0.7,1.1,1.4,1.3,2
					c0.1,0.2,0.2,0.5,0.2,0.7c0,0.2,0,0.3,0,0.5V348.3z"/>
				<linearGradient id="SVGID_11_" gradientUnits="userSpaceOnUse" x1="317.0498" y1="354.2998" x2="387.7998" y2="354.2998">
					<stop  offset="0" style="stop-color:#261B15"/>
					<stop  offset="0.149" style="stop-color:#554339"/>
					<stop  offset="0.3255" style="stop-color:#FBE8E4"/>
					<stop  offset="0.502" style="stop-color:#FBE8E4"/>
					<stop  offset="0.6078" style="stop-color:#948068"/>
					<stop  offset="0.702" style="stop-color:#6B5547"/>
					<stop  offset="0.7961" style="stop-color:#554339"/>
					<stop  offset="0.9098" style="stop-color:#61493B"/>
					<stop  offset="1" style="stop-color:#33251B"/>
				</linearGradient>
				<path fill-rule="evenodd" clip-rule="evenodd" fill="url(#SVGID_11_)" d="M317,348c0,0.1,0,0.2,0.1,0.3c0,0.3,0.1,0.6,0.2,1
					c0.1,0.2,0.2,0.4,0.3,0.5c0.1,0.2,0.3,0.4,0.4,0.7c0.2,0.3,0.4,0.5,0.7,0.8c1.7,1.6,4.6,3,8.7,4.3c1.6,0.5,3.2,1,5,1.4
					c0.3,0,0.6,0.1,0.9,0.1c1,0.2,1.9,0.4,2.9,0.6c2.7,0.5,5.6,0.8,8.7,0.9c1,0.1,1.9,0.2,2.9,0.2c0.1,0,0.2,0,0.3,0
					c1.4,0,2.9,0,4.5,0c1,0,2,0,3,0c0.2,0,0.4,0,0.5,0c0.1,0,0.1,0,0.1,0c0.3,0,0.9-0.1,2-0.1c1,0,1.8,0,2.2-0.1s0.5-0.1,0.2-0.1
					H360c1.8-0.1,3.5-0.2,5.1-0.4c0.2,0,0.4-0.1,0.5-0.1c1-0.2,2.1-0.3,3.1-0.4c2.5-0.4,4.9-1,7.2-1.6c0.3-0.1,0.7-0.2,1.1-0.3
					c0.2,0,0.3-0.1,0.5-0.2c4.1-1.3,7-2.7,8.7-4.3c0.3-0.3,0.5-0.6,0.8-0.9c0.2-0.2,0.3-0.4,0.4-0.6c0.1-0.2,0.2-0.3,0.3-0.5
					c0.2-0.3,0.3-0.7,0.3-1v1.3c0,0,0,0.1,0,0.1c0,0.5-0.1,0.9-0.3,1.4c-0.1,0.2-0.2,0.4-0.3,0.5c-1.2,2.2-4.5,4.2-9.8,5.8
					c-0.2,0-0.3,0.1-0.5,0.2c-2.6,0.8-5.3,1.4-8.3,1.9c-1,0.1-2,0.3-3.1,0.4c-1.8,0.2-3.7,0.4-5.6,0.5c0,0-0.1,0-0.1,0
					c-1,0.1-1.9,0.2-2.9,0.2c-0.3,0-0.6,0-0.9,0c-0.2,0-0.5,0-0.7,0c-1,0-2,0-3,0c-1.6,0-3.2,0-4.7,0c-1,0-1.9-0.1-2.9-0.2
					c-3.1-0.2-6-0.5-8.7-0.9c-1.3-0.2-2.5-0.5-3.8-0.7c-1.7-0.4-3.4-0.9-5-1.4c-5.3-1.7-8.6-3.6-9.8-5.8c-0.1-0.1-0.2-0.3-0.3-0.5
					c-0.1-0.3-0.2-0.7-0.2-1c0-0.1-0.1-0.3-0.1-0.4V348z"/>
			</g>
		</g>
		<g>
			<g>
				<linearGradient id="SVGID_12_" gradientUnits="userSpaceOnUse" x1="318.25" y1="350.1504" x2="386.5498" y2="350.1504">
					<stop  offset="0" style="stop-color:#261B15"/>
					<stop  offset="0.1412" style="stop-color:#554339"/>
					<stop  offset="0.3176" style="stop-color:#FBE8E4"/>
					<stop  offset="0.4745" style="stop-color:#948068"/>
					<stop  offset="0.6078" style="stop-color:#6B5547"/>
					<stop  offset="0.7961" style="stop-color:#554339"/>
					<stop  offset="0.8902" style="stop-color:#684E3D"/>
					<stop  offset="1" style="stop-color:#433125"/>
				</linearGradient>
				<path fill-rule="evenodd" clip-rule="evenodd" fill="url(#SVGID_12_)" d="M318.3,342.8c0,0.3,0.1,0.6,0.3,0.9
					c0.1,0.2,0.2,0.4,0.3,0.6c0.1,0.2,0.2,0.4,0.4,0.6c1.4,1.9,4.5,3.5,9.1,5c1.5,0.5,3.1,0.9,4.8,1.3c1.2,0.2,2.4,0.5,3.7,0.7
					c2.6,0.4,5.4,0.7,8.4,0.8c0.9,0.1,1.9,0.2,2.9,0.2c1.4,0,2.9,0,4.5,0c1,0,1.9,0,2.9,0c0.2,0,0.5,0,0.7,0c0.3,0,0.5,0,0.8,0
					c0.9,0,1.9-0.1,2.8-0.2c0,0,0.1,0,0.1,0c1.9-0.1,3.7-0.3,5.4-0.4c1-0.1,2-0.2,3-0.4c2.9-0.5,5.5-1.1,8-1.8
					c0.2,0,0.4-0.1,0.5-0.2c4.7-1.4,7.7-3.1,9.1-5c0.1-0.2,0.3-0.4,0.4-0.6c0.1-0.1,0.1-0.3,0.2-0.6c0.2-0.4,0.3-0.8,0.3-1.2v4.8
					c0,0,0,0.1,0,0.2c0,0.4-0.1,0.8-0.3,1.2c-0.1,0.2-0.1,0.4-0.2,0.6c-1.2,2.1-4.3,4-9.5,5.5c-0.2,0.1-0.3,0.1-0.5,0.2
					c-2.4,0.7-5.1,1.3-8,1.8c-1,0.1-2,0.3-3,0.4c-1.8,0.2-3.6,0.4-5.4,0.5c0,0-0.1,0-0.1,0c-0.9,0.1-1.9,0.1-2.8,0.1
					c-0.3,0-0.5,0-0.8,0c-0.2,0-0.4,0-0.7,0c-1,0-1.9,0-2.9,0c-1.5,0-3,0-4.5,0c-1,0-1.9-0.1-2.9-0.1c-3-0.2-5.8-0.5-8.4-0.9
					c-1.3-0.2-2.5-0.5-3.7-0.7c-1.7-0.4-3.3-0.8-4.8-1.3c-5.1-1.6-8.3-3.5-9.5-5.5c-0.1-0.2-0.2-0.4-0.3-0.6
					c-0.1-0.3-0.2-0.5-0.3-0.9c0-0.2,0-0.3,0-0.5V342.8z"/>
				<linearGradient id="SVGID_13_" gradientUnits="userSpaceOnUse" x1="379.7998" y1="342.0737" x2="324.9998" y2="342.5963">
					<stop  offset="0" style="stop-color:#E9E4E0"/>
					<stop  offset="1" style="stop-color:#95918E"/>
				</linearGradient>
				<path fill-rule="evenodd" clip-rule="evenodd" fill="url(#SVGID_13_)" d="M386.5,342.5c0,0.4-0.1,0.8-0.3,1.2
					c-0.1,0.2-0.1,0.4-0.2,0.6c-0.1,0.2-0.3,0.4-0.4,0.6c-1.4,1.9-4.4,3.5-9.1,5c-0.2,0.1-0.3,0.2-0.5,0.2c-2.4,0.7-5.1,1.3-8,1.8
					c-1,0.2-2,0.3-3,0.4c-1.8,0.2-3.6,0.3-5.4,0.4c0,0-0.1,0-0.1,0c-0.9,0.1-1.9,0.2-2.8,0.2c-0.3,0-0.5,0-0.8,0c-0.2,0-0.4,0-0.7,0
					c-1,0-1.9,0-2.9,0c-1.5,0-3,0-4.5,0c-1,0-1.9-0.1-2.9-0.2c-3-0.1-5.8-0.4-8.4-0.8c-1.3-0.2-2.5-0.5-3.7-0.7
					c-1.7-0.4-3.3-0.8-4.8-1.3c-4.6-1.4-7.7-3.1-9.1-5c-0.1-0.2-0.3-0.4-0.4-0.6c-0.1-0.1-0.2-0.3-0.3-0.6c-0.1-0.3-0.2-0.6-0.3-0.9
					v-0.5c0-0.1,0-0.3,0-0.4c0.4-2.7,3.7-5.1,10-7c6.7-2,14.7-3.1,24.2-3.1c9.4,0,17.5,1,24.1,3.1c6.7,2,10,4.5,10,7.4
					C386.5,342.3,386.5,342.4,386.5,342.5L386.5,342.5z"/>
			</g>
		</g>
		<g>
			<g>
				<g>
					<polygon fill-rule="evenodd" clip-rule="evenodd" fill="#81785F" points="357.8,347.4 357.8,346.3 360.2,339.8 360.6,338.8 
						360.6,339.8 					"/>
					<polygon fill-rule="evenodd" clip-rule="evenodd" fill="#6B675E" points="340.3,345.5 344.4,338 360.6,338.8 360.2,339.8 
						357.8,346.3 340.9,345.5 					"/>
					<polygon fill-rule="evenodd" clip-rule="evenodd" fill="#DDDAD1" points="357.8,346.3 357.8,347.4 340.3,346.6 340.3,345.5 
						340.9,345.5 					"/>
				</g>
			</g>
		</g>
		<g>
			<path fill-rule="evenodd" clip-rule="evenodd" fill-opacity="0.6941" d="M369.1,340.1c-1.7,0.2-3.5,0.4-5.4,0.5c0,0-0.1,0-0.1,0
				c-0.9,0-1.9,0.1-2.8,0.1c-0.3,0.1-0.6,0.1-0.8,0.1c-0.2,0-0.5,0-0.7,0c-1,0-1.9,0.1-2.9,0.1c-1.5,0-3-0.1-4.5-0.1
				c-0.9,0-1.9-0.1-2.8-0.1c-2.9-0.2-5.7-0.5-8.4-1c-1.3-0.2-2.5-0.4-3.7-0.6c-1.7-0.4-3.3-0.8-4.8-1.3c-2.3-0.7-4.2-1.5-5.7-2.4
				c0.5-0.2,1.1-0.4,1.7-0.5c6.7-2,14.7-3.1,24.2-3.1c9.4,0,17.5,1,24.1,3.1c2.3,0.7,4.3,1.5,5.8,2.3c-0.5,0.2-1.1,0.4-1.8,0.6
				c-0.2,0-0.4,0.1-0.5,0.1c-2.5,0.8-5.1,1.4-8,1.8C371.1,339.8,370.1,340,369.1,340.1z"/>
		</g>
		<g>
			<g>
				<g>
					<path fill-rule="evenodd" clip-rule="evenodd" fill="#624F41" d="M331.4,313.7v-0.5c0.1-0.3,0.5-0.5,1.2-0.7
						c0.9-0.3,1.9-0.4,3.1-0.4s2.2,0.1,3.1,0.4c0.8,0.2,1.2,0.5,1.3,0.9v0.2c-0.1,0.3-0.5,0.6-1.3,0.9c-0.4,0.2-0.9,0.3-1.4,0.3
						c-0.4,0.1-0.9,0.1-1.4,0.1c-0.1,0-0.3,0-0.4,0c-1,0-1.8-0.1-2.6-0.3c-0.2-0.1-0.4-0.1-0.5-0.2
						C331.9,314.2,331.5,314,331.4,313.7z"/>
					<linearGradient id="SVGID_14_" gradientUnits="userSpaceOnUse" x1="331.375" y1="325.125" x2="340.125" y2="325.125">
						<stop  offset="0" style="stop-color:#4B4841"/>
						<stop  offset="0.2784" style="stop-color:#645F55"/>
						<stop  offset="0.5216" style="stop-color:#B1AEA9"/>
						<stop  offset="0.6078" style="stop-color:#F3F3F3"/>
						<stop  offset="0.6627" style="stop-color:#E5E4E3"/>
						<stop  offset="0.7765" style="stop-color:#7C766B"/>
						<stop  offset="1" style="stop-color:#585858"/>
					</linearGradient>
					<path fill-rule="evenodd" clip-rule="evenodd" fill="url(#SVGID_14_)" d="M340.1,313.5v21.8c0,0,0,0.1,0,0.1
						c-0.1,0.3-0.5,0.6-1.3,0.8c-0.4,0.1-0.9,0.2-1.4,0.3c-0.4,0.1-0.9,0.1-1.4,0.1c-0.1,0-0.3,0-0.4,0c-1,0-1.8-0.1-2.6-0.3
						c-0.2,0-0.4-0.1-0.5-0.2c-0.7-0.2-1.1-0.4-1.2-0.7v-21.9c0.1,0.3,0.5,0.5,1.2,0.7c0.2,0.1,0.4,0.1,0.5,0.2
						c0.8,0.2,1.6,0.3,2.6,0.3c0.1,0,0.3,0,0.4,0c0.5,0,0.9-0.1,1.4-0.1c0.5,0,1-0.1,1.4-0.3C339.6,314.2,340.1,313.9,340.1,313.5z"
						/>
				</g>
			</g>
		</g>
		<g>
			<g>
				<g>
					<path fill-rule="evenodd" clip-rule="evenodd" fill="#624F41" d="M361,314.4V314c0.1-0.3,0.5-0.5,1.3-0.8
						c0.8-0.3,1.9-0.4,3.1-0.4s2.3,0.1,3.2,0.4c0.8,0.3,1.2,0.6,1.3,0.9v0.1c-0.1,0.3-0.5,0.6-1.3,0.9c-0.4,0.1-0.9,0.2-1.4,0.3
						c-0.4,0.1-0.8,0.1-1.3,0.1c-0.1,0-0.3,0-0.4,0c-1,0-1.9-0.1-2.6-0.3c-0.2,0-0.4-0.1-0.5-0.1C361.5,315,361.1,314.7,361,314.4z"
						/>
					<linearGradient id="SVGID_15_" gradientUnits="userSpaceOnUse" x1="361.0254" y1="325.875" x2="369.7754" y2="325.875">
						<stop  offset="0" style="stop-color:#4B4841"/>
						<stop  offset="0.2784" style="stop-color:#645F55"/>
						<stop  offset="0.5216" style="stop-color:#B1AEA9"/>
						<stop  offset="0.6078" style="stop-color:#F3F3F3"/>
						<stop  offset="0.6627" style="stop-color:#E5E4E3"/>
						<stop  offset="0.7765" style="stop-color:#7C766B"/>
						<stop  offset="1" style="stop-color:#585858"/>
					</linearGradient>
					<path fill-rule="evenodd" clip-rule="evenodd" fill="url(#SVGID_15_)" d="M369.8,314.3V336c0,0,0,0.1,0,0.1
						c-0.1,0.3-0.5,0.6-1.3,0.9c-0.4,0.1-0.9,0.2-1.4,0.3c-0.4,0.1-0.8,0.1-1.3,0.1c-0.1,0-0.3,0-0.4,0c-1,0-1.9-0.1-2.6-0.3
						c-0.2,0-0.4-0.1-0.5-0.1c-0.7-0.2-1.1-0.5-1.3-0.8v-21.9c0.1,0.3,0.5,0.6,1.3,0.8c0.1,0,0.3,0.1,0.5,0.1
						c0.7,0.2,1.6,0.3,2.6,0.3c0.1,0,0.3,0,0.4,0c0.5,0,1,0,1.3-0.1c0.5-0.1,1-0.2,1.4-0.3C369.3,314.9,369.7,314.6,369.8,314.3z"/>
				</g>
			</g>
		</g>
		<g>
			<g>
				
					<radialGradient id="SVGID_16_" cx="350.75" cy="331.5498" r="13.3375" gradientTransform="matrix(1 0 0 0.3074 0 229.6301)" gradientUnits="userSpaceOnUse">
					<stop  offset="0" style="stop-color:#FFFFFF"/>
					<stop  offset="0.5647" style="stop-color:#EDE8E8"/>
					<stop  offset="0.9451" style="stop-color:#E9DFDF"/>
					<stop  offset="1" style="stop-color:#AD9A9A"/>
				</radialGradient>
				<path fill-rule="evenodd" clip-rule="evenodd" fill="url(#SVGID_16_)" d="M338.8,331.9v-0.4c0.1-1,1.3-1.9,3.4-2.6
					c0.6-0.2,1.2-0.4,1.9-0.5c1.3-0.3,2.7-0.4,4.3-0.5c0.6,0,1.1-0.1,1.8-0.1c0.1,0,0.2,0,0.3,0c2.2,0,4.2,0.2,6,0.5
					c0.8,0.2,1.6,0.4,2.3,0.6c2.1,0.7,3.2,1.5,3.4,2.5v0.5c0,0.1,0,0.2,0,0.3l-0.1,0.2c-0.1,0.1-0.2,0.2-0.3,0.4
					c-0.5,0.6-1.5,1.1-3,1.6c-0.5,0.2-1,0.3-1.5,0.5c-0.3,0-0.5,0.1-0.8,0.1c-0.7,0.2-1.5,0.3-2.3,0.3c-0.3,0-0.5,0.1-0.8,0.1
					c-0.1,0-0.3,0-0.4,0c-0.4,0-0.7,0.1-1,0.1h-1.1h-0.4c-0.1,0-0.3,0-0.3,0c-0.6,0-1.2,0-1.8,0c-0.1,0-0.2,0-0.3-0.1
					c0,0-0.1,0-0.1,0c-0.9,0-1.7-0.1-2.4-0.3c-0.3,0-0.6-0.1-0.9-0.1c-0.2,0-0.4-0.1-0.6-0.1c-0.7-0.2-1.3-0.4-1.9-0.5
					c-0.1,0-0.1-0.1-0.1-0.1c-1.4-0.5-2.3-1-2.8-1.6c-0.1-0.1-0.2-0.3-0.3-0.4l-0.1-0.2C338.8,332.1,338.8,332,338.8,331.9z"/>
				<linearGradient id="SVGID_17_" gradientUnits="userSpaceOnUse" x1="338.7002" y1="334.7124" x2="362.0002" y2="334.7124">
					<stop  offset="0" style="stop-color:#666565"/>
					<stop  offset="0.149" style="stop-color:#AEAEAE"/>
					<stop  offset="0.6627" style="stop-color:#CCCCCC"/>
					<stop  offset="0.8824" style="stop-color:#CCCCCC"/>
					<stop  offset="1" style="stop-color:#8C8585"/>
				</linearGradient>
				<path fill-rule="evenodd" clip-rule="evenodd" fill="url(#SVGID_17_)" d="M338.8,331.9c0,0.1,0,0.2,0,0.3l0.1,0.2
					c0,0.1,0.1,0.2,0.3,0.4c0.5,0.6,1.4,1.1,2.8,1.6c0,0,0.1,0,0.1,0.1c0.6,0.2,1.2,0.4,1.9,0.5c0.2,0,0.4,0.1,0.6,0.1
					c0.3,0,0.6,0.1,0.9,0.1c0.8,0.2,1.6,0.3,2.4,0.3c0,0,0.1,0,0.1,0c0.1,0,0.1,0.1,0.3,0.1c0.5,0,1.1,0,1.8,0c0.1,0,0.2,0,0.3,0
					h0.4h1.1c0.2,0,0.6,0,1-0.1c0.1,0,0.3,0,0.4,0c0.3,0,0.5-0.1,0.8-0.1c0.8,0,1.6-0.1,2.3-0.3c0.3-0.1,0.5-0.1,0.8-0.1
					c0.5-0.2,1-0.3,1.5-0.5c1.5-0.5,2.5-1.1,3-1.6c0.1-0.1,0.2-0.3,0.3-0.4l0.1-0.2c0-0.1,0-0.2,0-0.3v2c0,0.1,0,0.2,0,0.3l-0.1,0.2
					c-0.4,0.8-1.5,1.5-3.3,2.1c-0.5,0.2-1,0.3-1.5,0.4c-0.3,0.1-0.5,0.2-0.8,0.2c-0.7,0.2-1.5,0.3-2.3,0.4c-0.3,0-0.5,0.1-0.8,0.1
					c-0.1,0-0.3,0-0.4,0c-0.4,0-0.7,0-1,0l-1.1,0h-0.4c-0.1,0-0.3,0-0.3,0c-0.6,0-1.2,0-1.8,0c-0.1,0-0.2,0-0.3,0c0,0-0.1,0-0.1,0
					c-0.9-0.1-1.7-0.2-2.4-0.3c-0.3,0-0.6-0.1-0.9-0.1c-0.2,0-0.4-0.1-0.6-0.1c-0.7-0.2-1.3-0.4-1.9-0.5c-0.1,0-0.1-0.1-0.1-0.1
					c-1.7-0.6-2.7-1.2-3.1-2l-0.1-0.2c0-0.1,0-0.1,0-0.2V331.9z"/>
			</g>
			<g>
				<g>
					<linearGradient id="SVGID_18_" gradientUnits="userSpaceOnUse" x1="343.5376" y1="332.5" x2="345.3626" y2="332.5">
						<stop  offset="0" style="stop-color:#CDCDCD"/>
						<stop  offset="0.1569" style="stop-color:#FFFFFF"/>
						<stop  offset="0.5373" style="stop-color:#FFFFFF"/>
						<stop  offset="1" style="stop-color:#C6C6C6"/>
					</linearGradient>
					<polygon fill-rule="evenodd" clip-rule="evenodd" fill="url(#SVGID_18_)" points="345.4,340.7 344.5,343 343.5,340.7 
						343.5,322 345.4,322 					"/>
				</g>
				<g>
					<linearGradient id="SVGID_19_" gradientUnits="userSpaceOnUse" x1="347.9873" y1="332.5" x2="349.8123" y2="332.5">
						<stop  offset="0" style="stop-color:#CDCDCD"/>
						<stop  offset="0.1569" style="stop-color:#FFFFFF"/>
						<stop  offset="0.5373" style="stop-color:#FFFFFF"/>
						<stop  offset="1" style="stop-color:#C6C6C6"/>
					</linearGradient>
					<polygon fill-rule="evenodd" clip-rule="evenodd" fill="url(#SVGID_19_)" points="349.8,340.7 349,343 348,340.7 348,322 
						349.8,322 					"/>
				</g>
				<g>
					<linearGradient id="SVGID_20_" gradientUnits="userSpaceOnUse" x1="352.3877" y1="332.5" x2="354.2127" y2="332.5">
						<stop  offset="0" style="stop-color:#CDCDCD"/>
						<stop  offset="0.1569" style="stop-color:#FFFFFF"/>
						<stop  offset="0.5373" style="stop-color:#FFFFFF"/>
						<stop  offset="1" style="stop-color:#C6C6C6"/>
					</linearGradient>
					<polygon fill-rule="evenodd" clip-rule="evenodd" fill="url(#SVGID_20_)" points="354.2,340.7 353.3,343 352.4,340.7 
						352.4,322 354.2,322 					"/>
				</g>
				<g>
					<linearGradient id="SVGID_21_" gradientUnits="userSpaceOnUse" x1="356.7871" y1="332.5" x2="358.6121" y2="332.5">
						<stop  offset="0" style="stop-color:#CDCDCD"/>
						<stop  offset="0.1569" style="stop-color:#FFFFFF"/>
						<stop  offset="0.5373" style="stop-color:#FFFFFF"/>
						<stop  offset="1" style="stop-color:#C6C6C6"/>
					</linearGradient>
					<polygon fill-rule="evenodd" clip-rule="evenodd" fill="url(#SVGID_21_)" points="358.6,340.7 357.8,343 356.8,340.7 
						356.8,322 358.6,322 					"/>
				</g>
			</g>
			<g>
				<g>
					<linearGradient id="SVGID_22_" gradientUnits="userSpaceOnUse" x1="338.7002" y1="334.7124" x2="362.0002" y2="334.7124">
						<stop  offset="0" style="stop-color:#666565"/>
						<stop  offset="0.149" style="stop-color:#AEAEAE"/>
						<stop  offset="0.6627" style="stop-color:#CCCCCC"/>
						<stop  offset="0.8824" style="stop-color:#CCCCCC"/>
						<stop  offset="1" style="stop-color:#8C8585"/>
					</linearGradient>
					<path fill-rule="evenodd" clip-rule="evenodd" fill="url(#SVGID_22_)" d="M338.8,331.9c0,0.1,0,0.2,0,0.3l0.1,0.2
						c0,0.1,0.1,0.2,0.3,0.4c0.5,0.6,1.4,1.1,2.8,1.6c0,0,0.1,0,0.1,0.1c0.6,0.2,1.2,0.4,1.9,0.5c0.2,0,0.4,0.1,0.6,0.1
						c0.3,0,0.6,0.1,0.9,0.1c0.8,0.2,1.6,0.3,2.4,0.3c0,0,0.1,0,0.1,0c0.1,0,0.1,0.1,0.3,0.1c0.5,0,1.1,0,1.8,0c0.1,0,0.2,0,0.3,0
						h0.4h1.1c0.2,0,0.6,0,1-0.1c0.1,0,0.3,0,0.4,0c0.3,0,0.5-0.1,0.8-0.1c0.8,0,1.6-0.1,2.3-0.3c0.3-0.1,0.5-0.1,0.8-0.1
						c0.5-0.2,1-0.3,1.5-0.5c1.5-0.5,2.5-1.1,3-1.6c0.1-0.1,0.2-0.3,0.3-0.4l0.1-0.2c0-0.1,0-0.2,0-0.3v2c0,0.1,0,0.2,0,0.3
						l-0.1,0.2c-0.4,0.8-1.5,1.5-3.3,2.1c-0.5,0.2-1,0.3-1.5,0.4c-0.3,0.1-0.5,0.2-0.8,0.2c-0.7,0.2-1.5,0.3-2.3,0.4
						c-0.3,0-0.5,0.1-0.8,0.1c-0.1,0-0.3,0-0.4,0c-0.4,0-0.7,0-1,0l-1.1,0h-0.4c-0.1,0-0.3,0-0.3,0c-0.6,0-1.2,0-1.8,0
						c-0.1,0-0.2,0-0.3,0c0,0-0.1,0-0.1,0c-0.9-0.1-1.7-0.2-2.4-0.3c-0.3,0-0.6-0.1-0.9-0.1c-0.2,0-0.4-0.1-0.6-0.1
						c-0.7-0.2-1.3-0.4-1.9-0.5c-0.1,0-0.1-0.1-0.1-0.1c-1.7-0.6-2.7-1.2-3.1-2l-0.1-0.2c0-0.1,0-0.1,0-0.2V331.9z"/>
					
						<radialGradient id="SVGID_23_" cx="350.75" cy="331.5498" r="13.3375" gradientTransform="matrix(1 0 0 0.3074 0 229.6301)" gradientUnits="userSpaceOnUse">
						<stop  offset="0" style="stop-color:#FFFFFF"/>
						<stop  offset="0.5647" style="stop-color:#EDE8E8"/>
						<stop  offset="0.9451" style="stop-color:#E9DFDF"/>
						<stop  offset="1" style="stop-color:#AD9A9A"/>
					</radialGradient>
					<path fill-rule="evenodd" clip-rule="evenodd" fill="url(#SVGID_23_)" d="M362,331.9c0,0.1,0,0.2,0,0.3l-0.1,0.2
						c-0.1,0.1-0.2,0.2-0.3,0.4c-0.5,0.6-1.5,1.1-3,1.6c-0.5,0.2-1,0.3-1.5,0.5c-0.3,0-0.5,0.1-0.8,0.1c-0.7,0.2-1.5,0.3-2.3,0.3
						c-0.3,0-0.5,0.1-0.8,0.1c-0.1,0-0.3,0-0.4,0c-0.4,0-0.7,0.1-1,0.1h-1.1h-0.4c-0.1,0-0.3,0-0.3,0c-0.6,0-1.2,0-1.8,0
						c-0.1,0-0.2,0-0.3-0.1c0,0-0.1,0-0.1,0c-0.9,0-1.7-0.1-2.4-0.3c-0.3,0-0.6-0.1-0.9-0.1c-0.2,0-0.4-0.1-0.6-0.1
						c-0.7-0.2-1.3-0.4-1.9-0.5c-0.1,0-0.1-0.1-0.1-0.1c-1.4-0.5-2.3-1-2.8-1.6c-0.1-0.1-0.2-0.3-0.3-0.4l-0.1-0.2
						c0-0.1,0-0.2,0-0.3v-0.4c0.1-1,1.3-1.9,3.4-2.6c0.5-0.2,0.9-0.3,1.4-0.4v3.9c0.5,0.2,1.2,0.2,1.9,0v-4.2
						c0.8-0.2,1.6-0.3,2.6-0.3v4.5c0.6,0.3,1.3,0.3,1.8,0v-4.6c0,0,0.1,0,0.2,0c0.1,0,0.2,0,0.3,0c0.7,0,1.4,0,2.1,0.1v4.5
						c0.6,0.3,1.2,0.3,1.8,0V328c0.7,0.1,1.4,0.2,2.1,0.3c0.1,0,0.3,0.1,0.5,0.1v4c0.5,0.3,1.1,0.3,1.8,0v-3.5
						c2.1,0.7,3.2,1.6,3.4,2.5V331.9z"/>
				</g>
			</g>
			<g>
				<path fill-rule="evenodd" clip-rule="evenodd" fill-opacity="0.498" d="M339.5,331.5c-0.1-0.2-0.2-0.3-0.3-0.4
					c0.1-0.2,0.2-0.3,0.3-0.4c0.6-0.6,1.5-1.1,2.8-1.5c2.2-0.7,5-1.1,8.2-1.1s5.9,0.4,8.1,1.1c1.3,0.5,2.3,1,2.8,1.5
					c0.2,0.1,0.3,0.2,0.3,0.4c-0.1,0.1-0.2,0.2-0.3,0.4c-0.5,0.5-1.5,1-2.8,1.4c-2.2,0.7-4.9,1.1-8.1,1.1s-5.9-0.4-8.2-1.1
					C341,332.5,340,332,339.5,331.5z"/>
			</g>
			<g>
				
					<radialGradient id="SVGID_24_" cx="349.8501" cy="335.25" r="6.1878" gradientTransform="matrix(1 9.018382e-003 -2.295543e-003 0.2545 0.7838 246.7637)" gradientUnits="userSpaceOnUse">
					<stop  offset="0" style="stop-color:#FFFFFF"/>
					<stop  offset="0.1765" style="stop-color:#FFFFFF"/>
					<stop  offset="0.3059" style="stop-color:#FFFFFF;stop-opacity:0.4235"/>
					<stop  offset="0.4902" style="stop-color:#FFFFFF;stop-opacity:0.2314"/>
					<stop  offset="0.651" style="stop-color:#FFFFFF;stop-opacity:8.235294e-002"/>
					<stop  offset="1" style="stop-color:#FFFFFF;stop-opacity:0"/>
				</radialGradient>
				<path fill-rule="evenodd" clip-rule="evenodd" fill="url(#SVGID_24_)" d="M356,335.3c0,0.4-0.6,0.8-1.8,1.1
					c-1.2,0.3-2.7,0.4-4.4,0.4c-1.6,0-3-0.2-4.3-0.5c-1.1-0.3-1.7-0.7-1.7-1.1c0-0.4,0.6-0.8,1.7-1.1c1.2-0.3,2.6-0.5,4.3-0.4
					c1.6,0,3.1,0.1,4.4,0.5C355.4,334.5,356,334.9,356,335.3z"/>
			</g>
			<g>
				<g>
					<path fill-rule="evenodd" clip-rule="evenodd" fill="#A7ABAE" d="M332.1,246.6v-0.8c0.2-1.5,2-2.8,5.3-3.9
						c0.9-0.3,1.9-0.6,2.9-0.8c2.1-0.4,4.3-0.7,6.6-0.9c0.9,0,1.8,0,2.8,0c0.2,0,0.4,0,0.6,0c3.4,0,6.5,0.3,9.3,0.8
						c1.3,0.2,2.5,0.6,3.7,1c3.5,1.2,5.3,2.6,5.3,4.3v0.3c0,0.2,0,0.3-0.1,0.5l-0.2,0.3c-0.6,1.3-2.3,2.4-5,3.3
						c-0.8,0.2-1.6,0.5-2.4,0.6c-0.4,0.1-0.9,0.2-1.3,0.3c-1.1,0.2-2.3,0.4-3.5,0.6c-0.4,0-0.8,0.1-1.2,0.1c-0.2,0-0.4,0-0.6,0.1
						c-0.6,0-1.2,0-1.5,0.1H351l-0.7,0c-0.2,0-0.4,0-0.6,0c-0.9,0-1.9-0.1-2.8-0.1c-0.1,0-0.2,0-0.3,0c-0.1,0-0.1,0-0.2,0
						c-1.4-0.1-2.6-0.3-3.9-0.5c-0.4,0-0.9-0.1-1.3-0.3c-0.3,0-0.7-0.1-1-0.1c-1-0.2-2-0.5-2.9-0.8c-0.1,0-0.2-0.1-0.3-0.1
						c-2.6-0.9-4.2-2-4.8-3.1l-0.1-0.3C332.2,246.8,332.2,246.7,332.1,246.6z M347,245.6L347,245.6c0.1,0.2,0.3,0.4,0.6,0.4
						c0.1,0.1,0.2,0.1,0.4,0.2c0.1,0,0.2,0,0.3,0c0.1,0,0.1,0,0.2,0.1c0.1,0,0.2,0,0.3,0c0.3,0,0.6,0.1,0.9,0.1h0c0.2,0,0.4,0,0.6,0
						c0.1,0,0.1,0,0.1,0h0.2h0.6c0.1,0,0.2,0,0.3,0c0.1,0,0.1,0,0.2,0c0.3,0,0.5-0.1,0.8-0.1c0.1,0,0.2-0.1,0.3-0.1c0,0,0.1,0,0.2,0
						c0.5-0.2,0.8-0.4,0.9-0.6v0c0.1,0,0.1-0.1,0.1-0.1c0-0.3-0.3-0.6-1-0.8c-0.2,0-0.3-0.1-0.5-0.1c-0.6-0.1-1.2-0.2-2-0.2
						c0,0-0.1,0-0.1,0c-0.2,0-0.4,0-0.6,0c-0.5,0-1,0.1-1.4,0.3c-0.1,0-0.2,0-0.3,0c-0.7,0.2-1,0.5-1,0.8
						C347,245.5,347,245.6,347,245.6z"/>
					<linearGradient id="SVGID_25_" gradientUnits="userSpaceOnUse" x1="332.1499" y1="288.2871" x2="368.5996" y2="288.2871">
						<stop  offset="0" style="stop-color:#1E1E1D"/>
						<stop  offset="9.803922e-002" style="stop-color:#7E7973"/>
						<stop  offset="0.1882" style="stop-color:#D5DCE2"/>
						<stop  offset="0.2471" style="stop-color:#D5DCE2"/>
						<stop  offset="0.4078" style="stop-color:#F0F4FF"/>
						<stop  offset="0.5176" style="stop-color:#BDAFA5"/>
						<stop  offset="0.6392" style="stop-color:#FFFFFF"/>
						<stop  offset="0.6784" style="stop-color:#FFFFFF"/>
						<stop  offset="0.8902" style="stop-color:#606063"/>
						<stop  offset="1" style="stop-color:#4C514A"/>
					</linearGradient>
					<path fill-rule="evenodd" clip-rule="evenodd" fill="url(#SVGID_25_)" d="M368.6,246.4v9.5v1V277v44.5v0.2v2.4
						c0,0.2,0,0.5-0.1,0.7c-0.1,0.1-0.1,0.3-0.2,0.4c-0.6,1.2-2.3,2.3-5,3.2c-0.8,0.2-1.6,0.5-2.4,0.6c-0.4,0.1-0.9,0.2-1.3,0.3
						c-1.1,0.2-2.3,0.4-3.5,0.5c-0.4,0-0.8,0.1-1.2,0.1c-0.2,0-0.4,0-0.6,0c-0.5,0-1,0.1-1.5,0.1c-0.2,0-0.5,0-0.8,0
						c-0.3,0-0.6,0-0.9,0c-0.2,0-0.4,0-0.7,0c-1.3,0-2.5,0-3.6-0.1c-0.1,0-0.1,0-0.2,0c-1.4-0.1-2.6-0.3-3.9-0.4
						c-0.4,0-0.9-0.1-1.3-0.2c-1.4-0.3-2.8-0.6-3.9-1c-0.1,0-0.2-0.1-0.3-0.1c-2.6-0.9-4.2-1.9-4.8-3.1c0-0.1-0.1-0.2-0.1-0.4
						c-0.1-0.1-0.1-0.2-0.1-0.4c0-0.1,0-0.2,0-0.4v-67.3v-1v-9.3c0,0.1,0,0.2,0.1,0.4l0.1,0.3c0.6,1.2,2.2,2.2,4.8,3.1
						c0.1,0.1,0.2,0.1,0.3,0.1c0.9,0.3,1.9,0.5,2.9,0.8c0.4,0.1,0.7,0.1,1,0.1c0.4,0.1,0.8,0.2,1.3,0.3c1.2,0.2,2.5,0.4,3.9,0.5
						c0.1,0,0.1,0,0.2,0c0.1,0,0.2,0,0.3,0c0.9,0.1,1.8,0.1,2.8,0.1c0.2,0,0.4,0,0.6,0l0.7,0h1.7c0.4-0.1,0.9-0.1,1.5-0.1
						c0.2,0,0.4-0.1,0.6-0.1c0.4,0,0.8-0.1,1.2-0.1c1.2-0.1,2.4-0.3,3.5-0.6c0.4-0.1,0.9-0.1,1.3-0.3c0.8-0.2,1.6-0.4,2.4-0.6
						c2.7-0.9,4.4-2,5-3.3l0.2-0.3C368.6,246.8,368.6,246.6,368.6,246.4z"/>
					<path fill-rule="evenodd" clip-rule="evenodd" d="M347,245.6c0,0,0-0.1,0-0.1c0-0.3,0.3-0.6,1-0.8c0.1,0,0.2,0,0.3,0
						c0.4-0.1,0.9-0.2,1.4-0.3c0.2,0,0.4,0,0.6,0c0.1,0,0.1,0,0.1,0c0.7,0,1.4,0.1,2,0.2c0.2,0,0.3,0.1,0.5,0.1c0.7,0.2,1,0.5,1,0.8
						c0,0.1,0,0.1-0.1,0.1v0c-0.1,0.2-0.4,0.4-0.9,0.6c-0.1,0-0.2,0-0.2,0c-0.1,0-0.2,0.1-0.3,0.1c-0.2,0-0.5,0.1-0.8,0.1
						c-0.1,0-0.1,0-0.2,0c-0.1,0-0.2,0-0.3,0h-0.6h-0.2c0,0-0.1,0-0.1,0c-0.2,0-0.4,0-0.6,0h0c-0.3,0-0.6-0.1-0.9-0.1
						c-0.1,0-0.2,0-0.3,0c-0.1,0-0.1-0.1-0.2-0.1c-0.1,0-0.2,0-0.3,0c-0.1-0.1-0.3-0.1-0.4-0.2C347.3,246,347.1,245.8,347,245.6
						L347,245.6z"/>
					
						<path fill-rule="evenodd" clip-rule="evenodd" fill="none" stroke="#000000" stroke-linecap="round" stroke-linejoin="round" stroke-miterlimit="3" d="
						M347,245.6c0,0,0-0.1,0-0.1c0-0.3,0.3-0.6,1-0.8c0.1,0,0.2,0,0.3,0c0.4-0.1,0.9-0.2,1.4-0.3c0.2,0,0.4,0,0.6,0
						c0.1,0,0.1,0,0.1,0c0.7,0,1.4,0.1,2,0.2c0.2,0,0.3,0.1,0.5,0.1c0.7,0.2,1,0.5,1,0.8c0,0.1,0,0.1-0.1,0.1v0
						c-0.1,0.2-0.4,0.4-0.9,0.6c-0.1,0-0.2,0-0.2,0c-0.1,0-0.2,0.1-0.3,0.1c-0.2,0-0.5,0.1-0.8,0.1c-0.1,0-0.1,0-0.2,0
						c-0.1,0-0.2,0-0.3,0h-0.6h-0.2c0,0-0.1,0-0.1,0c-0.2,0-0.4,0-0.6,0h0c-0.3,0-0.6-0.1-0.9-0.1c-0.1,0-0.2,0-0.3,0
						c-0.1,0-0.1-0.1-0.2-0.1c-0.1,0-0.2,0-0.3,0c-0.1-0.1-0.3-0.1-0.4-0.2C347.3,246,347.1,245.8,347,245.6L347,245.6z"/>
				</g>
			</g>
		</g>
		<g>
			<g>
				<g>
					<path fill-rule="evenodd" clip-rule="evenodd" fill="#624F41" d="M330.7,320.1c-0.1,0.3-0.5,0.6-1.3,0.9
						c-0.4,0.1-0.9,0.2-1.4,0.3c-0.4,0.1-0.9,0.1-1.3,0.1c-0.1,0-0.3,0-0.4,0c-1,0-1.8-0.1-2.6-0.2c-0.2-0.1-0.4-0.2-0.6-0.2
						c-0.7-0.2-1.1-0.4-1.2-0.7v-0.5c0.1-0.3,0.5-0.5,1.2-0.7c0.9-0.3,2-0.4,3.1-0.4c1.2,0,2.2,0.1,3.1,0.4c0.8,0.2,1.2,0.5,1.3,0.9
						V320.1z"/>
					<linearGradient id="SVGID_26_" gradientUnits="userSpaceOnUse" x1="321.9248" y1="331.7246" x2="330.6748" y2="331.7246">
						<stop  offset="0" style="stop-color:#4B4841"/>
						<stop  offset="0.2784" style="stop-color:#645F55"/>
						<stop  offset="0.5216" style="stop-color:#B1AEA9"/>
						<stop  offset="0.6078" style="stop-color:#F3F3F3"/>
						<stop  offset="0.6627" style="stop-color:#E5E4E3"/>
						<stop  offset="0.7765" style="stop-color:#7C766B"/>
						<stop  offset="1" style="stop-color:#585858"/>
					</linearGradient>
					<path fill-rule="evenodd" clip-rule="evenodd" fill="url(#SVGID_26_)" d="M330.7,320.1V342c-0.1,0.4-0.5,0.7-1.3,0.9
						c-0.4,0.1-0.9,0.2-1.4,0.3c-0.4,0.1-0.9,0.1-1.3,0.1c-0.1,0-0.3,0-0.4,0c-1,0-1.8-0.1-2.6-0.3c-0.2,0-0.4-0.1-0.6-0.1
						c-0.7-0.2-1.1-0.4-1.2-0.7v-21.9c0.1,0.3,0.5,0.5,1.2,0.7c0.2,0,0.4,0.1,0.6,0.2c0.8,0.1,1.6,0.2,2.6,0.2c0.1,0,0.3,0,0.4,0
						c0.5,0,0.9,0,1.3-0.1c0.5-0.1,0.9-0.2,1.4-0.3C330.2,320.8,330.6,320.5,330.7,320.1z"/>
				</g>
			</g>
			<g>
				<path fill-rule="evenodd" clip-rule="evenodd" fill-opacity="0.251" d="M326.9,308.5c0.5,0,0.9,0,1.3-0.1c0.5-0.1,1-0.2,1.4-0.3
					c0.8-0.2,1.2-0.5,1.3-0.9v21.9c-0.1,0.4-0.5,0.7-1.3,0.9c-0.4,0.2-0.9,0.3-1.4,0.3c-0.4,0.1-0.8,0.1-1.3,0.1c-0.1,0-0.3,0-0.5,0
					c-1,0-1.8-0.1-2.5-0.3c-0.2,0-0.4-0.1-0.5-0.1c-0.7-0.2-1.1-0.4-1.3-0.7v-21.9c0.1,0.3,0.5,0.6,1.3,0.8c0.1,0.1,0.3,0.1,0.5,0.2
					c0.7,0.2,1.6,0.3,2.5,0.3C326.6,308.5,326.7,308.5,326.9,308.5z"/>
			</g>
			<g>
				<g>
					<path fill-rule="evenodd" clip-rule="evenodd" fill="#624F41" d="M333.9,288.6c-0.1,0.6-0.9,1.1-2.2,1.5
						c-0.7,0.2-1.5,0.4-2.4,0.5c-0.7,0.1-1.5,0.2-2.3,0.2c-0.2,0-0.5,0-0.7,0c-1.7,0-3.1-0.1-4.4-0.4c-0.3-0.1-0.6-0.2-0.9-0.3
						c-1.2-0.4-1.9-0.8-2.1-1.3V288c0.2-0.5,0.9-0.9,2.1-1.3c1.5-0.5,3.3-0.7,5.3-0.7c2.1,0,3.9,0.2,5.4,0.7c1.4,0.4,2.1,1,2.3,1.5
						L333.9,288.6z"/>
					<linearGradient id="SVGID_27_" gradientUnits="userSpaceOnUse" x1="318.7876" y1="308.4502" x2="333.8126" y2="308.4502">
						<stop  offset="0" style="stop-color:#4B4841"/>
						<stop  offset="0.2784" style="stop-color:#645F55"/>
						<stop  offset="0.5216" style="stop-color:#B1AEA9"/>
						<stop  offset="0.6078" style="stop-color:#F3F3F3"/>
						<stop  offset="0.6627" style="stop-color:#E5E4E3"/>
						<stop  offset="0.7765" style="stop-color:#7C766B"/>
						<stop  offset="1" style="stop-color:#585858"/>
					</linearGradient>
					<path fill-rule="evenodd" clip-rule="evenodd" fill="url(#SVGID_27_)" d="M333.9,288.6v37.5c-0.1,0.5-0.9,1-2.2,1.5
						c-0.7,0.2-1.5,0.4-2.4,0.5c-0.7,0.1-1.5,0.1-2.3,0.1c-0.2,0-0.5,0-0.7,0c-1.7,0-3.1-0.1-4.4-0.4c-0.3-0.1-0.6-0.2-0.9-0.3
						c-1.2-0.3-1.9-0.7-2.1-1.2v-37.6c0.2,0.5,0.9,0.9,2.1,1.3c0.3,0.1,0.6,0.1,0.9,0.3c1.3,0.3,2.8,0.4,4.4,0.4c0.2,0,0.5,0,0.7,0
						c0.8,0,1.6-0.1,2.3-0.2c0.8-0.1,1.6-0.3,2.4-0.5C333,289.7,333.7,289.2,333.9,288.6z"/>
				</g>
			</g>
		</g>
		<g>
			<g>
				<g>
					<path fill-rule="evenodd" clip-rule="evenodd" fill="#624F41" d="M377.1,325c-0.1,0.3-0.5,0.6-1.3,0.9
						c-0.4,0.1-0.9,0.2-1.3,0.3c-0.4,0-0.9,0-1.3,0c-0.2,0-0.3,0-0.4,0c-1,0-1.9-0.1-2.7-0.2c-0.2-0.1-0.4-0.1-0.5-0.1
						c-0.7-0.2-1.1-0.5-1.3-0.8v-0.4c0.2-0.3,0.6-0.5,1.3-0.8c0.8-0.3,1.9-0.5,3.2-0.5c1.2,0,2.2,0.1,3.1,0.5
						c0.8,0.3,1.2,0.5,1.3,0.8c0,0,0,0.1,0,0.1V325z"/>
					<linearGradient id="SVGID_28_" gradientUnits="userSpaceOnUse" x1="368.375" y1="336.625" x2="377.125" y2="336.625">
						<stop  offset="0" style="stop-color:#4B4841"/>
						<stop  offset="0.2784" style="stop-color:#645F55"/>
						<stop  offset="0.5216" style="stop-color:#B1AEA9"/>
						<stop  offset="0.6078" style="stop-color:#F3F3F3"/>
						<stop  offset="0.6627" style="stop-color:#E5E4E3"/>
						<stop  offset="0.7765" style="stop-color:#7C766B"/>
						<stop  offset="1" style="stop-color:#585858"/>
					</linearGradient>
					<path fill-rule="evenodd" clip-rule="evenodd" fill="url(#SVGID_28_)" d="M377.1,325v21.8c0,0,0,0.1,0,0.1
						c-0.1,0.3-0.5,0.6-1.3,0.9c-0.4,0.1-0.9,0.2-1.3,0.3c-0.4,0.1-0.9,0.1-1.3,0.2c-0.2,0-0.3,0-0.4,0c-1,0-1.9-0.1-2.7-0.3
						c-0.2,0-0.4-0.1-0.5-0.1c-0.7-0.2-1.1-0.5-1.3-0.8v-21.9c0.2,0.3,0.6,0.5,1.3,0.8c0.1,0,0.3,0.1,0.5,0.1
						c0.7,0.1,1.6,0.2,2.7,0.2c0.1,0,0.2,0,0.4,0c0.5,0,0.9,0,1.3,0c0.5-0.1,0.9-0.2,1.3-0.3C376.6,325.6,377,325.4,377.1,325z"/>
				</g>
			</g>
			<g>
				<path fill-rule="evenodd" clip-rule="evenodd" fill-opacity="0.251" d="M369.6,312.8c0.1,0,0.3,0.1,0.5,0.2
					c0.7,0.2,1.6,0.3,2.7,0.3c0.1,0,0.2,0,0.4,0c0.5,0,0.9,0,1.3-0.1c0.5-0.1,0.9-0.2,1.3-0.3c0.8-0.2,1.2-0.5,1.3-0.9v21.9
					c0,0,0,0.1,0,0.1c-0.1,0.3-0.5,0.6-1.3,0.8c-0.4,0.2-0.9,0.3-1.3,0.4c-0.4,0-0.9,0-1.3,0c-0.2,0-0.3,0-0.4,0
					c-1,0-1.9-0.1-2.7-0.2c-0.2-0.1-0.4-0.1-0.5-0.2c-0.7-0.2-1.1-0.4-1.3-0.7v-21.9C368.5,312.4,368.9,312.6,369.6,312.8z"/>
			</g>
			<g>
				<g>
					<path fill-rule="evenodd" clip-rule="evenodd" fill="#624F41" d="M365.2,293.7v-0.8c0.3-0.5,1-0.9,2.1-1.3
						c1.5-0.5,3.3-0.7,5.4-0.7c2.1,0,3.8,0.2,5.3,0.7c1.4,0.4,2.1,0.9,2.2,1.5v0.4c-0.1,0.5-0.8,1-2.2,1.5c-0.7,0.2-1.5,0.4-2.3,0.5
						c-0.7,0.1-1.5,0.2-2.3,0.2c-0.2,0-0.5,0-0.7,0c-1.7,0-3.2-0.1-4.5-0.4c-0.3-0.1-0.6-0.2-0.9-0.3
						C366.2,294.6,365.5,294.2,365.2,293.7z"/>
					<linearGradient id="SVGID_29_" gradientUnits="userSpaceOnUse" x1="365.2373" y1="313.3501" x2="380.2623" y2="313.3501">
						<stop  offset="0" style="stop-color:#4B4841"/>
						<stop  offset="0.2784" style="stop-color:#645F55"/>
						<stop  offset="0.5216" style="stop-color:#B1AEA9"/>
						<stop  offset="0.6078" style="stop-color:#F3F3F3"/>
						<stop  offset="0.6627" style="stop-color:#E5E4E3"/>
						<stop  offset="0.7765" style="stop-color:#7C766B"/>
						<stop  offset="1" style="stop-color:#585858"/>
					</linearGradient>
					<path fill-rule="evenodd" clip-rule="evenodd" fill="url(#SVGID_29_)" d="M380.3,293.5V331c-0.1,0.6-0.8,1.1-2.2,1.5
						c-0.7,0.2-1.5,0.4-2.3,0.5c-0.7,0.1-1.5,0.1-2.3,0.2c-0.2,0-0.5,0-0.7,0c-1.7,0-3.2-0.2-4.5-0.5c-0.3-0.1-0.6-0.2-0.9-0.3
						c-1.2-0.3-1.9-0.8-2.1-1.3v-37.5c0.3,0.5,1,0.9,2.1,1.3c0.3,0.1,0.6,0.2,0.9,0.3c1.3,0.3,2.8,0.4,4.5,0.4c0.2,0,0.5,0,0.7,0
						c0.8,0,1.5-0.1,2.3-0.2c0.9-0.1,1.6-0.3,2.3-0.5C379.4,294.5,380.2,294,380.3,293.5z"/>
				</g>
			</g>
		</g>
		<g>
			<g>
				<linearGradient id="SVGID_30_" gradientUnits="userSpaceOnUse" x1="302.0498" y1="291.0254" x2="399.7998" y2="291.0254">
					<stop  offset="0" style="stop-color:#2C251E"/>
					<stop  offset="0.1843" style="stop-color:#5D5044"/>
					<stop  offset="0.3608" style="stop-color:#A49F97"/>
					<stop  offset="0.4902" style="stop-color:#B6B4AD"/>
					<stop  offset="0.5647" style="stop-color:#D8D6D1"/>
					<stop  offset="0.6" style="stop-color:#FFFFFF"/>
					<stop  offset="0.6941" style="stop-color:#EDE9E6"/>
					<stop  offset="0.7529" style="stop-color:#C3B6AD"/>
					<stop  offset="0.8471" style="stop-color:#C0C2C1"/>
					<stop  offset="1" style="stop-color:#3F3E3C"/>
					<stop  offset="1" style="stop-color:#B2AEAB"/>
				</linearGradient>
				<path fill-rule="evenodd" clip-rule="evenodd" fill="url(#SVGID_30_)" d="M399.8,282.8v2c0,0.5-0.2,1-0.4,1.5
					c-0.1,0.3-0.2,0.5-0.4,0.8c-1.7,3-6.2,5.7-13.6,8c-3.7,1.2-7.8,2.1-12,2.8c-2.2,0.3-4.4,0.6-6.6,0.9c-1.3,0.1-2.6,0.3-3.8,0.4
					c-0.6,0-1.2,0.1-1.8,0.1c-1.3,0.1-2.7,0.1-4,0.1c-0.7,0-1.4,0-2.1,0c-1.4,0-2.8,0.1-4.1,0.1c-1.7,0-3.4,0-5.1-0.1
					c-1.8-0.1-3.6-0.2-5.4-0.3c-4.3-0.2-8.3-0.6-12-1.3c-0.1,0-0.1,0-0.2,0c-4.3-0.7-8.3-1.7-11.9-2.8c-7.4-2.3-11.9-4.9-13.6-8
					c-0.2-0.2-0.3-0.5-0.3-0.8c-0.2-0.4-0.3-0.9-0.4-1.4c0-0.2-0.1-0.3-0.1-0.4v-1.8c0,0.1,0,0.2,0.1,0.3c0,0.1,0,0.2,0,0.4
					c0,0.3,0.1,0.6,0.3,0.9c0.1,0.3,0.2,0.6,0.3,0.8c1.7,3,6.2,5.6,13.6,7.9c3.6,1.1,7.6,2,11.9,2.8c0.1,0,0.1,0,0.2,0
					c3.8,0.6,7.8,1.1,12,1.3c1.7,0.1,3.5,0.2,5.4,0.3c1.7,0,3.4,0.1,5.1,0.1c1.4,0,2.8,0,4.1-0.1c0.7,0,1.4,0,2.1,0
					c1.4-0.1,2.7-0.1,4-0.2c0.6,0,1.1-0.1,1.8-0.1c1.3-0.1,2.5-0.3,3.8-0.3c2.2-0.2,4.4-0.5,6.6-0.9c4.3-0.7,8.3-1.6,12-2.8
					c7.4-2.3,11.9-5,13.6-7.9c0.2-0.2,0.3-0.5,0.4-0.8c0.2-0.3,0.3-0.6,0.3-0.9C399.8,283.1,399.8,283,399.8,282.8z"/>
				<path fill-rule="evenodd" clip-rule="evenodd" fill="#777775" d="M302,282.7v-0.4c0-0.2,0-0.4,0.1-0.5c0.5-3.9,5.2-7.3,14.3-10
					c9.6-2.9,21.1-4.4,34.6-4.4c13.5,0,25,1.5,34.5,4.4c9.3,2.8,14,6.2,14.3,10.3v0.8c0,0.2,0,0.4,0,0.6c-0.1,0.3-0.2,0.6-0.3,0.9
					c-0.1,0.3-0.2,0.6-0.4,0.8c-1.7,3-6.2,5.6-13.6,7.9c-3.7,1.1-7.8,2.1-12,2.8c-2.2,0.4-4.4,0.7-6.6,0.9c-1.3,0.1-2.6,0.2-3.8,0.3
					c-0.6,0-1.2,0.1-1.8,0.1c-1.3,0.1-2.7,0.1-4,0.2c-0.7,0-1.4,0-2.1,0c-1.4,0-2.8,0.1-4.1,0.1c-1.7,0-3.4,0-5.1-0.1
					c-1.8-0.1-3.6-0.2-5.4-0.3c-4.3-0.2-8.3-0.7-12-1.3c-0.1,0-0.1,0-0.2,0c-4.3-0.7-8.3-1.6-11.9-2.8c-7.4-2.3-11.9-5-13.6-7.9
					c-0.2-0.2-0.3-0.5-0.3-0.8c-0.2-0.3-0.3-0.6-0.3-0.9c0-0.2,0-0.3,0-0.4C302.1,282.9,302.1,282.8,302,282.7z"/>
			</g>
		</g>
		<g>
			<g>
				<path fill-rule="evenodd" clip-rule="evenodd" fill="#DDDDDD" d="M302.7,238.7c-0.1-0.2-0.1-0.5-0.1-0.7c0-0.2,0-0.4,0.1-0.6
					c0.4-3.8,5.1-7.1,14-9.9c9.4-2.9,20.8-4.4,34.2-4.4c13.4,0,24.8,1.5,34.2,4.4c9.4,2.9,14.1,6.5,14.1,10.5c0,0,0,0.1,0,0.2v0.3
					c0,0.5-0.1,1-0.4,1.5c-0.1,0.3-0.2,0.5-0.3,0.8c-1.7,3-6.1,5.6-13.4,7.9c-3.7,1.1-7.7,2-12,2.8c-3.8,0.6-7.8,1-12,1.3
					c-1.3,0.1-2.6,0.1-4,0.1c-0.7,0.1-1.4,0.1-2.1,0.2c-1.3,0-2.7,0-4.1,0c-3.6,0-7-0.1-10.3-0.3c-4.2-0.3-8.1-0.7-11.9-1.3
					c-4.3-0.7-8.3-1.6-12-2.8c-7.3-2.3-11.8-4.9-13.5-7.9c-0.1-0.2-0.2-0.5-0.3-0.8C302.8,239.6,302.7,239.1,302.7,238.7z"/>
				<linearGradient id="SVGID_31_" gradientUnits="userSpaceOnUse" x1="302.6001" y1="267.6499" x2="399.2002" y2="267.6499">
					<stop  offset="0" style="stop-color:#A8A6A6"/>
					<stop  offset="0.2824" style="stop-color:#F4F4F4"/>
					<stop  offset="0.5333" style="stop-color:#FFFFFF"/>
					<stop  offset="0.7608" style="stop-color:#E8E3E3"/>
					<stop  offset="1" style="stop-color:#CDBABA"/>
				</linearGradient>
				<path fill-rule="evenodd" clip-rule="evenodd" fill="url(#SVGID_31_)" d="M399.2,238.5V282c0,0.6-0.1,1.2-0.4,1.8
					c-0.1,0.3-0.2,0.5-0.3,0.8c-1.7,3-6.1,5.6-13.4,7.9c-3.7,1.1-7.7,2-12,2.7c-3.8,0.6-7.8,1.1-12,1.4c-1.3,0.1-2.6,0.2-4,0.2
					c-0.7,0-1.4,0-2.1,0c-1.3,0-2.7,0-4.1,0c-3.6,0-7-0.1-10.3-0.3c-4.2-0.2-8.1-0.7-11.9-1.3c-4.3-0.7-8.3-1.6-12-2.7
					c-7.3-2.3-11.8-4.9-13.5-7.9c-0.1-0.2-0.2-0.5-0.3-0.8c-0.1-0.4-0.2-0.9-0.3-1.3c-0.1-0.2-0.1-0.4-0.1-0.6c0-0.2,0-0.4,0.1-0.6
					v-42.6c0,0.4,0.1,0.9,0.3,1.3c0.1,0.3,0.3,0.5,0.3,0.8c1.7,3,6.2,5.6,13.5,7.9c3.7,1.1,7.7,2,12,2.8c3.7,0.6,7.7,1,11.9,1.3
					c3.3,0.2,6.7,0.3,10.3,0.3c1.4,0,2.8,0,4.1,0c0.7,0,1.4-0.1,2.1-0.2c1.3,0,2.7-0.1,4-0.1c4.3-0.3,8.3-0.7,12-1.3
					c4.3-0.7,8.3-1.6,12-2.8c7.3-2.3,11.7-4.9,13.4-7.9c0.1-0.2,0.3-0.5,0.3-0.8C399.1,239.5,399.2,239,399.2,238.5z"/>
			</g>
		</g>
		<g>
			
				<radialGradient id="SVGID_32_" cx="350.8496" cy="259.6499" r="114.1875" gradientTransform="matrix(1 0 0 0.2722 0 188.9603)" gradientUnits="userSpaceOnUse">
				<stop  offset="0.4588" style="stop-color:#614A30"/>
				<stop  offset="0.702" style="stop-color:#95897A;stop-opacity:0.549"/>
				<stop  offset="0.8784" style="stop-color:#D6D6D6;stop-opacity:0"/>
			</radialGradient>
			<path fill-rule="evenodd" clip-rule="evenodd" fill="url(#SVGID_32_)" d="M357.4,261c1.4-0.1,2.7-0.1,4.1-0.3
				c4.4-0.2,8.5-0.6,12.5-1.3c4.4-0.7,8.6-1.6,12.4-2.8c6.8-2.1,11.2-4.4,13.2-6.9v27.6c-2.4,1.4-5.7,2.8-9.9,4c-4,1.2-8.3,2.2-13,3
				c-4.1,0.7-8.5,1.2-13.2,1.5c-1.4,0.1-2.8,0.1-4.3,0.3c-0.7,0-1.5,0.1-2.3,0.1c-1.5,0-3,0.1-4.5,0.1c-3.9,0.1-7.7,0-11.3-0.1
				c-4.6-0.2-8.9-0.5-13-1c-4.8-0.7-9.2-1.6-13.2-2.7c-5.8-1.5-9.9-3.3-12.5-5.3V250c2.1,2.6,6.5,4.8,13.2,6.8
				c3.8,1.1,7.9,2.1,12.3,2.8c3.9,0.6,8,1,12.3,1.3c3.4,0.2,7,0.4,10.6,0.4c1.4,0,2.8,0,4.3,0C356,261.1,356.7,261,357.4,261z"/>
		</g>
	</g>
</g>
<g>
	
		<path fill-rule="evenodd" clip-rule="evenodd" fill="none" stroke="#FFFFFF" stroke-linecap="round" stroke-linejoin="round" stroke-miterlimit="3" d="
		M344.2,343.8V387c0,2.3-1.2,3.5-3.5,3.5H109 M357.8,343.8V387c0,2.3,1.2,3.5,3.5,3.5H593 M348.9,343.8v75.4c0,2.3-1.2,3.5-3.5,3.5
		H109 M353.1,343.8v75.4c0,2.3,1.2,3.5,3.5,3.5H593"/>
</g>
<g>
	<g>
		<path fill-rule="evenodd" clip-rule="evenodd" fill="#FFFFB7" d="M563.6,395v-10.5c0-3.3,1.6-4.9,4.9-4.9h74.3
			c3.3,0,4.9,1.6,4.9,4.9V395c0,3.2-1.6,4.8-4.9,4.8h-74.3C565.2,399.8,563.6,398.3,563.6,395z"/>
		
			<path fill-rule="evenodd" clip-rule="evenodd" fill="none" stroke="#7B2C17" stroke-linecap="round" stroke-linejoin="round" stroke-miterlimit="3" d="
			M563.6,395c0,3.2,1.6,4.8,4.9,4.8h74.3c3.3,0,4.9-1.6,4.9-4.8v-10.5c0-3.3-1.6-4.9-4.9-4.9h-74.3c-3.2,0-4.9,1.6-4.9,4.9V395z"/>
	</g>
</g>
<g>
	<g>
		<path fill-rule="evenodd" clip-rule="evenodd" fill="#FFFFB7" d="M54.4,395v-10.5c0-3.3,1.6-4.9,4.9-4.9h74.3
			c3.3,0,4.9,1.6,4.9,4.9V395c0,3.2-1.6,4.8-4.9,4.8H59.3C56,399.8,54.4,398.3,54.4,395z"/>
		
			<path fill-rule="evenodd" clip-rule="evenodd" fill="none" stroke="#7B2C17" stroke-linecap="round" stroke-linejoin="round" stroke-miterlimit="3" d="
			M54.4,395c0,3.2,1.6,4.8,4.9,4.8h74.3c3.3,0,4.9-1.6,4.9-4.8v-10.5c0-3.3-1.6-4.9-4.9-4.9H59.3c-3.2,0-4.9,1.6-4.9,4.9V395z"/>
	</g>
</g>
<g>
	<g>
		<path fill-rule="evenodd" clip-rule="evenodd" fill="#FFFFB7" d="M660.6,427.6c0,3.2-1.6,4.8-4.9,4.8h-74.3
			c-3.2,0-4.9-1.6-4.9-4.8v-10.4c0-3.3,1.6-4.9,4.9-4.9h74.3c3.3,0,4.9,1.6,4.9,4.9V427.6z"/>
		
			<path fill-rule="evenodd" clip-rule="evenodd" fill="none" stroke="#7B2C17" stroke-linecap="round" stroke-linejoin="round" stroke-miterlimit="3" d="
			M660.6,427.6v-10.4c0-3.3-1.6-4.9-4.9-4.9h-74.3c-3.2,0-4.9,1.6-4.9,4.9v10.4c0,3.2,1.6,4.8,4.9,4.8h74.3
			C659,432.4,660.6,430.8,660.6,427.6z"/>
	</g>
</g>
<g>
	<g>
		<path fill-rule="evenodd" clip-rule="evenodd" fill="#FFFFB7" d="M125.4,417.2v10.4c0,3.2-1.6,4.8-4.9,4.8H46.2
			c-3.2,0-4.9-1.6-4.9-4.8v-10.4c0-3.3,1.6-4.9,4.9-4.9h74.3C123.7,412.3,125.4,413.9,125.4,417.2z"/>
		
			<path fill-rule="evenodd" clip-rule="evenodd" fill="none" stroke="#7B2C17" stroke-linecap="round" stroke-linejoin="round" stroke-miterlimit="3" d="
			M125.4,417.2c0-3.3-1.6-4.9-4.9-4.9H46.2c-3.2,0-4.9,1.6-4.9,4.9v10.4c0,3.2,1.6,4.8,4.9,4.8h74.3c3.3,0,4.9-1.6,4.9-4.8V417.2z"
			/>
	</g>
</g>
</svg>
