<?xml version="1.0" encoding="utf-8"?>
<!-- Generator: Adobe Illustrator 16.0.0, SVG Export Plug-In . SVG Version: 6.00 Build 0)  -->
<!DOCTYPE svg PUBLIC "-//W3C//DTD SVG 1.1//EN" "http://www.w3.org/Graphics/SVG/1.1/DTD/svg11.dtd">
<svg version="1.1" id="Layer_1" xmlns="http://www.w3.org/2000/svg" xmlns:xlink="http://www.w3.org/1999/xlink" x="0px" y="0px"
	 width="700px" height="700px" viewBox="0 0 700 700" enable-background="new 0 0 700 700" xml:space="preserve">
<g>
	
		<linearGradient id="SVGID_1_" gradientUnits="userSpaceOnUse" x1="-14.9648" y1="-24.4858" x2="-13.2494" y2="-10.6127" gradientTransform="matrix(1.1666 0 0 1.1666 464.55 334.2502)">
		<stop  offset="0" style="stop-color:#333030"/>
		<stop  offset="7.058824e-002" style="stop-color:#000000"/>
		<stop  offset="0.298" style="stop-color:#A1A194"/>
		<stop  offset="0.4588" style="stop-color:#3A3A38"/>
		<stop  offset="0.6196" style="stop-color:#3A3A39"/>
		<stop  offset="0.8078" style="stop-color:#151514"/>
		<stop  offset="1" style="stop-color:#000000"/>
	</linearGradient>
	<path fill-rule="evenodd" clip-rule="evenodd" fill="url(#SVGID_1_)" d="M438.9,307.6l15.4-1.5c0.2,0,0.3-0.1,0.5-0.1
		c0.1,0,0.2,0,0.2,0c0.9,0.1,1.6,0.8,2.3,2.2c0.2,0.5,0.4,1,0.6,1.6c0.2,0.9,0.4,2,0.4,3.1c0,0.2,0,0.3,0,0.5c0,2.1-0.3,3.8-1,5.2
		c-0.6,1.2-1.2,1.9-2,2.1h-1l-15.4,2V307.6z"/>
</g>
<g>
	
		<linearGradient id="SVGID_2_" gradientUnits="userSpaceOnUse" x1="-14.0732" y1="-11.4307" x2="-12.3156" y2="5.0935" gradientTransform="matrix(1.1666 0 0 1.1666 464.55 334.2502)">
		<stop  offset="0" style="stop-color:#333030"/>
		<stop  offset="0.1529" style="stop-color:#000000"/>
		<stop  offset="0.3412" style="stop-color:#A1A194"/>
		<stop  offset="0.4588" style="stop-color:#414140"/>
		<stop  offset="0.549" style="stop-color:#5B5B5A"/>
		<stop  offset="0.7804" style="stop-color:#151514"/>
		<stop  offset="1" style="stop-color:#000000"/>
	</linearGradient>
	<path fill-rule="evenodd" clip-rule="evenodd" fill="url(#SVGID_2_)" d="M455.2,322.2c0.2,0,0.3-0.1,0.5-0.1c0.1,0,0.2,0,0.2,0
		c0.9,0.1,1.6,0.8,2.3,2.2c0.2,0.5,0.4,1,0.6,1.6c0.2,0.9,0.4,2,0.4,3.2c0,0.2,0,0.3,0,0.5c0,2.1-0.3,3.8-1,5.3
		c-0.6,1.2-1.2,1.9-2,2.1h-1l-15.4,2v-15.2L455.2,322.2z"/>
</g>
<g>
	<g>
		<g>
			<path fill-rule="evenodd" clip-rule="evenodd" fill-opacity="0.349" d="M426.5,438.4c-20.3,7.6-44.9,11.4-73.6,11.4
				c-28.7,0-53.3-3.8-73.6-11.4c-20.3-7.5-30.5-16.6-30.5-27.3c0-10.7,10.2-19.8,30.5-27.4c20.3-7.5,44.8-11.3,73.6-11.3
				c28.7,0,53.2,3.8,73.6,11.3c20.3,7.6,30.5,16.7,30.5,27.4C457,421.8,446.9,430.9,426.5,438.4z"/>
		</g>
		<g>
			<path fill-rule="evenodd" clip-rule="evenodd" fill-opacity="0.7294" d="M449.8,403.7c0,10-9.6,18.5-28.9,25.5
				c-19.2,7.1-42.5,10.6-69.6,10.6c-27.2,0-50.4-3.5-69.6-10.6c-19.2-7-28.9-15.6-28.9-25.5c0-0.9,0.8-1.8,2.3-2.7l192.2-0.6
				C448.9,401.7,449.8,402.8,449.8,403.7z M334.6,366.9c5.4-0.3,10.9-0.5,16.7-0.5c5.7,0,11.3,0.2,16.7,0.5H334.6z"/>
		</g>
	</g>
	<g>
		<g>
			<g>
				
					<linearGradient id="SVGID_3_" gradientUnits="userSpaceOnUse" x1="-175.5635" y1="-51.4282" x2="-19.3643" y2="-94.0772" gradientTransform="matrix(1.1666 0 0 1.1666 464.55 334.2502)">
					<stop  offset="0" style="stop-color:#000000"/>
					<stop  offset="1" style="stop-color:#2E2E2C"/>
					<stop  offset="1" style="stop-color:#080808"/>
					<stop  offset="1" style="stop-color:#080808"/>
				</linearGradient>
				<path fill-rule="evenodd" clip-rule="evenodd" fill="url(#SVGID_3_)" d="M448.1,250.8c-1,9.4-10.5,17.5-28.5,24.1
					c-19,7.1-42,10.6-68.8,10.6c-26.8,0-49.8-3.5-68.9-10.6c-17.8-6.6-27.3-14.7-28.4-24.1V248c0.6-9.3,10.1-17.4,28.4-24.2
					c19.1-7,42.1-10.6,68.9-10.6c26.9,0,49.8,3.5,68.8,10.6c18,6.7,27.5,14.7,28.5,23.9V250.8z"/>
				
					<linearGradient id="SVGID_4_" gradientUnits="userSpaceOnUse" x1="-175.5635" y1="-51.4282" x2="-19.3643" y2="-94.0772" gradientTransform="matrix(1.1666 0 0 1.1666 464.55 334.2502)">
					<stop  offset="0" style="stop-color:#000000"/>
					<stop  offset="1" style="stop-color:#2E2E2C"/>
					<stop  offset="1" style="stop-color:#080808"/>
					<stop  offset="1" style="stop-color:#080808"/>
				</linearGradient>
				<path fill-rule="evenodd" clip-rule="evenodd" fill="url(#SVGID_4_)" d="M448.1,250.8c-1,9.4-10.5,17.5-28.5,24.1
					c-19,7.1-42,10.6-68.8,10.6c-26.8,0-49.8-3.5-68.9-10.6c-17.8-6.6-27.3-14.7-28.4-24.1V248c0.6-9.3,10.1-17.4,28.4-24.2
					c19.1-7,42.1-10.6,68.9-10.6c26.9,0,49.8,3.5,68.8,10.6c18,6.7,27.5,14.7,28.5,23.9V250.8z"/>
				
					<linearGradient id="SVGID_5_" gradientUnits="userSpaceOnUse" x1="-181.8525" y1="8.3398" x2="-15.5525" y2="8.4515" gradientTransform="matrix(1.1666 0 0 1.1666 464.55 334.2502)">
					<stop  offset="0" style="stop-color:#000000"/>
					<stop  offset="0.1373" style="stop-color:#080808"/>
					<stop  offset="0.3882" style="stop-color:#232323"/>
					<stop  offset="0.5176" style="stop-color:#333333"/>
					<stop  offset="0.6078" style="stop-color:#2E2C2C"/>
					<stop  offset="0.8" style="stop-color:#0F0E0E"/>
					<stop  offset="0.8824" style="stop-color:#201F1F"/>
					<stop  offset="1" style="stop-color:#000000"/>
				</linearGradient>
				<path fill-rule="evenodd" clip-rule="evenodd" fill="url(#SVGID_5_)" d="M253.5,250.8c1.1,9.5,10.6,17.5,28.4,24.1
					c19.1,7.1,42.1,10.6,68.9,10.6c26.9,0,49.8-3.5,68.8-10.6c18-6.7,27.5-14.7,28.5-24.1v149.2v2.7c-0.9,9.3-10.3,17.4-28.5,24.1
					c-19,7-41.9,10.6-68.8,10.6s-49.9-3.5-68.9-10.6c-18.1-6.8-27.6-14.8-28.4-24.1v-2.7V250.8z"/>
				
					<linearGradient id="SVGID_6_" gradientUnits="userSpaceOnUse" x1="-181.8525" y1="8.3398" x2="-15.5525" y2="8.4515" gradientTransform="matrix(1.1666 0 0 1.1666 464.55 334.2502)">
					<stop  offset="0" style="stop-color:#000000"/>
					<stop  offset="0.1373" style="stop-color:#080808"/>
					<stop  offset="0.3882" style="stop-color:#232323"/>
					<stop  offset="0.5176" style="stop-color:#333333"/>
					<stop  offset="0.6078" style="stop-color:#2E2C2C"/>
					<stop  offset="0.8" style="stop-color:#0F0E0E"/>
					<stop  offset="0.8824" style="stop-color:#201F1F"/>
					<stop  offset="1" style="stop-color:#000000"/>
				</linearGradient>
				<path fill-rule="evenodd" clip-rule="evenodd" fill="url(#SVGID_6_)" d="M253.5,250.8c1.1,9.5,10.6,17.5,28.4,24.1
					c19.1,7.1,42.1,10.6,68.9,10.6c26.9,0,49.8-3.5,68.8-10.6c18-6.7,27.5-14.7,28.5-24.1v149.2v2.7c-0.9,9.3-10.3,17.4-28.5,24.1
					c-19,7-41.9,10.6-68.8,10.6s-49.9-3.5-68.9-10.6c-18.1-6.8-27.6-14.8-28.4-24.1v-2.7V250.8z"/>
			</g>
		</g>
		<g>
			<g>
				<g>
					<path fill-rule="evenodd" clip-rule="evenodd" fill="#29302D" d="M346.8,318.2c0.2,0.7,0.6,1.4,1.2,1.9c1,0.8,2.1,1.2,3.4,1.2
						s2.4-0.4,3.3-1.2c0.7-0.5,1.1-1.2,1.3-1.9c0,0.2,0.1,0.5,0.1,0.8c0,1-0.5,1.9-1.4,2.6c-0.9,0.8-2,1.2-3.3,1.2s-2.4-0.4-3.4-1.2
						c-0.9-0.7-1.3-1.6-1.3-2.6C346.7,318.7,346.8,318.4,346.8,318.2z"/>
					<path fill-rule="evenodd" clip-rule="evenodd" d="M356.1,318.2c-0.2,0.7-0.6,1.4-1.3,1.9c-0.9,0.8-2,1.2-3.3,1.2
						s-2.4-0.4-3.4-1.2c-0.7-0.5-1.1-1.2-1.2-1.9c0.2-0.7,0.6-1.4,1.2-1.9c1-0.7,2.1-1.1,3.4-1.1s2.4,0.4,3.3,1.1
						C355.4,316.8,355.9,317.5,356.1,318.2z"/>
				</g>
			</g>
			<g>
				<g>
					<path fill-rule="evenodd" clip-rule="evenodd" fill="#29302D" d="M375,316.6c0.3,0.5,0.5,1,0.5,1.5c0,1-0.5,1.8-1.4,2.6
						c-0.9,0.7-2,1.1-3.3,1.2c-1.3,0-2.4-0.3-3.4-0.9c-0.8-0.6-1.2-1.3-1.3-2.1c0.2,0.3,0.5,0.5,0.8,0.8c1,0.7,2.2,1,3.4,1
						c1.3-0.1,2.4-0.5,3.3-1.3c0.9-0.8,1.4-1.7,1.4-2.6C375,316.7,375,316.7,375,316.6z"/>
					<path fill-rule="evenodd" clip-rule="evenodd" d="M366,318.9c0-0.2-0.1-0.3-0.1-0.4c0-1,0.4-1.8,1.3-2.6c1-0.7,2.2-1.1,3.4-1.2
						c1.3-0.1,2.4,0.2,3.3,0.9c0.4,0.3,0.7,0.6,0.9,0.9c0,0.1,0,0.2,0,0.2c0,1-0.5,1.8-1.4,2.6c-0.9,0.8-2,1.2-3.3,1.3
						c-1.3,0-2.4-0.3-3.4-1C366.5,319.5,366.2,319.2,366,318.9z"/>
				</g>
			</g>
			<g>
				<g>
					<path fill-rule="evenodd" clip-rule="evenodd" d="M384.8,317c0-0.2-0.1-0.4-0.1-0.6c0-1,0.4-1.8,1.3-2.6c1-0.7,2.1-1.1,3.3-1.2
						c1.3-0.1,2.3,0.1,3.1,0.8c0.2,0.2,0.4,0.4,0.6,0.6c0,0.2,0.1,0.4,0.1,0.6c0,1-0.4,1.8-1.3,2.5c-0.8,0.8-1.9,1.2-3.1,1.3
						c-1.2,0-2.3-0.3-3.3-0.9C385.2,317.4,385,317.2,384.8,317z"/>
					<path fill-rule="evenodd" clip-rule="evenodd" fill="#29302D" d="M393.1,314c0.5,0.5,0.7,1.2,0.7,1.9c0,1-0.4,1.8-1.3,2.5
						c-0.8,0.8-1.9,1.2-3.1,1.3c-1.2,0-2.3-0.3-3.3-0.9c-0.7-0.5-1.1-1.2-1.2-1.9c0.2,0.2,0.4,0.4,0.6,0.6c1,0.6,2.1,0.9,3.3,0.9
						c1.3-0.1,2.3-0.6,3.1-1.3c0.9-0.7,1.3-1.5,1.3-2.5C393.2,314.4,393.1,314.2,393.1,314z"/>
				</g>
			</g>
			<g>
				<g>
					<path fill-rule="evenodd" clip-rule="evenodd" d="M412.2,309.5c0,0,0,0.1,0,0.1c0,0.9-0.4,1.9-1.2,2.8
						c-0.8,0.9-1.8,1.4-3.1,1.7c-1.2,0.2-2.3,0.1-3.3-0.5c-0.3-0.2-0.6-0.4-0.8-0.6c0-0.1,0-0.1,0-0.2c0-0.9,0.3-1.8,1.2-2.7
						c0.9-0.9,2-1.4,3.2-1.6c1.2-0.3,2.3-0.2,3.1,0.2C411.7,309,412,309.2,412.2,309.5z"/>
					<path fill-rule="evenodd" clip-rule="evenodd" fill="#29302D" d="M403.8,313.1c0.2,0.2,0.5,0.4,0.8,0.6c1,0.5,2.1,0.7,3.3,0.5
						c1.3-0.3,2.3-0.9,3.1-1.7c0.9-0.9,1.3-1.9,1.2-2.8c0,0,0-0.1,0-0.1c0.4,0.4,0.5,0.9,0.6,1.5c0,0.9-0.4,1.8-1.2,2.7
						c-0.8,0.9-1.8,1.5-3.1,1.8c-1.2,0.3-2.3,0.1-3.3-0.4C404.4,314.6,403.9,313.9,403.8,313.1z"/>
				</g>
			</g>
			<g>
				<g>
					<path fill-rule="evenodd" clip-rule="evenodd" d="M421.6,307.8c-0.1-0.3-0.2-0.6-0.2-0.9c0-0.9,0.3-1.9,0.9-2.8
						c0.7-0.9,1.6-1.5,2.6-1.8c1-0.4,1.9-0.3,2.6,0.2c0.1,0,0.2,0.1,0.2,0.2c0.1,0.2,0.2,0.5,0.2,0.8c0,1-0.3,1.9-1,2.8
						c-0.7,0.9-1.5,1.6-2.5,1.9c-1,0.3-1.9,0.2-2.7-0.3C421.7,307.9,421.6,307.9,421.6,307.8z"/>
					<path fill-rule="evenodd" clip-rule="evenodd" fill="#29302D" d="M427.7,302.7c0.6,0.5,1,1.1,1,1.9c0,1-0.3,1.9-1,2.8
						c-0.7,0.9-1.5,1.5-2.5,1.9c-1,0.3-1.9,0.2-2.7-0.3c-0.5-0.3-0.8-0.7-1-1.2c0,0,0.1,0.1,0.2,0.1c0.8,0.5,1.7,0.6,2.7,0.3
						c1-0.4,1.8-1,2.5-1.9c0.7-0.9,1-1.8,1-2.8C427.9,303.2,427.9,302.9,427.7,302.7z"/>
				</g>
			</g>
			<g>
				<g>
					<path fill-rule="evenodd" clip-rule="evenodd" fill="#29302D" d="M436.2,300.5c0.7,0.2,1.5,0.1,2.3-0.5
						c0.9-0.6,1.7-1.5,2.4-2.5c0.6-1,0.9-2,0.9-3c0-0.4-0.1-0.7-0.3-1c0,0,0.1,0,0.2,0.1c0.8,0.3,1.2,0.9,1.2,1.6
						c0,0.9-0.3,1.9-0.9,3c-0.7,1.1-1.5,1.9-2.4,2.6c-0.9,0.5-1.8,0.7-2.6,0.4C436.6,301.1,436.4,300.9,436.2,300.5z"/>
					<path fill-rule="evenodd" clip-rule="evenodd" d="M436.2,300.5c-0.2-0.2-0.3-0.5-0.3-0.9c-0.1-0.9,0.2-1.9,0.9-3
						c0.7-1,1.5-1.8,2.4-2.4c0.9-0.6,1.6-0.8,2.3-0.6c0.2,0.3,0.3,0.6,0.3,1c0,0.9-0.3,1.9-0.9,3c-0.7,1.1-1.5,1.9-2.4,2.5
						C437.7,300.6,436.9,300.8,436.2,300.5z"/>
				</g>
			</g>
			<g>
				<g>
					<path fill-rule="evenodd" clip-rule="evenodd" fill="#29302D" d="M346.8,333.4c0.2,0.7,0.6,1.4,1.2,1.9c1,0.8,2.1,1.2,3.4,1.2
						s2.4-0.4,3.3-1.2c0.7-0.5,1.1-1.2,1.3-1.9c0,0.2,0.1,0.5,0.1,0.8c0,1-0.5,1.9-1.4,2.6c-0.9,0.8-2,1.2-3.3,1.2s-2.4-0.4-3.4-1.2
						c-0.9-0.7-1.3-1.6-1.3-2.6C346.7,333.9,346.8,333.7,346.8,333.4z"/>
					<path fill-rule="evenodd" clip-rule="evenodd" d="M356.1,333.4c-0.2,0.7-0.6,1.4-1.3,1.9c-0.9,0.8-2,1.2-3.3,1.2
						s-2.4-0.4-3.4-1.2c-0.7-0.5-1.1-1.2-1.2-1.9c0.2-0.7,0.6-1.4,1.2-1.9c1-0.7,2.1-1.1,3.4-1.1s2.4,0.4,3.3,1.1
						C355.4,332.1,355.9,332.7,356.1,333.4z"/>
				</g>
			</g>
			<g>
				<g>
					<path fill-rule="evenodd" clip-rule="evenodd" d="M375,331.8c0,0.1,0,0.2,0,0.2c0,1-0.5,1.8-1.4,2.6c-0.9,0.8-2,1.2-3.3,1.3
						c-1.3,0-2.4-0.3-3.4-1c-0.3-0.3-0.6-0.5-0.8-0.8c0-0.2-0.1-0.3-0.1-0.4c0-1,0.4-1.8,1.3-2.6c1-0.7,2.2-1.1,3.4-1.2
						c1.3-0.1,2.4,0.2,3.3,0.9C374.5,331.1,374.8,331.5,375,331.8z"/>
					<path fill-rule="evenodd" clip-rule="evenodd" fill="#29302D" d="M366,334.1c0.2,0.3,0.5,0.5,0.8,0.8c1,0.7,2.2,1,3.4,1
						c1.3-0.1,2.4-0.5,3.3-1.3c0.9-0.8,1.4-1.7,1.4-2.6c0-0.1,0-0.2,0-0.2c0.3,0.5,0.5,1,0.5,1.5c0,1-0.5,1.8-1.4,2.6
						c-0.9,0.7-2,1.1-3.3,1.2c-1.3,0-2.4-0.3-3.4-0.9C366.5,335.6,366.1,334.9,366,334.1z"/>
				</g>
			</g>
			<g>
				<g>
					<path fill-rule="evenodd" clip-rule="evenodd" fill="#29302D" d="M384.8,332.2c0.2,0.2,0.4,0.4,0.6,0.6c1,0.6,2.1,0.9,3.3,0.9
						c1.3-0.1,2.3-0.6,3.1-1.3c0.9-0.7,1.3-1.5,1.3-2.5c0-0.2,0-0.4-0.1-0.6c0.5,0.5,0.7,1.2,0.7,1.9c0,1-0.4,1.8-1.3,2.5
						c-0.8,0.8-1.9,1.2-3.1,1.3c-1.2,0-2.3-0.3-3.3-0.9C385.4,333.5,385,332.9,384.8,332.2z"/>
					<path fill-rule="evenodd" clip-rule="evenodd" d="M393.1,329.2c0,0.2,0.1,0.4,0.1,0.6c0,1-0.4,1.8-1.3,2.5
						c-0.8,0.8-1.9,1.2-3.1,1.3c-1.2,0-2.3-0.3-3.3-0.9c-0.2-0.2-0.4-0.3-0.6-0.6c0-0.2-0.1-0.4-0.1-0.6c0-1,0.4-1.8,1.3-2.6
						c1-0.7,2.1-1.1,3.3-1.2c1.3-0.1,2.3,0.1,3.1,0.8C392.7,328.8,392.9,329,393.1,329.2z"/>
				</g>
			</g>
			<g>
				<g>
					<path fill-rule="evenodd" clip-rule="evenodd" d="M412.2,324.7c0,0,0,0.1,0,0.1c0,0.9-0.4,1.9-1.2,2.8
						c-0.8,0.9-1.8,1.4-3.1,1.8c-1.2,0.2-2.3,0.1-3.3-0.5c-0.3-0.2-0.6-0.3-0.8-0.6c0-0.1,0-0.1,0-0.2c0-0.9,0.3-1.8,1.2-2.7
						c0.9-0.9,2-1.4,3.2-1.6c1.2-0.3,2.3-0.2,3.1,0.2C411.7,324.2,412,324.5,412.2,324.7z"/>
					<path fill-rule="evenodd" clip-rule="evenodd" fill="#29302D" d="M403.8,328.3c0.2,0.2,0.5,0.4,0.8,0.6c1,0.5,2.1,0.7,3.3,0.5
						c1.3-0.3,2.3-0.9,3.1-1.8c0.9-0.9,1.3-1.9,1.2-2.8c0,0,0-0.1,0-0.1c0.4,0.4,0.5,0.9,0.6,1.5c0,0.9-0.4,1.8-1.2,2.7
						c-0.8,0.9-1.8,1.5-3.1,1.8c-1.2,0.3-2.3,0.1-3.3-0.4C404.4,329.8,403.9,329.2,403.8,328.3z"/>
				</g>
			</g>
			<g>
				<g>
					<path fill-rule="evenodd" clip-rule="evenodd" d="M427.7,317.9c0.1,0.2,0.2,0.5,0.2,0.8c0,1-0.3,1.9-1,2.8
						c-0.7,0.9-1.5,1.6-2.5,1.9c-1,0.3-1.9,0.2-2.7-0.3c-0.1,0-0.1-0.1-0.2-0.1c-0.1-0.3-0.2-0.6-0.2-0.9c0-0.9,0.3-1.9,0.9-2.8
						c0.7-0.9,1.6-1.5,2.6-1.8c1-0.3,1.9-0.3,2.6,0.2C427.6,317.8,427.7,317.8,427.7,317.9z"/>
					<path fill-rule="evenodd" clip-rule="evenodd" fill="#29302D" d="M421.6,323.1c0,0,0.1,0.1,0.2,0.1c0.8,0.5,1.7,0.6,2.7,0.3
						c1-0.3,1.8-1,2.5-1.9c0.7-0.9,1-1.8,1-2.8c0-0.3-0.1-0.6-0.2-0.8c0.6,0.5,1,1.1,1,1.9c0,1-0.3,1.9-1,2.8
						c-0.7,0.9-1.5,1.5-2.5,1.9c-1,0.3-1.9,0.2-2.7-0.3C422.1,324,421.8,323.6,421.6,323.1z"/>
				</g>
			</g>
			<g>
				<g>
					<path fill-rule="evenodd" clip-rule="evenodd" fill="#29302D" d="M436.2,315.8c0.7,0.2,1.5,0.1,2.3-0.5
						c0.9-0.6,1.7-1.5,2.4-2.5c0.6-1,0.9-2,0.9-3c0-0.4-0.1-0.7-0.3-1c0,0,0.1,0,0.2,0.1c0.8,0.3,1.2,0.9,1.2,1.6
						c0,0.9-0.3,1.9-0.9,3c-0.7,1-1.5,1.9-2.4,2.6c-0.9,0.5-1.8,0.7-2.6,0.4C436.6,316.3,436.4,316.1,436.2,315.8z"/>
					<path fill-rule="evenodd" clip-rule="evenodd" d="M441.5,308.8c0.2,0.3,0.3,0.6,0.3,1c0,0.9-0.3,1.9-0.9,3
						c-0.7,1-1.5,1.9-2.4,2.5c-0.8,0.5-1.6,0.7-2.3,0.5c-0.2-0.2-0.3-0.5-0.3-0.9c-0.1-0.9,0.2-1.9,0.9-3c0.7-1,1.5-1.8,2.4-2.4
						C440,308.9,440.8,308.7,441.5,308.8z"/>
				</g>
			</g>
			<g>
				<g>
					<path fill-rule="evenodd" clip-rule="evenodd" d="M356.1,348.1c-0.2,0.7-0.6,1.3-1.3,1.9c-0.9,0.8-2,1.2-3.3,1.2
						s-2.4-0.4-3.4-1.2c-0.7-0.6-1.1-1.2-1.2-1.9c0.2-0.7,0.6-1.4,1.2-1.9c1-0.7,2.1-1.1,3.4-1.1s2.4,0.4,3.3,1.1
						C355.4,346.7,355.9,347.3,356.1,348.1z"/>
					<path fill-rule="evenodd" clip-rule="evenodd" fill="#29302D" d="M346.8,348.1c0.2,0.7,0.6,1.3,1.2,1.9c1,0.8,2.1,1.2,3.4,1.2
						s2.4-0.4,3.3-1.2c0.7-0.6,1.1-1.2,1.3-1.9c0,0.2,0.1,0.5,0.1,0.7c0,1-0.5,1.9-1.4,2.7c-0.9,0.8-2,1.2-3.3,1.2s-2.4-0.4-3.4-1.2
						c-0.9-0.7-1.3-1.6-1.3-2.7C346.7,348.5,346.8,348.3,346.8,348.1z"/>
				</g>
			</g>
			<g>
				<g>
					<path fill-rule="evenodd" clip-rule="evenodd" d="M375,346.4c0,0.1,0,0.2,0,0.2c0,1-0.5,1.8-1.4,2.6c-0.9,0.7-2,1.1-3.3,1.2
						c-1.3,0-2.4-0.3-3.4-0.9c-0.3-0.3-0.6-0.6-0.8-0.9c0-0.1-0.1-0.2-0.1-0.3c0-1,0.4-1.8,1.3-2.6c1-0.7,2.2-1.1,3.4-1.1
						c1.3-0.1,2.4,0.2,3.3,0.8C374.5,345.7,374.8,346.1,375,346.4z"/>
					<path fill-rule="evenodd" clip-rule="evenodd" fill="#29302D" d="M366,348.7c0.2,0.3,0.5,0.6,0.8,0.9c1,0.7,2.2,1,3.4,0.9
						c1.3-0.1,2.4-0.5,3.3-1.2c0.9-0.8,1.4-1.7,1.4-2.6c0-0.1,0-0.2,0-0.2c0.3,0.4,0.5,0.9,0.5,1.5c0,1-0.5,1.8-1.4,2.6
						c-0.9,0.8-2,1.2-3.3,1.3c-1.3,0-2.4-0.3-3.4-1C366.5,350.2,366.1,349.5,366,348.7z"/>
				</g>
			</g>
			<g>
				<g>
					<path fill-rule="evenodd" clip-rule="evenodd" d="M384.8,346.8c0-0.2-0.1-0.4-0.1-0.6c0-1,0.4-1.8,1.3-2.6
						c1-0.8,2.1-1.2,3.3-1.2c1.3-0.1,2.3,0.2,3.1,0.8c0.2,0.2,0.4,0.4,0.6,0.6c0,0.2,0.1,0.4,0.1,0.6c0,0.9-0.4,1.8-1.3,2.5
						c-0.8,0.8-1.9,1.2-3.1,1.3c-1.2,0-2.3-0.3-3.3-0.9C385.2,347.2,385,347,384.8,346.8z"/>
					<path fill-rule="evenodd" clip-rule="evenodd" fill="#29302D" d="M393.1,343.8c0.5,0.6,0.7,1.2,0.7,1.9c0,1-0.4,1.8-1.3,2.6
						c-0.8,0.8-1.9,1.2-3.1,1.3c-1.2,0-2.3-0.3-3.3-0.9c-0.7-0.5-1.1-1.1-1.2-1.8c0.2,0.2,0.4,0.4,0.6,0.5c1,0.7,2.1,1,3.3,0.9
						c1.3-0.1,2.3-0.6,3.1-1.3c0.9-0.7,1.3-1.6,1.3-2.5C393.2,344.2,393.1,344,393.1,343.8z"/>
				</g>
			</g>
			<g>
				<g>
					<path fill-rule="evenodd" clip-rule="evenodd" d="M412.2,339.3c0,0.1,0,0.1,0,0.2c0,0.9-0.4,1.8-1.2,2.7
						c-0.8,0.9-1.8,1.5-3.1,1.8c-1.2,0.3-2.3,0.1-3.3-0.4c-0.3-0.2-0.6-0.4-0.8-0.6c0-0.1,0-0.1,0-0.2c0-0.9,0.3-1.8,1.2-2.7
						c0.9-0.9,2-1.4,3.2-1.6c1.2-0.3,2.3-0.2,3.1,0.2C411.7,338.8,412,339,412.2,339.3z"/>
					<path fill-rule="evenodd" clip-rule="evenodd" fill="#29302D" d="M403.8,342.9c0.2,0.2,0.5,0.4,0.8,0.6c1,0.5,2.1,0.7,3.3,0.4
						c1.3-0.3,2.3-0.9,3.1-1.8c0.9-0.9,1.3-1.8,1.2-2.7c0,0,0-0.1,0-0.2c0.4,0.4,0.5,0.9,0.6,1.5c0,0.9-0.4,1.9-1.2,2.8
						c-0.8,0.9-1.8,1.5-3.1,1.8c-1.2,0.2-2.3,0.1-3.3-0.4C404.4,344.4,403.9,343.8,403.8,342.9z"/>
				</g>
			</g>
			<g>
				<g>
					<path fill-rule="evenodd" clip-rule="evenodd" d="M427.7,332.5c0.1,0.3,0.2,0.6,0.2,0.9c0,1-0.3,1.9-1,2.8s-1.5,1.5-2.5,1.9
						c-1,0.3-1.9,0.2-2.7-0.3c-0.1,0-0.1-0.1-0.2-0.2c-0.1-0.3-0.2-0.6-0.2-0.9c0-0.9,0.3-1.9,0.9-2.9c0.7-0.9,1.6-1.5,2.6-1.8
						c1-0.4,1.9-0.3,2.6,0.2C427.6,332.4,427.7,332.4,427.7,332.5z"/>
					<path fill-rule="evenodd" clip-rule="evenodd" fill="#29302D" d="M421.6,337.6c0,0.1,0.1,0.1,0.2,0.2c0.8,0.5,1.7,0.6,2.7,0.3
						c1-0.4,1.8-1,2.5-1.9s1-1.8,1-2.8c0-0.3-0.1-0.6-0.2-0.9c0.6,0.5,1,1.2,1,2c0,0.9-0.3,1.8-1,2.7c-0.7,0.9-1.5,1.6-2.5,1.9
						c-1,0.3-1.9,0.2-2.7-0.3C422.1,338.6,421.8,338.2,421.6,337.6z"/>
				</g>
			</g>
			<g>
				<g>
					<path fill-rule="evenodd" clip-rule="evenodd" fill="#29302D" d="M436.2,330.4c0.7,0.2,1.5,0,2.3-0.5c0.9-0.7,1.7-1.5,2.4-2.6
						c0.6-1,0.9-2,0.9-3c0-0.3-0.1-0.7-0.3-0.9c0,0,0.1,0,0.2,0.1c0.8,0.3,1.2,0.8,1.2,1.6c0,0.9-0.3,1.9-0.9,3
						c-0.7,1-1.5,1.9-2.4,2.5c-0.9,0.6-1.8,0.7-2.6,0.4C436.6,330.9,436.4,330.7,436.2,330.4z"/>
					<path fill-rule="evenodd" clip-rule="evenodd" d="M441.5,323.5c0.2,0.3,0.3,0.6,0.3,0.9c0,0.9-0.3,1.9-0.9,3
						c-0.7,1-1.5,1.9-2.4,2.6c-0.8,0.5-1.6,0.7-2.3,0.5c-0.2-0.2-0.3-0.5-0.3-0.9c-0.1-0.9,0.2-1.9,0.9-3c0.7-1,1.5-1.9,2.4-2.5
						C440,323.5,440.8,323.3,441.5,323.5z"/>
				</g>
			</g>
			<g>
				<g>
					<path fill-rule="evenodd" clip-rule="evenodd" d="M356.1,363.3c-0.2,0.7-0.6,1.4-1.3,1.9c-0.9,0.8-2,1.2-3.3,1.2
						s-2.4-0.4-3.4-1.2c-0.7-0.5-1.1-1.2-1.2-1.9c0.2-0.7,0.6-1.3,1.2-1.9c1-0.7,2.1-1.1,3.4-1.1s2.4,0.4,3.3,1.1
						C355.4,362,355.9,362.6,356.1,363.3z"/>
					<path fill-rule="evenodd" clip-rule="evenodd" fill="#29302D" d="M346.8,363.3c0.2,0.7,0.6,1.4,1.2,1.9c1,0.8,2.1,1.2,3.4,1.2
						s2.4-0.4,3.3-1.2c0.7-0.5,1.1-1.2,1.3-1.9c0,0.2,0.1,0.5,0.1,0.8c0,1.1-0.5,1.9-1.4,2.6c-0.9,0.8-2,1.2-3.3,1.2
						s-2.4-0.4-3.4-1.2c-0.9-0.7-1.3-1.6-1.3-2.6C346.7,363.8,346.8,363.5,346.8,363.3z"/>
				</g>
			</g>
			<g>
				<g>
					<path fill-rule="evenodd" clip-rule="evenodd" d="M375,361.7c0,0.1,0,0.2,0,0.2c0,1-0.5,1.8-1.4,2.6c-0.9,0.8-2,1.2-3.3,1.3
						c-1.3,0-2.4-0.3-3.4-1c-0.3-0.3-0.6-0.5-0.8-0.8c0-0.1-0.1-0.3-0.1-0.4c0-0.9,0.4-1.8,1.3-2.6c1-0.7,2.2-1.1,3.4-1.2
						c1.3-0.1,2.4,0.2,3.3,0.9C374.5,361,374.8,361.3,375,361.7z"/>
					<path fill-rule="evenodd" clip-rule="evenodd" fill="#29302D" d="M366,364c0.2,0.3,0.5,0.5,0.8,0.8c1,0.7,2.2,1,3.4,1
						c1.3-0.1,2.4-0.5,3.3-1.3c0.9-0.8,1.4-1.7,1.4-2.6c0-0.1,0-0.2,0-0.2c0.3,0.5,0.5,1,0.5,1.5c0,1-0.5,1.8-1.4,2.6
						c-0.9,0.7-2,1.2-3.3,1.3c-1.3,0-2.4-0.3-3.4-1C366.5,365.5,366.1,364.8,366,364z"/>
				</g>
			</g>
			<g>
				<g>
					<path fill-rule="evenodd" clip-rule="evenodd" fill="#29302D" d="M384.8,362.1c0.2,0.2,0.4,0.4,0.6,0.5c1,0.6,2.1,0.9,3.3,0.9
						c1.3-0.1,2.3-0.5,3.1-1.3c0.9-0.7,1.3-1.6,1.3-2.6c0-0.2,0-0.4-0.1-0.6c0.5,0.5,0.7,1.2,0.7,1.9c0,1-0.4,1.8-1.3,2.5
						c-0.8,0.8-1.9,1.2-3.1,1.3c-1.2,0-2.3-0.3-3.3-0.9C385.4,363.4,385,362.8,384.8,362.1z"/>
					<path fill-rule="evenodd" clip-rule="evenodd" d="M393.1,359.1c0,0.2,0.1,0.4,0.1,0.6c0,1-0.4,1.8-1.3,2.6
						c-0.8,0.7-1.9,1.2-3.1,1.3c-1.2,0-2.3-0.3-3.3-0.9c-0.2-0.2-0.4-0.3-0.6-0.5c0-0.2-0.1-0.4-0.1-0.6c0-1,0.4-1.8,1.3-2.6
						c1-0.8,2.1-1.2,3.3-1.2c1.3-0.1,2.3,0.1,3.1,0.8C392.7,358.7,392.9,358.9,393.1,359.1z"/>
				</g>
			</g>
			<g>
				<g>
					<path fill-rule="evenodd" clip-rule="evenodd" d="M412.2,354.5c0,0,0,0.1,0,0.1c0,0.9-0.4,1.9-1.2,2.8
						c-0.8,0.9-1.8,1.5-3.1,1.8c-1.2,0.2-2.3,0.1-3.3-0.4c-0.3-0.2-0.6-0.4-0.8-0.6c0-0.1,0-0.1,0-0.2c0-0.9,0.3-1.8,1.2-2.7
						c0.9-0.8,2-1.4,3.2-1.6c1.2-0.3,2.3-0.2,3.1,0.3C411.7,354.1,412,354.3,412.2,354.5z"/>
					<path fill-rule="evenodd" clip-rule="evenodd" fill="#29302D" d="M403.8,358.2c0.2,0.2,0.5,0.4,0.8,0.6c1,0.5,2.1,0.6,3.3,0.4
						c1.3-0.3,2.3-0.9,3.1-1.8c0.9-0.9,1.3-1.9,1.2-2.8c0,0,0-0.1,0-0.1c0.4,0.4,0.5,0.9,0.6,1.5c0,0.9-0.4,1.9-1.2,2.8
						c-0.8,0.9-1.8,1.4-3.1,1.8c-1.2,0.2-2.3,0.1-3.3-0.5C404.4,359.7,403.9,359,403.8,358.2z"/>
				</g>
			</g>
			<g>
				<g>
					<path fill-rule="evenodd" clip-rule="evenodd" d="M427.7,347.8c0.1,0.2,0.2,0.5,0.2,0.8c0,1-0.3,1.9-1,2.8
						c-0.7,0.9-1.5,1.6-2.5,1.9c-1,0.3-1.9,0.2-2.7-0.3c-0.1,0-0.1-0.1-0.2-0.1c-0.1-0.3-0.2-0.6-0.2-0.9c0-0.9,0.3-1.8,0.9-2.8
						c0.7-0.9,1.6-1.5,2.6-1.8c1-0.4,1.9-0.3,2.6,0.2C427.6,347.6,427.7,347.7,427.7,347.8z"/>
					<path fill-rule="evenodd" clip-rule="evenodd" fill="#29302D" d="M421.6,352.9c0,0,0.1,0.1,0.2,0.1c0.8,0.5,1.7,0.6,2.7,0.3
						c1-0.3,1.8-1,2.5-1.9c0.7-0.9,1-1.8,1-2.8c0-0.3-0.1-0.6-0.2-0.8c0.6,0.5,1,1.1,1,1.9c0,1-0.3,1.9-1,2.8
						c-0.7,0.9-1.5,1.6-2.5,1.9c-1,0.3-1.9,0.2-2.7-0.3C422.1,353.8,421.8,353.4,421.6,352.9z"/>
				</g>
			</g>
			<g>
				<g>
					<path fill-rule="evenodd" clip-rule="evenodd" fill="#29302D" d="M436.2,345.7c0.7,0.2,1.5,0,2.3-0.5c0.9-0.6,1.7-1.5,2.4-2.5
						c0.6-1.1,0.9-2,0.9-3c0-0.3-0.1-0.7-0.3-1c0,0,0.1,0,0.2,0.1c0.8,0.3,1.2,0.9,1.2,1.6c0,0.9-0.3,1.9-0.9,3
						c-0.7,1.1-1.5,1.9-2.4,2.6c-0.9,0.5-1.8,0.7-2.6,0.4C436.6,346.2,436.4,346,436.2,345.7z"/>
					<path fill-rule="evenodd" clip-rule="evenodd" d="M436.2,345.7c-0.2-0.3-0.3-0.6-0.3-1c-0.1-0.9,0.2-1.9,0.9-3
						c0.7-1,1.5-1.8,2.4-2.4c0.9-0.6,1.6-0.8,2.3-0.6c0.2,0.3,0.3,0.6,0.3,1c0,0.9-0.3,1.9-0.9,3c-0.7,1-1.5,1.9-2.4,2.5
						C437.7,345.7,436.9,345.9,436.2,345.7z"/>
				</g>
			</g>
			<g>
				<g>
					<path fill-rule="evenodd" clip-rule="evenodd" d="M356.1,377.9c-0.2,0.7-0.6,1.3-1.3,1.9c-0.9,0.7-2,1.1-3.3,1.1
						s-2.4-0.4-3.4-1.1c-0.7-0.6-1.1-1.2-1.2-1.9c0.2-0.7,0.6-1.4,1.2-2c1-0.7,2.1-1,3.4-1s2.4,0.3,3.3,1
						C355.4,376.5,355.9,377.1,356.1,377.9z"/>
					<path fill-rule="evenodd" clip-rule="evenodd" fill="#29302D" d="M346.8,377.9c0.2,0.7,0.6,1.3,1.2,1.9c1,0.7,2.1,1.1,3.4,1.1
						s2.4-0.4,3.3-1.1c0.7-0.6,1.1-1.2,1.3-1.9c0,0.2,0.1,0.5,0.1,0.7c0,1-0.5,1.9-1.4,2.7c-0.9,0.7-2,1.1-3.3,1.1s-2.4-0.4-3.4-1.1
						c-0.9-0.7-1.3-1.6-1.3-2.7C346.7,378.3,346.8,378.1,346.8,377.9z"/>
				</g>
			</g>
			<g>
				<g>
					<path fill-rule="evenodd" clip-rule="evenodd" fill="#29302D" d="M375,376.2c0.3,0.4,0.5,0.9,0.5,1.5c0,1-0.5,1.8-1.4,2.6
						c-0.9,0.8-2,1.2-3.3,1.3c-1.3,0-2.4-0.3-3.4-1c-0.8-0.6-1.2-1.3-1.3-2.1c0.2,0.3,0.5,0.5,0.8,0.8c1,0.7,2.2,1,3.4,1
						c1.3-0.1,2.4-0.5,3.3-1.3c0.9-0.7,1.4-1.6,1.4-2.6C375,376.4,375,376.3,375,376.2z"/>
					<path fill-rule="evenodd" clip-rule="evenodd" d="M366,378.5c0-0.1-0.1-0.2-0.1-0.3c0-1,0.4-1.8,1.3-2.6c1-0.7,2.2-1.1,3.4-1.2
						c1.3-0.1,2.4,0.2,3.3,0.9c0.4,0.3,0.7,0.6,0.9,1c0,0.1,0,0.2,0,0.2c0,1-0.5,1.8-1.4,2.6c-0.9,0.8-2,1.2-3.3,1.3
						c-1.3,0-2.4-0.3-3.4-1C366.5,379.1,366.2,378.8,366,378.5z"/>
				</g>
			</g>
			<g>
				<g>
					<path fill-rule="evenodd" clip-rule="evenodd" fill="#29302D" d="M384.8,376.7c0.2,0.2,0.4,0.4,0.6,0.5c1,0.7,2.1,1,3.3,0.9
						c1.3-0.1,2.3-0.6,3.1-1.3c0.9-0.7,1.3-1.6,1.3-2.6c0-0.2,0-0.4-0.1-0.6c0.5,0.5,0.7,1.2,0.7,1.9c0,1-0.4,1.8-1.3,2.6
						c-0.8,0.7-1.9,1.2-3.1,1.3c-1.2,0-2.3-0.3-3.3-0.9C385.4,377.9,385,377.3,384.8,376.7z"/>
					<path fill-rule="evenodd" clip-rule="evenodd" d="M393.1,373.6c0,0.2,0.1,0.4,0.1,0.6c0,1-0.4,1.8-1.3,2.6
						c-0.8,0.8-1.9,1.2-3.1,1.3c-1.2,0-2.3-0.3-3.3-0.9c-0.2-0.2-0.4-0.3-0.6-0.5c0-0.2-0.1-0.4-0.1-0.6c0-0.9,0.4-1.8,1.3-2.6
						c1-0.8,2.1-1.2,3.3-1.2c1.3-0.1,2.3,0.2,3.1,0.8C392.7,373.2,392.9,373.4,393.1,373.6z"/>
				</g>
			</g>
			<g>
				<g>
					<path fill-rule="evenodd" clip-rule="evenodd" fill="#29302D" d="M412.2,369.1c0.4,0.4,0.5,0.9,0.6,1.5c0,0.9-0.4,1.9-1.2,2.8
						c-0.8,0.9-1.8,1.5-3.1,1.8c-1.2,0.2-2.3,0.1-3.3-0.4c-0.9-0.5-1.3-1.1-1.4-2c0.2,0.3,0.5,0.5,0.8,0.6c1,0.5,2.1,0.6,3.3,0.4
						c1.3-0.3,2.3-0.9,3.1-1.8c0.9-0.9,1.3-1.9,1.2-2.8C412.2,369.2,412.2,369.1,412.2,369.1z"/>
					<path fill-rule="evenodd" clip-rule="evenodd" d="M403.8,372.7c0-0.1,0-0.1,0-0.2c0-0.9,0.3-1.8,1.2-2.7c0.9-0.9,2-1.4,3.2-1.6
						c1.2-0.3,2.3-0.2,3.1,0.2c0.4,0.2,0.6,0.4,0.9,0.6c0,0,0,0.1,0,0.1c0,0.9-0.4,1.9-1.2,2.8c-0.8,0.9-1.8,1.5-3.1,1.8
						c-1.2,0.2-2.3,0.1-3.3-0.4C404.3,373.2,404.1,373,403.8,372.7z"/>
				</g>
			</g>
			<g>
				<g>
					<path fill-rule="evenodd" clip-rule="evenodd" d="M427.7,362.3c0.1,0.2,0.2,0.5,0.2,0.9c0,0.9-0.3,1.8-1,2.7
						c-0.7,0.9-1.5,1.6-2.5,1.9c-1,0.3-1.9,0.2-2.7-0.3c-0.1,0-0.1-0.1-0.2-0.1c-0.1-0.3-0.2-0.6-0.2-0.9c0-0.9,0.3-1.9,0.9-2.9
						c0.7-0.9,1.6-1.5,2.6-1.8c1-0.3,1.9-0.3,2.6,0.2C427.6,362.2,427.7,362.2,427.7,362.3z"/>
					<path fill-rule="evenodd" clip-rule="evenodd" fill="#29302D" d="M421.6,367.4c0,0,0.1,0.1,0.2,0.1c0.8,0.5,1.7,0.6,2.7,0.3
						c1-0.3,1.8-1,2.5-1.9c0.7-0.9,1-1.8,1-2.7c0-0.3-0.1-0.6-0.2-0.9c0.6,0.5,1,1.1,1,1.9c0,1-0.3,1.9-1,2.8
						c-0.7,0.9-1.5,1.6-2.5,1.9c-1,0.3-1.9,0.2-2.7-0.3C422.1,368.4,421.8,368,421.6,367.4z"/>
				</g>
			</g>
			<g>
				<g>
					<path fill-rule="evenodd" clip-rule="evenodd" fill="#29302D" d="M436.2,360.2c0.7,0.2,1.5,0,2.3-0.5c0.9-0.7,1.7-1.5,2.4-2.6
						c0.6-1,0.9-2,0.9-3c0-0.4-0.1-0.7-0.3-0.9c0,0,0.1,0,0.2,0.1c0.8,0.3,1.2,0.8,1.2,1.6c0,0.9-0.3,1.9-0.9,2.9
						c-0.7,1-1.5,1.9-2.4,2.6c-0.9,0.5-1.8,0.7-2.6,0.4C436.6,360.7,436.4,360.5,436.2,360.2z"/>
					<path fill-rule="evenodd" clip-rule="evenodd" d="M436.2,360.2c-0.2-0.2-0.3-0.6-0.3-1c-0.1-0.9,0.2-1.9,0.9-3
						c0.7-1,1.5-1.8,2.4-2.4c0.9-0.6,1.6-0.8,2.3-0.6c0.2,0.3,0.3,0.6,0.3,0.9c0,0.9-0.3,1.9-0.9,3c-0.7,1-1.5,1.9-2.4,2.6
						C437.7,360.2,436.9,360.4,436.2,360.2z"/>
				</g>
			</g>
			<g>
				<g>
					<path fill-rule="evenodd" clip-rule="evenodd" d="M356.1,392.8c-0.2,0.7-0.6,1.4-1.3,1.9c-0.9,0.8-2,1.2-3.3,1.2
						s-2.4-0.4-3.4-1.2c-0.7-0.5-1.1-1.2-1.2-1.9c0.2-0.7,0.6-1.3,1.2-1.9c1-0.7,2.1-1.1,3.4-1.1s2.4,0.4,3.3,1.1
						C355.4,391.5,355.9,392.1,356.1,392.8z"/>
					<path fill-rule="evenodd" clip-rule="evenodd" fill="#29302D" d="M346.8,392.8c0.2,0.7,0.6,1.4,1.2,1.9c1,0.8,2.1,1.2,3.4,1.2
						s2.4-0.4,3.3-1.2c0.7-0.5,1.1-1.2,1.3-1.9c0,0.3,0.1,0.5,0.1,0.8c0,1-0.5,1.9-1.4,2.6c-0.9,0.8-2,1.2-3.3,1.2s-2.4-0.4-3.4-1.2
						c-0.9-0.7-1.3-1.6-1.3-2.6C346.7,393.3,346.8,393.1,346.8,392.8z"/>
				</g>
			</g>
			<g>
				<g>
					<path fill-rule="evenodd" clip-rule="evenodd" fill="#29302D" d="M375,391.2c0.3,0.5,0.5,1,0.5,1.5c0,1-0.5,1.8-1.4,2.6
						c-0.9,0.8-2,1.2-3.3,1.3c-1.3,0-2.4-0.3-3.4-1c-0.8-0.6-1.2-1.3-1.3-2.1c0.2,0.3,0.5,0.5,0.8,0.8c1,0.7,2.2,1,3.4,1
						c1.3-0.1,2.4-0.5,3.3-1.3c0.9-0.8,1.4-1.7,1.4-2.6C375,391.3,375,391.3,375,391.2z"/>
					<path fill-rule="evenodd" clip-rule="evenodd" d="M366,393.5c0-0.1-0.1-0.3-0.1-0.4c0-0.9,0.4-1.8,1.3-2.6
						c1-0.7,2.2-1.1,3.4-1.2c1.3-0.1,2.4,0.2,3.3,0.9c0.4,0.3,0.7,0.6,0.9,0.9c0,0.1,0,0.2,0,0.2c0,1-0.5,1.8-1.4,2.6
						c-0.9,0.8-2,1.2-3.3,1.3c-1.3,0-2.4-0.3-3.4-1C366.5,394.1,366.2,393.8,366,393.5z"/>
				</g>
			</g>
			<g>
				<g>
					<path fill-rule="evenodd" clip-rule="evenodd" fill="#29302D" d="M393.1,388.6c0.5,0.5,0.7,1.2,0.7,1.9c0,1-0.4,1.8-1.3,2.5
						c-0.8,0.8-1.9,1.2-3.1,1.3c-1.2,0-2.3-0.3-3.3-0.9c-0.7-0.5-1.1-1.1-1.2-1.8c0.2,0.2,0.4,0.4,0.6,0.5c1,0.6,2.1,0.9,3.3,0.9
						c1.3-0.1,2.3-0.5,3.1-1.3c0.9-0.7,1.3-1.6,1.3-2.6C393.2,389,393.1,388.8,393.1,388.6z"/>
					<path fill-rule="evenodd" clip-rule="evenodd" d="M384.8,391.6c0-0.2-0.1-0.4-0.1-0.6c0-1,0.4-1.8,1.3-2.6
						c1-0.8,2.1-1.2,3.3-1.2c1.3-0.1,2.3,0.1,3.1,0.8c0.2,0.2,0.4,0.4,0.6,0.6c0,0.2,0.1,0.4,0.1,0.6c0,1-0.4,1.8-1.3,2.6
						c-0.8,0.7-1.9,1.2-3.1,1.3c-1.2,0-2.3-0.3-3.3-0.9C385.2,392,385,391.8,384.8,391.6z"/>
				</g>
			</g>
			<g>
				<g>
					<path fill-rule="evenodd" clip-rule="evenodd" fill="#29302D" d="M412.2,384.1c0.4,0.4,0.5,0.9,0.6,1.5c0,0.9-0.4,1.9-1.2,2.8
						c-0.8,0.9-1.8,1.4-3.1,1.8c-1.2,0.2-2.3,0.1-3.3-0.5c-0.9-0.4-1.3-1.1-1.4-1.9c0.2,0.2,0.5,0.4,0.8,0.6c1,0.5,2.1,0.6,3.3,0.4
						c1.3-0.3,2.3-0.9,3.1-1.8c0.9-0.9,1.3-1.9,1.2-2.8C412.2,384.1,412.2,384.1,412.2,384.1z"/>
					<path fill-rule="evenodd" clip-rule="evenodd" d="M403.8,387.7c0-0.1,0-0.1,0-0.2c0-0.9,0.3-1.8,1.2-2.7c0.9-0.8,2-1.4,3.2-1.6
						c1.2-0.3,2.3-0.2,3.1,0.3c0.4,0.2,0.6,0.4,0.9,0.6c0,0,0,0.1,0,0.1c0,0.9-0.4,1.9-1.2,2.8c-0.8,0.9-1.8,1.5-3.1,1.8
						c-1.2,0.2-2.3,0.1-3.3-0.4C404.3,388.1,404.1,387.9,403.8,387.7z"/>
				</g>
			</g>
			<g>
				<g>
					<path fill-rule="evenodd" clip-rule="evenodd" d="M427.7,377.3c0.1,0.2,0.2,0.5,0.2,0.8c0,1-0.3,1.9-1,2.8
						c-0.7,0.9-1.5,1.6-2.5,1.9c-1,0.3-1.9,0.2-2.7-0.3c-0.1,0-0.1-0.1-0.2-0.1c-0.1-0.3-0.2-0.6-0.2-0.9c0-0.9,0.3-1.8,0.9-2.8
						c0.7-0.9,1.6-1.5,2.6-1.8c1-0.4,1.9-0.3,2.6,0.2C427.6,377.2,427.7,377.2,427.7,377.3z"/>
					<path fill-rule="evenodd" clip-rule="evenodd" fill="#29302D" d="M421.6,382.4c0,0,0.1,0.1,0.2,0.1c0.8,0.5,1.7,0.6,2.7,0.3
						c1-0.3,1.8-1,2.5-1.9c0.7-0.9,1-1.8,1-2.8c0-0.3-0.1-0.6-0.2-0.8c0.6,0.5,1,1.1,1,1.9c0,1-0.3,1.9-1,2.8
						c-0.7,0.9-1.5,1.6-2.5,1.9c-1,0.3-1.9,0.2-2.7-0.3C422.1,383.3,421.8,382.9,421.6,382.4z"/>
				</g>
			</g>
			<g>
				<g>
					<path fill-rule="evenodd" clip-rule="evenodd" fill="#29302D" d="M436.2,375.2c0.7,0.2,1.5,0,2.3-0.5c0.9-0.6,1.7-1.5,2.4-2.5
						c0.6-1,0.9-2,0.9-3c0-0.4-0.1-0.7-0.3-1c0,0,0.1,0,0.2,0.1c0.8,0.3,1.2,0.9,1.2,1.6c0,0.9-0.3,1.9-0.9,3
						c-0.7,1-1.5,1.9-2.4,2.6c-0.9,0.5-1.8,0.7-2.6,0.4C436.6,375.7,436.4,375.5,436.2,375.2z"/>
					<path fill-rule="evenodd" clip-rule="evenodd" d="M441.5,368.2c0.2,0.3,0.3,0.6,0.3,1c0,0.9-0.3,1.9-0.9,3
						c-0.7,1-1.5,1.9-2.4,2.5c-0.8,0.5-1.6,0.7-2.3,0.5c-0.2-0.3-0.3-0.6-0.3-1c-0.1-0.9,0.2-1.9,0.9-3c0.7-1.1,1.5-1.8,2.4-2.4
						C440,368.3,440.8,368,441.5,368.2z"/>
				</g>
			</g>
			<g>
				<g>
					<path fill-rule="evenodd" clip-rule="evenodd" d="M356.1,407.7c-0.2,0.7-0.6,1.4-1.3,2c-0.9,0.7-2,1.1-3.3,1.1
						s-2.4-0.4-3.4-1.1c-0.7-0.6-1.1-1.2-1.2-2c0.2-0.7,0.6-1.3,1.2-1.9c1-0.7,2.1-1,3.4-1s2.4,0.4,3.3,1
						C355.4,406.3,355.9,407,356.1,407.7z"/>
					<path fill-rule="evenodd" clip-rule="evenodd" fill="#29302D" d="M346.8,407.7c0.2,0.7,0.6,1.4,1.2,2c1,0.7,2.1,1.1,3.4,1.1
						s2.4-0.4,3.3-1.1c0.7-0.6,1.1-1.2,1.3-2c0,0.3,0.1,0.5,0.1,0.8c0,1-0.5,1.9-1.4,2.6c-0.9,0.8-2,1.2-3.3,1.2s-2.4-0.4-3.4-1.2
						c-0.9-0.7-1.3-1.6-1.3-2.6C346.7,408.2,346.8,408,346.8,407.7z"/>
				</g>
			</g>
			<g>
				<g>
					<path fill-rule="evenodd" clip-rule="evenodd" d="M375,406.1c0,0.1,0,0.2,0,0.3c0,0.9-0.5,1.8-1.4,2.6c-0.9,0.8-2,1.2-3.3,1.3
						c-1.3,0-2.4-0.3-3.4-1c-0.3-0.3-0.6-0.5-0.8-0.8c0-0.1-0.1-0.2-0.1-0.3c0-1,0.4-1.8,1.3-2.6c1-0.7,2.2-1.1,3.4-1.2
						c1.3-0.1,2.4,0.2,3.3,0.9C374.5,405.4,374.8,405.7,375,406.1z"/>
					<path fill-rule="evenodd" clip-rule="evenodd" fill="#29302D" d="M366,408.4c0.2,0.3,0.5,0.5,0.8,0.8c1,0.7,2.2,1,3.4,1
						c1.3-0.1,2.4-0.5,3.3-1.3c0.9-0.8,1.4-1.6,1.4-2.6c0-0.1,0-0.2,0-0.3c0.3,0.5,0.5,1,0.5,1.5c0,1-0.5,1.8-1.4,2.6
						c-0.9,0.8-2,1.2-3.3,1.3c-1.3,0-2.4-0.3-3.4-1C366.5,409.9,366.1,409.2,366,408.4z"/>
				</g>
			</g>
			<g>
				<g>
					<path fill-rule="evenodd" clip-rule="evenodd" d="M393.1,403.5c0,0.2,0.1,0.4,0.1,0.6c0,1-0.4,1.8-1.3,2.6
						c-0.8,0.7-1.9,1.2-3.1,1.3c-1.2,0-2.3-0.3-3.3-0.9c-0.2-0.2-0.4-0.3-0.6-0.5c0-0.2-0.1-0.4-0.1-0.6c0-1,0.4-1.8,1.3-2.6
						c1-0.8,2.1-1.2,3.3-1.2c1.3-0.1,2.3,0.1,3.1,0.8C392.7,403.1,392.9,403.3,393.1,403.5z"/>
					<path fill-rule="evenodd" clip-rule="evenodd" fill="#29302D" d="M384.8,406.5c0.2,0.2,0.4,0.4,0.6,0.5c1,0.7,2.1,1,3.3,0.9
						c1.3-0.2,2.3-0.6,3.1-1.3c0.9-0.7,1.3-1.6,1.3-2.6c0-0.2,0-0.4-0.1-0.6c0.5,0.5,0.7,1.2,0.7,1.9c0,1-0.4,1.8-1.3,2.6
						c-0.8,0.7-1.9,1.2-3.1,1.3c-1.2,0-2.3-0.3-3.3-0.9C385.4,407.8,385,407.2,384.8,406.5z"/>
				</g>
			</g>
			<g>
				<g>
					<path fill-rule="evenodd" clip-rule="evenodd" fill="#29302D" d="M412.2,398.9c0.4,0.4,0.5,0.9,0.6,1.5c0,0.9-0.4,1.9-1.2,2.8
						c-0.8,0.9-1.8,1.4-3.1,1.8c-1.2,0.2-2.3,0.1-3.3-0.5c-0.9-0.4-1.3-1.1-1.4-1.9c0.2,0.3,0.5,0.5,0.8,0.6c1,0.5,2.1,0.6,3.3,0.4
						c1.3-0.3,2.3-0.9,3.1-1.8c0.9-0.9,1.3-1.9,1.2-2.8C412.2,399,412.2,399,412.2,398.9z"/>
					<path fill-rule="evenodd" clip-rule="evenodd" d="M403.8,402.6c0-0.1,0-0.1,0-0.2c0-0.9,0.3-1.8,1.2-2.7c0.9-0.9,2-1.4,3.2-1.6
						c1.2-0.3,2.3-0.2,3.1,0.2c0.4,0.2,0.6,0.4,0.9,0.6c0,0,0,0.1,0,0.1c0,0.9-0.4,1.9-1.2,2.8c-0.8,0.9-1.8,1.5-3.1,1.8
						c-1.2,0.2-2.3,0.1-3.3-0.4C404.3,403,404.1,402.8,403.8,402.6z"/>
				</g>
			</g>
			<g>
				<g>
					<path fill-rule="evenodd" clip-rule="evenodd" fill="#29302D" d="M421.6,397.3c0,0,0.1,0.1,0.2,0.1c0.8,0.5,1.7,0.6,2.7,0.3
						c1-0.3,1.8-1,2.5-1.9c0.7-0.9,1-1.8,1-2.8c0-0.3-0.1-0.6-0.2-0.8c0.6,0.5,1,1.1,1,1.9c0,1-0.3,1.9-1,2.8
						c-0.7,0.9-1.5,1.6-2.5,1.9c-1,0.3-1.9,0.2-2.7-0.3C422.1,398.3,421.8,397.9,421.6,397.3z"/>
					<path fill-rule="evenodd" clip-rule="evenodd" d="M427.7,392.2c0.1,0.2,0.2,0.5,0.2,0.8c0,1-0.3,1.9-1,2.8
						c-0.7,0.9-1.5,1.6-2.5,1.9c-1,0.3-1.9,0.2-2.7-0.3c-0.1,0-0.1-0.1-0.2-0.1c-0.1-0.3-0.2-0.6-0.2-0.9c0-0.9,0.3-1.9,0.9-2.9
						c0.7-0.9,1.6-1.5,2.6-1.8c1-0.4,1.9-0.3,2.6,0.2C427.6,392,427.7,392.1,427.7,392.2z"/>
				</g>
			</g>
			<g>
				<g>
					<path fill-rule="evenodd" clip-rule="evenodd" fill="#29302D" d="M436.2,390.1c0.7,0.2,1.5,0,2.3-0.5c0.9-0.6,1.7-1.5,2.4-2.5
						c0.6-1,0.9-2,0.9-3c0-0.4-0.1-0.7-0.3-1c0,0,0.1,0,0.2,0.1c0.8,0.3,1.2,0.8,1.2,1.6c0,0.9-0.3,1.9-0.9,2.9
						c-0.7,1-1.5,1.9-2.4,2.6c-0.9,0.5-1.8,0.7-2.6,0.4C436.6,390.6,436.4,390.4,436.2,390.1z"/>
					<path fill-rule="evenodd" clip-rule="evenodd" d="M441.5,383.1c0.2,0.3,0.3,0.6,0.3,1c0,0.9-0.3,1.9-0.9,3
						c-0.7,1-1.5,1.9-2.4,2.5c-0.8,0.5-1.6,0.7-2.3,0.5c-0.2-0.3-0.3-0.6-0.3-1c-0.1-0.9,0.2-1.9,0.9-3c0.7-1,1.5-1.8,2.4-2.4
						C440,383.1,440.8,382.9,441.5,383.1z"/>
				</g>
			</g>
			<g>
				<g>
					<path fill-rule="evenodd" clip-rule="evenodd" d="M336.4,319.1c-0.2,0.3-0.5,0.5-0.8,0.8c-1,0.7-2.2,1-3.4,1
						c-1.3-0.1-2.4-0.5-3.3-1.3c-0.9-0.8-1.4-1.7-1.4-2.6c0-0.1,0-0.2,0-0.2c0.2-0.3,0.5-0.7,0.9-0.9c0.9-0.7,2-1,3.3-0.9
						c1.3,0,2.4,0.4,3.4,1.2c0.9,0.7,1.3,1.6,1.3,2.6C336.5,318.9,336.4,319,336.4,319.1z"/>
					<path fill-rule="evenodd" clip-rule="evenodd" fill="#29302D" d="M336.4,319.1c-0.1,0.8-0.5,1.5-1.3,2.1c-1,0.7-2.2,1-3.4,0.9
						c-1.3-0.1-2.4-0.5-3.3-1.2c-0.9-0.8-1.4-1.7-1.4-2.6c0-0.5,0.2-1,0.5-1.5c0,0.1,0,0.2,0,0.2c0,1,0.5,1.8,1.4,2.6
						c0.9,0.8,2,1.2,3.3,1.3c1.3,0,2.4-0.3,3.4-1C335.9,319.7,336.2,319.4,336.4,319.1z"/>
				</g>
			</g>
			<g>
				<g>
					<path fill-rule="evenodd" clip-rule="evenodd" fill="#29302D" d="M309.3,314.2c0,0.2-0.1,0.4-0.1,0.6c0,1,0.4,1.8,1.3,2.5
						c0.8,0.8,1.9,1.2,3.1,1.3c1.2,0,2.3-0.3,3.3-0.9c0.2-0.2,0.4-0.3,0.6-0.6c-0.2,0.7-0.6,1.3-1.2,1.9c-1,0.6-2.1,0.9-3.3,0.9
						c-1.3-0.1-2.3-0.6-3.2-1.3c-0.9-0.7-1.3-1.5-1.3-2.5C308.6,315.4,308.9,314.8,309.3,314.2z"/>
					<path fill-rule="evenodd" clip-rule="evenodd" d="M317.6,317.2c-0.2,0.2-0.4,0.4-0.6,0.6c-1,0.6-2.1,0.9-3.3,0.9
						c-1.3-0.1-2.3-0.6-3.1-1.3c-0.9-0.7-1.3-1.5-1.3-2.5c0-0.2,0-0.4,0.1-0.6c0.2-0.2,0.4-0.4,0.6-0.6c0.8-0.6,1.9-0.9,3.2-0.8
						c1.2,0,2.3,0.4,3.3,1.2c0.9,0.8,1.3,1.7,1.3,2.6C317.7,316.8,317.7,317,317.6,317.2z"/>
				</g>
			</g>
			<g>
				<g>
					<path fill-rule="evenodd" clip-rule="evenodd" d="M298.6,313.3c-0.2,0.2-0.5,0.4-0.8,0.6c-1,0.5-2.1,0.7-3.3,0.5
						c-1.3-0.3-2.3-0.9-3.1-1.8c-0.9-0.9-1.3-1.9-1.2-2.8c0,0,0-0.1,0-0.1c0.2-0.2,0.5-0.5,0.9-0.7c0.9-0.4,1.9-0.5,3.2-0.2
						c1.2,0.2,2.3,0.8,3.2,1.6c0.8,0.9,1.2,1.8,1.2,2.7C298.6,313.2,298.6,313.2,298.6,313.3z"/>
					<path fill-rule="evenodd" clip-rule="evenodd" fill="#29302D" d="M298.6,313.3c-0.1,0.9-0.5,1.5-1.4,1.9
						c-1,0.5-2.1,0.7-3.3,0.4c-1.3-0.3-2.3-0.9-3.1-1.8c-0.9-0.9-1.3-1.8-1.2-2.7c0-0.6,0.2-1.1,0.6-1.5c0,0,0,0.1,0,0.1
						c0,0.9,0.4,1.9,1.2,2.8c0.8,0.9,1.8,1.4,3.1,1.8c1.2,0.2,2.3,0.1,3.3-0.5C298.1,313.7,298.4,313.5,298.6,313.3z"/>
				</g>
			</g>
			<g>
				<g>
					<path fill-rule="evenodd" clip-rule="evenodd" d="M274.7,302.9c0.1-0.1,0.2-0.1,0.2-0.2c0.7-0.5,1.6-0.6,2.6-0.2
						c1,0.3,1.8,0.9,2.6,1.8c0.7,0.9,1,1.9,0.9,2.8c0,0.3-0.1,0.7-0.2,0.9c0,0-0.1,0.1-0.2,0.1c-0.8,0.5-1.7,0.6-2.7,0.3
						c-1-0.3-1.8-1-2.5-1.9c-0.7-0.9-1-1.8-1-2.8C274.5,303.4,274.6,303.2,274.7,302.9z"/>
					<path fill-rule="evenodd" clip-rule="evenodd" fill="#29302D" d="M280.9,308.1c-0.2,0.5-0.5,0.9-1,1.2
						c-0.8,0.5-1.7,0.6-2.7,0.3c-1-0.4-1.8-1-2.5-1.9c-0.7-0.9-1-1.8-1-2.8c0-0.8,0.4-1.5,1-1.9c-0.1,0.2-0.2,0.5-0.2,0.8
						c0,1,0.3,1.9,1,2.8c0.7,0.9,1.5,1.6,2.5,1.9c1,0.3,1.9,0.2,2.7-0.3C280.8,308.1,280.8,308.1,280.9,308.1z"/>
				</g>
			</g>
			<g>
				<g>
					<path fill-rule="evenodd" clip-rule="evenodd" fill="#29302D" d="M261,293.8c-0.2,0.3-0.3,0.6-0.3,1c0,0.9,0.3,1.9,0.9,3
						c0.7,1,1.5,1.9,2.4,2.5c0.8,0.5,1.6,0.7,2.3,0.5c-0.2,0.4-0.4,0.6-0.8,0.7c-0.8,0.3-1.6,0.1-2.6-0.4c-0.9-0.7-1.7-1.5-2.4-2.6
						c-0.6-1-0.9-2-0.9-3c0-0.8,0.4-1.3,1.2-1.6C260.9,293.8,260.9,293.8,261,293.8z"/>
					<path fill-rule="evenodd" clip-rule="evenodd" d="M266.2,300.8c-0.7,0.2-1.5,0.1-2.3-0.5c-0.9-0.6-1.7-1.5-2.4-2.5
						c-0.6-1-0.9-2-0.9-3c0-0.4,0.1-0.7,0.3-1c0.7-0.2,1.4,0.1,2.3,0.6c0.9,0.5,1.7,1.3,2.4,2.4c0.7,1.1,1,2.1,0.9,3
						C266.5,300.2,266.4,300.5,266.2,300.8z"/>
				</g>
			</g>
			<g>
				<g>
					<path fill-rule="evenodd" clip-rule="evenodd" fill="#29302D" d="M327.4,332c0,0.1,0,0.2,0,0.3c0,0.9,0.5,1.8,1.4,2.6
						c0.9,0.8,2,1.2,3.3,1.3c1.3,0,2.4-0.3,3.4-1c0.3-0.3,0.6-0.5,0.8-0.8c-0.1,0.8-0.5,1.5-1.3,2.1c-1,0.7-2.2,1-3.4,1
						c-1.3-0.1-2.4-0.5-3.3-1.3c-0.9-0.8-1.4-1.7-1.4-2.6C326.9,333,327.1,332.5,327.4,332z"/>
					<path fill-rule="evenodd" clip-rule="evenodd" d="M327.4,332c0.2-0.4,0.5-0.7,0.9-0.9c0.9-0.7,2-1,3.3-0.9
						c1.3,0,2.4,0.4,3.4,1.2c0.9,0.8,1.3,1.7,1.3,2.6c0,0.1,0,0.2-0.1,0.4c-0.2,0.3-0.5,0.5-0.8,0.8c-1,0.7-2.2,1-3.4,1
						c-1.3-0.1-2.4-0.5-3.3-1.3c-0.9-0.8-1.4-1.6-1.4-2.6C327.4,332.2,327.4,332.1,327.4,332z"/>
				</g>
			</g>
			<g>
				<g>
					<path fill-rule="evenodd" clip-rule="evenodd" fill="#29302D" d="M309.3,329.5c0,0.2-0.1,0.4-0.1,0.6c0,1,0.4,1.8,1.3,2.6
						c0.8,0.7,1.9,1.2,3.1,1.3c1.2,0,2.3-0.3,3.3-0.9c0.2-0.2,0.4-0.3,0.6-0.5c-0.2,0.7-0.6,1.3-1.2,1.8c-1,0.6-2.1,0.9-3.3,0.9
						c-1.3-0.1-2.3-0.6-3.2-1.3c-0.9-0.7-1.3-1.5-1.3-2.5C308.6,330.6,308.9,330,309.3,329.5z"/>
					<path fill-rule="evenodd" clip-rule="evenodd" d="M317.6,332.5c-0.2,0.2-0.4,0.4-0.6,0.5c-1,0.7-2.1,1-3.3,0.9
						c-1.3-0.2-2.3-0.6-3.1-1.3c-0.9-0.7-1.3-1.6-1.3-2.6c0-0.2,0-0.4,0.1-0.6c0.2-0.2,0.4-0.4,0.6-0.6c0.8-0.6,1.9-0.9,3.2-0.8
						c1.2,0,2.3,0.4,3.3,1.2c0.9,0.7,1.3,1.6,1.3,2.6C317.7,332.1,317.7,332.3,317.6,332.5z"/>
				</g>
			</g>
			<g>
				<g>
					<path fill-rule="evenodd" clip-rule="evenodd" d="M298.6,328.5c-0.2,0.2-0.5,0.4-0.8,0.6c-1,0.5-2.1,0.6-3.3,0.4
						c-1.3-0.3-2.3-0.9-3.1-1.8c-0.9-0.9-1.3-1.9-1.2-2.8c0,0,0-0.1,0-0.1c0.2-0.2,0.5-0.4,0.9-0.6c0.9-0.5,1.9-0.5,3.2-0.2
						c1.2,0.2,2.3,0.8,3.2,1.6c0.8,0.9,1.2,1.8,1.2,2.7C298.6,328.4,298.6,328.5,298.6,328.5z"/>
					<path fill-rule="evenodd" clip-rule="evenodd" fill="#29302D" d="M298.6,328.5c-0.1,0.9-0.5,1.5-1.4,1.9
						c-1,0.5-2.1,0.7-3.3,0.5c-1.3-0.3-2.3-0.9-3.1-1.8c-0.9-0.9-1.3-1.9-1.2-2.8c0-0.6,0.2-1.1,0.6-1.5c0,0,0,0.1,0,0.1
						c0,0.9,0.4,1.9,1.2,2.8c0.8,0.9,1.8,1.5,3.1,1.8c1.2,0.2,2.3,0.1,3.3-0.4C298.1,329,298.4,328.8,298.6,328.5z"/>
				</g>
			</g>
			<g>
				<g>
					<path fill-rule="evenodd" clip-rule="evenodd" d="M280.9,323.3c0,0-0.1,0.1-0.2,0.1c-0.8,0.5-1.7,0.6-2.7,0.3
						c-1-0.4-1.8-1-2.5-1.9c-0.7-0.9-1-1.8-1-2.8c0-0.3,0.1-0.6,0.2-0.8c0.1-0.1,0.2-0.1,0.2-0.2c0.7-0.5,1.6-0.6,2.6-0.2
						c1,0.3,1.8,0.9,2.6,1.8c0.7,1,1,1.9,0.9,2.9C281,322.7,281,323,280.9,323.3z"/>
					<path fill-rule="evenodd" clip-rule="evenodd" fill="#29302D" d="M280.9,323.3c-0.2,0.5-0.5,1-1,1.2c-0.8,0.5-1.7,0.6-2.7,0.3
						c-1-0.3-1.8-1-2.5-1.9c-0.7-0.9-1-1.8-1-2.8c0-0.8,0.4-1.5,1-1.9c-0.1,0.2-0.2,0.5-0.2,0.8c0,1,0.3,1.9,1,2.8
						c0.7,0.9,1.5,1.6,2.5,1.9c1,0.3,1.9,0.2,2.7-0.3C280.8,323.4,280.8,323.3,280.9,323.3z"/>
				</g>
			</g>
			<g>
				<g>
					<path fill-rule="evenodd" clip-rule="evenodd" fill="#29302D" d="M261,309.1c-0.2,0.3-0.3,0.6-0.3,1c0,0.9,0.3,1.9,0.9,3
						c0.7,1.1,1.5,1.9,2.4,2.5c0.8,0.5,1.6,0.7,2.3,0.5c-0.2,0.3-0.4,0.5-0.8,0.6c-0.8,0.3-1.6,0.1-2.6-0.4
						c-0.9-0.7-1.7-1.5-2.4-2.6c-0.6-1-0.9-2-0.9-3c0-0.8,0.4-1.3,1.2-1.6C260.9,309.1,260.9,309.1,261,309.1z"/>
					<path fill-rule="evenodd" clip-rule="evenodd" d="M266.2,316.1c-0.7,0.2-1.5,0-2.3-0.5c-0.9-0.6-1.7-1.5-2.4-2.5
						c-0.6-1-0.9-2-0.9-3c0-0.3,0.1-0.7,0.3-1c0.7-0.2,1.4,0.1,2.3,0.6c0.9,0.5,1.7,1.3,2.4,2.4c0.7,1.1,1,2.1,0.9,3
						C266.5,315.4,266.4,315.8,266.2,316.1z"/>
				</g>
			</g>
			<g>
				<g>
					<path fill-rule="evenodd" clip-rule="evenodd" d="M336.4,349c-0.2,0.3-0.5,0.5-0.8,0.8c-1,0.7-2.2,1-3.4,1
						c-1.3-0.1-2.4-0.5-3.3-1.3c-0.9-0.8-1.4-1.7-1.4-2.6c0-0.1,0-0.2,0-0.2c0.2-0.3,0.5-0.7,0.9-0.9c0.9-0.7,2-1,3.3-0.9
						c1.3,0,2.4,0.4,3.4,1.2c0.9,0.8,1.3,1.6,1.3,2.6C336.5,348.8,336.4,348.9,336.4,349z"/>
					<path fill-rule="evenodd" clip-rule="evenodd" fill="#29302D" d="M336.4,349c-0.1,0.8-0.5,1.5-1.3,2.1c-1,0.7-2.2,1-3.4,1
						c-1.3-0.1-2.4-0.5-3.3-1.3c-0.9-0.8-1.4-1.7-1.4-2.6c0-0.5,0.2-1.1,0.5-1.5c0,0.1,0,0.2,0,0.2c0,1,0.5,1.8,1.4,2.6
						c0.9,0.8,2,1.2,3.3,1.3c1.3,0,2.4-0.3,3.4-1C335.9,349.6,336.2,349.3,336.4,349z"/>
				</g>
			</g>
			<g>
				<g>
					<path fill-rule="evenodd" clip-rule="evenodd" d="M309.3,344.1c0.2-0.2,0.4-0.4,0.6-0.6c0.8-0.6,1.9-0.9,3.2-0.8
						c1.2,0,2.3,0.4,3.3,1.2c0.9,0.7,1.3,1.6,1.3,2.6c0,0.2,0,0.4-0.1,0.6c-0.2,0.2-0.4,0.4-0.6,0.5c-1,0.6-2.1,0.9-3.3,0.9
						c-1.3-0.1-2.3-0.5-3.1-1.3c-0.9-0.7-1.3-1.6-1.3-2.6C309.3,344.5,309.3,344.3,309.3,344.1z"/>
					<path fill-rule="evenodd" clip-rule="evenodd" fill="#29302D" d="M317.6,347.1c-0.2,0.7-0.6,1.3-1.2,1.8
						c-1,0.6-2.1,0.9-3.3,0.9c-1.3-0.1-2.3-0.6-3.2-1.3c-0.9-0.7-1.3-1.5-1.3-2.5c0-0.7,0.2-1.3,0.7-1.9c0,0.2-0.1,0.4-0.1,0.6
						c0,1,0.4,1.8,1.3,2.6c0.8,0.7,1.9,1.2,3.1,1.3c1.2,0,2.3-0.3,3.3-0.9C317.3,347.5,317.5,347.3,317.6,347.1z"/>
				</g>
			</g>
			<g>
				<g>
					<path fill-rule="evenodd" clip-rule="evenodd" d="M298.6,343.2c-0.2,0.2-0.5,0.4-0.8,0.6c-1,0.5-2.1,0.6-3.3,0.4
						c-1.3-0.3-2.3-0.9-3.1-1.8c-0.9-0.9-1.3-1.9-1.2-2.8c0,0,0-0.1,0-0.1c0.2-0.2,0.5-0.4,0.9-0.6c0.9-0.5,1.9-0.6,3.2-0.3
						c1.2,0.3,2.3,0.8,3.2,1.6c0.8,0.9,1.2,1.8,1.2,2.7C298.6,343,298.6,343.1,298.6,343.2z"/>
					<path fill-rule="evenodd" clip-rule="evenodd" fill="#29302D" d="M298.6,343.2c-0.1,0.9-0.5,1.5-1.4,1.9
						c-1,0.5-2.1,0.7-3.3,0.5c-1.3-0.3-2.3-0.9-3.1-1.8c-0.9-0.9-1.3-1.9-1.2-2.8c0-0.6,0.2-1.1,0.6-1.5c0,0,0,0.1,0,0.1
						c0,0.9,0.4,1.9,1.2,2.8c0.8,0.9,1.8,1.5,3.1,1.8c1.2,0.2,2.3,0.1,3.3-0.4C298.1,343.6,298.4,343.4,298.6,343.2z"/>
				</g>
			</g>
			<g>
				<g>
					<path fill-rule="evenodd" clip-rule="evenodd" d="M280.9,337.9c0,0-0.1,0.1-0.2,0.1c-0.8,0.5-1.7,0.6-2.7,0.3
						c-1-0.3-1.8-1-2.5-1.9c-0.7-0.9-1-1.8-1-2.8c0-0.3,0.1-0.6,0.2-0.8c0.1-0.1,0.2-0.1,0.2-0.2c0.7-0.5,1.6-0.6,2.6-0.2
						c1,0.3,1.8,0.9,2.6,1.8c0.7,1,1,1.9,0.9,2.8C281,337.3,281,337.7,280.9,337.9z"/>
					<path fill-rule="evenodd" clip-rule="evenodd" fill="#29302D" d="M280.9,337.9c-0.2,0.5-0.5,0.9-1,1.2
						c-0.8,0.5-1.7,0.6-2.7,0.3c-1-0.4-1.8-1-2.5-1.9c-0.7-0.9-1-1.8-1-2.8c0-0.8,0.4-1.5,1-1.9c-0.1,0.2-0.2,0.5-0.2,0.8
						c0,1,0.3,1.9,1,2.8c0.7,0.9,1.5,1.6,2.5,1.9c1,0.3,1.9,0.2,2.7-0.3C280.8,338,280.8,338,280.9,337.9z"/>
				</g>
			</g>
			<g>
				<g>
					<path fill-rule="evenodd" clip-rule="evenodd" fill="#29302D" d="M261,323.7c-0.2,0.3-0.3,0.6-0.3,1c0,0.9,0.3,1.9,0.9,3
						c0.7,1,1.5,1.9,2.4,2.5c0.8,0.5,1.6,0.7,2.3,0.5c-0.2,0.3-0.4,0.5-0.8,0.6c-0.8,0.3-1.6,0.1-2.6-0.4c-0.9-0.7-1.7-1.5-2.4-2.6
						c-0.6-1.1-0.9-2-0.9-3c0-0.8,0.4-1.3,1.2-1.6C260.9,323.7,260.9,323.7,261,323.7z"/>
					<path fill-rule="evenodd" clip-rule="evenodd" d="M266.2,330.7c-0.7,0.2-1.5,0-2.3-0.5c-0.9-0.6-1.7-1.5-2.4-2.5
						c-0.6-1-0.9-2-0.9-3c0-0.4,0.1-0.7,0.3-1c0.7-0.2,1.4,0.1,2.3,0.6c0.9,0.5,1.7,1.3,2.4,2.4c0.7,1.1,1,2.1,0.9,3
						C266.5,330.1,266.4,330.4,266.2,330.7z"/>
				</g>
			</g>
			<g>
				<g>
					<path fill-rule="evenodd" clip-rule="evenodd" d="M336.4,364.2c-0.2,0.3-0.5,0.5-0.8,0.8c-1,0.7-2.2,1-3.4,1
						c-1.3-0.1-2.4-0.5-3.3-1.3c-0.9-0.7-1.4-1.6-1.4-2.6c0-0.1,0-0.2,0-0.2c0.2-0.4,0.5-0.7,0.9-1c0.9-0.7,2-1,3.3-0.9
						c1.3,0,2.4,0.4,3.4,1.2c0.9,0.8,1.3,1.7,1.3,2.6C336.5,364,336.4,364.1,336.4,364.2z"/>
					<path fill-rule="evenodd" clip-rule="evenodd" fill="#29302D" d="M336.4,364.2c-0.1,0.8-0.5,1.5-1.3,2.1c-1,0.7-2.2,1-3.4,1
						c-1.3-0.1-2.4-0.5-3.3-1.3c-0.9-0.8-1.4-1.7-1.4-2.6c0-0.5,0.2-1,0.5-1.5c0,0.1,0,0.2,0,0.2c0,1,0.5,1.8,1.4,2.6
						c0.9,0.8,2,1.2,3.3,1.3c1.3,0,2.4-0.3,3.4-1C335.9,364.8,336.2,364.5,336.4,364.2z"/>
				</g>
			</g>
			<g>
				<g>
					<path fill-rule="evenodd" clip-rule="evenodd" d="M309.3,359.3c0.2-0.2,0.4-0.4,0.6-0.6c0.8-0.7,1.9-0.9,3.2-0.8
						c1.2,0,2.3,0.4,3.3,1.2c0.9,0.8,1.3,1.6,1.3,2.6c0,0.2,0,0.4-0.1,0.6c-0.2,0.2-0.4,0.4-0.6,0.5c-1,0.7-2.1,1-3.3,0.9
						c-1.3-0.1-2.3-0.6-3.1-1.3c-0.9-0.7-1.3-1.6-1.3-2.6C309.3,359.7,309.3,359.5,309.3,359.3z"/>
					<path fill-rule="evenodd" clip-rule="evenodd" fill="#29302D" d="M317.6,362.4c-0.2,0.7-0.6,1.3-1.2,1.8
						c-1,0.6-2.1,0.9-3.3,0.9c-1.3-0.1-2.3-0.5-3.2-1.3c-0.9-0.7-1.3-1.6-1.3-2.6c0-0.7,0.2-1.3,0.7-1.9c0,0.2-0.1,0.4-0.1,0.6
						c0,1,0.4,1.8,1.3,2.6c0.8,0.8,1.9,1.2,3.1,1.3c1.2,0,2.3-0.3,3.3-0.9C317.3,362.7,317.5,362.6,317.6,362.4z"/>
				</g>
			</g>
			<g>
				<g>
					<path fill-rule="evenodd" clip-rule="evenodd" d="M298.6,358.4c-0.2,0.3-0.5,0.5-0.8,0.6c-1,0.5-2.1,0.6-3.3,0.4
						c-1.3-0.3-2.3-0.9-3.1-1.8c-0.9-0.9-1.3-1.9-1.2-2.8c0,0,0-0.1,0-0.1c0.2-0.2,0.5-0.4,0.9-0.6c0.9-0.5,1.9-0.5,3.2-0.2
						c1.2,0.2,2.3,0.8,3.2,1.6c0.8,0.9,1.2,1.8,1.2,2.7C298.6,358.3,298.6,358.3,298.6,358.4z"/>
					<path fill-rule="evenodd" clip-rule="evenodd" fill="#29302D" d="M298.6,358.4c-0.1,0.9-0.5,1.5-1.4,2c-1,0.5-2.1,0.6-3.3,0.4
						c-1.3-0.3-2.3-0.9-3.1-1.8c-0.9-0.9-1.3-1.9-1.2-2.8c0-0.5,0.2-1,0.6-1.5c0,0,0,0.1,0,0.1c0,0.9,0.4,1.9,1.2,2.8
						c0.8,0.9,1.8,1.5,3.1,1.8c1.2,0.2,2.3,0.1,3.3-0.4C298.1,358.9,298.4,358.7,298.6,358.4z"/>
				</g>
			</g>
			<g>
				<g>
					<path fill-rule="evenodd" clip-rule="evenodd" fill="#29302D" d="M274.7,348c-0.1,0.2-0.2,0.5-0.2,0.9c0,0.9,0.3,1.8,1,2.7
						c0.7,0.9,1.5,1.6,2.5,1.9c1,0.3,1.9,0.2,2.7-0.3c0.1,0,0.1-0.1,0.2-0.1c-0.2,0.5-0.5,1-1,1.2c-0.8,0.5-1.7,0.6-2.7,0.3
						c-1-0.3-1.8-1-2.5-1.9c-0.7-0.9-1-1.8-1-2.8C273.7,349.2,274.1,348.5,274.7,348z"/>
					<path fill-rule="evenodd" clip-rule="evenodd" d="M274.7,348c0.1-0.1,0.2-0.1,0.2-0.2c0.7-0.5,1.6-0.5,2.6-0.2
						c1,0.3,1.8,0.9,2.6,1.8c0.7,1,1,1.9,0.9,2.9c0,0.3-0.1,0.6-0.2,0.9c0,0-0.1,0.1-0.2,0.1c-0.8,0.5-1.7,0.6-2.7,0.3
						c-1-0.3-1.8-1-2.5-1.9c-0.7-0.9-1-1.8-1-2.7C274.5,348.5,274.6,348.2,274.7,348z"/>
				</g>
			</g>
			<g>
				<g>
					<path fill-rule="evenodd" clip-rule="evenodd" d="M261,339c0.7-0.2,1.4,0,2.3,0.6c0.9,0.5,1.7,1.3,2.4,2.4c0.7,1.1,1,2.1,0.9,3
						c0,0.4-0.1,0.8-0.3,1c-0.7,0.2-1.5,0-2.3-0.5c-0.9-0.7-1.7-1.5-2.4-2.6c-0.6-1-0.9-2-0.9-3C260.7,339.6,260.8,339.2,261,339z"
						/>
					<path fill-rule="evenodd" clip-rule="evenodd" fill="#29302D" d="M266.2,345.9c-0.2,0.3-0.4,0.5-0.8,0.6
						c-0.8,0.3-1.6,0.1-2.6-0.4c-0.9-0.7-1.7-1.5-2.4-2.6c-0.6-1-0.9-2-0.9-2.9c0-0.8,0.4-1.4,1.2-1.6c0.1,0,0.1-0.1,0.2-0.1
						c-0.2,0.3-0.3,0.6-0.3,0.9c0,0.9,0.3,1.9,0.9,3c0.7,1,1.5,1.9,2.4,2.6C264.8,346,265.5,346.1,266.2,345.9z"/>
				</g>
			</g>
			<g>
				<g>
					<path fill-rule="evenodd" clip-rule="evenodd" d="M327.4,376.4c0.2-0.4,0.5-0.7,0.9-0.9c0.9-0.7,2-1,3.3-0.9
						c1.3,0,2.4,0.4,3.4,1.2c0.9,0.8,1.3,1.6,1.3,2.6c0,0.2,0,0.3-0.1,0.4c-0.2,0.3-0.5,0.5-0.8,0.8c-1,0.7-2.2,1-3.4,1
						c-1.3-0.1-2.4-0.5-3.3-1.3c-0.9-0.8-1.4-1.7-1.4-2.6C327.4,376.6,327.4,376.5,327.4,376.4z"/>
					<path fill-rule="evenodd" clip-rule="evenodd" fill="#29302D" d="M336.4,378.8c-0.1,0.8-0.5,1.5-1.3,2.1c-1,0.7-2.2,1-3.4,1
						c-1.3-0.1-2.4-0.5-3.3-1.3c-0.9-0.8-1.4-1.7-1.4-2.6c0-0.5,0.2-1.1,0.5-1.5c0,0.1,0,0.2,0,0.2c0,1,0.5,1.8,1.4,2.6
						c0.9,0.8,2,1.2,3.3,1.3c1.3,0,2.4-0.3,3.4-1C335.9,379.3,336.2,379,336.4,378.8z"/>
				</g>
			</g>
			<g>
				<g>
					<path fill-rule="evenodd" clip-rule="evenodd" d="M309.3,373.9c0.2-0.2,0.4-0.4,0.6-0.6c0.8-0.6,1.9-0.9,3.2-0.8
						c1.2,0,2.3,0.4,3.3,1.2c0.9,0.7,1.3,1.6,1.3,2.6c0,0.2,0,0.4-0.1,0.6c-0.2,0.2-0.4,0.4-0.6,0.5c-1,0.6-2.1,0.9-3.3,0.9
						c-1.3-0.1-2.3-0.5-3.1-1.3c-0.9-0.7-1.3-1.6-1.3-2.6C309.3,374.2,309.3,374.1,309.3,373.9z"/>
					<path fill-rule="evenodd" clip-rule="evenodd" fill="#29302D" d="M317.6,376.9c-0.2,0.7-0.6,1.3-1.2,1.8
						c-1,0.6-2.1,0.9-3.3,0.9c-1.3-0.1-2.3-0.6-3.2-1.3c-0.9-0.7-1.3-1.5-1.3-2.5c0-0.7,0.2-1.3,0.7-1.9c0,0.2-0.1,0.4-0.1,0.6
						c0,1,0.4,1.8,1.3,2.6c0.8,0.7,1.9,1.2,3.1,1.3c1.2,0,2.3-0.3,3.3-0.9C317.3,377.3,317.5,377.1,317.6,376.9z"/>
				</g>
			</g>
			<g>
				<g>
					<path fill-rule="evenodd" clip-rule="evenodd" d="M298.6,372.9c-0.2,0.2-0.5,0.4-0.8,0.6c-1,0.5-2.1,0.6-3.3,0.4
						c-1.3-0.3-2.3-0.9-3.1-1.8c-0.9-0.9-1.3-1.9-1.2-2.8c0,0,0-0.1,0-0.1c0.2-0.2,0.5-0.4,0.9-0.6c0.9-0.5,1.9-0.6,3.2-0.3
						c1.2,0.3,2.3,0.8,3.2,1.6c0.8,0.9,1.2,1.8,1.2,2.7C298.6,372.8,298.6,372.8,298.6,372.9z"/>
					<path fill-rule="evenodd" clip-rule="evenodd" fill="#29302D" d="M298.6,372.9c-0.1,0.9-0.5,1.5-1.4,1.9
						c-1,0.5-2.1,0.7-3.3,0.5c-1.3-0.3-2.3-0.9-3.1-1.8c-0.9-0.9-1.3-1.9-1.2-2.8c0-0.6,0.2-1.1,0.6-1.5c0,0,0,0.1,0,0.1
						c0,0.9,0.4,1.9,1.2,2.8c0.8,0.9,1.8,1.5,3.1,1.8c1.2,0.2,2.3,0.1,3.3-0.4C298.1,373.4,298.4,373.2,298.6,372.9z"/>
				</g>
			</g>
			<g>
				<g>
					<path fill-rule="evenodd" clip-rule="evenodd" fill="#29302D" d="M274.7,362.5c-0.1,0.2-0.2,0.5-0.2,0.8c0,1,0.3,1.9,1,2.8
						c0.7,0.9,1.5,1.6,2.5,1.9c1,0.3,1.9,0.2,2.7-0.3c0.1,0,0.1-0.1,0.2-0.1c-0.2,0.5-0.5,0.9-1,1.2c-0.8,0.5-1.7,0.6-2.7,0.3
						c-1-0.4-1.8-1-2.5-1.9c-0.7-0.9-1-1.8-1-2.8C273.7,363.6,274.1,363,274.7,362.5z"/>
					<path fill-rule="evenodd" clip-rule="evenodd" d="M274.7,362.5c0.1-0.1,0.2-0.1,0.2-0.2c0.7-0.5,1.6-0.6,2.6-0.2
						c1,0.3,1.8,0.9,2.6,1.7c0.7,1,1,1.9,0.9,2.8c0,0.4-0.1,0.7-0.2,0.9c0,0-0.1,0.1-0.2,0.1c-0.8,0.5-1.7,0.6-2.7,0.3
						c-1-0.3-1.8-1-2.5-1.9c-0.7-0.9-1-1.8-1-2.8C274.5,363,274.6,362.8,274.7,362.5z"/>
				</g>
			</g>
			<g>
				<g>
					<path fill-rule="evenodd" clip-rule="evenodd" fill="#29302D" d="M261,353.4c-0.2,0.3-0.3,0.6-0.3,1c0,0.9,0.3,1.9,0.9,3
						c0.7,1,1.5,1.9,2.4,2.5c0.8,0.5,1.6,0.7,2.3,0.5c-0.2,0.3-0.4,0.5-0.8,0.6c-0.8,0.3-1.6,0.1-2.6-0.4c-0.9-0.7-1.7-1.5-2.4-2.6
						c-0.6-1-0.9-2-0.9-3c0-0.8,0.4-1.3,1.2-1.6C260.9,353.5,260.9,353.4,261,353.4z"/>
					<path fill-rule="evenodd" clip-rule="evenodd" d="M266.2,360.4c-0.7,0.2-1.5,0-2.3-0.5c-0.9-0.6-1.7-1.5-2.4-2.5
						c-0.6-1-0.9-2-0.9-3c0-0.3,0.1-0.7,0.3-1c0.7-0.2,1.4,0.1,2.3,0.6c0.9,0.5,1.7,1.3,2.4,2.4c0.7,1.1,1,2.1,0.9,3
						C266.5,359.8,266.4,360.2,266.2,360.4z"/>
				</g>
			</g>
			<g>
				<g>
					<path fill-rule="evenodd" clip-rule="evenodd" d="M327.4,391.4c0.2-0.4,0.5-0.7,0.9-0.9c0.9-0.7,2-1,3.3-0.9
						c1.3,0,2.4,0.4,3.4,1.2c0.9,0.8,1.3,1.7,1.3,2.6c0,0.1,0,0.2-0.1,0.3c-0.2,0.3-0.5,0.5-0.8,0.8c-1,0.7-2.2,1-3.4,1
						c-1.3-0.1-2.4-0.5-3.3-1.3c-0.9-0.8-1.4-1.6-1.4-2.6C327.4,391.6,327.4,391.5,327.4,391.4z"/>
					<path fill-rule="evenodd" clip-rule="evenodd" fill="#29302D" d="M336.4,393.7c-0.1,0.8-0.5,1.5-1.3,2.1c-1,0.7-2.2,1-3.4,1
						c-1.3-0.1-2.4-0.5-3.3-1.3c-0.9-0.8-1.4-1.7-1.4-2.6c0-0.5,0.2-1,0.5-1.5c0,0.1,0,0.2,0,0.3c0,0.9,0.5,1.8,1.4,2.6
						c0.9,0.8,2,1.2,3.3,1.3c1.3,0,2.4-0.3,3.4-1C335.9,394.3,336.2,394,336.4,393.7z"/>
				</g>
			</g>
			<g>
				<g>
					<path fill-rule="evenodd" clip-rule="evenodd" fill="#29302D" d="M309.3,388.8c0,0.2-0.1,0.4-0.1,0.6c0,1,0.4,1.8,1.3,2.6
						c0.8,0.7,1.9,1.2,3.1,1.3c1.2,0,2.3-0.3,3.3-0.9c0.2-0.2,0.4-0.3,0.6-0.5c-0.2,0.7-0.6,1.3-1.2,1.8c-1,0.6-2.1,0.9-3.3,0.9
						c-1.3-0.1-2.3-0.5-3.2-1.3c-0.9-0.7-1.3-1.6-1.3-2.6C308.6,390,308.9,389.4,309.3,388.8z"/>
					<path fill-rule="evenodd" clip-rule="evenodd" d="M317.6,391.9c-0.2,0.2-0.4,0.4-0.6,0.5c-1,0.7-2.1,1-3.3,0.9
						c-1.3-0.2-2.3-0.6-3.1-1.3c-0.9-0.7-1.3-1.6-1.3-2.6c0-0.2,0-0.4,0.1-0.6c0.2-0.2,0.4-0.4,0.6-0.6c0.8-0.6,1.9-0.9,3.2-0.8
						c1.2,0,2.3,0.4,3.3,1.2c0.9,0.7,1.3,1.6,1.3,2.6C317.7,391.4,317.7,391.6,317.6,391.9z"/>
				</g>
			</g>
			<g>
				<g>
					<path fill-rule="evenodd" clip-rule="evenodd" d="M298.6,387.9c-0.2,0.3-0.5,0.5-0.8,0.6c-1,0.5-2.1,0.6-3.3,0.4
						c-1.3-0.3-2.3-0.9-3.1-1.8c-0.9-0.9-1.3-1.9-1.2-2.8c0,0,0-0.1,0-0.1c0.2-0.2,0.5-0.4,0.9-0.6c0.9-0.5,1.9-0.5,3.2-0.2
						c1.2,0.2,2.3,0.8,3.2,1.6c0.8,0.9,1.2,1.8,1.2,2.7C298.6,387.8,298.6,387.8,298.6,387.9z"/>
					<path fill-rule="evenodd" clip-rule="evenodd" fill="#29302D" d="M298.6,387.9c-0.1,0.9-0.5,1.5-1.4,1.9
						c-1,0.5-2.1,0.7-3.3,0.5c-1.3-0.3-2.3-0.9-3.1-1.8c-0.9-0.9-1.3-1.9-1.2-2.8c0-0.6,0.2-1.1,0.6-1.5c0,0,0,0.1,0,0.1
						c0,0.9,0.4,1.9,1.2,2.8c0.8,0.9,1.8,1.5,3.1,1.8c1.2,0.2,2.3,0.1,3.3-0.4C298.1,388.4,298.4,388.2,298.6,387.9z"/>
				</g>
			</g>
			<g>
				<g>
					<path fill-rule="evenodd" clip-rule="evenodd" fill="#29302D" d="M274.7,377.5c-0.1,0.2-0.2,0.5-0.2,0.8c0,1,0.3,1.9,1,2.8
						c0.7,0.9,1.5,1.6,2.5,1.9c1,0.3,1.9,0.2,2.7-0.3c0.1,0,0.1-0.1,0.2-0.1c-0.2,0.5-0.5,1-1,1.2c-0.8,0.5-1.7,0.6-2.7,0.3
						c-1-0.3-1.8-1-2.5-1.9c-0.7-0.9-1-1.8-1-2.8C273.7,378.6,274.1,378,274.7,377.5z"/>
					<path fill-rule="evenodd" clip-rule="evenodd" d="M274.7,377.5c0.1-0.1,0.2-0.1,0.2-0.2c0.7-0.5,1.6-0.6,2.6-0.2
						c1,0.3,1.8,0.9,2.6,1.8c0.7,1,1,1.9,0.9,2.9c0,0.3-0.1,0.6-0.2,0.9c0,0-0.1,0.1-0.2,0.1c-0.8,0.5-1.7,0.6-2.7,0.3
						c-1-0.4-1.8-1-2.5-1.9c-0.7-0.9-1-1.8-1-2.8C274.5,378,274.6,377.8,274.7,377.5z"/>
				</g>
			</g>
			<g>
				<g>
					<path fill-rule="evenodd" clip-rule="evenodd" d="M261,368.4c0.7-0.2,1.4,0.1,2.3,0.6c0.9,0.5,1.7,1.3,2.4,2.4
						c0.7,1.1,1,2.1,0.9,3c0,0.4-0.1,0.7-0.3,1c-0.7,0.2-1.5,0-2.3-0.5c-0.9-0.6-1.7-1.5-2.4-2.5c-0.6-1-0.9-2-0.9-3
						C260.7,369.1,260.8,368.7,261,368.4z"/>
					<path fill-rule="evenodd" clip-rule="evenodd" fill="#29302D" d="M266.2,375.4c-0.2,0.3-0.4,0.5-0.8,0.6
						c-0.8,0.3-1.6,0.1-2.6-0.4c-0.9-0.7-1.7-1.5-2.4-2.6c-0.6-1-0.9-2-0.9-2.9c0-0.8,0.4-1.4,1.2-1.6c0.1-0.1,0.1-0.1,0.2-0.1
						c-0.2,0.3-0.3,0.6-0.3,1c0,0.9,0.3,1.9,0.9,3c0.7,1.1,1.5,1.9,2.4,2.5C264.8,375.5,265.5,375.6,266.2,375.4z"/>
				</g>
			</g>
			<g>
				<g>
					<path fill-rule="evenodd" clip-rule="evenodd" d="M336.4,408.6c-0.2,0.3-0.5,0.5-0.8,0.8c-1,0.7-2.2,1-3.4,1
						c-1.3-0.1-2.4-0.5-3.3-1.3c-0.9-0.8-1.4-1.6-1.4-2.6c0-0.1,0-0.2,0-0.3c0.2-0.3,0.5-0.7,0.9-0.9c0.9-0.7,2-1,3.3-0.9
						c1.3,0,2.4,0.4,3.4,1.2c0.9,0.8,1.3,1.7,1.3,2.6C336.5,408.4,336.4,408.5,336.4,408.6z"/>
					<path fill-rule="evenodd" clip-rule="evenodd" fill="#29302D" d="M336.4,408.6c-0.1,0.8-0.5,1.5-1.3,2.1c-1,0.7-2.2,1-3.4,1
						c-1.3-0.1-2.4-0.5-3.3-1.3c-0.9-0.8-1.4-1.7-1.4-2.6c0-0.5,0.2-1,0.5-1.5c0,0.1,0,0.2,0,0.3c0,0.9,0.5,1.8,1.4,2.6
						c0.9,0.8,2,1.2,3.3,1.3c1.3,0,2.4-0.3,3.4-1C335.9,409.2,336.2,408.9,336.4,408.6z"/>
				</g>
			</g>
			<g>
				<g>
					<path fill-rule="evenodd" clip-rule="evenodd" d="M317.6,406.8c-0.2,0.2-0.4,0.4-0.6,0.5c-1,0.7-2.1,1-3.3,0.9
						c-1.3-0.2-2.3-0.6-3.1-1.3c-0.9-0.7-1.3-1.6-1.3-2.6c0-0.2,0-0.4,0.1-0.6c0.2-0.2,0.4-0.4,0.6-0.6c0.8-0.6,1.9-0.9,3.2-0.8
						c1.2,0,2.3,0.4,3.3,1.2c0.9,0.7,1.3,1.6,1.3,2.6C317.7,406.3,317.7,406.6,317.6,406.8z"/>
					<path fill-rule="evenodd" clip-rule="evenodd" fill="#29302D" d="M317.6,406.8c-0.2,0.7-0.6,1.3-1.2,1.8
						c-1,0.6-2.1,0.9-3.3,0.9c-1.3-0.1-2.3-0.5-3.2-1.3c-0.9-0.7-1.3-1.6-1.3-2.6c0-0.7,0.2-1.3,0.7-1.9c0,0.2-0.1,0.4-0.1,0.6
						c0,1,0.4,1.8,1.3,2.6c0.8,0.7,1.9,1.2,3.1,1.3c1.2,0,2.3-0.3,3.3-0.9C317.3,407.1,317.5,407,317.6,406.8z"/>
				</g>
			</g>
			<g>
				<g>
					<path fill-rule="evenodd" clip-rule="evenodd" d="M298.6,402.8c-0.2,0.3-0.5,0.5-0.8,0.6c-1,0.5-2.1,0.6-3.3,0.4
						c-1.3-0.3-2.3-0.9-3.1-1.8c-0.9-0.9-1.3-1.9-1.2-2.8c0,0,0-0.1,0-0.1c0.2-0.2,0.5-0.4,0.9-0.6c0.9-0.5,1.9-0.5,3.2-0.2
						c1.2,0.2,2.3,0.8,3.2,1.6c0.8,0.9,1.2,1.8,1.2,2.7C298.6,402.7,298.6,402.7,298.6,402.8z"/>
					<path fill-rule="evenodd" clip-rule="evenodd" fill="#29302D" d="M298.6,402.8c-0.1,0.9-0.5,1.5-1.4,1.9
						c-1,0.5-2.1,0.7-3.3,0.5c-1.3-0.3-2.3-0.9-3.1-1.8c-0.9-0.9-1.3-1.9-1.2-2.8c0-0.6,0.2-1.1,0.6-1.5c0,0,0,0.1,0,0.1
						c0,0.9,0.4,1.9,1.2,2.8c0.8,0.9,1.8,1.5,3.1,1.8c1.2,0.2,2.3,0.1,3.3-0.4C298.1,403.3,298.4,403.1,298.6,402.8z"/>
				</g>
			</g>
			<g>
				<g>
					<path fill-rule="evenodd" clip-rule="evenodd" fill="#29302D" d="M274.7,392.4c-0.1,0.2-0.2,0.5-0.2,0.9c0,0.9,0.3,1.8,1,2.7
						c0.7,0.9,1.5,1.6,2.5,1.9c1,0.3,1.9,0.2,2.7-0.3c0.1,0,0.1-0.1,0.2-0.1c-0.2,0.5-0.5,1-1,1.2c-0.8,0.5-1.7,0.6-2.7,0.3
						c-1-0.3-1.8-1-2.5-1.9c-0.7-0.9-1-1.8-1-2.8C273.7,393.5,274.1,392.9,274.7,392.4z"/>
					<path fill-rule="evenodd" clip-rule="evenodd" d="M280.9,397.5c0,0-0.1,0.1-0.2,0.1c-0.8,0.5-1.7,0.6-2.7,0.3
						c-1-0.4-1.8-1-2.5-1.9c-0.7-0.9-1-1.8-1-2.7c0-0.4,0.1-0.6,0.2-0.9c0.1-0.1,0.2-0.1,0.2-0.2c0.7-0.5,1.6-0.6,2.6-0.2
						c1,0.3,1.8,0.9,2.6,1.8c0.7,1,1,1.9,0.9,2.9C281,397,281,397.3,280.9,397.5z"/>
				</g>
			</g>
			<g>
				<g>
					<path fill-rule="evenodd" clip-rule="evenodd" fill="#29302D" d="M261,383.4c-0.2,0.3-0.3,0.6-0.3,0.9c0,0.9,0.3,1.9,0.9,3
						c0.7,1,1.5,1.9,2.4,2.5c0.8,0.5,1.6,0.7,2.3,0.5c-0.2,0.3-0.4,0.5-0.8,0.6c-0.8,0.3-1.6,0.1-2.6-0.4c-0.9-0.7-1.7-1.5-2.4-2.6
						c-0.6-1-0.9-2-0.9-2.9c0-0.8,0.4-1.4,1.2-1.6C260.9,383.4,260.9,383.4,261,383.4z"/>
					<path fill-rule="evenodd" clip-rule="evenodd" d="M266.2,390.3c-0.7,0.2-1.5,0-2.3-0.5c-0.9-0.6-1.7-1.5-2.4-2.5
						c-0.6-1.1-0.9-2-0.9-3c0-0.3,0.1-0.7,0.3-0.9c0.7-0.2,1.4,0,2.3,0.6c0.9,0.5,1.7,1.3,2.4,2.4c0.7,1.1,1,2.1,0.9,3
						C266.5,389.7,266.4,390.1,266.2,390.3z"/>
				</g>
			</g>
		</g>
		<g>
			<g>
				
					<linearGradient id="SVGID_7_" gradientUnits="userSpaceOnUse" x1="-140.3994" y1="-71.5" x2="-52.6997" y2="-71.5" gradientTransform="matrix(1.1666 0 0 1.1666 464.55 334.2502)">
					<stop  offset="0" style="stop-color:#8E835F"/>
					<stop  offset="0.1137" style="stop-color:#C1B07A"/>
					<stop  offset="0.5569" style="stop-color:#C1B07A"/>
					<stop  offset="0.8824" style="stop-color:#C1B07A"/>
					<stop  offset="1" style="stop-color:#776D4C"/>
				</linearGradient>
				<path fill-rule="evenodd" clip-rule="evenodd" fill="url(#SVGID_7_)" d="M306.2,257.5c-2-0.7-3.8-1.5-5.5-2.3
					c2.1-2.6,6.8-4.9,14-6.9c3.5-0.9,7.3-1.8,11.4-2.5c6.4-1,13.4-1.6,21.1-1.8c1.6,0,3.1-0.1,4.7-0.1c3.7,0,7.3,0.1,10.7,0.3
					c5.2,0.3,10,0.8,14.5,1.5c3.1,0.4,6.1,1,8.9,1.8c1,0.2,1.9,0.5,2.9,0.7c7.3,2,12,4.3,14.1,6.9c-1.4,0.7-3,1.4-4.7,2
					c-1.1-2.5-5.2-4.7-12.4-6.5c-0.4-0.1-0.7-0.2-1-0.3c-2.5-0.6-5.1-1.1-7.9-1.6c-4.5-0.7-9.3-1.2-14.5-1.5
					c-3.3-0.2-6.7-0.3-10.2-0.3c-1.8,0-3.5,0-5.2,0.1c-7.8,0.2-14.8,0.8-21.1,1.9c-2.3,0.3-4.4,0.8-6.5,1.3
					C311.6,252.5,307.2,254.8,306.2,257.5z"/>
				
					<linearGradient id="SVGID_8_" gradientUnits="userSpaceOnUse" x1="-135.7002" y1="-67.3496" x2="-56.6997" y2="-67.3496" gradientTransform="matrix(1.1666 0 0 1.1666 464.55 334.2502)">
					<stop  offset="0" style="stop-color:#2A200C"/>
					<stop  offset="8.235294e-002" style="stop-color:#4C3818"/>
					<stop  offset="0.1843" style="stop-color:#29180E"/>
					<stop  offset="0.4235" style="stop-color:#643E17"/>
					<stop  offset="0.4902" style="stop-color:#976F1A"/>
					<stop  offset="0.6196" style="stop-color:#976F1A"/>
					<stop  offset="0.6824" style="stop-color:#704E20"/>
					<stop  offset="0.9098" style="stop-color:#603E1C"/>
					<stop  offset="1" style="stop-color:#351E0C"/>
				</linearGradient>
				<path fill-rule="evenodd" clip-rule="evenodd" fill="url(#SVGID_8_)" d="M398.4,257.3c-0.8,0.2-1.6,0.5-2.5,0.8
					c-3.1,1.1-6.4,2-9.9,2.8c-2.9,0.6-5.9,1.2-8.9,1.6c-4.6,0.7-9.4,1.1-14.5,1.5c-3.4,0.2-6.9,0.2-10.6,0.2c-1.6,0-3.2,0-4.8-0.1
					c-7.5-0.1-14.5-0.7-21.1-1.7c-6.5-1-12.5-2.5-18.1-4.3c-0.6-0.2-1.2-0.4-1.8-0.5c0.9-2.7,5.4-5.1,13.4-7.1
					c2.1-0.5,4.3-0.9,6.5-1.3c6.3-1.1,13.3-1.8,21.1-1.9c1.7-0.1,3.4-0.1,5.2-0.1c3.5,0,6.9,0.1,10.2,0.3c5.2,0.2,10.1,0.7,14.5,1.5
					c2.8,0.4,5.4,1,7.9,1.6c0.3,0.1,0.6,0.2,1,0.3C393.2,252.6,397.3,254.8,398.4,257.3z"/>
				
					<linearGradient id="SVGID_9_" gradientUnits="userSpaceOnUse" x1="-145.7495" y1="-74.8999" x2="-47.1494" y2="-74.8999" gradientTransform="matrix(1.1666 0 0 1.1666 464.55 334.2502)">
					<stop  offset="0" style="stop-color:#857055"/>
					<stop  offset="1" style="stop-color:#5F503B"/>
				</linearGradient>
				<path fill-rule="evenodd" clip-rule="evenodd" fill="url(#SVGID_9_)" d="M300.8,255.3c-2.5-1.2-4.6-2.5-6.2-3.8
					c2.9-2.5,7.6-4.9,14.1-7.1c10.8-3.6,23.7-5.5,38.6-5.8c1.6-0.1,3.2-0.1,4.8-0.1c3.6,0,7.1,0.1,10.6,0.3
					c5.1,0.2,9.9,0.7,14.5,1.5c3.1,0.4,6,1,8.9,1.7c3.3,0.7,6.4,1.5,9.4,2.5c6.4,2.2,11.1,4.6,14.1,7.2c-1.7,1.3-3.9,2.6-6.5,3.8
					c-2.1-2.6-6.8-4.9-14.1-6.9c-1-0.2-1.9-0.5-2.9-0.7c-2.8-0.7-5.8-1.3-8.9-1.8c-4.5-0.7-9.4-1.2-14.5-1.5
					c-3.4-0.2-7-0.3-10.7-0.3c-1.6,0-3.1,0-4.7,0.1c-7.7,0.2-14.7,0.7-21.1,1.8c-4,0.7-7.8,1.5-11.4,2.5
					C307.5,250.4,302.9,252.7,300.8,255.3z"/>
				
					<linearGradient id="SVGID_10_" gradientUnits="userSpaceOnUse" x1="-149.6997" y1="-83.1494" x2="-43.1997" y2="-83.1494" gradientTransform="matrix(1.1666 0 0 1.1666 464.55 334.2502)">
					<stop  offset="0" style="stop-color:#DBD1D1"/>
					<stop  offset="0.4275" style="stop-color:#F0F0F1"/>
					<stop  offset="1" style="stop-color:#9A9EA1"/>
				</linearGradient>
				<path fill-rule="evenodd" clip-rule="evenodd" fill="url(#SVGID_10_)" d="M294.5,251.4c-2.7-2.1-4.3-4.5-4.6-7.1v-1.6
					c0.4-5.3,6.4-9.9,18.1-13.8c12.2-4,26.8-6,44-6c17.1,0,31.8,2,43.9,6c11.5,3.8,17.6,8.4,18.2,13.6v1.8c-0.3,2.6-1.8,5-4.6,7.2
					c-3-2.6-7.7-5-14.1-7.2c-3-1-6.1-1.8-9.4-2.5c-2.9-0.7-5.9-1.3-8.9-1.7c-4.6-0.7-9.4-1.2-14.5-1.5c-3.4-0.2-6.9-0.3-10.6-0.3
					c-1.6,0-3.2,0-4.8,0.1c-14.9,0.3-27.7,2.3-38.6,5.8C302.1,246.5,297.4,248.9,294.5,251.4z"/>
			</g>
		</g>
	</g>
</g>
</svg>
