<?xml version="1.0" encoding="utf-8"?>
<!-- Generator: Adobe Illustrator 16.0.0, SVG Export Plug-In . SVG Version: 6.00 Build 0)  -->
<!DOCTYPE svg PUBLIC "-//W3C//DTD SVG 1.1//EN" "http://www.w3.org/Graphics/SVG/1.1/DTD/svg11.dtd">
<svg version="1.1" id="Layer_1" xmlns="http://www.w3.org/2000/svg" xmlns:xlink="http://www.w3.org/1999/xlink" x="0px" y="0px"
	 width="700px" height="700px" viewBox="0 0 700 700" enable-background="new 0 0 700 700" xml:space="preserve">
<g>
	<polygon fill-rule="evenodd" clip-rule="evenodd" fill-opacity="0.2471" points="706.5,320.6 464.5,320.6 454.9,223.4 669.7,223.7 
			"/>
	<polygon fill-rule="evenodd" clip-rule="evenodd" fill-opacity="0.4" points="473.5,303.6 473.5,305.6 466.5,305.6 457,223 
		658,222.5 683.6,305.6 673.3,305.6 672.4,303.6 	"/>
	<g>
		<g>
			<g>
				<path fill-rule="evenodd" clip-rule="evenodd" fill="#377CC1" d="M673,205.9l2.3,5.1c0.3,1.4,0.5,2.7,0.5,3.8l-3.3-6.8v88.5
					L646,236.1l0.3-87.8l26.3,56.6L673,205.9z"/>
				<path fill-rule="evenodd" clip-rule="evenodd" d="M673,205.9l-0.5-0.9l-26.3-56.6h5.1h0.1l26.5,57.5H673z M675.7,219.2h5v84.5
					h-5v-3.6V300v-80.1V219.2z"/>
				<linearGradient id="SVGID_1_" gradientUnits="userSpaceOnUse" x1="677.0059" y1="205.8223" x2="676.5997" y2="219.1784">
					<stop  offset="0" style="stop-color:#000000"/>
					<stop  offset="0.2431" style="stop-color:#000000"/>
					<stop  offset="0.5373" style="stop-color:#383737"/>
					<stop  offset="0.8588" style="stop-color:#000000"/>
					<stop  offset="1" style="stop-color:#000000"/>
				</linearGradient>
				<path fill-rule="evenodd" clip-rule="evenodd" fill="url(#SVGID_1_)" d="M680.7,219.2h-5v-1.1v-3c0-0.1,0-0.2,0-0.3
					c0-1.1-0.2-2.4-0.5-3.8l-2.3-5.1h5l2.3,5.1c0.6,1.9,0.7,3.3,0.4,4.1v0.4V219.2z"/>
				<linearGradient id="SVGID_2_" gradientUnits="userSpaceOnUse" x1="672.5" y1="255.875" x2="675.7" y2="255.875">
					<stop  offset="0" style="stop-color:#2A343C"/>
					<stop  offset="0.6471" style="stop-color:#577286"/>
					<stop  offset="1" style="stop-color:#6989A2"/>
				</linearGradient>
				<path fill-rule="evenodd" clip-rule="evenodd" fill="url(#SVGID_2_)" d="M675.7,219.2v0.7V300v0.1v3.6l-3.2-7.3V208l3.3,6.8
					c0,0.1,0,0.2,0,0.3v3V219.2z"/>
			</g>
		</g>
		<g>
			<g>
				<g>
					<path fill-rule="evenodd" clip-rule="evenodd" d="M674.3,297c0.1-0.2,0.2-0.4,0.3-0.7l-0.3,2.1c-0.1,1-1.5,1.6-4.2,1.8H469.9
						c-2.4,0-3.4-1.2-3.2-3.5l0.2-1.3c-0.2,2.2,0.8,3.3,3.1,3.3h200.2c2.1-0.2,3.4-0.7,3.9-1.6C674.3,297.1,674.3,297.1,674.3,297z"
						/>
					
						<linearGradient id="SVGID_3_" gradientUnits="userSpaceOnUse" x1="-629.627" y1="-421.8145" x2="-416.3506" y2="-421.8145" gradientTransform="matrix(-0.9689 0.2473 -0.1534 -0.9929 -1.890957e-004 1.360178e-004)">
						<stop  offset="0" style="stop-color:#1E1D1D"/>
						<stop  offset="0.2431" style="stop-color:#252222"/>
						<stop  offset="0.6549" style="stop-color:#434242"/>
						<stop  offset="0.8941" style="stop-color:#191919"/>
						<stop  offset="1" style="stop-color:#000000"/>
					</linearGradient>
					<path fill-rule="evenodd" clip-rule="evenodd" fill="url(#SVGID_3_)" d="M674.3,297c0,0,0,0.1-0.1,0.1
						c-0.5,0.9-1.8,1.4-3.9,1.6H470.1c-2.3,0-3.3-1.1-3.1-3.3l1.4-11.7c0.3-2.3,1.6-3.5,4-3.5h192.1c2-0.1,3.6,1,4.8,3.5l5,11.5
						c0.1,0.2,0.2,0.5,0.2,0.7C674.5,296.3,674.5,296.7,674.3,297z"/>
				</g>
			</g>
			<g>
				<g>
					<path fill-rule="evenodd" clip-rule="evenodd" fill="none" d="M670.6,298.6c2.1-0.1,3.4-0.6,3.7-1.6"/>
					
						<line fill-rule="evenodd" clip-rule="evenodd" fill="none" stroke="#FFFFFF" stroke-linecap="round" stroke-linejoin="round" stroke-miterlimit="3" stroke-opacity="0.3176" x1="472" y1="298.6" x2="670.6" y2="298.6"/>
				</g>
			</g>
		</g>
		<g>
			<g>
				<rect x="471.7" y="212.4" fill-rule="evenodd" clip-rule="evenodd" fill="#CED2D3" width="201" height="84.6"/>
				<linearGradient id="SVGID_4_" gradientUnits="userSpaceOnUse" x1="423.0879" y1="183.2246" x2="630.1129" y2="183.2246">
					<stop  offset="0" style="stop-color:#436E9A"/>
					<stop  offset="0.4196" style="stop-color:#5385B7"/>
					<stop  offset="1" style="stop-color:#639AD3"/>
				</linearGradient>
				<polygon fill-rule="evenodd" clip-rule="evenodd" fill="url(#SVGID_4_)" points="463.8,154 646.2,154 672.7,212.4 471.7,212.4 
					471.5,210.9 				"/>
				<polygon fill-rule="evenodd" clip-rule="evenodd" fill="#15375A" points="463.8,154 471.5,210.9 471.7,212.4 463.8,211.9 
					463.8,210.9 				"/>
				<polygon fill-rule="evenodd" clip-rule="evenodd" fill="#182D3E" points="471.7,297 463.8,211.9 471.7,212.4 				"/>
			</g>
		</g>
		<g>
			<g>
				<g>
					
						<linearGradient id="SVGID_5_" gradientUnits="userSpaceOnUse" x1="-721.0454" y1="-271.0938" x2="-498.343" y2="-271.0938" gradientTransform="matrix(-0.9942 0.108 0.1259 -1.0196 6.514788e-005 2.993643e-005)">
						<stop  offset="0" style="stop-color:#1E1D1D"/>
						<stop  offset="0.2431" style="stop-color:#252222"/>
						<stop  offset="0.6549" style="stop-color:#434242"/>
						<stop  offset="0.8941" style="stop-color:#191919"/>
						<stop  offset="1" style="stop-color:#000000"/>
					</linearGradient>
					<path fill-rule="evenodd" clip-rule="evenodd" fill="url(#SVGID_5_)" d="M675.5,213.5C675.5,213.5,675.5,213.5,675.5,213.5
						c0,0.2-0.1,0.3-0.3,0.4c0,0-0.1,0.1-0.1,0.1c0,0-0.1,0.1-0.2,0.1c-0.1,0-0.2,0.1-0.3,0.1c-0.8,0.3-2.1,0.5-4,0.6H471.3
						l-0.5-8.4l198.8,0c1.5,0.1,2.6,0.6,3.2,1.5l2.8,5.2C675.5,213.3,675.5,213.4,675.5,213.5z"/>
					<path fill-rule="evenodd" clip-rule="evenodd" d="M471.3,214.9h199.4c1.9-0.1,3.3-0.3,4-0.6c0.1-0.1,0.2-0.1,0.3-0.1
						c0.1,0,0.2,0,0.2-0.1c0-0.1,0.1-0.1,0.1-0.1c0.2-0.1,0.3-0.2,0.3-0.4c0,0,0-0.1,0-0.1c0,0.5,0,1,0,1.5
						c-0.4,0.9-2.1,1.4-4.9,1.4H471.3V214.9z"/>
				</g>
			</g>
			<g>
				<g>
					<path fill-rule="evenodd" clip-rule="evenodd" fill="none" d="M670.8,214.8h0.2c3,0,4.5-0.4,4.5-1.4"/>
					
						<line fill-rule="evenodd" clip-rule="evenodd" fill="none" stroke="#FFFFFF" stroke-linecap="round" stroke-linejoin="round" stroke-miterlimit="3" stroke-opacity="0.3137" x1="468.9" y1="214.8" x2="670.8" y2="214.8"/>
				</g>
			</g>
		</g>
		<g>
			<g>
				
					<linearGradient id="SVGID_6_" gradientUnits="userSpaceOnUse" x1="558.1025" y1="241.2432" x2="645.0635" y2="241.2432" gradientTransform="matrix(0.9999 -1.701073e-002 1.701073e-002 0.9999 4.347414e-005 1.654997e-004)">
					<stop  offset="0" style="stop-color:#7E8892"/>
					<stop  offset="1" style="stop-color:#4D5054"/>
				</linearGradient>
				<polygon fill-rule="evenodd" clip-rule="evenodd" fill="url(#SVGID_6_)" points="563.2,231.8 562.2,230.3 562.1,230.2 
					604.8,230.2 608.8,230.2 611.6,230.2 620.3,230.2 647.6,230.2 647.6,230.3 649.1,231.8 624.4,231.8 620.3,231.8 611.6,231.8 
					608.8,231.8 604.8,231.8 				"/>
				<path fill-rule="evenodd" clip-rule="evenodd" fill="#5B656E" d="M563.2,264.8v-32.9v-0.1h0h41.6h4h2.8h8.8h4.1h24.7V265h-24.7
					h-4.1h-8.8h-2.8h-4h-41.6h0V264.8z M566.9,233.5L566.9,233.5l-0.1,29.6v0.1h38h4h2.8h8.8h4.1h21.2v-29.7h-21.2h-4.1h-8.8h-2.8
					h-4H566.9z"/>
				<polygon fill-rule="evenodd" clip-rule="evenodd" fill="#1E212A" points="645.6,233.5 641.5,235.5 640.5,235.5 624.4,235.5 
					620.3,235.5 611.6,235.5 608.8,235.5 604.8,235.5 572.3,235.5 571.3,235.5 566.9,233.5 604.8,233.5 608.8,233.5 611.6,233.5 
					620.3,233.5 624.4,233.5 				"/>
				<polygon fill-rule="evenodd" clip-rule="evenodd" fill="#0E1014" points="572.3,236 571.3,235.6 571.3,235.5 572.3,235.5 
					604.8,235.5 608.8,235.5 611.6,235.5 620.3,235.5 624.4,235.5 640.5,235.5 641.5,235.5 641.5,236 641.5,236.4 641.5,239 
					641.5,239.1 641.5,244.3 641.5,246.4 641.5,248 641.5,260.5 641.5,261 640.5,260.5 640.5,236 624.4,236 620.3,236 611.6,236 
					608.8,236 604.8,236 				"/>
				<polygon fill-rule="evenodd" clip-rule="evenodd" fill="#3E0404" points="640.5,260.5 624.4,260.5 620.3,260.5 611.6,260.5 
					608.8,260.5 604.8,260.5 572.3,260.5 572.3,236 604.8,236 608.8,236 611.6,236 620.3,236 624.4,236 640.5,236 				"/>
				<linearGradient id="SVGID_7_" gradientUnits="userSpaceOnUse" x1="647.7246" y1="248.3501" x2="651.7744" y2="248.3501">
					<stop  offset="0" style="stop-color:#7B838E"/>
					<stop  offset="1" style="stop-color:#535860"/>
					<stop  offset="1" style="stop-color:#1A1A1A"/>
					<stop  offset="1" style="stop-color:#7B838C"/>
				</linearGradient>
				<polygon fill-rule="evenodd" clip-rule="evenodd" fill="url(#SVGID_7_)" points="645.6,233.5 645.6,263.2 641.5,261 
					641.5,260.5 641.5,248 641.5,246.4 641.5,244.3 641.5,239.1 641.5,239 641.5,236.4 641.5,236 641.5,235.5 				"/>
				<linearGradient id="SVGID_8_" gradientUnits="userSpaceOnUse" x1="569.4746" y1="248.3096" x2="560.3496" y2="248.2768">
					<stop  offset="0" style="stop-color:#363D41"/>
					<stop  offset="1" style="stop-color:#59646A"/>
					<stop  offset="1" style="stop-color:#393939"/>
					<stop  offset="1" style="stop-color:#1A1A1A"/>
				</linearGradient>
				<polygon fill-rule="evenodd" clip-rule="evenodd" fill="url(#SVGID_8_)" points="571.3,261 566.8,263.1 566.8,233.5 
					566.9,233.5 571.3,235.5 571.3,235.6 571.3,236.4 571.3,239 571.3,239.1 571.3,244.3 571.3,246.4 571.3,248 571.3,260.5 				"/>
				<polygon fill-rule="evenodd" clip-rule="evenodd" fill="#323627" points="572.3,236 572.3,260.5 604.8,260.5 608.8,260.5 
					611.6,260.5 620.3,260.5 624.4,260.5 640.5,260.5 641.5,261 624.4,261 620.3,261 611.6,261 608.8,261 604.8,261 572.3,261 
					571.3,261 571.3,260.5 571.3,248 571.3,246.4 571.3,244.3 571.3,239.1 571.3,239 571.3,236.4 571.3,235.6 				"/>
				<polygon fill-rule="evenodd" clip-rule="evenodd" fill="#2B303C" points="566.8,263.1 571.3,261 572.3,261 604.8,261 608.8,261 
					611.6,261 620.3,261 624.4,261 641.5,261 645.6,263.2 624.4,263.2 620.3,263.2 611.6,263.2 608.8,263.2 604.8,263.2 
					566.8,263.2 				"/>
				<polygon fill-rule="evenodd" clip-rule="evenodd" fill="#77808A" points="563.2,264.8 562.2,260.6 562.2,230.3 563.2,231.8 
					563.2,231.8 563.2,231.9 				"/>
			</g>
		</g>
		<g>
			<g>
				
					<radialGradient id="SVGID_9_" cx="529.7471" cy="294.9995" r="11.3885" gradientTransform="matrix(0.9999 -1.317120e-002 0.1833 0.9505 2.6755 13.8744)" gradientUnits="userSpaceOnUse">
					<stop  offset="0" style="stop-color:#000000"/>
					<stop  offset="1" style="stop-color:#0E0E0E;stop-opacity:0"/>
				</radialGradient>
				<path fill-rule="evenodd" clip-rule="evenodd" fill="url(#SVGID_9_)" d="M577.2,284.2c0.1,0.1,0.1,0.2,0.1,0.3
					c0.7,1.2,1.6,2.1,2.7,2.9h0c0.2-0.2,0.5-0.3,0.8-0.4c0.4,0,0.8,0.1,1.1,0.3c0.2,0.1,0.3,0.2,0.3,0.3c0.2,0.1,0.3,0.3,0.4,0.5
					c0.1,0.2,0.1,0.4,0,0.6c0,0-0.1,0.1-0.1,0.1c1,0.4,2,0.6,3.2,0.7h0c0-0.2,0.1-0.5,0.3-0.7c0.2-0.1,0.4-0.2,0.6-0.2
					c0.1-0.1,0.2-0.1,0.3-0.1c0.4,0,0.7,0.1,1,0.3c0.3,0.2,0.5,0.4,0.5,0.6c1-0.1,1.9-0.4,2.7-0.7c0.2-0.1,0.4-0.2,0.5-0.3
					c-0.1,0-0.2,0-0.2,0c-0.2-0.2-0.4-0.4-0.4-0.7c0-0.2,0.1-0.4,0.3-0.5c0.1-0.1,0.1-0.1,0.2-0.2c0.3-0.2,0.7-0.3,1-0.3
					c0.4,0,0.7,0.1,1,0.3c0.7-0.7,1-1.5,1.2-2.4c0.1-0.3,0.1-0.6,0-1h0.1l3.3,17.2c0.2,1.4-0.1,2.6-1.1,3.8l0-0.1
					c-0.3-0.2-0.6-0.3-1-0.3c-0.4,0-0.8,0.1-1,0.3h-0.3v0.1l0.3,1.4c-0.9,0.5-2,0.8-3.2,1c-0.1-0.2-0.2-0.4-0.5-0.5l-0.1-0.1
					c-0.3-0.1-0.6-0.2-1-0.2c-0.4,0-0.7,0.1-1,0.3c-0.2,0.1-0.3,0.3-0.3,0.5c-1.1-0.1-2.2-0.3-3.2-0.7h0l-0.3-1.1
					c-0.1-0.1-0.2-0.2-0.4-0.3v0c-0.3-0.2-0.7-0.3-1.1-0.3s-0.7,0.1-0.9,0.3h0v0.1c-1.6-1.1-2.6-2.4-2.9-4L577.2,284.2z"/>
			</g>
			<g>
				<g>
					<linearGradient id="SVGID_10_" gradientUnits="userSpaceOnUse" x1="576.5498" y1="280.0498" x2="595.2748" y2="280.0498">
						<stop  offset="0" style="stop-color:#000000"/>
						<stop  offset="0.2196" style="stop-color:#312F2F"/>
						<stop  offset="0.4863" style="stop-color:#696262"/>
						<stop  offset="0.7804" style="stop-color:#202020"/>
						<stop  offset="1" style="stop-color:#000000"/>
					</linearGradient>
					<path fill-rule="evenodd" clip-rule="evenodd" fill="url(#SVGID_10_)" d="M576.7,285.6c-0.1-0.6-0.2-1.2-0.2-1.9
						c0-2.6,0.9-4.8,2.8-6.6c1.6-1.6,3.5-2.5,5.6-2.8c0.3,0,0.6,0,1,0c0.1,0,0.2,0,0.3,0c2.4,0.1,4.5,1,6.3,2.8
						c1.8,1.8,2.7,4,2.7,6.6c0,0.6,0,1.3-0.2,1.9c0-0.4,0.1-0.8,0.1-1.1c0-2.6-0.9-4.8-2.7-6.5c-1.7-1.7-3.8-2.6-6.2-2.8
						c-0.1,0-0.3,0-0.4,0c-0.4,0-0.7,0-1.1,0.1c-2.1,0.2-3.9,1.1-5.5,2.7c-1.8,1.8-2.7,4-2.7,6.5
						C576.7,284.9,576.7,285.3,576.7,285.6z"/>
					<path fill-rule="evenodd" clip-rule="evenodd" fill="#141414" d="M595.1,285.6c-0.2,2.1-1.1,3.9-2.6,5.4
						c-1.8,1.8-4,2.7-6.5,2.7c-2.5,0-4.7-0.9-6.6-2.7c-1.5-1.5-2.4-3.3-2.6-5.4c0-0.4,0-0.8,0-1.1c0-2.6,0.9-4.8,2.7-6.5
						c1.6-1.5,3.4-2.4,5.5-2.7c0.3-0.1,0.7-0.1,1.1-0.1c0.1,0,0.3,0,0.4,0c2.4,0.1,4.5,1,6.2,2.8c1.8,1.8,2.7,4,2.7,6.5
						C595.2,284.9,595.1,285.3,595.1,285.6z"/>
				</g>
			</g>
			<g>
				<g>
					<linearGradient id="SVGID_11_" gradientUnits="userSpaceOnUse" x1="578.4248" y1="283.2998" x2="594.7744" y2="283.2998">
						<stop  offset="0" style="stop-color:#000000"/>
						<stop  offset="0.1373" style="stop-color:#434242"/>
						<stop  offset="0.4863" style="stop-color:#4F4949"/>
						<stop  offset="0.9059" style="stop-color:#202020"/>
						<stop  offset="1" style="stop-color:#000000"/>
					</linearGradient>
					<path fill-rule="evenodd" clip-rule="evenodd" fill="url(#SVGID_11_)" d="M582.3,279.6l-0.2-1.2v-0.1c0.1-0.1,0.3-0.1,0.5-0.3
						c0.8-0.4,1.6-0.7,2.5-0.9v0.1l0.4,2.7l-3,1.1L582.3,279.6z M578.9,287c0,0,0,0.1,0,0.1l-0.5-2.7v-0.2c0-0.3,0.1-0.6,0.1-1
						c0.3-1,0.8-2,1.5-3v0l0.5,2.8l-1.5,3.6C578.9,286.7,578.9,286.8,578.9,287z M590.6,280l0.2,1l-1.8,1.5l3,6.8l-2.4,0.1
						l-1.8-12.1c0.9,0.1,1.8,0.4,2.6,0.9v0.1c0,0,0,0.1,0,0.1l0.3,1.5C590.6,279.9,590.6,279.9,590.6,280z M594.2,286.4
						c-0.3,0-0.5-0.1-0.7-0.4c-0.1-0.1-0.1-0.1-0.2-0.1l-0.8-5.9c0.8,0.9,1.5,2.2,1.9,3.9c0.1,0.7,0.2,1.4,0.4,2.1
						c0,0.1,0,0.1,0,0.3v0c0,0,0,0.1,0,0.1h-0.5H594.2z"/>
					<path fill-rule="evenodd" clip-rule="evenodd" d="M585,277.3c0,0.2,0.2,0.4,0.4,0.6l0,0c0.2,0.2,0.5,0.4,0.9,0.4
						c0.1,0,0.2,0,0.3-0.1c0.2,0,0.4-0.1,0.5-0.3c0.2-0.2,0.3-0.5,0.3-0.8l0.1,0h0l1.8,12.1l-10,0.3l-0.4,0.1c0-0.1,0-0.2,0-0.3
						c0-0.2,0-0.4,0-0.5c0-0.5,0-0.7,0-0.8v0c0-0.2-0.1-0.6-0.1-1.3c0-0.2,0-0.3,0.1-0.3l1.5-3.6l-0.5-2.8h0
						c0.2,0.2,0.5,0.4,0.8,0.4c0.4,0,0.7-0.1,1-0.4c0.1-0.1,0.2-0.1,0.3-0.3c0.1-0.1,0.1-0.2,0.2-0.4l0.3,1.5l3-1.1L585,277.3z
						 M590.6,280L590.6,280L590.6,280c0.3,0.3,0.6,0.3,1,0.3c0.3,0,0.6-0.1,0.9-0.3v-0.1c0,0,0,0,0,0.1l0.8,5.9c0,0,0.1,0.1,0.2,0.1
						c0.2,0.2,0.4,0.3,0.7,0.4l0.5,2.9h-1l-0.1-0.8c-0.2,0.3-0.3,0.6-0.5,0.9h-1.3l-3-6.8l1.8-1.5L590.6,280z"/>
					<path fill-rule="evenodd" clip-rule="evenodd" fill="#1A1A1A" d="M594.7,289.2l-0.5-2.9h0.1v0
						C594.3,286.5,594.5,287.4,594.7,289.2L594.7,289.2z"/>
				</g>
			</g>
			<g>
				<g>
					<path fill-rule="evenodd" clip-rule="evenodd" fill="#1A1A1A" d="M594.8,286.6L594.8,286.6c-0.3,0-0.6,0.1-0.8,0.4
						s-0.4,0.5-0.4,0.9c0,0.3,0.1,0.6,0.4,0.9v0c0.2,0.2,0.5,0.3,0.8,0.4v0.1c-0.1,0.7-0.3,1.3-0.6,1.9c-0.3,0.7-0.7,1.3-1.3,1.9
						h-0.1c-0.2-0.3-0.5-0.4-0.8-0.4c-0.2,0-0.4,0.1-0.6,0.2c-0.1,0-0.1,0.1-0.2,0.1L591,293c0,0-0.1,0.1-0.1,0.1
						c0,0-0.1,0.1-0.1,0.1h0c-0.1,0.2-0.2,0.4-0.3,0.6c0,0.3,0.1,0.6,0.3,0.8c-0.8,0.5-1.7,0.8-2.7,0.9c0-0.4-0.1-0.7-0.4-0.9
						c-0.2-0.2-0.5-0.3-0.8-0.4h-0.2c-0.3,0-0.6,0.1-0.9,0.4c-0.2,0.2-0.4,0.5-0.4,0.9c-0.9-0.1-1.8-0.4-2.5-0.9l0,0l0-0.1
						c0.2-0.2,0.3-0.5,0.3-0.8c0-0.2-0.1-0.4-0.3-0.6l0,0c0-0.1-0.1-0.2-0.2-0.3c-0.1,0-0.2-0.1-0.3-0.1c0,0,0-0.1,0-0.1
						c-0.2-0.1-0.4-0.1-0.7-0.1c-0.3,0-0.5,0.1-0.8,0.4l-0.1,0.1c-0.6-0.6-1-1.3-1.4-2c-0.2-0.5-0.3-1-0.5-1.5
						c0.3-0.1,0.5-0.2,0.8-0.4c0.3-0.3,0.4-0.6,0.4-0.9c0-0.3-0.1-0.6-0.4-0.9c-0.2-0.2-0.5-0.3-0.8-0.4c0,0-0.1,0-0.1,0h0
						c0-0.4,0.1-0.7,0.1-1.1c0.2-1.1,0.7-2,1.4-3c0,0,0,0,0,0.1c0.2,0.2,0.5,0.3,0.8,0.3c0.3,0,0.6-0.1,0.9-0.4
						c0.1-0.1,0.2-0.2,0.3-0.3c0.2-0.2,0.3-0.4,0.3-0.6c0.1-0.3,0-0.6-0.2-0.9c0,0-0.1-0.1-0.1-0.1c0.2-0.1,0.3-0.2,0.5-0.3
						c0.8-0.4,1.7-0.7,2.5-0.9c0,0.3,0.2,0.5,0.4,0.8h0c0.2,0.2,0.5,0.4,0.8,0.4c0.1,0,0.3,0,0.4-0.1c0.2,0,0.4-0.1,0.5-0.3
						c0.2-0.2,0.4-0.5,0.4-0.8c1,0.2,1.9,0.5,2.7,1c-0.1,0-0.1,0.1-0.1,0.1c-0.1,0.2-0.1,0.4-0.1,0.7c0,0.2,0.1,0.4,0.3,0.6
						c0.1,0.1,0.2,0.2,0.3,0.3c0,0,0,0,0.1,0c0.3,0.2,0.6,0.4,0.9,0.4c0.4,0,0.7-0.1,0.9-0.4c0,0,0,0,0-0.1
						C593.8,283.6,594.4,284.9,594.8,286.6z"/>
					<path fill-rule="evenodd" clip-rule="evenodd" d="M583,294.7v-1.5l0,0c0.1,0.2,0.2,0.4,0.3,0.6
						C583.3,294.1,583.2,294.4,583,294.7L583,294.7z M590.8,293.3v1.5c-0.2-0.2-0.3-0.5-0.3-0.8
						C590.6,293.7,590.7,293.5,590.8,293.3z"/>
					
						<path fill-rule="evenodd" clip-rule="evenodd" fill="none" stroke="#000000" stroke-linecap="round" stroke-linejoin="round" stroke-miterlimit="3" d="
						M594.8,289.1c-0.3,0-0.6-0.1-0.8-0.4v0c-0.2-0.2-0.4-0.5-0.4-0.9c0-0.4,0.1-0.7,0.4-0.9s0.5-0.4,0.8-0.4h0"/>
				</g>
			</g>
			<g>
				<g>
					
						<linearGradient id="SVGID_12_" gradientUnits="userSpaceOnUse" x1="-187.3418" y1="-584.3047" x2="-184.5264" y2="-584.3047" gradientTransform="matrix(-0.7903 0.6127 -0.7476 -0.6857 2.884865e-005 -3.207922e-004)">
						<stop  offset="0" style="stop-color:#94867A"/>
						<stop  offset="1" style="stop-color:#FFFFFF"/>
					</linearGradient>
					<path fill-rule="evenodd" clip-rule="evenodd" fill="url(#SVGID_12_)" d="M584.8,282.7l2.2,5.2v0.1h0l-6-1v0
						c0.1-0.6,0.3-1.2,0.6-1.7c0.4-0.7,0.9-1.2,1.5-1.7c0,0,0-0.1,0.1-0.1c0.1-0.1,0.2-0.1,0.3-0.2c0.4-0.2,0.8-0.4,1.1-0.6
						C584.7,282.8,584.8,282.7,584.8,282.7z"/>
					
						<linearGradient id="SVGID_13_" gradientUnits="userSpaceOnUse" x1="520.3467" y1="348.3926" x2="524.5681" y2="348.3926" gradientTransform="matrix(0.9949 -0.1007 0.1919 0.9857 2.259314e-004 -1.375675e-004)">
						<stop  offset="0" style="stop-color:#B1A3A3"/>
						<stop  offset="1" style="stop-color:#937D76"/>
					</linearGradient>
					<path fill-rule="evenodd" clip-rule="evenodd" fill="url(#SVGID_13_)" d="M587,288l0.5,5.6c-0.5,0-1,0-1.6,0
						c-0.7-0.1-1.4-0.4-2-0.6c-0.2-0.1-0.4-0.3-0.6-0.4L587,288L587,288z"/>
					
						<linearGradient id="SVGID_14_" gradientUnits="userSpaceOnUse" x1="642.7646" y1="144.2559" x2="645.8452" y2="144.2559" gradientTransform="matrix(0.9738 0.2272 -0.2703 0.9638 2.416968e-004 -1.921058e-004)">
						<stop  offset="0" style="stop-color:#A69A90"/>
						<stop  offset="1" style="stop-color:#786759"/>
					</linearGradient>
					<path fill-rule="evenodd" clip-rule="evenodd" fill="url(#SVGID_14_)" d="M592.1,285l-5.1,3v-0.1l2-5.2
						c0.4,0.1,0.8,0.3,1.2,0.5c0.7,0.4,1.3,0.9,1.8,1.6C592,284.9,592,284.9,592.1,285z"/>
					
						<linearGradient id="SVGID_15_" gradientUnits="userSpaceOnUse" x1="-428.0459" y1="439.3633" x2="-425.9799" y2="439.3633" gradientTransform="matrix(-0.363 -0.9318 0.9765 -0.2482 1.758337e-005 -8.759797e-004)">
						<stop  offset="0" style="stop-color:#B1A3A3"/>
						<stop  offset="1" style="stop-color:#F1EDEC"/>
					</linearGradient>
					<path fill-rule="evenodd" clip-rule="evenodd" fill="url(#SVGID_15_)" d="M587,288l-3.7,4.5c-0.1-0.1-0.3-0.3-0.5-0.5
						c-0.3-0.2-0.6-0.5-0.8-0.9c-0.1-0.1-0.1-0.2-0.2-0.3v-0.1c-0.5-0.7-0.8-1.4-0.8-2.1c-0.1-0.5-0.1-1,0-1.6v0L587,288z"/>
					<linearGradient id="SVGID_16_" gradientUnits="userSpaceOnUse" x1="585.8145" y1="284.9775" x2="588.8652" y2="285.3214">
						<stop  offset="0" style="stop-color:#94867A"/>
						<stop  offset="1" style="stop-color:#FFFDFC"/>
					</linearGradient>
					<path fill-rule="evenodd" clip-rule="evenodd" fill="url(#SVGID_16_)" d="M584.8,282.7c1-0.4,2.1-0.5,3.2-0.3
						c0.3,0,0.7,0.1,1,0.3l-2,5.2L584.8,282.7z"/>
					
						<linearGradient id="SVGID_17_" gradientUnits="userSpaceOnUse" x1="-26.8784" y1="-648.0889" x2="-23.1323" y2="-648.0889" gradientTransform="matrix(-0.5806 0.8142 -0.8873 -0.4781 -5.942583e-004 -4.583597e-005)">
						<stop  offset="0" style="stop-color:#FFFFFF"/>
						<stop  offset="0.2157" style="stop-color:#EFECEB"/>
						<stop  offset="1" style="stop-color:#937D76"/>
					</linearGradient>
					<path fill-rule="evenodd" clip-rule="evenodd" fill="url(#SVGID_17_)" d="M590.8,292.4L587,288l6,0.9v0.1
						c-0.1,0.6-0.3,1.1-0.5,1.5C592,291.3,591.5,291.9,590.8,292.4z"/>
					
						<linearGradient id="SVGID_18_" gradientUnits="userSpaceOnUse" x1="467.5859" y1="-389.9609" x2="472.014" y2="-389.9609" gradientTransform="matrix(0.463 0.8864 -0.9557 0.3303 -2.837181e-005 8.207560e-005)">
						<stop  offset="0" style="stop-color:#756355"/>
						<stop  offset="1" style="stop-color:#F1EDEC"/>
					</linearGradient>
					<path fill-rule="evenodd" clip-rule="evenodd" fill="url(#SVGID_18_)" d="M593,288.9l-6-0.9l5.1-3c0.5,0.7,0.8,1.5,0.9,2.3
						C593.1,287.8,593.1,288.3,593,288.9L593,288.9L593,288.9z"/>
					
						<linearGradient id="SVGID_19_" gradientUnits="userSpaceOnUse" x1="401.3779" y1="455.3516" x2="405.4972" y2="455.3516" gradientTransform="matrix(0.9528 -0.3035 0.4435 0.9083 -5.632639e-005 1.057386e-004)">
						<stop  offset="0" style="stop-color:#FFFFFF"/>
						<stop  offset="1" style="stop-color:#937D76"/>
					</linearGradient>
					<path fill-rule="evenodd" clip-rule="evenodd" fill="url(#SVGID_19_)" d="M587,288l3.8,4.4c-0.1,0.1-0.3,0.2-0.3,0.3
						c-0.4,0.3-0.9,0.5-1.3,0.6c-0.5,0.2-1.1,0.3-1.7,0.3L587,288z"/>
				</g>
			</g>
			<g>
				
					<radialGradient id="SVGID_20_" cx="586.5996" cy="281.6001" r="8.5875" gradientTransform="matrix(1 0 0 0.9898 0 2.8693)" gradientUnits="userSpaceOnUse">
					<stop  offset="0" style="stop-color:#FFFFFF;stop-opacity:0.498"/>
					<stop  offset="1" style="stop-color:#FFFFFF;stop-opacity:1.568628e-002"/>
				</radialGradient>
				<path fill-rule="evenodd" clip-rule="evenodd" fill="url(#SVGID_20_)" d="M592.8,282.5L592.8,282.5c0-0.1,0.3,0.2,0.9,0.7
					c0.5,0.6,0.9,1.3,1,2l0.1,1.2h0C594.5,285,593.9,283.7,592.8,282.5z M590.8,281c-0.9-0.5-1.8-0.8-2.8-0.9v0l0.5,0
					c0.4,0,0.9,0.1,1.4,0.4L590.8,281z M580.5,282.9l0,0.2c-0.8,1-1.3,2.1-1.5,3.4h0l0.2-1.2c0.1-0.7,0.4-1.3,0.8-1.8
					C580.3,283,580.5,282.8,580.5,282.9z M582.5,281.1c-0.1,0,0-0.1,0.5-0.4c0.4-0.3,0.9-0.5,1.6-0.6l1-0.1
					C584.4,280.2,583.4,280.6,582.5,281.1L582.5,281.1z"/>
			</g>
			<g>
				
					<linearGradient id="SVGID_21_" gradientUnits="userSpaceOnUse" x1="628.2441" y1="-162.0723" x2="633.8654" y2="-162.0723" gradientTransform="matrix(0.7605 0.6493 -0.6606 0.7509 -1.412630e-004 2.765656e-004)">
					<stop  offset="0" style="stop-color:#FFFFFF;stop-opacity:7.843138e-003"/>
					<stop  offset="0.4039" style="stop-color:#FFFFFF"/>
					<stop  offset="0.5647" style="stop-color:#FFFFFF"/>
					<stop  offset="0.898" style="stop-color:#FFFFFF"/>
					<stop  offset="1" style="stop-color:#FFFFFF;stop-opacity:0"/>
				</linearGradient>
				<path fill-rule="evenodd" clip-rule="evenodd" fill="url(#SVGID_21_)" d="M582.4,291.3c1,1.2,2.3,1.9,3.9,2.1
					c1.6,0.2,3-0.2,4.3-1.1c1.3-0.9,2-2.1,2.2-3.5c0.2-1.4-0.2-2.8-1.2-4c-1-1.2-2.3-1.8-3.9-2c-1.6-0.2-3.1,0.1-4.4,1
					c-1.2,0.9-2,2.1-2.1,3.6C581,288.8,581.4,290.1,582.4,291.3z M586.3,293.6c-1.7-0.2-3-0.9-4.1-2.1c-1.1-1.2-1.5-2.6-1.4-4.2
					c0.2-1.5,1-2.8,2.3-3.8c1.3-0.9,2.8-1.3,4.5-1.1c1.7,0.2,3,0.9,4.1,2.1c1.1,1.3,1.5,2.7,1.3,4.2c-0.2,1.5-1,2.8-2.3,3.8
					C589.5,293.5,588,293.9,586.3,293.6z"/>
			</g>
			<g>
				
					<radialGradient id="SVGID_22_" cx="586.0996" cy="275.2002" r="4.525" gradientTransform="matrix(1 0 0 0.2017 0 219.704)" gradientUnits="userSpaceOnUse">
					<stop  offset="0" style="stop-color:#FFFFFF"/>
					<stop  offset="0.1765" style="stop-color:#FFFFFF"/>
					<stop  offset="0.3059" style="stop-color:#FFFFFF;stop-opacity:0.4235"/>
					<stop  offset="0.4902" style="stop-color:#FFFFFF;stop-opacity:0.2314"/>
					<stop  offset="0.651" style="stop-color:#FFFFFF;stop-opacity:8.235294e-002"/>
					<stop  offset="1" style="stop-color:#FFFFFF;stop-opacity:0"/>
				</radialGradient>
				<path fill-rule="evenodd" clip-rule="evenodd" fill="url(#SVGID_22_)" d="M589.3,274.6c0.9,0.2,1.3,0.4,1.3,0.6
					c0,0.3-0.4,0.5-1.3,0.6c-0.9,0.2-2,0.3-3.2,0.3c-1.2,0-2.3-0.1-3.1-0.3c-0.8-0.1-1.2-0.4-1.2-0.6c0-0.2,0.4-0.4,1.2-0.6
					c0.9-0.2,2-0.3,3.1-0.3C587.3,274.4,588.3,274.4,589.3,274.6z"/>
			</g>
		</g>
		<g>
			<g>
				<linearGradient id="SVGID_23_" gradientUnits="userSpaceOnUse" x1="498.125" y1="245.0127" x2="518.075" y2="245.0127">
					<stop  offset="0" style="stop-color:#FFFFFF;stop-opacity:0"/>
					<stop  offset="0.2471" style="stop-color:#FFFFFF;stop-opacity:0.3804"/>
					<stop  offset="0.8078" style="stop-color:#FFFFFF;stop-opacity:0.5137"/>
					<stop  offset="1" style="stop-color:#FFFFFF;stop-opacity:0"/>
				</linearGradient>
				<path fill-rule="evenodd" clip-rule="evenodd" fill="url(#SVGID_23_)" d="M516.6,244.7c0-0.1,0.3,0.2,0.8,0.8
					c0.5,0.6,0.9,1.3,1.1,2.1l0.3,1.3c-0.4-1.5-1.1-2.8-2.2-4V244.7z M510.5,241.4c-0.1-0.1-0.3-0.1-0.5-0.1c0.1,0,0.2,0,0.5,0
					c0.1,0,0.3,0,0.4,0c0.6,0,1.3,0.3,1.9,0.6l0.9,0.6v0C512.7,241.9,511.6,241.5,510.5,241.4z M503.3,242.1
					c0.6-0.4,1.3-0.7,2.1-0.8l1.1-0.1v0c-1.5,0.2-2.8,0.7-4.1,1.5C502.5,242.8,502.8,242.5,503.3,242.1z M499.6,245.1v0.4
					c-0.8,1.1-1.3,2.2-1.6,3.4c0-0.2,0.1-0.6,0.3-1.4c0.3-0.9,0.6-1.6,1-2.1C499.4,245.3,499.5,245.2,499.6,245.1z"/>
				<path fill-rule="evenodd" clip-rule="evenodd" fill="none" d="M509.5,244.7c2.2,0.3,4,1.3,5.5,2.9c1.4,1.6,2,3.5,1.8,5.5
					c-0.2,2.1-1.3,3.7-3.1,4.9c-1.7,1.3-3.7,1.8-5.9,1.6c-2.2-0.3-4-1.2-5.4-2.9c-1.5-1.7-2-3.5-1.8-5.5c0.2-2.1,1.2-3.7,3-5
					C505.3,245,507.3,244.4,509.5,244.7z"/>
			</g>
			<g>
				
					<radialGradient id="SVGID_24_" cx="458.0527" cy="253.8501" r="15.5" gradientTransform="matrix(1 0 0.1565 0.8065 9.5321 49.1323)" gradientUnits="userSpaceOnUse">
					<stop  offset="0" style="stop-color:#000000"/>
					<stop  offset="1" style="stop-color:#0E0E0E;stop-opacity:0"/>
				</radialGradient>
				<path fill-rule="evenodd" clip-rule="evenodd" fill="url(#SVGID_24_)" d="M517.2,253.5c0.9-0.8,1.5-1.7,1.7-2.8
					c0-0.3,0-0.7,0-1.1h0l3.8,19.8c0.3,1.6-0.2,3.1-1.6,4.3h0v0c-0.4-0.2-0.8-0.3-1.3-0.3c-0.5,0-1,0.1-1.4,0.4H518l0,0.2l0.3,1.5
					c-1.3,0.6-2.7,0.9-4.4,1h0v0.1c-0.1-0.3-0.3-0.5-0.7-0.7h0c-0.4-0.2-0.9-0.4-1.4-0.4c-0.5,0-0.9,0.1-1.3,0.4
					c-0.3,0.2-0.4,0.4-0.4,0.7h-0.1c-1.5-0.1-2.9-0.4-4.3-0.9l-0.3-1.4c-0.1-0.1-0.3-0.1-0.5-0.3l0-0.1c-0.5-0.2-1-0.3-1.5-0.3
					s-0.9,0.1-1.2,0.4h0c-2.2-1.3-3.5-2.8-3.8-4.6l-3.8-19.4c0.1,0.1,0.2,0.2,0.3,0.4c0.9,1.4,2,2.5,3.5,3.3h0
					c0.3-0.2,0.7-0.3,1.2-0.3c0.5,0,1,0.1,1.4,0.3l0.1,0c0.1,0.1,0.3,0.2,0.5,0.3c0.2,0.2,0.4,0.4,0.4,0.6c0.1,0.2,0.1,0.4,0,0.6
					c0,0.1-0.1,0.1-0.1,0.2h0c1.3,0.4,2.7,0.7,4.2,0.8h0c0-0.3,0.1-0.5,0.5-0.7c0.2-0.1,0.5-0.2,0.8-0.3c0.1-0.1,0.3-0.1,0.5-0.1
					c0.5,0,1,0.1,1.4,0.3c0,0,0,0.1,0.1,0.1c0.4,0.2,0.6,0.4,0.6,0.7c1.4-0.1,2.7-0.4,3.8-0.8c0.2-0.1,0.4-0.2,0.7-0.3
					c-0.1,0-0.1-0.1-0.2-0.1c-0.3-0.2-0.5-0.5-0.5-0.8c0-0.2,0.2-0.4,0.4-0.6c0.1-0.1,0.2-0.2,0.3-0.3c0.4-0.2,0.8-0.4,1.4-0.4
					C516.5,253.1,516.9,253.2,517.2,253.5z"/>
			</g>
			<g>
				<g>
					
						<path fill-rule="evenodd" clip-rule="evenodd" fill="none" stroke="#3B3B3B" stroke-linecap="round" stroke-linejoin="round" stroke-miterlimit="3" d="
						M533.8,269.2h-17L505.3,249v-0.1l0.2,0l11.3-20.1h17 M505.6,248.9h-0.2l-0.1,0.1 M505.3,248.9h0.1l0,0l20.3-10.1h8
						 M533.8,248.9h-28.2"/>
					
						<polyline fill-rule="evenodd" clip-rule="evenodd" fill="none" stroke="#333333" stroke-linecap="round" stroke-linejoin="round" stroke-miterlimit="3" points="
						505.6,248.9 527,259.3 533.8,259.3 					"/>
				</g>
				<g>
					<path fill-rule="evenodd" clip-rule="evenodd" d="M542.8,228.6c0.1-0.1,0.3-0.3,0.3-0.4c0.1,0,0.3,0,0.4,0c0.2,0,0.3,0,0.3,0.1
						c0.1,0.1,0.2,0.2,0.3,0.3c0,0.1,0,0.3,0,0.6v0.9c0,0.2,0,0.3,0,0.3c0,0,0.1,0.1,0.2,0.1v0h-1.1v0c0.1,0,0.2-0.1,0.2-0.1
						c0,0,0-0.1,0-0.3v-1c0-0.2,0-0.3,0-0.4c0-0.1,0-0.1-0.1-0.1c0,0-0.1,0-0.1,0c-0.1,0-0.2,0-0.3,0c-0.1,0.1-0.1,0.2-0.2,0.3v1.2
						c0,0.2,0,0.3,0,0.3c0,0,0.1,0.1,0.2,0.1v0H542v0c0,0,0.1-0.1,0.1-0.1c0.1,0,0.1-0.1,0.1-0.1c0,0,0-0.1,0-0.3v-1
						c0-0.2,0-0.3,0-0.4c0-0.1,0-0.1-0.1-0.1c0,0-0.1,0-0.1,0c-0.1,0-0.1,0-0.2,0c-0.1,0-0.2,0.1-0.3,0.3v1.2c0,0.2,0,0.3,0,0.3
						c0,0,0.1,0.1,0.2,0.1v0h-1.1v0c0.1,0,0.2-0.1,0.2-0.1c0,0,0.1-0.1,0.1-0.3v-1.2c0-0.2,0-0.3-0.1-0.3c0,0-0.1-0.1-0.2-0.2v0h0.9
						v0.3c0.1-0.1,0.2-0.2,0.4-0.3c0.1,0,0.2,0,0.3,0c0.1,0,0.3,0,0.3,0.1C542.7,228.4,542.7,228.5,542.8,228.6z M545.5,227.4v-0.1
						h1.5v0.1h0c-0.2,0-0.3,0-0.3,0.1c0,0,0,0,0,0s0,0.1,0,0.1c0,0.1,0.1,0.2,0.1,0.3l0.7,1.6l0.7-1.4c0.1-0.2,0.1-0.3,0.1-0.4
						c0,0,0-0.1,0-0.1c0,0,0-0.1,0-0.1c0,0-0.1-0.1-0.1-0.1c-0.1,0-0.2,0-0.3,0v-0.1h1.1v0.1c-0.1,0-0.2,0.1-0.3,0.1
						c-0.1,0.1-0.2,0.3-0.3,0.6l-1.1,2.4h0l-1.1-2.5c-0.2-0.3-0.3-0.5-0.3-0.5C545.8,227.4,545.7,227.4,545.5,227.4z M537.3,227.8
						C537.3,227.7,537.2,227.7,537.3,227.8c-0.1-0.1-0.2-0.1-0.3-0.1s-0.2,0-0.3,0.1v-0.1l1.1-0.5h0.2v2.5c0,0.2,0,0.3,0,0.4
						c0,0,0.1,0.1,0.1,0.1c0,0,0.1,0.1,0.3,0.1h0.1v0h-1.7v0h0.1c0.1,0,0.2,0,0.3-0.1c0-0.1,0.1-0.1,0.2-0.1c0,0,0-0.1,0-0.4V228
						C537.3,227.9,537.3,227.8,537.3,227.8z M536.1,240.2h0.2c0.1,0,0.2,0,0.3,0c0,0,0.1-0.1,0.1-0.2c0,0,0-0.1,0-0.3v-1.9
						c0-0.1-0.1-0.1-0.1-0.1c-0.1,0-0.1-0.1-0.1-0.1c-0.1,0-0.2,0-0.3,0.1v-0.1l1.2-0.5h0.1v2.6c0,0.2,0,0.3,0,0.3
						c0,0.1,0,0.1,0.1,0.1c0,0,0.1,0.1,0.3,0.1h0v0.1h-1.7V240.2z M546.3,237.4L546.3,237.4l1.5,0v0h-0.1c-0.1,0-0.2,0-0.2,0.1
						c0,0,0,0.1,0,0.1v0.1l0.8,1.8l0.6-1.3c0.1-0.2,0.1-0.3,0.2-0.4c0-0.1,0-0.2,0-0.2s0-0.1,0-0.1c0,0,0,0-0.1,0
						c-0.1-0.1-0.1-0.1-0.3-0.1v0h1v0c-0.1,0.1-0.3,0.1-0.3,0.2c0,0.1-0.1,0.3-0.3,0.6l-1,2.3h-0.1l-1.1-2.5
						c-0.1-0.3-0.2-0.5-0.3-0.5C546.5,237.5,546.4,237.5,546.3,237.4z M544.2,238.3c0.2,0,0.3,0,0.3,0.1c0.1,0.1,0.2,0.2,0.2,0.3
						c0,0.1,0,0.2,0,0.5v0.9c0,0.2,0,0.3,0,0.4s0.1,0,0.2,0v0.1h-1.1v-0.1c0.1,0,0.1,0,0.1-0.1c0-0.1,0-0.2,0-0.3v-1
						c0-0.2,0-0.3,0-0.3c0,0-0.1-0.1-0.1-0.1s-0.1-0.1-0.1-0.1c-0.1,0-0.1,0-0.2,0.1c-0.1,0-0.2,0.1-0.3,0.1v1.2
						c0,0.1,0,0.2,0.1,0.3c0,0.1,0.1,0.1,0.2,0.1v0.1h-1.2v-0.1c0.1,0,0.1,0,0.2,0l0.1-0.1c0-0.1,0-0.2,0-0.3v-1c0-0.2,0-0.3,0-0.3
						c0,0,0-0.1-0.1-0.1c0,0-0.1-0.1-0.1-0.1c-0.1,0-0.1,0-0.2,0.1c-0.1,0-0.2,0.1-0.3,0.2v1.2c0,0.1,0,0.2,0,0.3
						c0,0.1,0.1,0.1,0.2,0.1v0.1h-1.2v-0.1c0.1,0,0.2,0,0.2-0.1c0,0,0-0.1,0-0.3v-1.3c0-0.1,0-0.2,0-0.3c0,0-0.1-0.1-0.2-0.1v-0.1
						h0.9v0.3c0.1-0.1,0.2-0.2,0.3-0.3c0.1-0.1,0.2-0.1,0.4-0.1c0.1,0,0.3,0,0.3,0.1c0.1,0.1,0.1,0.2,0.2,0.3
						c0.1-0.2,0.3-0.3,0.3-0.3C543.9,238.3,544,238.3,544.2,238.3z M540.2,237.9c0.1,0.3,0.1,0.6,0.1,0.9s0,0.6-0.1,0.9
						c0,0.1-0.1,0.3-0.3,0.4c-0.1,0.1-0.2,0.2-0.3,0.3c-0.1,0.1-0.3,0.1-0.4,0.1c-0.2,0-0.3,0-0.4-0.1c-0.1-0.1-0.2-0.2-0.4-0.3
						c0-0.1-0.1-0.3-0.1-0.5c0-0.2-0.1-0.5-0.1-0.7c0-0.3,0-0.6,0.1-0.9s0.2-0.5,0.3-0.6c0.2-0.1,0.4-0.1,0.5-0.1
						c0.2,0,0.3,0.1,0.5,0.1C540,237.4,540.1,237.6,540.2,237.9z M539.3,237.3c-0.1,0-0.2,0-0.2,0.1c0,0-0.1,0.1-0.1,0.3
						c0,0.1,0,0.6,0,1.4c0,0.4,0,0.7,0,0.9c0,0.1,0.1,0.2,0.1,0.2c0,0,0.1,0.1,0.2,0.1c0.1,0,0.1,0,0.2-0.1c0.1-0.1,0.1-0.2,0.1-0.4
						v-1c0-0.5,0-0.8,0-0.9c0-0.2-0.1-0.4-0.1-0.5C539.5,237.3,539.4,237.3,539.3,237.3z M540,247.1c0.1,0.2,0.3,0.4,0.4,0.6
						c0.1,0.3,0.1,0.6,0.1,0.9c0,0.3,0,0.6-0.1,0.9c-0.1,0.2-0.1,0.3-0.2,0.4c-0.1,0.1-0.2,0.2-0.4,0.3c-0.1,0.1-0.2,0.1-0.3,0.1
						s-0.3,0-0.4-0.1c-0.1-0.1-0.2-0.2-0.3-0.4c-0.1-0.1-0.1-0.2-0.3-0.4c0-0.2,0-0.5,0-0.7c0-0.4,0-0.7,0.2-1
						c0.1-0.2,0.2-0.4,0.3-0.6c0.2-0.1,0.3-0.1,0.5-0.1C539.7,247,539.9,247,540,247.1z M539.3,247.2c-0.1,0.1-0.1,0.2-0.1,0.3
						c0,0.1,0,0.6,0,1.4c0,0.5,0,0.8,0,1c0,0.1,0,0.1,0.1,0.1c0,0.1,0.1,0.1,0.2,0.1s0.1,0,0.2-0.1s0.1-0.2,0.1-0.4v-1
						c0-0.5,0-0.8,0-0.9c0-0.2,0-0.4-0.1-0.5c-0.1,0-0.1-0.1-0.2-0.1S539.4,247.2,539.3,247.2z M537.5,247v2.5c0,0.2,0,0.3,0,0.4
						c0.1,0.1,0.1,0.1,0.2,0.2c0,0,0.1,0,0.2,0h0.2v0.1h-1.7v-0.1h0.1c0.1,0,0.2,0,0.3,0c0-0.1,0.1-0.1,0.1-0.1c0-0.1,0-0.2,0-0.4
						v-1.6c0-0.1,0-0.2,0-0.2c0,0,0-0.1,0-0.2c0,0-0.1,0-0.2,0c-0.1,0-0.2,0-0.3,0.1v-0.1L537.5,247L537.5,247z M542.3,247.1
						c0.2,0.2,0.3,0.4,0.4,0.6c0.1,0.3,0.2,0.6,0.2,0.9c0,0.3-0.1,0.6-0.2,0.9c-0.1,0.2-0.1,0.3-0.2,0.4c-0.1,0.1-0.2,0.2-0.3,0.3
						c-0.1,0.1-0.3,0.1-0.3,0.1c-0.2,0-0.3,0-0.4-0.1c-0.2-0.1-0.3-0.2-0.3-0.4c-0.1-0.1-0.2-0.2-0.2-0.4c-0.1-0.2-0.1-0.5-0.1-0.7
						c0-0.4,0.1-0.7,0.2-1c0.1-0.2,0.2-0.4,0.3-0.6c0.2-0.1,0.4-0.1,0.6-0.1C542.1,247,542.2,247,542.3,247.1z M541.7,247.2
						c-0.1,0.1-0.1,0.2-0.1,0.3c0,0.1,0,0.6,0,1.4c0,0.5,0,0.8,0,1c0,0.1,0.1,0.1,0.1,0.1c0.1,0.1,0.1,0.1,0.2,0.1
						c0.1,0,0.1,0,0.1-0.1c0.1-0.1,0.1-0.2,0.2-0.4v-1c0-0.5,0-0.8,0-0.9c0-0.2-0.1-0.4-0.2-0.5c0,0-0.1-0.1-0.1-0.1
						C541.8,247.1,541.8,247.2,541.7,247.2z M551.7,247.2h1v0.1c-0.1,0-0.2,0.1-0.3,0.2c-0.1,0.1-0.2,0.3-0.3,0.6l-1.1,2.4h0l-1-2.6
						c-0.2-0.3-0.3-0.5-0.3-0.5c0,0-0.1-0.1-0.3-0.1v-0.1h1.6v0.1h-0.1c-0.1,0-0.2,0-0.3,0.1c-0.1,0-0.1,0.1-0.1,0.1
						c0,0,0,0.1,0.1,0.1c0,0.1,0,0.2,0.1,0.3l0.6,1.6l0.7-1.4c0.1-0.2,0.1-0.3,0.1-0.3c0,0,0-0.1,0-0.2c0-0.1,0-0.1,0-0.1
						c0,0-0.1,0-0.1,0C551.8,247.3,551.8,247.3,551.7,247.2L551.7,247.2z M547,248.5c-0.1,0-0.2,0-0.3,0c0,0-0.1,0.1-0.2,0.3v1.1
						c0,0.2,0,0.3,0,0.3c0.1,0.1,0.2,0.1,0.3,0.1v0.1h-1.1v-0.1c0,0,0.1,0,0.1,0c0,0,0.1,0,0.1-0.1c0.1,0,0.1-0.1,0.1-0.3V249
						c0-0.2,0-0.3-0.1-0.4c0,0,0-0.1-0.1-0.1c0,0-0.1,0-0.1,0c-0.1,0-0.1,0-0.2,0c-0.1,0.1-0.1,0.2-0.2,0.3v1.1c0,0.2,0,0.3,0.1,0.4
						c0,0,0.1,0,0.1,0v0.1h-1.1v-0.1c0.1,0,0.2,0,0.2,0c0,0,0-0.2,0-0.4v-1.1c0-0.2,0-0.3,0-0.4c0-0.1-0.1-0.1-0.2-0.1v0h0.9v0.3
						c0.1-0.1,0.2-0.2,0.4-0.3c0.1-0.1,0.2-0.1,0.3-0.1s0.3,0,0.3,0.1c0.1,0.1,0.2,0.2,0.2,0.3c0.1-0.1,0.3-0.2,0.4-0.3
						c0.1-0.1,0.3-0.1,0.3-0.1c0.2,0,0.3,0,0.3,0.1c0.1,0.1,0.2,0.2,0.3,0.3c0,0.1,0,0.2,0,0.5v0.9c0,0.2,0,0.3,0.1,0.4
						c0,0,0.1,0,0.2,0v0.1H547v-0.1c0.1,0,0.2,0,0.3-0.1c0,0,0-0.1,0-0.3V249c0-0.2,0-0.3,0-0.4c0,0,0-0.1,0-0.1
						C547.1,248.5,547.1,248.5,547,248.5z M536.9,258c-0.1,0-0.2,0-0.3,0.1l0-0.1l1.2-0.5h0v2.5c0,0.2,0,0.3,0,0.4
						c0,0.1,0,0.1,0,0.2c0.1,0,0.2,0,0.3,0h0v0.1h-1.6v-0.1h0.1c0.2,0,0.3,0,0.3,0c0.1-0.1,0.1-0.1,0.1-0.2c0,0,0-0.1,0-0.4v-1.6
						c0-0.1,0-0.2,0-0.2C537,258.2,537,258.1,536.9,258C537,258,536.9,258,536.9,258z M540.8,257.9c0,0,0,0.1,0.1,0.3l0.7,1.5
						l0.6-1.4c0.1-0.1,0.1-0.3,0.2-0.4c0,0,0-0.1,0-0.1s0-0.1-0.1-0.1c0-0.1,0-0.1,0-0.1c-0.1,0-0.2,0-0.3,0v-0.1h1v0.1
						c-0.1,0-0.2,0.1-0.3,0.2c0,0.1-0.1,0.2-0.2,0.5l-1.2,2.4h0l-1.1-2.5c-0.1-0.3-0.2-0.5-0.3-0.5c0,0-0.1-0.1-0.2-0.1v-0.1h1.5
						v0.1h0c-0.1,0-0.2,0-0.3,0.1c0,0-0.1,0-0.1,0.1C540.8,257.8,540.8,257.9,540.8,257.9z M536.3,270.6L536.3,270.6
						c0.2,0,0.3,0,0.4-0.1c0,0,0.1,0,0.1-0.1c0,0,0-0.2,0-0.4v-1.6c0-0.2,0-0.3,0-0.3s0,0,0,0c0,0-0.1-0.1-0.2-0.1
						c-0.1,0-0.2,0-0.3,0.1l0-0.1l1.2-0.5h0v2.6c0,0.2,0,0.3,0,0.4c0,0.1,0.1,0.1,0.1,0.1c0,0,0.1,0.1,0.3,0.1h0.1v0.1h-1.7V270.6z
						 M539.3,267.8c0,0-0.1,0.1-0.1,0.3c0,0.1,0,0.6,0,1.4c0,0.4,0,0.7,0,0.8c0,0.1,0,0.2,0,0.3c0.1,0,0.2,0.1,0.2,0.1
						c0.1,0,0.1,0,0.1-0.1c0.1-0.1,0.2-0.2,0.2-0.4v-1c0-0.5,0-0.9,0-1c0-0.2,0-0.3-0.2-0.4c0,0-0.1,0-0.1,0
						S539.3,267.7,539.3,267.8z M540.3,268.2c0.1,0.3,0.2,0.6,0.2,0.9c0,0.3-0.1,0.6-0.2,0.9c0,0.1-0.1,0.3-0.1,0.4
						c-0.1,0.1-0.3,0.2-0.4,0.2c-0.1,0.1-0.2,0.1-0.3,0.1c-0.2,0-0.3,0-0.4-0.1c-0.1-0.1-0.2-0.2-0.3-0.4c-0.1-0.1-0.1-0.2-0.2-0.4
						c-0.1-0.2-0.1-0.5-0.1-0.7c0-0.3,0-0.6,0.1-0.9c0.1-0.3,0.3-0.5,0.5-0.6c0.1-0.1,0.3-0.2,0.5-0.2c0.2,0,0.4,0.1,0.5,0.2
						C540.1,267.8,540.2,268,540.3,268.2z M544.5,268.4l-1.1,2.4h-0.1l-1-2.5c-0.2-0.3-0.3-0.5-0.3-0.5c0,0-0.1,0-0.2,0v-0.1h1.5
						v0.1h0c-0.2,0-0.3,0-0.3,0c0,0,0,0.1,0,0.1c0,0,0,0.1,0,0.2c0,0,0.1,0.1,0.1,0.3l0.7,1.6l0.6-1.4c0.1-0.2,0.1-0.3,0.1-0.4
						c0,0,0-0.1,0-0.1c0-0.1,0-0.1,0-0.2c0,0-0.1-0.1-0.1-0.1c-0.1,0-0.2,0-0.3,0v-0.1h1v0.1c-0.1,0-0.2,0-0.3,0.1
						C544.7,268,544.6,268.1,544.5,268.4z"/>
				</g>
			</g>
			<g>
				<g>
					<linearGradient id="SVGID_25_" gradientUnits="userSpaceOnUse" x1="491.1504" y1="241.25" x2="523.1504" y2="241.25">
						<stop  offset="0" style="stop-color:#000000"/>
						<stop  offset="0.2431" style="stop-color:#000000"/>
						<stop  offset="0.5373" style="stop-color:#796868"/>
						<stop  offset="0.8588" style="stop-color:#000000"/>
						<stop  offset="1" style="stop-color:#000000"/>
					</linearGradient>
					<path fill-rule="evenodd" clip-rule="evenodd" fill="url(#SVGID_25_)" d="M494.7,248.9c-0.2-0.8-0.3-1.6-0.3-2.5
						c0-3.5,1.3-6.5,3.8-9c2.1-2.1,4.7-3.4,7.6-3.6c0.5,0,0.9-0.1,1.4-0.1c0.1,0,0.3,0,0.4,0c3.3,0.1,6.1,1.3,8.5,3.7
						c2.5,2.5,3.8,5.5,3.8,9c0,0.9-0.1,1.7-0.3,2.5c0-0.5,0.1-1,0.1-1.5c0-3.5-1.2-6.5-3.7-9c-2.3-2.3-5.1-3.5-8.3-3.6
						c-0.2,0-0.4,0-0.5,0c-0.5,0-1,0-1.5,0c-2.9,0.3-5.4,1.5-7.5,3.6c-2.4,2.5-3.7,5.5-3.7,9C494.5,247.9,494.6,248.4,494.7,248.9z"
						/>
					<path fill-rule="evenodd" clip-rule="evenodd" fill="#141414" d="M519.6,248.9c-0.3,2.8-1.5,5.3-3.6,7.4
						c-2.5,2.5-5.4,3.7-8.8,3.7c-3.5,0-6.5-1.2-9-3.7c-2.1-2.1-3.3-4.5-3.5-7.4c-0.1-0.5-0.1-1-0.1-1.5c0-3.5,1.2-6.5,3.7-9
						c2.1-2.1,4.6-3.3,7.5-3.6c0.5,0,1,0,1.5,0c0.1,0,0.3,0,0.5,0c3.2,0.1,6,1.3,8.3,3.6c2.4,2.5,3.7,5.5,3.7,9
						C519.7,247.9,519.6,248.4,519.6,248.9z"/>
				</g>
			</g>
			<g>
				
					<radialGradient id="SVGID_26_" cx="507.2002" cy="235.0996" r="5.5876" gradientTransform="matrix(1 0 0 0.2796 0 169.3559)" gradientUnits="userSpaceOnUse">
					<stop  offset="0" style="stop-color:#FFFFFF"/>
					<stop  offset="0.1765" style="stop-color:#FFFFFF"/>
					<stop  offset="0.3059" style="stop-color:#FFFFFF;stop-opacity:0.4235"/>
					<stop  offset="0.4902" style="stop-color:#FFFFFF;stop-opacity:0.2314"/>
					<stop  offset="0.651" style="stop-color:#FFFFFF;stop-opacity:8.235294e-002"/>
					<stop  offset="1" style="stop-color:#FFFFFF;stop-opacity:0"/>
				</radialGradient>
				<path fill-rule="evenodd" clip-rule="evenodd" fill="url(#SVGID_26_)" d="M512.8,235.1c0,0.4-0.5,0.8-1.7,1.1
					c-1.1,0.3-2.4,0.4-3.9,0.4c-1.5,0-2.8-0.1-3.9-0.4c-1-0.3-1.5-0.7-1.5-1.1c0-0.4,0.5-0.8,1.5-1.1c1.1-0.3,2.4-0.5,3.9-0.5
					c1.5,0,2.8,0.2,3.9,0.5C512.2,234.3,512.8,234.7,512.8,235.1z"/>
			</g>
		</g>
		<g>
			<g>
				<path fill-rule="evenodd" clip-rule="evenodd" d="M471.2,207.5h-5l-6.9-60.3h5.1h0L471.2,207.5z M471.8,216.2v86.4h-4.9V299
					v-0.1v-82.6H471.8z"/>
				<linearGradient id="SVGID_27_" gradientUnits="userSpaceOnUse" x1="468.9756" y1="207.3638" x2="469.1745" y2="216.2346">
					<stop  offset="0" style="stop-color:#000000"/>
					<stop  offset="0.2431" style="stop-color:#000000"/>
					<stop  offset="0.5373" style="stop-color:#383737"/>
					<stop  offset="0.8588" style="stop-color:#000000"/>
					<stop  offset="1" style="stop-color:#000000"/>
				</linearGradient>
				<path fill-rule="evenodd" clip-rule="evenodd" fill="url(#SVGID_27_)" d="M466.9,216.2v-2.3c0-1.7-0.2-3.9-0.7-6.4h5l0.6,6.4
					v0.4v2H466.9z"/>
				<linearGradient id="SVGID_28_" gradientUnits="userSpaceOnUse" x1="484.1094" y1="221.4878" x2="445.035" y2="227.8418">
					<stop  offset="0" style="stop-color:#5585B0"/>
					<stop  offset="1" style="stop-color:#1E3E5B"/>
				</linearGradient>
				<path fill-rule="evenodd" clip-rule="evenodd" fill="url(#SVGID_28_)" d="M466.9,302.6l-7.6-81v-74.4l6.9,60.3
					c0.4,2.6,0.7,4.7,0.7,6.4v2.3v82.6v0.1V302.6z"/>
			</g>
		</g>
		<g>
			<g>
				
					<radialGradient id="SVGID_29_" cx="476.0137" cy="282.8501" r="10.225" fx="476.0538" fy="282.8501" gradientTransform="matrix(1 0 0.121 1.0269 -0.8962 -7.6072)" gradientUnits="userSpaceOnUse">
					<stop  offset="0" style="stop-color:#000000;stop-opacity:0.502"/>
					<stop  offset="0.6863" style="stop-color:#000000;stop-opacity:0.502"/>
					<stop  offset="1" style="stop-color:#000000;stop-opacity:0"/>
				</radialGradient>
				<path fill-rule="evenodd" clip-rule="evenodd" fill="url(#SVGID_29_)" d="M508,273.9c3.9,0,7.2,1.1,9.9,3.3
					c2.8,2.3,4.4,5,4.8,8.1c0.4,3.2-0.5,5.9-2.8,8.1c-2.2,2.2-5.1,3.4-8.7,3.4c-3.6,0-6.7-1.1-9.5-3.4c-0.6-0.5-1.2-1.1-1.7-1.6
					c-0.9-2.8-0.8-6.5,0.5-11.1C501.6,276.1,504.1,273.8,508,273.9z"/>
			</g>
			<g>
				<g>
					<linearGradient id="SVGID_30_" gradientUnits="userSpaceOnUse" x1="500.7578" y1="279.3242" x2="515.6082" y2="277.4275">
						<stop  offset="0" style="stop-color:#6D6B66"/>
						<stop  offset="0.3176" style="stop-color:#B6AFA5"/>
						<stop  offset="0.7686" style="stop-color:#B6AFA5"/>
						<stop  offset="1" style="stop-color:#58554F"/>
					</linearGradient>
					<path fill-rule="evenodd" clip-rule="evenodd" fill="url(#SVGID_30_)" d="M501.2,283.9c-0.1-0.3-0.2-0.7-0.3-1.1
						c-0.1-0.3-0.2-0.7-0.2-1.1v-0.1c0-0.1,0-0.2,0-0.3c0-2.1,0.8-3.8,2.3-5.3c1.5-1.5,3.2-2.3,5.3-2.3c2.1,0,3.8,0.8,5.3,2.3
						c1.2,1.2,2,2.7,2.2,4.3c-0.4-1-1-1.9-1.8-2.8c-1.5-1.5-3.3-2.2-5.4-2.2c-0.2,0-0.5,0-0.7,0c-0.8,0.1-1.6,0.3-2.3,0.6
						c-0.8,0.3-1.6,0.9-2.3,1.6c-1.5,1.4-2.3,3.2-2.3,5.3C501.1,283.2,501.1,283.6,501.2,283.9z"/>
					<radialGradient id="SVGID_31_" cx="506.7998" cy="276.2002" r="11.8875" gradientUnits="userSpaceOnUse">
						<stop  offset="0" style="stop-color:#F5F2D3"/>
						<stop  offset="0.2627" style="stop-color:#C2BEA6"/>
						<stop  offset="0.6471" style="stop-color:#3D342F"/>
						<stop  offset="1" style="stop-color:#3D342F"/>
					</radialGradient>
					<path fill-rule="evenodd" clip-rule="evenodd" fill="url(#SVGID_31_)" d="M515.8,280.4c0.3,0.8,0.4,1.6,0.4,2.5
						c0,0.3,0,0.6-0.1,0.9c-0.1,1.7-0.8,3.2-2.1,4.5c-1.1,1-2.3,1.7-3.6,2c-0.6,0.2-1.1,0.3-1.8,0.3c-2.1,0-3.8-0.8-5.3-2.2
						c-1.3-1.3-2-2.7-2.1-4.4c-0.1-0.3-0.1-0.7-0.1-1c0-2.1,0.8-3.9,2.3-5.3c0.7-0.7,1.5-1.3,2.3-1.6c0.7-0.3,1.4-0.5,2.3-0.6
						c0.2,0,0.5,0,0.7,0c2.1,0,3.9,0.7,5.4,2.2C514.8,278.4,515.4,279.4,515.8,280.4z"/>
				</g>
			</g>
			<g>
				<g>
					<linearGradient id="SVGID_32_" gradientUnits="userSpaceOnUse" x1="501.6709" y1="281.7324" x2="515.0471" y2="279.6147">
						<stop  offset="0" style="stop-color:#323642"/>
						<stop  offset="0.2627" style="stop-color:#F4F3EF"/>
						<stop  offset="0.3647" style="stop-color:#FFFFFF"/>
						<stop  offset="0.502" style="stop-color:#A19295"/>
						<stop  offset="0.8627" style="stop-color:#A99F93"/>
						<stop  offset="1" style="stop-color:#5D5A54"/>
					</linearGradient>
					<path fill-rule="evenodd" clip-rule="evenodd" fill="url(#SVGID_32_)" d="M515.3,282.2c-0.4-0.8-0.9-1.5-1.5-2.2
						c-1.1-1.1-2.4-1.8-4-2c-0.3,0-0.5,0-0.8,0c-0.5,0-0.9,0.1-1.4,0.2c-0.7,0.1-1.3,0.3-1.8,0.6c-0.6,0.3-1.2,0.7-1.7,1.2
						c-1.3,1.3-2,2.9-2,4.8c0,0.4,0.1,0.8,0.2,1.2c-0.4-0.8-0.5-1.7-0.5-2.7c0-1.9,0.7-3.5,2-4.8c0.5-0.6,1-1,1.6-1.3
						c0.6-0.3,1.2-0.5,1.9-0.7c0.4-0.1,0.8-0.1,1.3-0.1c0.3,0,0.6,0,0.8,0c1.5,0.2,2.8,0.8,4,2C514.4,279.5,515,280.8,515.3,282.2z"
						/>
					<linearGradient id="SVGID_33_" gradientUnits="userSpaceOnUse" x1="503.9961" y1="280.105" x2="513.8211" y2="289.555">
						<stop  offset="0" style="stop-color:#A39997"/>
						<stop  offset="0.5843" style="stop-color:#695F5D"/>
						<stop  offset="1" style="stop-color:#564D4B"/>
					</linearGradient>
					<path fill-rule="evenodd" clip-rule="evenodd" fill="url(#SVGID_33_)" d="M515.3,282.2c0.3,0.8,0.5,1.7,0.5,2.6
						c0,1.9-0.7,3.5-2,4.9c-1.3,1.3-2.9,2-4.8,2c-1.9,0-3.5-0.6-4.9-2c-1.1-1.1-1.7-2.3-1.8-3.7c-0.1-0.3-0.2-0.7-0.2-1.2
						c0-1.9,0.7-3.5,2-4.8c0.5-0.5,1.1-0.9,1.7-1.2c0.5-0.3,1.1-0.5,1.8-0.6c0.4-0.1,0.9-0.2,1.4-0.2c0.2,0,0.5,0,0.8,0
						c1.6,0.2,2.9,0.9,4,2C514.4,280.7,514.9,281.4,515.3,282.2z M506,279.4c-0.5,0.3-1,0.6-1.5,1.1c-1.2,1.3-1.8,2.8-1.8,4.4
						c0,1.8,0.6,3.3,1.8,4.5c1.2,1.2,2.7,1.8,4.5,1.8c1.7,0,3.1-0.6,4.3-1.8c1.3-1.2,2-2.7,2-4.5c0-1.7-0.7-3.2-2-4.4
						c-1-1-2.1-1.6-3.3-1.8c-0.4,0-0.7-0.1-1-0.1c-0.4,0-0.8,0.1-1.2,0.1C507.1,278.9,506.5,279.1,506,279.4z"/>
					<path fill-rule="evenodd" clip-rule="evenodd" d="M506,279.4c0.6-0.3,1.2-0.5,1.8-0.6c0.4-0.1,0.8-0.1,1.2-0.1
						c0.3,0,0.6,0,1,0.1c1.3,0.2,2.4,0.8,3.3,1.8c1.3,1.3,2,2.8,2,4.4c0,1.8-0.7,3.3-2,4.5c-1.2,1.2-2.6,1.8-4.3,1.8
						c-1.7,0-3.2-0.6-4.5-1.8c-1.2-1.2-1.8-2.7-1.8-4.5c0-1.7,0.6-3.2,1.8-4.4C505,280,505.5,279.7,506,279.4z"/>
				</g>
			</g>
			<g>
				<g>
					<linearGradient id="SVGID_34_" gradientUnits="userSpaceOnUse" x1="503.1787" y1="285.8218" x2="515.3793" y2="284.7538">
						<stop  offset="0" style="stop-color:#3F3F3F"/>
						<stop  offset="0.1647" style="stop-color:#B1B4A3"/>
						<stop  offset="0.2941" style="stop-color:#B1B4A3"/>
						<stop  offset="0.3725" style="stop-color:#FFFFFF"/>
						<stop  offset="0.4588" style="stop-color:#EAECE3"/>
						<stop  offset="0.5647" style="stop-color:#B1B4A3"/>
						<stop  offset="0.6471" style="stop-color:#A0A298"/>
						<stop  offset="1" style="stop-color:#383838"/>
					</linearGradient>
					<path fill-rule="evenodd" clip-rule="evenodd" fill="url(#SVGID_34_)" d="M515.4,290.4c-0.2-0.9-0.6-1.7-1.3-2.4
						c-0.1-0.1-0.2-0.2-0.3-0.3c-1.1-1.2-2.5-1.8-4.1-1.8c-1.6,0-2.9,0.6-4,1.8c-0.5,0.5-0.8,1-1.1,1.5c-0.4,0.7-0.6,1.6-0.6,2.5
						l-0.6-5c-0.1-0.4-0.1-0.7-0.1-1.1c0-0.1,0-0.2,0-0.3c0-1.6,0.6-2.9,1.7-4.1c1.2-1.1,2.5-1.6,4.1-1.6c1.6,0,3,0.5,4,1.6
						c0.9,0.8,1.4,1.8,1.7,2.8c0,0.3,0.1,0.6,0.1,0.8L515.4,290.4z"/>
					<linearGradient id="SVGID_35_" gradientUnits="userSpaceOnUse" x1="509.251" y1="284.4009" x2="510.016" y2="296.0016">
						<stop  offset="0" style="stop-color:#959595"/>
						<stop  offset="0.4627" style="stop-color:#464141"/>
						<stop  offset="1" style="stop-color:#1C1818"/>
					</linearGradient>
					<path fill-rule="evenodd" clip-rule="evenodd" fill="url(#SVGID_35_)" d="M515.4,290.4l0.1,1.2c0,1.6-0.6,3-1.7,4.1
						c-1.1,1.1-2.5,1.7-4.1,1.7c-1.6,0-2.9-0.6-4-1.7c-0.8-0.7-1.3-1.6-1.6-2.5l-0.2-1.6c0-0.9,0.2-1.8,0.6-2.5
						c0.3-0.5,0.6-1,1.1-1.5c1.1-1.2,2.5-1.8,4-1.8c1.6,0,3,0.6,4.1,1.8c0.1,0.1,0.2,0.2,0.3,0.3
						C514.8,288.7,515.2,289.5,515.4,290.4z"/>
				</g>
			</g>
			<g>
				<g>
					<linearGradient id="SVGID_36_" gradientUnits="userSpaceOnUse" x1="510.1904" y1="289.9629" x2="510.1654" y2="299.1379">
						<stop  offset="0" style="stop-color:#808080"/>
						<stop  offset="1" style="stop-color:#525254"/>
					</linearGradient>
					<path fill-rule="evenodd" clip-rule="evenodd" fill="url(#SVGID_36_)" d="M505.6,295.6c0-0.4,0.1-0.9,0.2-1.3
						c0.2-0.7,0.6-1.4,1.2-2.1c0.9-0.9,2-1.3,3.2-1.3c1.3,0,2.3,0.4,3.3,1.3c0.3,0.4,0.6,0.7,0.8,1.1c0.1,0.3,0.2,0.6,0.3,0.9
						c0,0.2,0.1,0.4,0.1,0.5c0,0.2,0,0.5,0,0.8c0,0,0,0.1,0,0.1c0,1.2-0.5,2.2-1.3,3c-0.9,0.9-2,1.4-3.3,1.4c-1.2,0-2.3-0.5-3.2-1.4
						c-0.5-0.5-0.9-1.1-1.1-1.7c-0.1-0.2-0.1-0.3-0.1-0.4c0,0,0-0.1,0-0.2L505.6,295.6z M509,294.4c-0.4,0.4-0.6,0.9-0.6,1.4
						c0,0.1,0,0.3,0,0.4c0,0.1,0,0.2,0.1,0.2c0.1,0.3,0.2,0.5,0.5,0.7c0.3,0.4,0.8,0.6,1.3,0.6c0.5,0,0.9-0.2,1.3-0.6
						c0.4-0.4,0.6-0.8,0.6-1.3c0-0.5-0.2-1-0.6-1.4c-0.3-0.3-0.8-0.5-1.3-0.5C509.8,293.9,509.3,294,509,294.4z"/>
					<linearGradient id="SVGID_37_" gradientUnits="userSpaceOnUse" x1="505.293" y1="292.1123" x2="514.6928" y2="290.8861">
						<stop  offset="0" style="stop-color:#3F3F3F"/>
						<stop  offset="0.1647" style="stop-color:#B1B4A3"/>
						<stop  offset="0.2941" style="stop-color:#B1B4A3"/>
						<stop  offset="0.3725" style="stop-color:#FFFFFF"/>
						<stop  offset="0.4588" style="stop-color:#EAECE3"/>
						<stop  offset="0.5647" style="stop-color:#B1B4A3"/>
						<stop  offset="0.6471" style="stop-color:#A0A298"/>
						<stop  offset="1" style="stop-color:#383838"/>
					</linearGradient>
					<path fill-rule="evenodd" clip-rule="evenodd" fill="url(#SVGID_37_)" d="M514.7,294.8c0-0.2-0.1-0.3-0.1-0.5
						c-0.1-0.3-0.3-0.5-0.3-0.9c-0.2-0.4-0.5-0.7-0.8-1.1c-0.9-0.9-2-1.3-3.3-1.3c-1.2,0-2.3,0.4-3.2,1.3c-0.6,0.6-1,1.3-1.2,2.1
						c-0.1,0.4-0.2,0.8-0.2,1.3l-0.3-2.7c0-0.1,0-0.1,0-0.3c0-0.1,0-0.3,0-0.4c0-1.2,0.5-2.3,1.3-3.3c0.9-0.9,2-1.3,3.2-1.3
						c1.3,0,2.4,0.4,3.2,1.3c0.8,0.7,1.2,1.6,1.3,2.5c0,0.1,0,0.1,0,0.2C514.5,292.8,514.6,293.8,514.7,294.8z"/>
					<path fill-rule="evenodd" clip-rule="evenodd" fill="#161617" d="M509,294.4c0.3-0.3,0.8-0.5,1.3-0.5c0.5,0,0.9,0.2,1.3,0.5
						c0.4,0.4,0.6,0.9,0.6,1.4c0,0.5-0.2,0.9-0.6,1.3c-0.3,0.4-0.8,0.6-1.3,0.6c-0.6,0-1-0.2-1.3-0.6c-0.2-0.2-0.4-0.4-0.5-0.7
						c-0.1,0-0.1-0.1-0.1-0.2c0-0.1,0-0.3,0-0.4C508.4,295.2,508.6,294.8,509,294.4z"/>
				</g>
			</g>
			<g>
				<g>
					<linearGradient id="SVGID_38_" gradientUnits="userSpaceOnUse" x1="506.4385" y1="291.0171" x2="503.4654" y2="291.6017">
						<stop  offset="0" style="stop-color:#94928A"/>
						<stop  offset="0.6235" style="stop-color:#A7A49A"/>
						<stop  offset="1" style="stop-color:#A7A49A"/>
					</linearGradient>
					<polygon fill-rule="evenodd" clip-rule="evenodd" fill="url(#SVGID_38_)" points="506.5,292.5 503.9,292.5 503.5,290 
						506.1,290 					"/>
					<polygon fill-rule="evenodd" clip-rule="evenodd" fill="#727274" points="503.5,290 503.9,292.5 503.9,295 503.5,292.8 
						503.5,290.1 					"/>
					<path fill-rule="evenodd" clip-rule="evenodd" fill="#575759" d="M503.9,292.5h2.5c-0.4,0.5-0.6,0.9-0.7,1.1
						c-0.2,0.2-0.3,0.6-0.3,1.3h-1.6V292.5z M516.5,292.5v2.5l-1.8,0.1c0-0.9-0.1-1.8-0.5-2.6h1.5H516.5z"/>
					<linearGradient id="SVGID_39_" gradientUnits="userSpaceOnUse" x1="513.6992" y1="291.4023" x2="516.999" y2="291.1743">
						<stop  offset="0" style="stop-color:#6A6861"/>
						<stop  offset="0.4235" style="stop-color:#A7A49A"/>
						<stop  offset="1" style="stop-color:#A7A49A"/>
					</linearGradient>
					<polygon fill-rule="evenodd" clip-rule="evenodd" fill="url(#SVGID_39_)" points="514.2,292.5 513.9,290 516,290 516.5,292.5 
						515.7,292.5 					"/>
				</g>
			</g>
			<g>
				
					<radialGradient id="SVGID_40_" cx="509.6504" cy="286.0498" r="3.85" gradientTransform="matrix(1 0 0 0.3636 0 182.0317)" gradientUnits="userSpaceOnUse">
					<stop  offset="0" style="stop-color:#FFFFFF"/>
					<stop  offset="0.1765" style="stop-color:#FFFFFF"/>
					<stop  offset="0.3059" style="stop-color:#FFFFFF;stop-opacity:0.4235"/>
					<stop  offset="0.4902" style="stop-color:#FFFFFF;stop-opacity:0.2314"/>
					<stop  offset="0.651" style="stop-color:#FFFFFF;stop-opacity:8.235294e-002"/>
					<stop  offset="1" style="stop-color:#FFFFFF;stop-opacity:0"/>
				</radialGradient>
				<path fill-rule="evenodd" clip-rule="evenodd" fill="url(#SVGID_40_)" d="M512.3,285.1c0.8,0.2,1.2,0.5,1.2,0.9
					c0,0.4-0.4,0.7-1.2,1c-0.7,0.3-1.6,0.4-2.6,0.4c-1,0-1.9-0.1-2.7-0.4c-0.7-0.3-1-0.6-1-1c0-0.4,0.3-0.7,1-0.9
					c0.8-0.3,1.7-0.4,2.7-0.4C510.7,284.8,511.6,284.9,512.3,285.1z"/>
			</g>
			<g>
				
					<radialGradient id="SVGID_41_" cx="510.1504" cy="290.8999" r="3.6125" gradientTransform="matrix(1 0 0 0.3633 0 185.2096)" gradientUnits="userSpaceOnUse">
					<stop  offset="0" style="stop-color:#FFFFFF"/>
					<stop  offset="0.1765" style="stop-color:#FFFFFF"/>
					<stop  offset="0.3059" style="stop-color:#FFFFFF;stop-opacity:0.4235"/>
					<stop  offset="0.4902" style="stop-color:#FFFFFF;stop-opacity:0.2314"/>
					<stop  offset="0.651" style="stop-color:#FFFFFF;stop-opacity:8.235294e-002"/>
					<stop  offset="1" style="stop-color:#FFFFFF;stop-opacity:0"/>
				</radialGradient>
				<path fill-rule="evenodd" clip-rule="evenodd" fill="url(#SVGID_41_)" d="M512.7,290c0.7,0.2,1,0.5,1,0.9c0,0.4-0.4,0.7-1,1
					c-0.7,0.2-1.5,0.4-2.5,0.4c-1,0-1.8-0.1-2.5-0.4c-0.7-0.3-1-0.6-1-1c0-0.3,0.3-0.6,1-0.9c0.7-0.3,1.5-0.4,2.5-0.4
					C511.1,289.6,512,289.8,512.7,290z"/>
			</g>
			<g>
				
					<radialGradient id="SVGID_42_" cx="508.5498" cy="278" r="3.6125" gradientTransform="matrix(1 0 0 0.3633 0 176.9965)" gradientUnits="userSpaceOnUse">
					<stop  offset="0" style="stop-color:#FFFFFF"/>
					<stop  offset="0.1765" style="stop-color:#FFFFFF"/>
					<stop  offset="0.3059" style="stop-color:#FFFFFF;stop-opacity:0.4235"/>
					<stop  offset="0.4902" style="stop-color:#FFFFFF;stop-opacity:0.2314"/>
					<stop  offset="0.651" style="stop-color:#FFFFFF;stop-opacity:8.235294e-002"/>
					<stop  offset="1" style="stop-color:#FFFFFF;stop-opacity:0"/>
				</radialGradient>
				<path fill-rule="evenodd" clip-rule="evenodd" fill="url(#SVGID_42_)" d="M512.2,278c0,0.4-0.4,0.7-1.1,1
					c-0.7,0.2-1.5,0.3-2.5,0.3c-0.9,0-1.8-0.1-2.5-0.3c-0.6-0.2-1-0.6-1-1c0-0.3,0.3-0.6,1-0.9c0.8-0.3,1.6-0.4,2.5-0.4
					c1,0,1.8,0.1,2.5,0.4C511.8,277.4,512.2,277.7,512.2,278z"/>
			</g>
			<g>
				
					<radialGradient id="SVGID_43_" cx="508.0996" cy="275.5" r="3.85" gradientTransform="matrix(1 0 0 0.3636 0 175.3182)" gradientUnits="userSpaceOnUse">
					<stop  offset="0" style="stop-color:#FFFFFF"/>
					<stop  offset="0.1765" style="stop-color:#FFFFFF"/>
					<stop  offset="0.3059" style="stop-color:#FFFFFF;stop-opacity:0.4235"/>
					<stop  offset="0.4902" style="stop-color:#FFFFFF;stop-opacity:0.2314"/>
					<stop  offset="0.651" style="stop-color:#FFFFFF;stop-opacity:8.235294e-002"/>
					<stop  offset="1" style="stop-color:#FFFFFF;stop-opacity:0"/>
				</radialGradient>
				<path fill-rule="evenodd" clip-rule="evenodd" fill="url(#SVGID_43_)" d="M511.9,275.5c0,0.4-0.4,0.7-1.1,1
					c-0.8,0.3-1.7,0.4-2.7,0.4c-1,0-1.9-0.1-2.7-0.4c-0.7-0.3-1.1-0.6-1.1-1c0-0.3,0.4-0.6,1.1-0.9c0.8-0.3,1.7-0.5,2.7-0.5
					c1,0,1.9,0.1,2.7,0.5C511.5,274.9,511.9,275.2,511.9,275.5z"/>
			</g>
			<g>
				
					<radialGradient id="SVGID_44_" cx="510.5" cy="297.5" r="2.9125" gradientTransform="matrix(1 0 0 0.4506 0 163.4335)" gradientUnits="userSpaceOnUse">
					<stop  offset="0" style="stop-color:#FFFFFF"/>
					<stop  offset="0.1765" style="stop-color:#FFFFFF"/>
					<stop  offset="0.3059" style="stop-color:#FFFFFF;stop-opacity:0.4235"/>
					<stop  offset="0.4902" style="stop-color:#FFFFFF;stop-opacity:0.2314"/>
					<stop  offset="0.651" style="stop-color:#FFFFFF;stop-opacity:8.235294e-002"/>
					<stop  offset="1" style="stop-color:#FFFFFF;stop-opacity:0"/>
				</radialGradient>
				<path fill-rule="evenodd" clip-rule="evenodd" fill="url(#SVGID_44_)" d="M512.5,296.6c0.6,0.2,0.9,0.5,0.9,0.9
					c0,0.4-0.3,0.7-0.9,1c-0.6,0.2-1.3,0.3-2,0.3s-1.5-0.1-2-0.3c-0.5-0.2-0.8-0.6-0.8-1c0-0.3,0.3-0.6,0.8-0.9
					c0.6-0.3,1.3-0.4,2-0.4S512,296.4,512.5,296.6z"/>
			</g>
		</g>
		<g>
			<path fill-rule="evenodd" clip-rule="evenodd" d="M631,218.5c-0.1,0-0.4-0.1-0.8-0.1h-0.6v2.1h0.2c0.3,0,0.6-0.1,0.8-0.3
				c0.2-0.2,0.3-0.5,0.3-1h0.1v2.9h-0.1c0-0.3-0.1-0.6-0.3-0.8c-0.1-0.2-0.2-0.4-0.3-0.4c-0.1-0.1-0.3-0.1-0.6-0.1v1.6
				c0,0.3,0,0.4,0.1,0.5c0,0.1,0,0.1,0.1,0.2c0.1,0,0.2,0.1,0.3,0.1h0.4c0.5,0,0.8-0.1,1.1-0.4c0.3-0.2,0.6-0.6,0.7-1.1h0.2
				l-0.3,1.7h-4.7v-0.2h0.2c0.2,0,0.3,0,0.3,0s0.1-0.1,0.2-0.2c0-0.1,0-0.2,0-0.5V219c0-0.2,0-0.4,0-0.5c0-0.1-0.1-0.1-0.2-0.1
				c-0.1-0.1-0.2-0.1-0.4-0.1h-0.2V218h4.5v1.7h-0.1c-0.1-0.4-0.2-0.7-0.4-0.9C631.5,218.7,631.3,218.5,631,218.5z M636,218.4h-0.5
				v2.4h0.3c0.4,0,0.7,0,0.8-0.1c0.2-0.1,0.4-0.2,0.5-0.4c0.1-0.2,0.1-0.4,0.1-0.7c0-0.4-0.1-0.7-0.3-0.9
				C636.7,218.5,636.4,218.4,636,218.4z M637.5,218.3c0.3,0.1,0.5,0.2,0.8,0.5c0.2,0.2,0.3,0.5,0.3,0.8c0,0.4-0.1,0.7-0.4,1
				c-0.2,0.2-0.5,0.3-0.8,0.4l1.3,1.9c0.2,0.2,0.3,0.4,0.4,0.4c0.1,0.1,0.3,0.1,0.3,0.1v0.2h-1.7l-1.8-2.5h-0.3v1.5
				c0,0.3,0,0.4,0.1,0.5c0,0.1,0.1,0.2,0.2,0.2c0.1,0,0.3,0,0.5,0v0.2h-2.8v-0.2c0.2,0,0.4,0,0.5,0c0.1,0,0.2-0.1,0.3-0.2
				c0-0.1,0-0.2,0-0.5V219c0-0.3,0-0.5,0-0.6c0-0.1-0.1-0.1-0.3-0.2c-0.1,0-0.2,0-0.5,0V218h2.5C636.7,218,637.2,218.1,637.5,218.3z
				 M608,219c0-0.3,0-0.5,0-0.5c-0.1,0-0.1-0.1-0.2-0.2c-0.1,0-0.2,0-0.3,0h-0.2V218h2.2l1.5,3.6l1.5-3.6h2.3v0.2h-0.2
				c-0.1,0-0.3,0-0.4,0c-0.1,0-0.1,0.1-0.1,0.2c0,0.1,0,0.3,0,0.5v3.5c0,0.3,0,0.4,0,0.5c0,0.1,0.1,0.2,0.1,0.2c0.1,0,0.3,0,0.4,0
				h0.2v0.2h-2.9v-0.2h0.2c0.2,0,0.3,0,0.4,0c0,0,0.1-0.1,0.2-0.2c0-0.1,0-0.2,0-0.5v-4l-2,5h-0.1l-2.1-4.9v3.8c0,0.3,0,0.5,0,0.5
				c0,0.1,0.1,0.2,0.2,0.3c0.1,0.1,0.3,0.1,0.6,0.1v0.2h-1.8v-0.2h0c0.1,0,0.2,0,0.4,0c0.1-0.1,0.1-0.1,0.2-0.1
				c0.1-0.1,0.1-0.2,0.2-0.3c0,0,0-0.2,0-0.4V219z M615.7,218.3h-0.2V218h4.5v1.7h-0.1c-0.1-0.4-0.2-0.7-0.4-0.9
				c-0.1-0.1-0.3-0.3-0.6-0.3c-0.2,0-0.4-0.1-0.8-0.1h-0.6v2.1h0.1c0.4,0,0.6-0.1,0.8-0.3c0.1-0.2,0.2-0.5,0.3-1h0.1v2.9h-0.1
				c0-0.3-0.1-0.6-0.2-0.8c-0.1-0.2-0.2-0.4-0.3-0.4c-0.1-0.1-0.3-0.1-0.6-0.1v1.6c0,0.3,0,0.4,0,0.5c0,0.1,0.1,0.1,0.2,0.2
				c0.1,0,0.2,0.1,0.3,0.1h0.4c0.5,0,0.8-0.1,1.1-0.4c0.3-0.2,0.5-0.6,0.7-1.1h0.1l-0.2,1.7h-4.7v-0.2h0.2c0.1,0,0.3,0,0.3,0
				c0.1,0,0.1-0.1,0.2-0.2c0-0.1,0-0.2,0-0.5V219c0-0.2,0-0.4,0-0.5c0-0.1-0.1-0.1-0.2-0.1C616,218.3,615.8,218.3,615.7,218.3z
				 M621.8,219.5h-0.1V218h4.8v1.5h-0.2c-0.1-0.3-0.2-0.5-0.3-0.7c-0.1-0.1-0.2-0.3-0.4-0.3c-0.1,0-0.3-0.1-0.5-0.1h-0.4v4.1
				c0,0.3,0,0.4,0,0.5c0,0.1,0,0.2,0.2,0.2c0.1,0,0.2,0,0.3,0h0.2v0.2h-2.8v-0.2h0.1c0.2,0,0.3,0,0.4,0c0.1,0,0.2-0.1,0.2-0.2
				c0-0.1,0-0.2,0-0.5v-4.1H623c-0.4,0-0.7,0.1-0.8,0.3C622,218.9,621.8,219.1,621.8,219.5z M591,219c-0.2,0.4-0.4,1-0.4,1.8
				c0,0.9,0.2,1.6,0.5,2.1c0.2,0.3,0.6,0.4,1,0.4c0.3,0,0.5,0,0.7-0.1c0.2-0.2,0.4-0.5,0.5-0.9c0.1-0.4,0.2-0.8,0.2-1.4
				c0-0.7,0-1.3-0.2-1.6c-0.2-0.3-0.3-0.6-0.5-0.8c-0.2-0.1-0.4-0.2-0.7-0.2C591.5,218.3,591.2,218.5,591,219z M592,218
				c0.9,0,1.6,0.2,2.1,0.8c0.5,0.5,0.8,1.2,0.8,2c0,0.7-0.2,1.3-0.6,1.8c-0.6,0.7-1.3,1.1-2.3,1.1s-1.7-0.3-2.3-1
				c-0.4-0.5-0.6-1.1-0.6-1.9c0-0.8,0.3-1.5,0.8-2S591.2,218,592,218z M587.8,218.5c-0.1,0.2-0.3,0.5-0.5,1l-1.9,4.1h-0.1l-1.8-4.3
				c-0.2-0.5-0.4-0.8-0.5-0.9c-0.1-0.1-0.2-0.1-0.4-0.1V218h2.7v0.2h-0.2c-0.2,0-0.4,0-0.4,0c-0.1,0-0.1,0.1-0.1,0.2
				c0,0.1,0,0.2,0,0.2c0,0.1,0.1,0.2,0.2,0.5l1.2,2.7l1.1-2.4c0.1-0.3,0.2-0.5,0.3-0.6c0-0.1,0-0.1,0-0.2c0-0.1,0-0.2-0.1-0.3
				c0,0-0.1-0.1-0.2-0.1c-0.1,0-0.3,0-0.5,0V218h1.8v0.2C588.2,218.3,588,218.4,587.8,218.5z M596,218.3V218h2.9v0.2h-0.3
				c-0.2,0-0.3,0-0.4,0c0,0-0.1,0.1-0.2,0.2c0,0.1,0,0.2,0,0.5v3.5c0,0.3,0,0.4,0,0.5c0.1,0.1,0.1,0.1,0.2,0.2
				c0.1,0,0.2,0.1,0.5,0.1h0.5c0.3,0,0.5-0.1,0.7-0.2c0.2-0.1,0.3-0.2,0.5-0.5c0.1-0.2,0.3-0.6,0.4-1h0.2l-0.2,2H596v-0.2h0.2
				c0.2,0,0.3,0,0.3,0s0.1-0.1,0.2-0.2c0.1-0.1,0.1-0.2,0.1-0.5V219c0-0.3,0-0.5-0.1-0.5c0,0-0.1-0.1-0.2-0.2c-0.1,0-0.2,0-0.3,0
				H596z M601.3,219.5V218h4.9v1.5H606c-0.1-0.3-0.2-0.5-0.3-0.7c-0.1-0.1-0.2-0.3-0.4-0.3c-0.1,0-0.3-0.1-0.5-0.1h-0.4v4.1
				c0,0.3,0,0.4,0,0.5c0,0.1,0,0.2,0.2,0.2c0.1,0,0.2,0,0.3,0h0.2v0.2h-2.9v-0.2h0.2c0.2,0,0.3,0,0.4,0c0.1,0,0.2-0.1,0.2-0.2
				c0-0.1,0-0.2,0-0.5v-4.1h-0.3c-0.4,0-0.7,0.1-0.8,0.3c-0.2,0.2-0.4,0.5-0.4,0.9H601.3z M569.8,218.3c-0.1,0-0.3,0-0.5,0V218h2.5
				c0.6,0,1.1,0.1,1.4,0.2c0.3,0.1,0.6,0.2,0.8,0.5c0.2,0.2,0.3,0.5,0.3,0.8c0,0.4-0.1,0.7-0.4,1c-0.2,0.2-0.5,0.3-0.8,0.4l1.4,1.9
				c0.1,0.2,0.3,0.4,0.3,0.4c0.1,0.1,0.2,0.1,0.3,0.1v0.2h-1.7l-1.8-2.5h-0.4v1.5c0,0.3,0,0.4,0,0.5c0,0.1,0.1,0.2,0.2,0.2
				c0.1,0,0.3,0,0.5,0v0.2h-2.8v-0.2c0.2,0,0.4,0,0.5,0c0.1,0,0.2-0.1,0.2-0.2c0-0.1,0-0.2,0-0.5V219c0-0.3,0-0.5,0-0.6
				C570,218.4,569.9,218.3,569.8,218.3z M571.3,218.4v2.4h0.3c0.4,0,0.6,0,0.8-0.1c0.2-0.1,0.4-0.2,0.5-0.4c0.1-0.2,0.2-0.4,0.2-0.7
				c0-0.4-0.1-0.7-0.3-0.9c-0.2-0.2-0.5-0.3-0.9-0.3H571.3z M567.8,218.3c0-0.1,0.1-0.2,0.1-0.3h0.1v1.8H568
				c-0.1-0.5-0.3-0.8-0.6-1.1c-0.4-0.3-0.8-0.4-1.1-0.4c-0.3,0-0.6,0.1-0.9,0.3c-0.3,0.2-0.5,0.4-0.6,0.8c-0.2,0.4-0.3,0.9-0.3,1.4
				c0,0.5,0.1,0.9,0.2,1.3c0.1,0.4,0.3,0.7,0.6,0.9c0.3,0.2,0.6,0.4,1,0.4c0.4,0,0.7-0.1,1-0.3c0.3-0.1,0.6-0.4,0.9-0.8v0.5
				c-0.3,0.3-0.6,0.5-1,0.6c-0.4,0.2-0.8,0.3-1.1,0.3c-0.6,0-1.1-0.1-1.5-0.4c-0.5-0.2-0.8-0.6-1.1-1s-0.3-0.9-0.3-1.4
				s0.1-1,0.4-1.5c0.2-0.5,0.6-0.8,1-1c0.5-0.3,1-0.4,1.5-0.4c0.4,0,0.8,0.1,1.2,0.2c0.2,0.1,0.4,0.2,0.4,0.2
				C567.7,218.4,567.8,218.3,567.8,218.3z M575.9,220.8c0-0.8,0.3-1.5,0.9-2c0.5-0.5,1.2-0.8,2-0.8c0.9,0,1.6,0.2,2.1,0.8
				c0.6,0.5,0.9,1.2,0.9,2c0,0.7-0.2,1.3-0.6,1.8c-0.5,0.7-1.3,1.1-2.3,1.1c-1,0-1.7-0.3-2.3-1C576.1,222.1,575.9,221.5,575.9,220.8
				z M578.8,218.3c-0.5,0-0.9,0.3-1.1,0.8c-0.2,0.4-0.4,1-0.4,1.8c0,0.9,0.2,1.6,0.5,2.1c0.2,0.3,0.6,0.4,1,0.4c0.3,0,0.5,0,0.7-0.1
				c0.2-0.2,0.4-0.5,0.5-0.9c0.1-0.4,0.2-0.8,0.2-1.4c0-0.7,0-1.3-0.2-1.6c-0.2-0.3-0.3-0.6-0.5-0.8
				C579.3,218.3,579.1,218.3,578.8,218.3z M550.8,218h2.3l1.5,3.6l1.5-3.6h2.3v0.2H558c-0.2,0-0.3,0-0.4,0c-0.1,0-0.1,0.1-0.2,0.2
				c0,0.1,0,0.3,0,0.5v3.5c0,0.3,0,0.4,0,0.5c0.1,0.1,0.1,0.2,0.2,0.2c0.1,0,0.2,0,0.4,0h0.2v0.2h-2.9v-0.2h0.2c0.2,0,0.3,0,0.4,0
				c0,0,0.1-0.1,0.2-0.2c0-0.1,0-0.2,0-0.5v-4l-2.1,5H554l-2.1-4.9v3.8c0,0.3,0,0.5,0,0.5c0.1,0.1,0.2,0.2,0.3,0.3
				c0.1,0.1,0.3,0.1,0.6,0.1v0.2h-1.9v-0.2h0.1c0.1,0,0.2,0,0.3,0c0.1-0.1,0.1-0.1,0.2-0.1c0-0.1,0.1-0.2,0.1-0.3c0,0,0-0.2,0-0.4
				V219c0-0.3,0-0.5-0.1-0.5c0,0-0.1-0.1-0.2-0.2c-0.1,0-0.2,0-0.3,0h-0.2V218z M547.5,221.5L547.5,221.5l0,2h-4.8v-0.2h0.2
				c0.1,0,0.3,0,0.4,0c0.1,0,0.1-0.1,0.1-0.2c0-0.1,0.1-0.2,0.1-0.5V219c0-0.3,0-0.5-0.1-0.5c0,0-0.1-0.1-0.1-0.2
				c-0.1,0-0.2,0-0.4,0h-0.2V218h2.8v0.2h-0.2c-0.2,0-0.3,0-0.5,0c0,0-0.1,0.1-0.1,0.2c0,0.1,0,0.2,0,0.5v3.5c0,0.3,0,0.4,0,0.5
				c0,0.1,0.1,0.1,0.2,0.2c0.1,0,0.2,0.1,0.5,0.1h0.4c0.3,0,0.5-0.1,0.7-0.2c0.2-0.1,0.4-0.2,0.5-0.5
				C547.2,222.3,547.3,222,547.5,221.5z M561.2,219v3.5c0,0.3,0,0.4,0,0.5c0,0.1,0.1,0.2,0.2,0.2c0.1,0,0.2,0,0.3,0h0.2v0.2h-2.8
				v-0.2h0.2c0.1,0,0.3,0,0.4,0c0.1,0,0.1-0.1,0.1-0.2c0-0.1,0-0.2,0-0.5V219c0-0.3,0-0.5,0-0.5c0,0-0.1-0.1-0.1-0.2
				c-0.1,0-0.2,0-0.4,0h-0.2V218h2.8v0.2h-0.2c-0.2,0-0.3,0-0.3,0c-0.1,0-0.2,0.1-0.2,0.2C561.2,218.6,561.2,218.7,561.2,219z
				 M529.1,218.5c0,0.1,0,0.2,0,0.5v3.5c0,0.3,0,0.4,0,0.5c0.1,0.1,0.1,0.2,0.2,0.2s0.2,0,0.4,0h0.1v0.2H527v-0.2h0.2
				c0.2,0,0.3,0,0.3,0s0.1-0.1,0.2-0.2c0.1-0.1,0.1-0.2,0.1-0.5V219c0-0.3,0-0.5-0.1-0.5c0,0-0.1-0.1-0.2-0.2c-0.1,0-0.2,0-0.3,0
				H527V218h2.8v0.2h-0.1c-0.2,0-0.3,0-0.4,0C529.2,218.3,529.2,218.4,529.1,218.5z M530.8,218h4.9v1.5h-0.1
				c-0.1-0.3-0.2-0.5-0.3-0.7c-0.1-0.1-0.2-0.3-0.4-0.3c-0.1,0-0.3-0.1-0.6-0.1H534v4.1c0,0.3,0,0.4,0,0.5c0,0.1,0.1,0.2,0.2,0.2
				c0.1,0,0.2,0,0.3,0h0.2v0.2h-2.9v-0.2h0.2c0.1,0,0.3,0,0.4,0c0.1,0,0.1-0.1,0.1-0.2c0-0.1,0-0.2,0-0.5v-4.1h-0.3
				c-0.4,0-0.6,0.1-0.8,0.3c-0.2,0.2-0.4,0.5-0.4,0.9h-0.2V218z M539,218l1.9,4.4c0.2,0.4,0.4,0.7,0.5,0.9c0.1,0.1,0.2,0.1,0.4,0.1
				v0.2h-2.6v-0.2h0.1c0.2,0,0.3,0,0.4,0c0.1,0,0.1-0.1,0.1-0.2c0,0,0-0.1,0-0.1l-0.4-0.9h-2l-0.2,0.5c-0.1,0.1-0.1,0.3-0.1,0.4
				c0,0.2,0.1,0.3,0.2,0.4c0.1,0,0.2,0,0.5,0v0.2H536v-0.2c0.2,0,0.4-0.1,0.5-0.3c0.1-0.1,0.3-0.4,0.5-0.8l1.9-4.3H539z
				 M537.7,221.6h1.6l-0.8-1.9L537.7,221.6z M509.8,218h2.4c0.7,0,1.2,0.1,1.6,0.3c0.5,0.2,0.8,0.5,1.1,1c0.2,0.4,0.3,0.9,0.3,1.4
				c0,0.4-0.1,0.8-0.2,1.1c-0.1,0.3-0.3,0.6-0.5,0.8c-0.2,0.2-0.4,0.4-0.7,0.5c-0.2,0.1-0.6,0.2-1,0.3c-0.1,0.1-0.4,0.1-0.8,0.1
				h-2.4v-0.2h0.2c0.1,0,0.3,0,0.3,0c0.1,0,0.1-0.1,0.2-0.2c0-0.1,0-0.2,0-0.5V219c0-0.3,0-0.5,0-0.5c0,0-0.1-0.1-0.2-0.2
				c-0.1,0-0.2,0-0.3,0h-0.2V218z M516.3,218h2.8v0.2H519c-0.1,0-0.3,0-0.4,0c-0.1,0-0.1,0.1-0.1,0.2c0,0.1,0,0.2,0,0.5v3.5
				c0,0.3,0,0.4,0,0.5c0,0.1,0.1,0.2,0.1,0.2c0.1,0,0.2,0,0.4,0h0.2v0.2h-2.8v-0.2h0.2c0.2,0,0.3,0,0.3,0c0.1,0,0.2-0.1,0.2-0.2
				c0-0.1,0-0.2,0-0.5V219c0-0.3,0-0.5,0-0.5c0,0-0.1-0.1-0.2-0.2c-0.1,0-0.2,0-0.3,0h-0.2V218z M512.8,218.5
				c-0.2-0.1-0.5-0.1-1-0.1v4.2c0,0.2,0,0.4,0.1,0.4c0,0,0,0.1,0.1,0.1c0,0,0.1,0.1,0.3,0.1c0.4,0,0.8-0.2,1-0.5
				c0.4-0.4,0.5-1,0.5-1.9c0-0.7-0.1-1.2-0.3-1.6C513.3,218.9,513.1,218.6,512.8,218.5z M520.3,220.9c0-0.8,0.3-1.5,0.8-2.1
				c0.6-0.6,1.3-0.8,2.2-0.8c0.3,0,0.5,0,0.8,0c0.1,0,0.3,0.1,0.5,0.1c0.2,0.1,0.4,0.2,0.5,0.2c0,0,0.1,0,0.2-0.1
				c0.1-0.1,0.2-0.2,0.2-0.3h0.1v1.9h-0.1c-0.2-0.5-0.5-0.9-0.9-1.2c-0.3-0.2-0.7-0.4-1.1-0.4c-0.4,0-0.7,0.1-1,0.3
				c-0.3,0.2-0.5,0.5-0.6,0.9c-0.1,0.4-0.2,0.8-0.2,1.3c0,0.5,0.1,1,0.2,1.4c0.1,0.4,0.3,0.7,0.6,0.8c0.3,0.2,0.6,0.3,1,0.3
				c0.2,0,0.3,0,0.4,0c0.2,0,0.3,0,0.4-0.1V222c0-0.2,0-0.4,0-0.4c0-0.1-0.1-0.1-0.2-0.1c-0.1,0-0.3-0.1-0.3-0.1h-0.2v-0.2h2.7v0.2
				c-0.2,0-0.3,0-0.4,0.1c-0.1,0-0.2,0.1-0.2,0.2c0,0.1,0,0.2,0,0.4v1.1c-0.3,0.1-0.7,0.3-1.1,0.4c-0.4,0.1-0.8,0.1-1.2,0.1
				c-0.5,0-0.9-0.1-1.3-0.2c-0.3-0.1-0.6-0.3-0.8-0.5c-0.3-0.2-0.5-0.5-0.7-0.8C520.3,221.7,520.3,221.3,520.3,220.9z"/>
		</g>
		<g>
			<g>
				
					<radialGradient id="SVGID_45_" cx="606.7051" cy="285.7002" r="7.45" fx="606.7343" fy="285.7002" gradientTransform="matrix(1 0 0.1091 1.1091 -3.0637 -31.1586)" gradientUnits="userSpaceOnUse">
					<stop  offset="0" style="stop-color:#000000;stop-opacity:0.502"/>
					<stop  offset="0.8" style="stop-color:#000000;stop-opacity:0.502"/>
					<stop  offset="1" style="stop-color:#000000;stop-opacity:0"/>
				</radialGradient>
				<path fill-rule="evenodd" clip-rule="evenodd" fill="url(#SVGID_45_)" d="M627.8,281.3c1.7-1.8,3.9-2.7,6.5-2.7s4.9,0.9,6.8,2.7
					c2,1.7,3.1,3.9,3.4,6.4c0.2,2.5-0.5,4.7-2.1,6.4c-1.7,1.8-3.8,2.7-6.4,2.7c-2.6,0-4.9-0.9-6.9-2.7c-2-1.7-3.1-3.9-3.4-6.4
					C625.5,285.1,626.2,283,627.8,281.3z"/>
			</g>
			<g>
				<g>
					<linearGradient id="SVGID_46_" gradientUnits="userSpaceOnUse" x1="626.8037" y1="285.3691" x2="635.7287" y2="281.1441">
						<stop  offset="0" style="stop-color:#585858"/>
						<stop  offset="0.2588" style="stop-color:#9A9394"/>
						<stop  offset="0.4196" style="stop-color:#C5C1C2"/>
						<stop  offset="0.4784" style="stop-color:#FFFFFF"/>
						<stop  offset="0.5255" style="stop-color:#FFFFFF"/>
						<stop  offset="0.5765" style="stop-color:#C8C4C4"/>
						<stop  offset="0.7333" style="stop-color:#A09A9A"/>
						<stop  offset="1" style="stop-color:#545353"/>
					</linearGradient>
					<path fill-rule="evenodd" clip-rule="evenodd" fill="url(#SVGID_46_)" d="M638.2,280.3c-0.5-0.5-1.1-0.9-1.8-1.1
						c-0.6-0.2-1.3-0.3-2-0.3c-0.2,0-0.4,0-0.6,0c-0.4,0-0.8,0.1-1.2,0.2c0,0-0.1,0-0.2,0.1c-0.5,0.1-0.9,0.4-1.3,0.7
						c-0.3,0.2-0.5,0.4-0.8,0.6c-0.1,0.1-0.3,0.3-0.4,0.3c-0.9,1.1-1.3,2.3-1.3,3.7c0,0.3,0,0.7,0,1c0.2,1,0.6,1.8,1.3,2.6
						c0,0-0.1-0.1-0.2-0.1c-0.8-0.9-1.3-1.9-1.5-3c-0.1-0.3-0.1-0.6-0.1-1c0-1.3,0.4-2.5,1.3-3.6c0.1-0.1,0.3-0.2,0.4-0.4
						c0.2-0.2,0.5-0.4,0.7-0.6c0.1-0.1,0.3-0.1,0.4-0.2c0.4-0.2,0.8-0.4,1.3-0.6c0.3-0.1,0.7-0.1,1.1-0.2c0.2,0,0.4-0.1,0.6-0.1
						c1.1,0,2.1,0.3,3,0.9c0.4,0.2,0.7,0.5,1,0.8C638,280,638.1,280.1,638.2,280.3z"/>
					<path fill-rule="evenodd" clip-rule="evenodd" fill="#756C6D" d="M630.1,288.1c-0.7-0.8-1.1-1.6-1.3-2.6c0-0.4,0-0.7,0-1
						c0-1.4,0.4-2.6,1.3-3.7c0.1-0.1,0.2-0.2,0.4-0.3c0.2-0.2,0.5-0.4,0.8-0.6c0.4-0.3,0.8-0.6,1.3-0.7c0.1-0.1,0.1-0.1,0.2-0.1
						c0.4-0.1,0.8-0.2,1.2-0.2c0.2,0,0.4,0,0.6,0c0.7,0,1.3,0.1,2,0.3c0.7,0.2,1.3,0.6,1.8,1.1c0.1,0.1,0.1,0.1,0.3,0.2
						c0.7,0.7,1.2,1.5,1.5,2.4c0.1,0.5,0.1,1,0.1,1.6c0,1.6-0.5,2.9-1.6,4c-1.1,1.1-2.4,1.6-4,1.6s-2.9-0.6-4-1.6
						c-0.1-0.1-0.2-0.1-0.3-0.2C630.2,288.2,630.1,288.1,630.1,288.1z"/>
				</g>
			</g>
			<g>
				<g>
					<polygon fill-rule="evenodd" clip-rule="evenodd" fill="#7D787C" points="638.3,281.3 632.3,281.3 632.3,281.3 631.9,280.4 
						631.9,280.4 637.8,280.4 					"/>
					<polygon fill-rule="evenodd" clip-rule="evenodd" fill="#504F5D" points="629.5,286 632.3,281.3 632.3,281.3 638.3,281.3 
						640.5,286.3 637.8,290.5 632.2,290.5 632.2,290.5 					"/>
					<polygon fill-rule="evenodd" clip-rule="evenodd" fill="#B3AEB1" points="632.3,281.3 629.5,286 629.1,285.1 629.1,285.1 
						631.9,280.4 					"/>
					<polygon fill-rule="evenodd" clip-rule="evenodd" fill="#3A3944" points="629.1,285.1 629.5,286 632.2,290.5 631,288.8 					
						"/>
				</g>
			</g>
			<g>
				<g>
					<linearGradient id="SVGID_47_" gradientUnits="userSpaceOnUse" x1="630.9248" y1="285.9629" x2="638.2927" y2="283.4173">
						<stop  offset="0" style="stop-color:#6B6869"/>
						<stop  offset="0.5255" style="stop-color:#A29C9E"/>
						<stop  offset="1" style="stop-color:#383737"/>
					</linearGradient>
					<path fill-rule="evenodd" clip-rule="evenodd" fill="url(#SVGID_47_)" d="M638.9,285.6c-0.2-0.3-0.4-0.6-0.7-0.9
						c-0.7-0.8-1.7-1.2-2.8-1.2c-1.1,0-2,0.4-2.8,1.2c-0.7,0.8-1.1,1.7-1.1,2.7c0,0.2,0,0.4,0,0.6c0-0.1,0-0.1,0-0.1
						c-0.2-0.6-0.3-1.1-0.3-1.7c0-1.1,0.4-2,1.1-2.8c0.8-0.7,1.7-1.1,2.8-1.1c1.1,0,2,0.4,2.8,1.1c0.5,0.5,0.9,1.1,1,1.8
						C638.9,285.4,638.9,285.5,638.9,285.6z"/>
					<path fill-rule="evenodd" clip-rule="evenodd" fill="#414046" d="M638.9,285.6c0.3,0.6,0.4,1.2,0.4,1.8c0,1.1-0.4,2-1.1,2.8
						c-0.7,0.8-1.7,1.2-2.8,1.2c-1.1,0-2-0.4-2.8-1.2c-0.1-0.2-0.3-0.4-0.5-0.5c-0.3-0.5-0.5-1-0.6-1.5c0-0.1,0-0.1,0-0.1
						c0-0.2,0-0.4,0-0.6c0-1,0.4-1.9,1.1-2.7c0.8-0.8,1.7-1.2,2.8-1.2c1.1,0,2,0.4,2.8,1.2C638.5,285,638.7,285.3,638.9,285.6z
						 M635.5,290.8c0.9,0,1.7-0.3,2.3-1c0.6-0.6,1-1.4,1-2.3c0-0.5-0.1-1-0.3-1.5c-0.2-0.3-0.4-0.5-0.6-0.8c-0.7-0.6-1.5-1-2.3-1
						c-0.9,0-1.7,0.3-2.3,1c-0.6,0.6-1,1.4-1,2.3c0,0.2,0,0.4,0,0.5c0,0,0,0.1,0,0.1c0.1,0.4,0.2,0.9,0.5,1.3
						c0.1,0.1,0.3,0.3,0.5,0.4C633.8,290.5,634.5,290.8,635.5,290.8z"/>
					<path fill-rule="evenodd" clip-rule="evenodd" d="M635.5,290.8c-0.9,0-1.7-0.3-2.3-1c-0.2-0.2-0.3-0.3-0.5-0.4
						c-0.2-0.4-0.4-0.8-0.5-1.3c0,0,0-0.1,0-0.1c0-0.2,0-0.4,0-0.5c0-0.9,0.3-1.6,1-2.3c0.6-0.6,1.4-1,2.3-1c0.9,0,1.7,0.3,2.3,1
						c0.2,0.2,0.4,0.5,0.6,0.8c0.2,0.5,0.3,1,0.3,1.5c0,0.9-0.3,1.7-1,2.3C637.1,290.5,636.3,290.8,635.5,290.8z"/>
				</g>
			</g>
			<g>
				<g>
					<linearGradient id="SVGID_48_" gradientUnits="userSpaceOnUse" x1="634.0137" y1="290.416" x2="638.4366" y2="288.4864">
						<stop  offset="0" style="stop-color:#5D5A53"/>
						<stop  offset="0.2745" style="stop-color:#ABA696"/>
						<stop  offset="0.4392" style="stop-color:#FFFFFF"/>
						<stop  offset="0.5255" style="stop-color:#FBFBFA"/>
						<stop  offset="0.6392" style="stop-color:#BFBFBF"/>
						<stop  offset="1" style="stop-color:#3A3832"/>
					</linearGradient>
					<path fill-rule="evenodd" clip-rule="evenodd" fill="url(#SVGID_48_)" d="M639.8,292.2c-0.1-0.1-0.2-0.3-0.3-0.4
						c-0.4-0.4-1-0.6-1.5-0.6c-0.2,0-0.3,0-0.5,0c-0.4,0.1-0.7,0.3-1,0.5c0,0,0,0,0,0.1c-0.4,0.4-0.7,0.9-0.7,1.5c0,0.1,0,0.3,0,0.4
						v0.1l-2.2-4.8c-0.1-0.2-0.2-0.3-0.3-0.4c0-0.1-0.1-0.3-0.1-0.4v-0.1c0-0.1,0-0.2,0-0.4c0-0.5,0.2-0.9,0.5-1.3
						c0.1-0.1,0.1-0.2,0.2-0.2c0.2-0.2,0.5-0.3,0.7-0.4c0.3-0.1,0.6-0.1,0.9-0.1c0.6,0,1.1,0.2,1.5,0.6c0.1,0.2,0.3,0.4,0.3,0.6
						c0.1,0.1,0.1,0.2,0.2,0.4v0L639.8,292.2z"/>
					<radialGradient id="SVGID_49_" cx="637.5996" cy="292.1001" r="3.4875" gradientUnits="userSpaceOnUse">
						<stop  offset="0" style="stop-color:#FFFFFF"/>
						<stop  offset="0.1216" style="stop-color:#FFFFFF"/>
						<stop  offset="0.2627" style="stop-color:#B6B3AC"/>
						<stop  offset="1" style="stop-color:#464441"/>
					</radialGradient>
					<path fill-rule="evenodd" clip-rule="evenodd" fill="url(#SVGID_49_)" d="M635.8,293.8L635.8,293.8c0-0.2,0-0.3,0-0.4
						c0-0.6,0.2-1.1,0.7-1.5c0,0,0-0.1,0-0.1c0.3-0.3,0.6-0.4,1-0.5c0.2,0,0.3,0,0.5,0c0.6,0,1.1,0.2,1.5,0.6
						c0.1,0.1,0.2,0.2,0.3,0.4l0.3,0.6c0.1,0.2,0.1,0.4,0.1,0.6c0,0.6-0.2,1.1-0.7,1.5c-0.4,0.4-1,0.6-1.5,0.6
						c-0.6,0-1.1-0.2-1.5-0.6c-0.1-0.1-0.2-0.2-0.3-0.3c0,0,0-0.1-0.1-0.1L636,294L635.8,293.8z"/>
				</g>
			</g>
		</g>
	</g>
</g>
</svg>
