<?xml version="1.0" encoding="utf-8"?>
<!-- Generator: Adobe Illustrator 16.0.0, SVG Export Plug-In . SVG Version: 6.00 Build 0)  -->
<!DOCTYPE svg PUBLIC "-//W3C//DTD SVG 1.1//EN" "http://www.w3.org/Graphics/SVG/1.1/DTD/svg11.dtd">
<svg version="1.1" id="Layer_1" xmlns="http://www.w3.org/2000/svg" xmlns:xlink="http://www.w3.org/1999/xlink" x="0px" y="0px"
	 width="700px" height="700px" viewBox="0 0 700 700" enable-background="new 0 0 700 700" xml:space="preserve">
<g>
	<linearGradient id="SVGID_1_" gradientUnits="userSpaceOnUse" x1="498.125" y1="241.9873" x2="518.075" y2="241.9873">
		<stop  offset="0" style="stop-color:#FFFFFF;stop-opacity:0"/>
		<stop  offset="0.2471" style="stop-color:#FFFFFF;stop-opacity:0.3804"/>
		<stop  offset="0.8078" style="stop-color:#FFFFFF;stop-opacity:0.5137"/>
		<stop  offset="1" style="stop-color:#FFFFFF;stop-opacity:0"/>
	</linearGradient>
	<path fill-rule="evenodd" clip-rule="evenodd" fill="url(#SVGID_1_)" d="M513.7,242.5L513.7,242.5c-1-0.6-2.1-0.9-3.2-1.1
		c-0.1-0.1-0.3-0.1-0.5-0.1c0.1,0,0.2,0,0.5,0c0.1,0,0.3,0,0.4,0c0.6,0,1.3,0.3,1.9,0.6L513.7,242.5z M503.3,242.1
		c0.6-0.4,1.3-0.7,2.1-0.8l1.1-0.1v0c-1.5,0.2-2.8,0.7-4.1,1.5C502.5,242.8,502.8,242.5,503.3,242.1z"/>
	<g>
		<g>
			<linearGradient id="SVGID_2_" gradientUnits="userSpaceOnUse" x1="498.0371" y1="243.375" x2="518.8621" y2="243.375">
				<stop  offset="0" style="stop-color:#FFFFFF;stop-opacity:0"/>
				<stop  offset="0.1176" style="stop-color:#FFFFFF;stop-opacity:0.251"/>
				<stop  offset="0.5373" style="stop-color:#FFFFFF;stop-opacity:0.251"/>
				<stop  offset="1" style="stop-color:#FFFFFF;stop-opacity:0"/>
			</linearGradient>
			<path fill-rule="evenodd" clip-rule="evenodd" fill="url(#SVGID_2_)" d="M499.6,245.6L499.6,245.6c0-0.1,0-0.1,0-0.2h0.1v0.1
				C499.7,245.6,499.6,245.6,499.6,245.6z M517.2,245.6L517.2,245.6c-0.2-0.2-0.3-0.4-0.4-0.5c0,0-0.1-0.1-0.1-0.1c0,0-0.1,0-0.1,0
				h0.1c0,0.1,0.1,0.1,0.1,0.1C517,245.3,517.1,245.5,517.2,245.6z M510.1,241.1L510.1,241.1c1.1,0.1,2.1,0.5,3.1,1
				c0.2,0.1,0.5,0.2,0.7,0.4h0.1v0h-0.1c-0.2-0.2-0.5-0.3-0.7-0.4C512.2,241.7,511.2,241.4,510.1,241.1L510.1,241.1L510.1,241.1
				L510.1,241.1z M502.5,242.8L502.5,242.8L502.5,242.8L502.5,242.8c1.2-0.9,2.6-1.4,4-1.6h0v0.1h0
				C505.1,241.4,503.8,242,502.5,242.8z"/>
			<path fill-rule="evenodd" clip-rule="evenodd" fill="#FFFFFF" fill-opacity="0.2" d="M499.6,245.6L499.6,245.6
				c-0.3,0.5-0.6,1-0.8,1.5h-0.1C498.9,246.6,499.2,246.1,499.6,245.6L499.6,245.6L499.6,245.6L499.6,245.6z M517.2,245.6
				L517.2,245.6l0.1,0.1c0,0,0,0.1,0,0.1c0.3,0.4,0.5,0.8,0.7,1.3h0c-0.2-0.4-0.4-0.8-0.7-1.1l0-0.1
				C517.2,245.8,517.2,245.7,517.2,245.6L517.2,245.6z"/>
			<path fill-rule="evenodd" clip-rule="evenodd" fill="#FFFFFF" fill-opacity="0.4667" d="M525.3,249.1v0.1h-6.6v-0.1
				c1.9-0.2,4.1-0.2,6.5,0H525.3z"/>
			<path fill-rule="evenodd" clip-rule="evenodd" fill="#FFFFFF" fill-opacity="0.5098" d="M491.5,249.1c1.9-0.2,3.9-0.2,6,0v0.1h-6
				V249.1z"/>
		</g>
	</g>
	<g>
		<g>
			<linearGradient id="SVGID_3_" gradientUnits="userSpaceOnUse" x1="506.6963" y1="243.1772" x2="510.3965" y2="242.5533">
				<stop  offset="0" style="stop-color:#544E4E"/>
				<stop  offset="0.8588" style="stop-color:#000000"/>
				<stop  offset="1" style="stop-color:#000000"/>
			</linearGradient>
			<path fill-rule="evenodd" clip-rule="evenodd" fill="url(#SVGID_3_)" d="M507.4,247.5l-1.4-9.3v0h0c1.1,0.6,2.2,0.4,3.5-0.6
				l1.5,9.7l0.2,0.2H507.4z"/>
			<linearGradient id="SVGID_4_" gradientUnits="userSpaceOnUse" x1="500.7383" y1="243.144" x2="509.8378" y2="242.0896">
				<stop  offset="0" style="stop-color:#000000"/>
				<stop  offset="0.1882" style="stop-color:#221D1D"/>
				<stop  offset="0.5373" style="stop-color:#796868"/>
			</linearGradient>
			<path fill-rule="evenodd" clip-rule="evenodd" fill="url(#SVGID_4_)" d="M506,238.2l1.4,9.3h-3.9c-0.1-0.7-0.4-2.3-0.8-4.8
				c0-0.3-0.1-0.9-0.2-1.8l0,0c0,0.1,0,0.1,0,0.2V241v-0.3c-0.1-0.6-0.2-1.2-0.3-1.9c1-0.6,2.2-1.1,3.4-1.3c0.1,0,0.2,0,0.3-0.1
				C505.9,237.7,506,237.9,506,238.2z"/>
			<linearGradient id="SVGID_5_" gradientUnits="userSpaceOnUse" x1="498.4746" y1="244.959" x2="503.8495" y2="244.0585">
				<stop  offset="0" style="stop-color:#544E4E"/>
				<stop  offset="0.8588" style="stop-color:#000000"/>
				<stop  offset="1" style="stop-color:#000000"/>
			</linearGradient>
			<path fill-rule="evenodd" clip-rule="evenodd" fill="url(#SVGID_5_)" d="M498.9,247.5L498.9,247.5l0.8-2.1l-0.6-3.8h0.1
				c0.3,0.3,0.6,0.5,1,0.5c0.5,0,1.1-0.3,1.8-0.8c0.2-0.2,0.4-0.3,0.5-0.4v0.2c0-0.1,0-0.2,0-0.2l0,0c0.1,0.9,0.1,1.5,0.2,1.8
				c0.5,2.5,0.8,4.1,0.8,4.8H498.9z"/>
			<linearGradient id="SVGID_6_" gradientUnits="userSpaceOnUse" x1="493.375" y1="244.2002" x2="522.625" y2="244.2002">
				<stop  offset="0" style="stop-color:#000000"/>
				<stop  offset="0.1882" style="stop-color:#221D1D"/>
				<stop  offset="0.5373" style="stop-color:#796868"/>
				<stop  offset="0.8588" style="stop-color:#000000"/>
				<stop  offset="1" style="stop-color:#000000"/>
			</linearGradient>
			<path fill-rule="evenodd" clip-rule="evenodd" fill="url(#SVGID_6_)" d="M513.5,241.1l0.3,1.4l-2.5,2.1l1.3,2.9h-1.3l-0.2-0.2
				l-1.5-9.7l0-0.1c0.6,0.1,1.2,0.2,1.7,0.4c0.7,0.2,1.3,0.4,1.8,0.8C513.3,240.3,513.5,241.1,513.5,241.1L513.5,241.1z M517,247.5
				l-0.9-6.4c0.3,0.4,0.6,0.9,1,1.4c0.6,1.1,1.1,2.4,1.5,4c0,0.3,0.1,0.6,0.2,0.9c0,0,0,0.1,0,0.1l0.4,2.8L517,247.5z M498.9,247.5
				L498.9,247.5l-1.3,3.4l-0.6-3.4l-0.1-0.4V247c0.1-0.5,0.1-0.9,0.3-1.4c0.2-0.7,0.4-1.3,0.6-2c0.1-0.1,0.1-0.3,0.2-0.4l1.1-1.7
				v0.1l0.6,3.8L498.9,247.5z"/>
			<linearGradient id="SVGID_7_" gradientUnits="userSpaceOnUse" x1="519.2549" y1="243.9551" x2="512.9303" y2="244.5346">
				<stop  offset="0" style="stop-color:#544E4E"/>
				<stop  offset="0.8588" style="stop-color:#000000"/>
				<stop  offset="1" style="stop-color:#000000"/>
			</linearGradient>
			<path fill-rule="evenodd" clip-rule="evenodd" fill="url(#SVGID_7_)" d="M516,241.1l0.9,6.4h-4.4l-1.3-2.9l2.5-2.1l-0.3-1.4h0
				c0.4,0.3,0.8,0.5,1.2,0.5C515.3,241.6,515.7,241.4,516,241.1C516,241.1,516,241.1,516,241.1C516,241.1,516,241.1,516,241.1z"/>
			<linearGradient id="SVGID_8_" gradientUnits="userSpaceOnUse" x1="496.7559" y1="247.832" x2="499.7073" y2="247.3404">
				<stop  offset="0" style="stop-color:#1E1D1D"/>
				<stop  offset="0.8588" style="stop-color:#000000"/>
				<stop  offset="1" style="stop-color:#000000"/>
			</linearGradient>
			<polygon fill-rule="evenodd" clip-rule="evenodd" fill="url(#SVGID_8_)" points="498.8,247.5 498.9,247.5 498.9,247.5 			"/>
		</g>
	</g>
	<g>
		<g>
			<path fill-rule="evenodd" clip-rule="evenodd" fill="#1A1A1A" d="M518.3,250.5c-0.1,0.1-0.2,0.1-0.2,0.2c0,0,0,0.1,0,0.1
				c-0.3,0.4-0.5,0.8-0.5,1.3c0,0.5,0.2,0.8,0.5,1.1c0,0,0,0,0,0c0.3,0.3,0.6,0.4,1,0.5c0,0,0.1,0,0.1,0v0.1
				c-0.2,0.9-0.4,1.8-0.8,2.5c-0.4,0.9-1,1.8-1.8,2.6l-0.1,0c-0.3-0.3-0.7-0.5-1.2-0.5c-0.3,0-0.6,0.1-0.8,0.2
				c-0.1,0-0.3,0.1-0.3,0.2h0v0.1H514c-0.1,0.1-0.1,0.1-0.2,0.2c0,0,0,0.1,0,0.2l-0.1,0c-0.1,0.2-0.2,0.5-0.3,0.8
				c-0.1,0.4,0,0.8,0.3,1.1c-1.1,0.6-2.3,1.1-3.7,1.3c0-0.5-0.1-0.9-0.5-1.3c-0.3-0.3-0.7-0.4-1-0.4h-0.1c0,0-0.1,0-0.1,0
				c-0.5,0-0.9,0.1-1.2,0.4c-0.4,0.4-0.6,0.8-0.6,1.3c-1.2-0.2-2.4-0.6-3.4-1.2v-0.1v0c0.3-0.3,0.4-0.7,0.3-1.1
				c0-0.3-0.1-0.5-0.3-0.8v-0.1c-0.1-0.1-0.2-0.2-0.4-0.3c-0.1-0.1-0.2-0.2-0.3-0.3c0,0-0.1,0-0.1-0.1c-0.3-0.1-0.6-0.2-0.9-0.1
				c-0.4,0.1-0.8,0.2-1,0.5l-0.1,0.1c0,0,0,0-0.1,0c-0.8-0.9-1.4-1.8-1.8-2.8c-0.3-0.6-0.5-1.3-0.7-2h0c0.4-0.1,0.7-0.3,1-0.5
				c0.3-0.3,0.5-0.7,0.5-1.1c0-0.5-0.5-1.1-1.4-2c-0.1-0.1-0.2-0.2-0.3-0.3c0-0.3,0.1-0.6,0.2-1c0.3-1.5,0.9-2.9,1.9-4.1l0.1,0.1
				c0.3,0.3,0.6,0.4,1.1,0.4c0.5,0,0.9-0.1,1.3-0.4c0.1-0.1,0.2-0.2,0.3-0.4c0.2-0.2,0.4-0.5,0.5-0.9c0.1-0.5,0-0.9-0.3-1.2
				c0-0.1-0.1-0.1-0.2-0.2c0.2-0.2,0.5-0.3,0.7-0.4c1.1-0.6,2.2-1,3.4-1.2c0,0.4,0.2,0.7,0.6,1v0c0.3,0.3,0.7,0.5,1.2,0.5
				c0.2,0,0.3,0,0.4-0.1c0.3-0.1,0.6-0.2,0.8-0.4c0.3-0.3,0.4-0.6,0.5-1h0c1.3,0.2,2.6,0.6,3.7,1.3v0c-0.1,0.1-0.2,0.1-0.2,0.3
				c-0.2,0.3-0.2,0.6-0.1,0.9c0.1,0.3,0.2,0.6,0.3,0.9c0.1,0.1,0.2,0.3,0.4,0.4h0c0.4,0.3,0.8,0.5,1.3,0.5s0.8-0.1,1.1-0.5l0.1,0
				c1.1,1.2,2,3,2.5,5.4h0l0,0C518.8,250.3,518.5,250.3,518.3,250.5z"/>
			<path fill-rule="evenodd" clip-rule="evenodd" d="M503.2,261.1L503.2,261.1v-1.9c0.2,0.2,0.3,0.5,0.3,0.8
				C503.5,260.4,503.4,260.8,503.2,261.1L503.2,261.1z M513.7,259.3v1.9c-0.2-0.3-0.3-0.7-0.3-1.1
				C513.5,259.8,513.6,259.5,513.7,259.3z"/>
			<path fill-rule="evenodd" clip-rule="evenodd" fill="#020202" d="M497.6,250.4c0,0.1,0,0.2,0,0.4l0-0.3L497.6,250.4z"/>
			<linearGradient id="SVGID_9_" gradientUnits="userSpaceOnUse" x1="497.5469" y1="252.3555" x2="499.2733" y2="252.0636">
				<stop  offset="0" style="stop-color:#544E4E"/>
				<stop  offset="0.8588" style="stop-color:#000000"/>
				<stop  offset="1" style="stop-color:#000000"/>
			</linearGradient>
			<path fill-rule="evenodd" clip-rule="evenodd" fill="url(#SVGID_9_)" d="M497.8,254.3l-0.3-3.6c0-0.1,0-0.2,0-0.4
				c0.1,0.1,0.2,0.2,0.3,0.3c1,0.9,1.4,1.5,1.4,2c0,0.5-0.2,0.9-0.5,1.1C498.6,254,498.3,254.2,497.8,254.3z"/>
			<linearGradient id="SVGID_10_" gradientUnits="userSpaceOnUse" x1="519.3477" y1="252.0039" x2="517.6474" y2="252.1508">
				<stop  offset="0" style="stop-color:#544E4E"/>
				<stop  offset="0.8588" style="stop-color:#000000"/>
				<stop  offset="1" style="stop-color:#000000"/>
			</linearGradient>
			<path fill-rule="evenodd" clip-rule="evenodd" fill="url(#SVGID_10_)" d="M518.3,250.5l0.8,3.2c-0.4-0.1-0.7-0.2-1-0.5
				c0,0,0,0,0,0c-0.3-0.3-0.5-0.7-0.5-1.1c0-0.5,0.2-0.9,0.5-1.3c0,0,0,0,0-0.1C518.1,250.6,518.2,250.5,518.3,250.5z"/>
		</g>
	</g>
	<g>
		<g>
			<linearGradient id="SVGID_11_" gradientUnits="userSpaceOnUse" x1="514.8125" y1="254.4521" x2="511.9943" y2="249.8979">
				<stop  offset="0" style="stop-color:#FFFFFF"/>
				<stop  offset="1" style="stop-color:#937D76"/>
			</linearGradient>
			<path fill-rule="evenodd" clip-rule="evenodd" fill="url(#SVGID_11_)" d="M508.5,252.1L508.5,252.1l5.5-5.7
				c0.1,0.1,0.3,0.3,0.5,0.4c0.5,0.5,0.9,1,1.3,1.5c0.4,0.6,0.7,1.3,0.9,1.9L508.5,252.1z"/>
			<linearGradient id="SVGID_12_" gradientUnits="userSpaceOnUse" x1="504.335" y1="252.8345" x2="504.5983" y2="248.9604">
				<stop  offset="0" style="stop-color:#A69A90"/>
				<stop  offset="1" style="stop-color:#786759"/>
			</linearGradient>
			<path fill-rule="evenodd" clip-rule="evenodd" fill="url(#SVGID_12_)" d="M508.5,252L508.5,252L508.5,252l-8.3-1.1
				c0.1-0.5,0.3-1.1,0.5-1.6c0.4-0.9,1.1-1.8,2-2.5c0.1-0.1,0.2-0.2,0.3-0.3L508.5,252L508.5,252L508.5,252z"/>
			<linearGradient id="SVGID_13_" gradientUnits="userSpaceOnUse" x1="504.6357" y1="249.9604" x2="509.8805" y2="246.5524">
				<stop  offset="0" style="stop-color:#756355"/>
				<stop  offset="1" style="stop-color:#F1EDEC"/>
			</linearGradient>
			<path fill-rule="evenodd" clip-rule="evenodd" fill="url(#SVGID_13_)" d="M508.5,252L508.5,252L508.5,252l-5.5-5.6
				c0.9-0.7,1.9-1.3,3-1.6c0.8-0.2,1.5-0.4,2.3-0.4h0.1L508.5,252z"/>
			<linearGradient id="SVGID_14_" gradientUnits="userSpaceOnUse" x1="507.6426" y1="247.5815" x2="512.6647" y2="249.5639">
				<stop  offset="0" style="stop-color:#FFFFFF"/>
				<stop  offset="0.2157" style="stop-color:#EFECEB"/>
				<stop  offset="1" style="stop-color:#937D76"/>
			</linearGradient>
			<path fill-rule="evenodd" clip-rule="evenodd" fill="url(#SVGID_14_)" d="M514,246.4l-5.5,5.6l-0.1-7.5h0.2
				c0.8,0,1.6,0.1,2.4,0.3C512.1,245.1,513.1,245.7,514,246.4z"/>
			<linearGradient id="SVGID_15_" gradientUnits="userSpaceOnUse" x1="513.6924" y1="254.4233" x2="511.9762" y2="249.3204">
				<stop  offset="0" style="stop-color:#B1A3A3"/>
				<stop  offset="1" style="stop-color:#937D76"/>
			</linearGradient>
			<path fill-rule="evenodd" clip-rule="evenodd" fill="url(#SVGID_15_)" d="M516,255.5l-7.5-3.3v-0.1l8.1-2
				c0.1,0.6,0.2,1.3,0.2,2.1c0,0.9-0.1,1.7-0.4,2.5C516.3,255,516.2,255.3,516,255.5z"/>
			<linearGradient id="SVGID_16_" gradientUnits="userSpaceOnUse" x1="506.0225" y1="255.1753" x2="509.0778" y2="257.4933">
				<stop  offset="0" style="stop-color:#94867A"/>
				<stop  offset="1" style="stop-color:#FFFFFF"/>
			</linearGradient>
			<path fill-rule="evenodd" clip-rule="evenodd" fill="url(#SVGID_16_)" d="M501.3,256l7.1-3.9h0.1v0.1l0.1,7.5h-0.1
				c-0.9,0-1.8-0.1-2.6-0.4c-1-0.3-2-0.8-2.9-1.4v-0.1c-0.2-0.1-0.3-0.3-0.4-0.4c-0.5-0.4-0.9-0.8-1.2-1.3
				C501.5,256.2,501.4,256.1,501.3,256z"/>
			<linearGradient id="SVGID_17_" gradientUnits="userSpaceOnUse" x1="511.8945" y1="254.8193" x2="509.2446" y2="256.2194">
				<stop  offset="0" style="stop-color:#B1A3A3"/>
				<stop  offset="1" style="stop-color:#F1EDEC"/>
			</linearGradient>
			<path fill-rule="evenodd" clip-rule="evenodd" fill="url(#SVGID_17_)" d="M508.7,259.8l-0.1-7.5l7.5,3.3
				c-0.2,0.3-0.3,0.5-0.5,0.8c-0.3,0.4-0.7,0.9-1.1,1.3c-0.2,0.1-0.3,0.2-0.5,0.4h0c-0.9,0.7-1.9,1.3-3,1.6
				C510.3,259.6,509.6,259.8,508.7,259.8C508.7,259.8,508.7,259.8,508.7,259.8z"/>
			<linearGradient id="SVGID_18_" gradientUnits="userSpaceOnUse" x1="504.4775" y1="254.2573" x2="504.2303" y2="250.4072">
				<stop  offset="0" style="stop-color:#94867A"/>
				<stop  offset="1" style="stop-color:#FFFDFC"/>
			</linearGradient>
			<path fill-rule="evenodd" clip-rule="evenodd" fill="url(#SVGID_18_)" d="M508.5,252.1l-7.1,3.9c-0.7-1.1-1.1-2.4-1.1-3.8
				c0-0.5,0-0.9,0-1.3L508.5,252.1z"/>
		</g>
	</g>
</g>
</svg>
