<?xml version="1.0" encoding="utf-8"?>
<!-- Generator: Adobe Illustrator 16.0.0, SVG Export Plug-In . SVG Version: 6.00 Build 0)  -->
<!DOCTYPE svg PUBLIC "-//W3C//DTD SVG 1.1//EN" "http://www.w3.org/Graphics/SVG/1.1/DTD/svg11.dtd">
<svg version="1.1" id="Layer_1" xmlns="http://www.w3.org/2000/svg" xmlns:xlink="http://www.w3.org/1999/xlink" x="0px" y="0px"
	 width="700px" height="700px" viewBox="0 0 700 700" enable-background="new 0 0 700 700" xml:space="preserve">
<g>
	<polygon fill-rule="evenodd" clip-rule="evenodd" fill-opacity="0.2471" points="523.8,351.4 579.5,628 136.6,628 171.4,350.5 	"/>
	<polygon fill-rule="evenodd" clip-rule="evenodd" fill-opacity="0.4" points="536.5,594.4 535.2,587.3 163.3,587.3 162.7,594.4 
		150.1,594.4 172.5,350.7 492.6,349.6 554.1,594.4 	"/>
	<g>
		<g>
			<path fill-rule="evenodd" clip-rule="evenodd" d="M520.6,326.1h5l3.5,22.7l14.2,91.1h-5l-14.2-91.1l-3.4-21.8L520.6,326.1z
				 M540,593.6V590v-0.1V460.5h5v133.1H540z M156.2,441.4l20.4-119h5l-0.2,0.9l-20.2,118.1H156.2z M159.7,458.2v130.8v0.1v3.6h-5
				V458.2H159.7z"/>
			<path fill-rule="evenodd" clip-rule="evenodd" fill="#30587C" d="M540,460.5v129.4v0.1v3.6l-0.6-3.5V590l-18.5-129.5l-1.2-8.2
				l0.8-103.4l0.2-22.7l0.2,0.9l3.4,21.8l14.2,91.1l1.3,8.2l0.4,2.2v1.9V460.5z M159.7,592.7v-3.6v-0.1V458.2v-6.9v-1.9l0.4-2.2
				l1-5.8l20.2-118.1l0.2-0.9v119v16.8v52.9l-21.1,78v0.1L159.7,592.7z"/>
			
				<linearGradient id="SVGID_1_" gradientUnits="userSpaceOnUse" x1="-0.3452" y1="-13.0244" x2="-0.4959" y2="-2.1244" gradientTransform="matrix(1.1666 0 0 1.1666 350.4006 461.2502)">
				<stop  offset="0" style="stop-color:#000000"/>
				<stop  offset="0.502" style="stop-color:#5D5D5D"/>
				<stop  offset="1" style="stop-color:#000000"/>
			</linearGradient>
			<path fill-rule="evenodd" clip-rule="evenodd" fill="url(#SVGID_1_)" d="M545,460.5h-5v-8.3v-1.9l-0.4-2.2l-1.3-8.2h5l1.3,8.2
				l0.2,1.2l0.2,0.9v2V460.5z M161.1,441.4l-1,5.8l-0.4,2.2v1.9v6.9h-5v-6.9v-2l0.2-0.9l0.2-1.2l1-5.8H161.1z"/>
		</g>
	</g>
	<g>
		<g>
			
				<linearGradient id="SVGID_2_" gradientUnits="userSpaceOnUse" x1="2.1802" y1="43.7891" x2="-5.7051" y2="-133.4605" gradientTransform="matrix(1.1666 0 0 1.1666 350.4006 461.2502)">
				<stop  offset="0" style="stop-color:#436E9A"/>
				<stop  offset="0.4196" style="stop-color:#5385B7"/>
				<stop  offset="1" style="stop-color:#639AD3"/>
			</linearGradient>
			<polygon fill-rule="evenodd" clip-rule="evenodd" fill="url(#SVGID_2_)" points="538.2,455.8 162.6,455.8 174.5,384.7 
				181.5,343.1 239.6,343.1 521.1,343.1 			"/>
			<rect x="162.6" y="455.8" fill-rule="evenodd" clip-rule="evenodd" fill="#DEDFE1" width="375.6" height="123.7"/>
		</g>
	</g>
	<g>
		<path fill-rule="evenodd" clip-rule="evenodd" d="M230.8,558c-0.2-0.1-0.4-0.2-0.6-0.2v-0.1h2.2v0.1c-0.2,0-0.3,0-0.3,0.1
			c-0.1,0.1-0.1,0.1-0.1,0.2c0,0.1,0.1,0.2,0.2,0.4l0.7,1.1l0.8-1.1c0.1-0.1,0.2-0.2,0.2-0.2c0-0.1,0.1-0.1,0.1-0.2s0-0.1-0.1-0.1
			c0,0-0.1-0.1-0.1-0.1c-0.1,0-0.2,0-0.3,0v-0.1h1.6v0.1c-0.1,0-0.2,0-0.3,0.1c-0.1,0-0.2,0.1-0.3,0.2c-0.1,0.1-0.2,0.3-0.4,0.5
			l-0.9,1.2l1,1.5c0.3,0.4,0.5,0.7,0.6,0.8c0.1,0.1,0.3,0.2,0.5,0.2v0.1h-2v-0.1c0.2,0,0.3,0,0.3-0.1c0,0,0.1,0,0.1-0.1
			c0-0.1,0.1-0.1,0.1-0.2c0,0,0-0.1-0.1-0.1c0,0-0.1-0.2-0.2-0.3l-0.8-1.2l-1,1.2c-0.1,0.2-0.1,0.3-0.2,0.3c0,0-0.1,0.1-0.1,0.1
			c0,0.1,0,0.1,0.1,0.2c0.1,0.1,0.2,0.1,0.4,0.1v0.1h-1.6v-0.1c0.1,0,0.2,0,0.3-0.1c0.2-0.1,0.3-0.2,0.4-0.2
			c0.1-0.1,0.3-0.3,0.4-0.5l1.1-1.4l-0.9-1.3C231.2,558.3,231,558.1,230.8,558z M237.1,557.6h0.1v3.9c0,0.3,0,0.4,0.1,0.5
			c0,0.1,0,0.1,0.1,0.2c0.1,0,0.2,0.1,0.4,0.1v0.1H236v-0.1c0.2,0,0.4,0,0.5-0.1c0,0,0.1-0.1,0.1-0.1c0-0.1,0.1-0.3,0.1-0.5V559
			c0-0.3,0-0.6-0.1-0.6c0-0.1,0-0.1-0.1-0.2c0,0-0.1-0.1-0.2-0.1s-0.2,0-0.4,0.1l-0.1-0.1L237.1,557.6z M239.7,557.8
			c0.2-0.2,0.4-0.2,0.6-0.2c0.3,0,0.7,0.2,1,0.5c0.4,0.5,0.5,1.1,0.5,1.9c0,0.5-0.1,1-0.2,1.3c-0.2,0.4-0.3,0.7-0.6,0.8
			c-0.3,0.2-0.5,0.2-0.7,0.2c-0.5,0-0.8-0.3-1.1-0.8c-0.3-0.4-0.4-1-0.4-1.6c0-0.5,0.1-1,0.2-1.4C239.3,558.3,239.5,558,239.7,557.8
			z M240,558c-0.2,0.2-0.3,0.5-0.4,0.9c0,0.4-0.1,0.8-0.1,1.2c0,0.7,0.1,1.2,0.2,1.6c0.1,0.4,0.3,0.5,0.6,0.5c0.1,0,0.2-0.1,0.3-0.2
			c0.2-0.1,0.3-0.3,0.4-0.6c0.1-0.4,0.1-0.9,0.1-1.6c0-0.5-0.1-1-0.2-1.3c-0.1-0.2-0.2-0.4-0.3-0.5c-0.1-0.1-0.2-0.1-0.3-0.1
			C240.2,557.8,240.1,557.8,240,558z"/>
	</g>
	<g>
		<path fill-rule="evenodd" clip-rule="evenodd" d="M200.5,557.7h1.6v0.1c-0.1,0-0.2,0-0.3,0.1c-0.1,0-0.2,0.1-0.4,0.2
			c-0.1,0.1-0.2,0.3-0.4,0.5l-0.9,1.2l1,1.5c0.3,0.4,0.5,0.7,0.6,0.8c0.1,0.1,0.3,0.2,0.5,0.2v0.1h-2v-0.1c0.2,0,0.3,0,0.3-0.1
			c0,0,0.1,0,0.1-0.1c0-0.1,0.1-0.1,0.1-0.2c0,0,0-0.1-0.1-0.1c0,0-0.1-0.2-0.2-0.3l-0.8-1.2l-1,1.2c-0.1,0.2-0.1,0.3-0.2,0.3
			c0,0-0.1,0.1-0.1,0.1c0,0.1,0,0.1,0.1,0.2c0.1,0.1,0.2,0.1,0.4,0.1v0.1h-1.6v-0.1c0.1,0,0.2,0,0.3-0.1c0.2-0.1,0.3-0.2,0.4-0.2
			c0.1-0.1,0.3-0.3,0.4-0.5l1.1-1.4l-0.9-1.3c-0.3-0.3-0.5-0.6-0.6-0.7c-0.2-0.1-0.4-0.2-0.6-0.2v-0.1h2.2v0.1c-0.2,0-0.3,0-0.4,0.1
			c-0.1,0.1-0.1,0.1-0.1,0.2c0,0.1,0.1,0.2,0.2,0.4l0.7,1.1l0.8-1.1c0.1-0.1,0.2-0.2,0.2-0.2c0-0.1,0.1-0.1,0.1-0.2s0-0.1-0.1-0.1
			c0,0-0.1-0.1-0.1-0.1c-0.1,0-0.2,0-0.4,0V557.7z M203.2,558.1l1.1-0.5h0.1v3.9c0,0.3,0,0.4,0.1,0.5c0,0.1,0,0.1,0.1,0.2
			c0.1,0,0.2,0.1,0.4,0.1v0.1h-1.8v-0.1c0.2,0,0.4,0,0.5-0.1c0,0,0.1-0.1,0.1-0.1c0-0.1,0.1-0.3,0.1-0.5V559c0-0.3,0-0.6-0.1-0.6
			c0-0.1,0-0.1-0.1-0.2c0,0-0.1-0.1-0.2-0.1s-0.2,0-0.4,0.1L203.2,558.1z"/>
	</g>
	<g>
		<path fill-rule="evenodd" clip-rule="evenodd" d="M294.6,557.8c-0.1,0-0.2,0-0.3,0.1c0,0.1-0.1,0.2-0.1,0.2c0,0.1,0,0.3,0.1,0.6
			l0.9,2.6l0.9-2.6c0.1-0.3,0.1-0.5,0.1-0.6c0-0.1,0-0.1,0-0.2c0,0-0.1-0.1-0.2-0.1c-0.1,0-0.2-0.1-0.3-0.1v-0.1h1.3v0.1
			c-0.1,0-0.2,0-0.3,0.1c-0.1,0-0.1,0.1-0.2,0.2c-0.1,0.1-0.2,0.3-0.2,0.6l-1.3,3.7H295l-1-3l-1.1,3h-0.1l-1.3-3.8
			c-0.1-0.3-0.2-0.5-0.2-0.5c0-0.1-0.1-0.1-0.2-0.2s-0.2-0.1-0.3-0.1v-0.1h1.7v0.1h-0.1c-0.2,0-0.3,0-0.3,0.1
			c-0.1,0.1-0.1,0.2-0.1,0.2s0.1,0.3,0.2,0.5l0.9,2.6l0.8-2.2l-0.3-0.7c0-0.1-0.1-0.2-0.1-0.4c0,0-0.1-0.1-0.1-0.1
			c-0.1,0-0.1-0.1-0.2-0.1c0,0-0.1,0-0.2,0v-0.1h1.8v0.1H294.6z M296.5,562.2c0.2,0,0.3-0.1,0.4-0.1c0.1-0.1,0.3-0.4,0.4-0.7
			l1.6-3.8h0.1l1.6,3.9c0.1,0.3,0.2,0.5,0.3,0.6c0.1,0.1,0.2,0.2,0.4,0.2v0.1h-1.8v-0.1c0.2,0,0.3,0,0.3-0.1c0.1,0,0.1-0.1,0.1-0.2
			c0-0.1,0-0.3-0.1-0.5l-0.3-0.7h-1.8l-0.3,0.8c-0.1,0.2-0.1,0.3-0.1,0.4s0,0.1,0.1,0.2c0,0,0.2,0.1,0.4,0.1v0.1h-1.5V562.2z
			 M303,558.5v3c0,0.2,0,0.4,0,0.5c0,0,0.1,0.1,0.2,0.1c0.1,0.1,0.2,0.1,0.3,0.1h0.2v0.1h-2v-0.1h0.2c0.2,0,0.3-0.1,0.4-0.2
			c0-0.1,0.1-0.3,0.1-0.5v-3c0-0.2,0-0.4,0-0.5c0-0.1-0.1-0.1-0.2-0.2c-0.1,0-0.2-0.1-0.3-0.1h-0.2v-0.1h2v0.1h-0.2
			c-0.2,0-0.3,0.1-0.4,0.2C303.1,558,303,558.2,303,558.5z M299.5,560.5l-0.8-1.9l-0.8,1.9H299.5z M307.5,558
			c-0.2,0-0.3-0.1-0.5-0.1h-0.7v3.5c0,0.3,0,0.5,0.1,0.5c0.1,0.1,0.2,0.2,0.4,0.2h0.2v0.1h-2v-0.1h0.2c0.2,0,0.3-0.1,0.4-0.2
			c0-0.1,0.1-0.3,0.1-0.5V558h-0.5c-0.2,0-0.4,0-0.5,0c-0.1,0-0.2,0.1-0.3,0.3c-0.1,0.1-0.1,0.3-0.1,0.5h-0.1l0.1-1h3.7l0.1,1h-0.1
			c0-0.2-0.1-0.3-0.1-0.4C307.7,558.2,307.6,558.1,307.5,558z"/>
	</g>
	<g>
		<path fill-rule="evenodd" clip-rule="evenodd" d="M342,558.5v1.9c0,0.5,0,0.8-0.1,1.1c-0.1,0.2-0.3,0.4-0.6,0.6
			c-0.3,0.2-0.6,0.3-1.1,0.3c-0.5,0-0.9-0.1-1.1-0.3c-0.3-0.2-0.5-0.4-0.6-0.7c-0.1-0.2-0.1-0.6-0.1-1.1v-1.8c0-0.3,0-0.5-0.1-0.6
			c-0.1-0.1-0.2-0.1-0.4-0.1h-0.2v-0.1h2v0.1h-0.2c-0.2,0-0.3,0.1-0.4,0.2c-0.1,0.1-0.1,0.3-0.1,0.5v2c0,0.2,0,0.4,0.1,0.6
			s0.1,0.4,0.2,0.5c0.1,0.2,0.3,0.3,0.4,0.4c0.2,0.1,0.4,0.1,0.6,0.1c0.3,0,0.6-0.1,0.8-0.2c0.2-0.1,0.4-0.3,0.5-0.5
			c0.1-0.2,0.2-0.6,0.2-1v-1.9c0-0.3,0-0.5-0.1-0.6c-0.1-0.1-0.2-0.1-0.4-0.1H341v-0.1h2.9l2.9,3.4v-2.7c0-0.3,0-0.4-0.1-0.5
			c-0.1-0.1-0.2-0.1-0.4-0.1h-0.2v-0.1h1.6v0.1h-0.2c-0.2,0-0.3,0.1-0.4,0.2c0,0.1-0.1,0.2-0.1,0.5v3.9H347l-3.1-3.7v2.9
			c0,0.3,0,0.5,0.1,0.5c0.1,0.1,0.2,0.2,0.4,0.2h0.1v0.1h-1.6v-0.1h0.2c0.2,0,0.3-0.1,0.4-0.2c0-0.1,0.1-0.3,0.1-0.5v-3.2
			c-0.1-0.2-0.2-0.3-0.3-0.3c-0.1-0.1-0.2-0.1-0.3-0.2c-0.1,0-0.2,0-0.3,0h-0.2c-0.2,0-0.3,0.1-0.4,0.2
			C342,558.1,342,558.2,342,558.5z M336.5,558.1c0.2,0.2,0.2,0.4,0.2,0.7s-0.1,0.5-0.3,0.8c-0.2,0.2-0.5,0.3-0.9,0.4l1,1.3
			c0.2,0.3,0.4,0.5,0.6,0.6c0.2,0.1,0.4,0.1,0.6,0.2v0.1h-1.2l-1.6-2.2c-0.1,0-0.2,0-0.3,0c0,0-0.1,0-0.1,0h-0.1v1.3
			c0,0.3,0,0.4,0.1,0.5c0.1,0.1,0.3,0.2,0.4,0.2h0.2v0.1h-2v-0.1h0.2c0.2,0,0.3-0.1,0.4-0.2c0-0.1,0.1-0.3,0.1-0.5v-3
			c0-0.3,0-0.5-0.1-0.6c-0.1-0.1-0.2-0.1-0.4-0.1h-0.2v-0.1h1.7c0.5,0,0.9,0,1.1,0.1C336.2,557.8,336.4,557.9,336.5,558.1z
			 M334.5,558v1.9c0,0,0.1,0,0.1,0h0.1c0.4,0,0.8-0.1,1-0.3c0.2-0.2,0.3-0.4,0.3-0.7c0-0.3-0.1-0.5-0.3-0.7
			c-0.2-0.2-0.4-0.3-0.7-0.3C334.8,557.9,334.7,557.9,334.5,558z"/>
	</g>
	<g>
		<path fill-rule="evenodd" clip-rule="evenodd" d="M414.1,558c-0.2,0-0.3-0.1-0.5-0.1h-0.7v3.5c0,0.3,0,0.5,0.1,0.5
			c0.1,0.1,0.2,0.2,0.4,0.2h0.2v0.1h-2v-0.1h0.2c0.2,0,0.3-0.1,0.4-0.2c0-0.1,0.1-0.3,0.1-0.5V558h-0.5c-0.2,0-0.4,0-0.5,0
			c-0.1,0-0.2,0.1-0.4,0.3c-0.1,0.1-0.1,0.3-0.1,0.5h-0.1l0.1-1h3.7l0.1,1h-0.1c0-0.2-0.1-0.3-0.1-0.4
			C414.3,558.2,414.2,558.1,414.1,558z M410,558.7h-0.2c0-0.2-0.1-0.4-0.1-0.5c-0.1-0.1-0.2-0.1-0.3-0.2c-0.1,0-0.2-0.1-0.5-0.1
			h-1.3v1.8h1c0.2,0,0.4,0,0.5-0.1s0.2-0.3,0.2-0.5h0.1v1.6h-0.1c0-0.2-0.1-0.3-0.1-0.4c0-0.1-0.1-0.1-0.2-0.2
			c-0.1,0-0.2-0.1-0.4-0.1h-1v1.5c0,0.2,0,0.3,0.1,0.3c0,0,0,0.1,0.1,0.1c0,0,0.1,0.1,0.3,0.1h0.8c0.3,0,0.5,0,0.6-0.1
			c0.1,0,0.2-0.1,0.3-0.2c0.1-0.2,0.3-0.4,0.4-0.6h0.2l-0.4,1.2h-3.6v-0.1h0.2c0.1,0,0.2,0,0.3-0.1c0,0,0.1,0,0.1-0.1
			c0-0.1,0.1-0.2,0.1-0.5v-3c0-0.3,0-0.4-0.1-0.5c-0.1-0.1-0.2-0.1-0.4-0.1h-0.2v-0.1h3.6L410,558.7z M403.3,558.5
			c0,0.1,0,0.2,0.1,0.3c0.2,0.2,0.5,0.4,1,0.7c0.4,0.2,0.7,0.4,0.9,0.5c0.2,0.1,0.3,0.3,0.3,0.5c0.1,0.2,0.1,0.3,0.1,0.5
			c0,0.3-0.1,0.6-0.4,0.9c-0.3,0.3-0.6,0.4-1,0.4c-0.1,0-0.2,0-0.3-0.1c-0.1,0-0.2,0-0.5-0.1c-0.2-0.1-0.3-0.1-0.4-0.1
			c0,0-0.1,0-0.1,0.1c0,0-0.1,0.1-0.1,0.2h-0.1v-1.6h0.1c0.1,0.3,0.2,0.5,0.3,0.7c0.1,0.2,0.2,0.3,0.4,0.4c0.2,0.1,0.5,0.2,0.7,0.2
			c0.3,0,0.5-0.1,0.7-0.2c0.2-0.1,0.2-0.3,0.2-0.5c0-0.1,0-0.2-0.1-0.4c0-0.1-0.1-0.2-0.3-0.3c-0.1-0.1-0.3-0.2-0.7-0.5
			c-0.4-0.2-0.7-0.4-0.9-0.5c-0.2-0.1-0.3-0.3-0.3-0.4s-0.1-0.3-0.1-0.5c0-0.4,0.1-0.6,0.3-0.9c0.3-0.2,0.6-0.4,1-0.4
			c0.2,0,0.5,0.1,0.8,0.2c0.1,0,0.2,0.1,0.3,0.1c0,0,0.1,0,0.1-0.1c0,0,0.1-0.1,0.1-0.2h0.1v1.6h-0.1c0-0.3-0.1-0.5-0.2-0.7
			c-0.1-0.2-0.3-0.3-0.5-0.5c-0.2-0.1-0.4-0.2-0.6-0.2c-0.2,0-0.4,0.1-0.6,0.2C403.4,558.2,403.3,558.4,403.3,558.5z"/>
	</g>
	<g>
		<path fill-rule="evenodd" clip-rule="evenodd" d="M460.8,557.7h1.6v0.1h-0.2c-0.2,0-0.3,0.1-0.4,0.2c0,0-0.1,0.2-0.1,0.5v1.9
			c0,0.5,0,0.8-0.1,1.1c-0.1,0.2-0.3,0.4-0.6,0.6c-0.3,0.2-0.6,0.3-1.1,0.3c-0.5,0-0.9-0.1-1.1-0.3c-0.3-0.2-0.5-0.4-0.6-0.7
			c-0.1-0.2-0.1-0.6-0.1-1.1v-1.8c0-0.3,0-0.5-0.1-0.6c-0.1-0.1-0.2-0.1-0.3-0.1h-0.2v-0.1h2v0.1h-0.2c-0.2,0-0.3,0.1-0.4,0.2
			c-0.1,0.1-0.1,0.3-0.1,0.5v2c0,0.2,0,0.4,0.1,0.6s0.1,0.4,0.2,0.5c0.1,0.2,0.3,0.3,0.4,0.4c0.2,0.1,0.4,0.1,0.6,0.1
			c0.3,0,0.6-0.1,0.8-0.2c0.2-0.1,0.4-0.3,0.5-0.5c0.1-0.2,0.2-0.6,0.2-1v-1.9c0-0.3,0-0.5-0.1-0.6c-0.1-0.1-0.2-0.1-0.4-0.1h-0.2
			V557.7z M457.1,561.1c0,0.3-0.1,0.6-0.4,0.9c-0.3,0.3-0.6,0.4-1,0.4c-0.1,0-0.2,0-0.3-0.1c-0.1,0-0.2,0-0.5-0.1
			c-0.2-0.1-0.3-0.1-0.4-0.1c0,0-0.1,0-0.1,0.1s-0.1,0.1-0.1,0.2h-0.1v-1.6h0.1c0.1,0.3,0.2,0.5,0.3,0.7c0.1,0.2,0.2,0.3,0.4,0.4
			c0.2,0.1,0.5,0.2,0.7,0.2c0.3,0,0.5-0.1,0.7-0.2c0.2-0.1,0.2-0.3,0.2-0.5c0-0.1,0-0.2-0.1-0.4c0-0.1-0.1-0.2-0.3-0.3
			c-0.1-0.1-0.3-0.2-0.7-0.5c-0.4-0.2-0.7-0.4-0.9-0.5c-0.2-0.1-0.3-0.3-0.3-0.4c-0.1-0.2-0.1-0.3-0.1-0.5c0-0.4,0.1-0.6,0.3-0.9
			c0.3-0.2,0.6-0.4,1-0.4c0.2,0,0.5,0.1,0.8,0.2c0.1,0,0.2,0.1,0.3,0.1c0,0,0.1,0,0.1-0.1c0,0,0.1-0.1,0.1-0.2h0.1v1.6h-0.1
			c0-0.3-0.1-0.5-0.2-0.7c-0.1-0.2-0.3-0.3-0.5-0.5c-0.2-0.1-0.4-0.2-0.6-0.2c-0.2,0-0.4,0.1-0.6,0.2c-0.2,0.2-0.2,0.3-0.2,0.5
			c0,0.1,0,0.2,0.1,0.3c0.2,0.2,0.5,0.4,1,0.7c0.4,0.2,0.7,0.4,0.9,0.5c0.2,0.1,0.3,0.3,0.4,0.5C457,560.7,457.1,560.9,457.1,561.1z
			 M467.4,557.7h3.6l0.1,1h-0.2c0-0.2-0.1-0.4-0.1-0.5c-0.1-0.1-0.2-0.1-0.3-0.2c-0.1,0-0.2-0.1-0.5-0.1h-1.3v1.8h1
			c0.2,0,0.4,0,0.5-0.1c0.1-0.1,0.2-0.3,0.2-0.5h0.1v1.6h-0.1c0-0.2-0.1-0.3-0.1-0.4c0-0.1-0.1-0.1-0.2-0.2c-0.1,0-0.2-0.1-0.4-0.1
			h-1v1.5c0,0.2,0,0.3,0.1,0.3c0,0,0,0.1,0.1,0.1c0,0,0.1,0.1,0.3,0.1h0.8c0.3,0,0.5,0,0.6-0.1c0.1,0,0.2-0.1,0.4-0.2
			c0.1-0.2,0.3-0.4,0.4-0.6h0.2l-0.4,1.2h-3.6v-0.1h0.2c0.1,0,0.2,0,0.4-0.1c0,0,0.1,0,0.1-0.1c0-0.1,0.1-0.2,0.1-0.5v-3
			c0-0.3,0-0.4-0.1-0.5c-0.1-0.1-0.2-0.1-0.4-0.1h-0.2V557.7z M464,558v1.9c0,0,0.1,0,0.1,0h0.1c0.4,0,0.8-0.1,1-0.3
			s0.4-0.4,0.4-0.7c0-0.3-0.1-0.5-0.3-0.7c-0.2-0.2-0.4-0.3-0.7-0.3C464.4,557.9,464.2,557.9,464,558z M462.9,557.8h-0.2v-0.1h1.7
			c0.5,0,0.9,0,1.1,0.1c0.2,0.1,0.4,0.2,0.6,0.4c0.2,0.2,0.2,0.4,0.2,0.7s-0.1,0.5-0.3,0.8c-0.2,0.2-0.5,0.3-0.9,0.4l1,1.3
			c0.2,0.3,0.4,0.5,0.6,0.6c0.2,0.1,0.3,0.1,0.6,0.2v0.1h-1.2l-1.6-2.2c-0.1,0-0.2,0-0.3,0c0,0-0.1,0-0.1,0H464v1.3
			c0,0.3,0,0.4,0.1,0.5c0.1,0.1,0.3,0.2,0.4,0.2h0.2v0.1h-2v-0.1h0.2c0.2,0,0.3-0.1,0.4-0.2c0-0.1,0.1-0.3,0.1-0.5v-3
			c0-0.3,0-0.5-0.1-0.6C463.2,557.8,463.1,557.8,462.9,557.8z M447.9,558.7c0-0.2-0.1-0.4-0.1-0.5c-0.1-0.1-0.2-0.1-0.3-0.2
			c-0.1,0-0.2-0.1-0.5-0.1h-1.3v1.8h1c0.2,0,0.4,0,0.5-0.1c0.1-0.1,0.2-0.3,0.2-0.5h0.1v1.6h-0.1c0-0.2-0.1-0.3-0.1-0.4
			c0-0.1-0.1-0.1-0.2-0.2s-0.2-0.1-0.4-0.1h-1v1.5c0,0.2,0,0.3,0.1,0.3c0,0,0,0.1,0.1,0.1s0.1,0.1,0.3,0.1h0.8c0.3,0,0.5,0,0.6-0.1
			c0.1,0,0.2-0.1,0.3-0.2c0.1-0.2,0.3-0.4,0.4-0.6h0.2l-0.4,1.2h-3.6v-0.1h0.2c0.1,0,0.2,0,0.4-0.1c0,0,0.1,0,0.1-0.1
			c0-0.1,0.1-0.2,0.1-0.5v-3c0-0.3,0-0.4-0.1-0.5c-0.1-0.1-0.2-0.1-0.4-0.1h-0.2v-0.1h3.6l0.1,1H447.9z M448.9,562
			c0.1-0.1,0.3-0.4,0.4-0.7l1.6-3.8h0.1l1.6,3.9c0.1,0.3,0.2,0.5,0.3,0.6c0.1,0.1,0.2,0.2,0.4,0.2v0.1h-1.8v-0.1
			c0.2,0,0.3,0,0.4-0.1c0.1,0,0.1-0.1,0.1-0.2c0-0.1,0-0.3-0.1-0.5l-0.3-0.7h-1.8l-0.3,0.8c-0.1,0.2-0.1,0.3-0.1,0.4s0,0.1,0.1,0.2
			c0,0,0.2,0.1,0.4,0.1v0.1h-1.5v-0.1C448.8,562.1,448.9,562.1,448.9,562z M450.8,558.6l-0.8,1.9h1.6L450.8,558.6z M438.7,558
			c0-0.1-0.1-0.1-0.2-0.2s-0.2-0.1-0.4-0.1v-0.1h1.3l1.7,3.6l1.7-3.6h1.3v0.1h-0.2c-0.2,0-0.3,0.1-0.4,0.2c0,0.1-0.1,0.2-0.1,0.5v3
			c0,0.3,0,0.5,0.1,0.5c0.1,0.1,0.2,0.2,0.3,0.2h0.2v0.1h-2v-0.1h0.2c0.2,0,0.3-0.1,0.4-0.2c0.1-0.1,0.1-0.3,0.1-0.5v-3.1l-1.8,3.9
			h-0.1l-1.8-3.9v3.1c0,0.3,0,0.5,0.1,0.5c0.1,0.1,0.2,0.2,0.4,0.2h0.2v0.1h-1.6v-0.1h0.2c0.2,0,0.3-0.1,0.4-0.2
			c0-0.1,0.1-0.3,0.1-0.5v-3C438.8,558.2,438.8,558.1,438.7,558z"/>
	</g>
	<g>
		<path fill-rule="evenodd" clip-rule="evenodd" d="M491.4,534.9c-0.2,0-0.4,0-0.5,0c-0.1,0-0.2,0.1-0.4,0.3
			c-0.1,0.1-0.1,0.3-0.1,0.5h-0.1l0.1-1h3.7l0.1,1h-0.1c0-0.2-0.1-0.3-0.1-0.4c0-0.1-0.1-0.2-0.2-0.3c-0.2,0-0.3-0.1-0.5-0.1h-0.7
			v3.5c0,0.3,0,0.5,0.1,0.5c0.1,0.1,0.2,0.2,0.4,0.2h0.2v0.1h-2v-0.1h0.2c0.2,0,0.3-0.1,0.4-0.2c0-0.1,0.1-0.3,0.1-0.5v-3.5H491.4z
			 M489.9,542h3.6l0.1,1h-0.2c0-0.2-0.1-0.4-0.1-0.5c-0.1-0.1-0.2-0.1-0.3-0.2c-0.1,0-0.2-0.1-0.5-0.1h-1.3v1.8h1.1
			c0.2,0,0.4,0,0.5-0.1s0.2-0.3,0.2-0.5h0.1v1.6H493c0-0.2-0.1-0.3-0.1-0.4s-0.1-0.1-0.2-0.2c-0.1,0-0.2-0.1-0.4-0.1h-1.1v1.5
			c0,0.2,0,0.3,0.1,0.4c0,0,0,0.1,0.1,0.1c0,0,0.1,0.1,0.3,0.1h0.8c0.3,0,0.5,0,0.6-0.1s0.2-0.1,0.4-0.2c0.1-0.2,0.3-0.4,0.4-0.6
			h0.2l-0.4,1.2h-3.6v-0.1h0.2c0.1,0,0.2,0,0.3-0.1c0,0,0.1,0,0.1-0.1c0-0.1,0.1-0.2,0.1-0.5v-3c0-0.3,0-0.4-0.1-0.5
			c-0.1-0.1-0.2-0.1-0.4-0.1h-0.2V542z M489.1,541.9v1.6h-0.1c0-0.3-0.1-0.5-0.2-0.7c-0.1-0.2-0.3-0.3-0.5-0.5
			c-0.2-0.1-0.4-0.2-0.6-0.2c-0.2,0-0.4,0.1-0.6,0.2s-0.2,0.3-0.2,0.5c0,0.1,0,0.2,0.1,0.3c0.2,0.2,0.5,0.4,1,0.7
			c0.4,0.2,0.7,0.4,0.9,0.5c0.2,0.1,0.3,0.3,0.3,0.5c0.1,0.2,0.1,0.3,0.1,0.5c0,0.3-0.1,0.6-0.4,0.9c-0.3,0.3-0.6,0.4-1,0.4
			c-0.1,0-0.2,0-0.4-0.1c-0.1,0-0.2,0-0.5-0.1c-0.2-0.1-0.3-0.1-0.4-0.1c0,0-0.1,0-0.1,0.1c0,0-0.1,0.1-0.1,0.2h-0.1v-1.6h0.1
			c0.1,0.3,0.2,0.5,0.3,0.7c0.1,0.2,0.2,0.3,0.4,0.4c0.2,0.1,0.5,0.2,0.7,0.2c0.3,0,0.5-0.1,0.7-0.2c0.2-0.1,0.2-0.3,0.2-0.5
			c0-0.1,0-0.2-0.1-0.3c0-0.1-0.1-0.2-0.3-0.3c-0.1-0.1-0.3-0.2-0.7-0.5c-0.4-0.2-0.7-0.4-0.9-0.5c-0.2-0.1-0.3-0.3-0.4-0.4
			s-0.1-0.3-0.1-0.5c0-0.4,0.1-0.6,0.3-0.9c0.3-0.2,0.6-0.4,1-0.4c0.2,0,0.5,0.1,0.8,0.2c0.1,0,0.2,0.1,0.3,0.1c0,0,0.1,0,0.1-0.1
			c0,0,0.1-0.1,0.1-0.2H489.1z M498.2,535.6H498c0-0.2-0.1-0.4-0.1-0.5c-0.1-0.1-0.2-0.1-0.3-0.2c-0.1,0-0.2-0.1-0.5-0.1h-1.3v1.8h1
			c0.2,0,0.4,0,0.5-0.1c0.1-0.1,0.2-0.3,0.2-0.5h0.1v1.6h-0.1c0-0.2-0.1-0.3-0.1-0.4c0-0.1-0.1-0.1-0.2-0.2c-0.1,0-0.2-0.1-0.4-0.1
			h-1v1.5c0,0.2,0,0.3,0.1,0.4c0,0,0,0.1,0.1,0.1c0,0,0.1,0.1,0.3,0.1h0.8c0.3,0,0.5,0,0.6-0.1c0.1,0,0.2-0.1,0.4-0.2
			c0.1-0.2,0.3-0.4,0.4-0.6h0.2l-0.4,1.2h-3.6v-0.1h0.2c0.1,0,0.2,0,0.4-0.1c0,0,0.1,0,0.1-0.1c0-0.1,0.1-0.2,0.1-0.5v-3
			c0-0.3,0-0.4-0.1-0.5c-0.1-0.1-0.2-0.1-0.4-0.1h-0.2v-0.1h3.6L498.2,535.6z M500,534.6l1.7,3.6l1.7-3.6h1.3v0.1h-0.2
			c-0.2,0-0.3,0.1-0.4,0.2c0,0.1-0.1,0.2-0.1,0.5v3c0,0.3,0,0.5,0.1,0.5c0.1,0.1,0.2,0.2,0.4,0.2h0.2v0.1h-2v-0.1h0.2
			c0.2,0,0.3-0.1,0.4-0.2c0.1-0.1,0.1-0.3,0.1-0.5v-3.1l-1.8,3.9h-0.1l-1.8-3.9v3.1c0,0.3,0,0.5,0.1,0.5c0.1,0.1,0.2,0.2,0.4,0.2
			h0.2v0.1h-1.6v-0.1h0.2c0.2,0,0.3-0.1,0.4-0.2c0-0.1,0.1-0.3,0.1-0.5v-3c0-0.2,0-0.3-0.1-0.4c0-0.1-0.1-0.1-0.2-0.2
			c-0.1,0-0.2-0.1-0.4-0.1v-0.1H500z M497.3,542h1.6v0.1h-0.2c-0.2,0-0.3,0.1-0.4,0.2c0,0.1-0.1,0.2-0.1,0.5v3.9h-0.1l-3.1-3.7v2.9
			c0,0.3,0,0.5,0.1,0.5c0.1,0.1,0.2,0.2,0.4,0.2h0.1v0.1h-1.6v-0.1h0.2c0.2,0,0.3-0.1,0.4-0.2c0-0.1,0.1-0.3,0.1-0.5v-3.2
			c-0.1-0.2-0.2-0.3-0.3-0.3c-0.1-0.1-0.2-0.1-0.3-0.2c-0.1,0-0.2,0-0.3,0V542h1.3l2.9,3.4v-2.7c0-0.3,0-0.4-0.1-0.5
			c-0.1-0.1-0.2-0.1-0.4-0.1h-0.2V542z M502.3,541.9v1.6h-0.1c0-0.3-0.1-0.5-0.2-0.7c-0.1-0.2-0.3-0.3-0.5-0.5
			c-0.2-0.1-0.4-0.2-0.6-0.2c-0.2,0-0.4,0.1-0.6,0.2c-0.2,0.2-0.2,0.3-0.2,0.5c0,0.1,0,0.2,0.1,0.3c0.2,0.2,0.5,0.4,1,0.7
			c0.4,0.2,0.7,0.4,0.9,0.5c0.2,0.1,0.3,0.3,0.4,0.5c0.1,0.2,0.1,0.3,0.1,0.5c0,0.3-0.1,0.6-0.4,0.9c-0.3,0.3-0.6,0.4-1,0.4
			c-0.1,0-0.2,0-0.4-0.1c-0.1,0-0.2,0-0.5-0.1c-0.2-0.1-0.3-0.1-0.4-0.1c0,0-0.1,0-0.1,0.1c0,0-0.1,0.1-0.1,0.2h-0.1v-1.6h0.1
			c0.1,0.3,0.2,0.5,0.3,0.7c0.1,0.2,0.2,0.3,0.4,0.4c0.2,0.1,0.5,0.2,0.7,0.2c0.3,0,0.5-0.1,0.7-0.2c0.2-0.1,0.2-0.3,0.2-0.5
			c0-0.1,0-0.2-0.1-0.3c0-0.1-0.1-0.2-0.3-0.3c-0.1-0.1-0.3-0.2-0.7-0.5c-0.4-0.2-0.7-0.4-0.9-0.5c-0.2-0.1-0.3-0.3-0.4-0.4
			c-0.1-0.2-0.1-0.3-0.1-0.5c0-0.4,0.1-0.6,0.3-0.9c0.3-0.2,0.6-0.4,1-0.4c0.2,0,0.5,0.1,0.8,0.2c0.1,0,0.2,0.1,0.3,0.1
			c0,0,0.1,0,0.1-0.1c0,0,0.1-0.1,0.1-0.2H502.3z M503.2,544.3c0-0.7,0.3-1.3,0.8-1.8c0.4-0.4,1-0.6,1.6-0.6c0.6,0,1.1,0.2,1.6,0.7
			c0.4,0.4,0.6,1,0.6,1.7c0,0.7-0.2,1.3-0.6,1.8c-0.5,0.5-1,0.7-1.6,0.7c-0.6,0-1.2-0.2-1.6-0.7C503.4,545.6,503.2,545,503.2,544.3z
			 M508.1,536.7c-0.2,0.2-0.6,0.4-1.1,0.4c-0.1,0-0.2,0-0.3,0c-0.2,0-0.3,0-0.4-0.1v1.3c0,0.3,0,0.4,0.1,0.5
			c0.1,0.1,0.2,0.2,0.4,0.2h0.2v0.1h-2v-0.1h0.2c0.2,0,0.3-0.1,0.4-0.2c0-0.1,0.1-0.3,0.1-0.5v-3c0-0.3,0-0.5-0.1-0.6
			c-0.1-0.1-0.3-0.1-0.4-0.1H505v-0.1h1.7c0.4,0,0.8,0,1,0.1c0.2,0.1,0.4,0.2,0.6,0.4c0.2,0.2,0.3,0.4,0.3,0.8
			C508.5,536.2,508.4,536.5,508.1,536.7z M507.7,535.9c0-0.2,0-0.4-0.1-0.6c-0.1-0.2-0.2-0.3-0.3-0.3c-0.2-0.1-0.3-0.2-0.5-0.2
			c-0.1,0-0.3,0-0.4,0.1v1.9c0.1,0,0.2,0.1,0.3,0.1c0.1,0,0.2,0.1,0.2,0.1c0.2,0,0.4-0.1,0.6-0.3
			C507.6,536.4,507.7,536.2,507.7,535.9z M508.2,542h1.7c0.5,0,0.9,0,1.1,0.1c0.2,0.1,0.4,0.2,0.6,0.4c0.2,0.2,0.2,0.4,0.2,0.7
			c0,0.3-0.1,0.5-0.3,0.8c-0.2,0.2-0.5,0.3-0.9,0.4l1,1.3c0.2,0.3,0.4,0.5,0.6,0.6c0.2,0.1,0.3,0.1,0.6,0.2v0.1h-1.2l-1.6-2.2
			c-0.1,0-0.2,0-0.3,0c0,0-0.1,0-0.1,0h-0.1v1.3c0,0.3,0,0.4,0.1,0.5c0.1,0.1,0.3,0.2,0.4,0.2h0.2v0.1h-2v-0.1h0.2
			c0.2,0,0.3-0.1,0.4-0.2c0-0.1,0.1-0.3,0.1-0.5v-3c0-0.3,0-0.5-0.1-0.6c-0.1-0.1-0.2-0.1-0.4-0.1h-0.2V542z M509.6,544.3
			L509.6,544.3c0.5,0,0.8-0.1,1-0.3c0.2-0.2,0.4-0.4,0.4-0.7c0-0.3-0.1-0.5-0.3-0.7c-0.2-0.2-0.4-0.3-0.7-0.3c-0.2,0-0.3,0-0.5,0.1
			v1.9C509.6,544.3,509.6,544.3,509.6,544.3z M504.5,542.6c-0.3,0.4-0.5,1-0.5,1.7c0,0.7,0.2,1.3,0.5,1.8c0.2,0.3,0.6,0.5,1,0.5
			s0.8-0.2,1-0.5c0.3-0.3,0.5-0.9,0.5-1.6c0-0.8-0.2-1.4-0.5-1.8c-0.3-0.3-0.6-0.5-1-0.5S504.7,542.3,504.5,542.6z"/>
	</g>
	<g>
		<g>
			
				<linearGradient id="SVGID_3_" gradientUnits="userSpaceOnUse" x1="-151.7813" y1="-46.9834" x2="151.9536" y2="34.4843" gradientTransform="matrix(1.1666 0 0 1.1666 350.4006 461.2502)">
				<stop  offset="0" style="stop-color:#1E1D1D"/>
				<stop  offset="0.2431" style="stop-color:#252222"/>
				<stop  offset="0.6549" style="stop-color:#434242"/>
				<stop  offset="0.8941" style="stop-color:#191919"/>
				<stop  offset="1" style="stop-color:#000000"/>
			</linearGradient>
			<path fill-rule="evenodd" clip-rule="evenodd" fill="url(#SVGID_3_)" d="M539.5,457.4c-0.2,0.4-0.5,0.6-1.1,0.6H260h-98.1
				c-0.5,0-0.9-0.2-1-0.6c-0.1-0.2-0.1-0.4-0.1-0.6l0.8-6.2c0-0.8,0.4-1.2,1.2-1.2H260h277.8c0.8,0,1.2,0.4,1.2,1.2l0.6,6.2
				C539.6,457.1,539.5,457.3,539.5,457.4z"/>
			<path fill-rule="evenodd" clip-rule="evenodd" d="M539.5,457.4l0.1,1c0,0.8-0.4,1.2-1.2,1.2H260h-98.1c-0.8,0-1.2-0.4-1.2-1.2
				l0.1-0.9c0.2,0.4,0.5,0.6,1,0.6H260h278.4C539,458,539.3,457.8,539.5,457.4z"/>
		</g>
	</g>
	<g>
		<path fill-rule="evenodd" clip-rule="evenodd" fill="#E0E0E0" fill-opacity="0.498" d="M536.2,457.6c1.2,0,2.1-0.1,2.6-0.4h-0.1
			c0.4-0.4,0.6-0.8,0.6-1.2c0-0.1,0-0.2,0-0.2c0-0.1,0.1-0.1,0.1,0c0-0.1,0.1-0.1,0.1,0c0,0.1,0.1,0.2,0.1,0.2
			c0,0.7-0.3,1.3-0.8,1.8c-0.5,0.3-1.4,0.5-2.6,0.4l-373.3-0.1c-1.2,0.2-1.9-0.3-2.2-1.5c0-0.1,0-0.1,0-0.1c0-0.1,0-0.2,0.1-0.2
			c0-0.1,0.1-0.1,0.1,0l0.1,0.1c0.2,0.8,0.9,1.1,1.9,1C286.9,456.7,411.4,456.7,536.2,457.6z"/>
	</g>
	<g>
		<g>
			
				<radialGradient id="SVGID_4_" cx="21.3501" cy="56.6499" r="20.275" fx="21.4296" fy="56.6499" gradientTransform="matrix(1.1666 0 0 1.5104 350.4006 441.7739)" gradientUnits="userSpaceOnUse">
				<stop  offset="0" style="stop-color:#000000"/>
				<stop  offset="0.8078" style="stop-color:#000000;stop-opacity:0.498"/>
				<stop  offset="1" style="stop-color:#000000;stop-opacity:0"/>
			</radialGradient>
			<path fill-rule="evenodd" clip-rule="evenodd" fill="url(#SVGID_4_)" d="M375.7,501.1c8.2,0,15.3,3.3,21.1,9.8
				c5.8,6.5,8.8,14.4,8.8,23.7s-2.9,17.1-8.8,23.6c-5.8,6.6-12.8,9.9-21.1,9.9s-15.3-3.3-21.1-9.9c-5.8-6.5-8.7-14.4-8.7-23.6
				s2.9-17.1,8.7-23.7C360.4,504.4,367.4,501.1,375.7,501.1z"/>
		</g>
		<g>
			<g>
				
					<linearGradient id="SVGID_5_" gradientUnits="userSpaceOnUse" x1="3.7505" y1="45" x2="39.5498" y2="45" gradientTransform="matrix(1.1666 0 0 1.1666 350.4006 461.2502)">
					<stop  offset="0" style="stop-color:#000000"/>
					<stop  offset="0.2863" style="stop-color:#141414"/>
					<stop  offset="0.4902" style="stop-color:#645D5D"/>
					<stop  offset="0.6078" style="stop-color:#232323"/>
					<stop  offset="0.9216" style="stop-color:#2E2C2C"/>
					<stop  offset="1" style="stop-color:#000000"/>
				</linearGradient>
				<path fill-rule="evenodd" clip-rule="evenodd" fill="url(#SVGID_5_)" d="M396.2,526.2c0.1-0.8,0.1-1.7,0.1-2.5
					c0-5.7-2-10.6-6.1-14.6c-3.5-3.5-7.5-5.4-12.2-5.9c-0.8-0.1-1.6-0.1-2.4-0.1c-0.3,0-0.6,0-0.9,0c-5.3,0.2-9.9,2.2-13.8,6.1
					c-4,4-6,8.9-6,14.6c0,0.9,0,1.7,0.1,2.5c-0.2-1.3-0.3-2.6-0.3-4.1c0-5.8,2-10.7,6.1-14.8c3.9-3.9,8.6-5.9,14-6.1
					c0.2,0,0.5,0,0.8,0c0.8,0,1.5,0,2.3,0.1c4.8,0.5,8.9,2.5,12.5,6c4.1,4.1,6.1,9,6.1,14.8C396.5,523.6,396.4,524.9,396.2,526.2z"
					/>
				<path fill-rule="evenodd" clip-rule="evenodd" d="M396.2,526.2c-0.8,4-2.7,7.6-5.8,10.7c-4.1,4.1-9,6.1-14.8,6.1
					c-5.8,0-10.7-2-14.8-6.1c-3.1-3.1-5-6.6-5.8-10.7c-0.1-0.8-0.1-1.7-0.1-2.5c0-5.7,2-10.6,6-14.6c3.8-3.8,8.4-5.9,13.8-6.1
					c0.3,0,0.6,0,0.9,0c0.8,0,1.6,0,2.4,0.1c4.7,0.5,8.7,2.5,12.2,5.9c4,4,6.1,8.9,6.1,14.6C396.3,524.6,396.3,525.4,396.2,526.2z"
					/>
			</g>
		</g>
		<g>
			<g>
				<path fill-rule="evenodd" clip-rule="evenodd" d="M361.9,511.2C361.9,511.2,362,511.3,361.9,511.2l0.1,0.1
					c0.4,0.5,1,0.8,1.9,0.8c0.7,0,1.4-0.3,2-0.8h0.1c0.2-0.2,0.4-0.4,0.6-0.6c0,1.8,0.1,3.4,0.1,5.1l6.1-2.1v-8.2
					c0.1,0.6,0.4,1.1,0.8,1.5c0.4,0.3,0.8,0.6,1.2,0.7c0.2,0.1,0.5,0.1,0.8,0.1c0.7,0,1.4-0.3,1.9-0.8h0.1c0.5-0.5,0.8-1,0.9-1.6
					l-0.1,8.3l6.8,2.6v-4.8c0.2,0.2,0.3,0.4,0.5,0.5c0.7,0.6,1.4,0.9,2.2,0.9c0.8,0,1.4-0.3,1.8-0.8c0,0,0.1,0,0.1-0.1l-0.1,17.4
					l2.9,0.1l0.4,5.9l-35-1.3l0.6-5.6l3.4,0.1L361.9,511.2z"/>
				
					<linearGradient id="SVGID_6_" gradientUnits="userSpaceOnUse" x1="1.8252" y1="48.1504" x2="41.1752" y2="48.1504" gradientTransform="matrix(1.1666 0 0 1.1666 350.4006 461.2502)">
					<stop  offset="0" style="stop-color:#000000"/>
					<stop  offset="0.298" style="stop-color:#434040"/>
					<stop  offset="0.5725" style="stop-color:#646464"/>
					<stop  offset="0.7333" style="stop-color:#333333"/>
					<stop  offset="1" style="stop-color:#000000"/>
				</linearGradient>
				<path fill-rule="evenodd" clip-rule="evenodd" fill="url(#SVGID_6_)" d="M372.7,505.5v8.2l-6.1,2.1c0-1.6,0-3.3-0.1-5.1l0.1-3.4
					c1.8-1,3.8-1.7,6-2c0,0,0.1,0,0.1,0C372.7,505.4,372.7,505.4,372.7,505.5z M378.4,505.3c2,0.3,3.9,0.9,5.6,1.9
					c0.4,0.2,0.8,0.5,1.1,0.7v3.6v4.8l-6.8-2.6L378.4,505.3z M392.4,529.6l-2.9-0.1l0.1-17.4c1.6,2,2.7,4.2,3.2,6.6
					c0.2,0.8,0.3,1.6,0.4,2.5v8.4H392.4z M361.9,511.2l-0.1,17.4l-3.4-0.1h-0.6v-9.3C358.7,515.9,360.1,513.3,361.9,511.2z"/>
			</g>
		</g>
		<g>
			<g>
				<path fill-rule="evenodd" clip-rule="evenodd" fill="#1A1A1A" d="M384.1,543.1c0,0,0,0.1-0.1,0.1c-0.3,0.4-0.4,0.8-0.5,1.3
					c-0.1,0.7,0,1.4,0.5,1.9c0,0,0.1,0,0.1,0.1l-0.1,0.1c-1.8,1-3.6,1.6-5.7,1.9c0-0.8-0.3-1.4-0.8-2c-0.5-0.5-1.2-0.8-2-0.8
					c-0.1,0-0.1,0-0.2,0s-0.1,0-0.1,0c-0.7,0.1-1.2,0.3-1.7,0.8c-0.6,0.5-0.9,1.2-0.9,2v0.1c-2.2-0.3-4.2-1-6.1-2v-0.1
					c0.4-0.5,0.6-1.1,0.5-1.8c-0.1-0.5-0.3-0.9-0.5-1.3v-0.1c-0.1-0.1-0.1-0.1-0.2-0.2c-0.1-0.2-0.2-0.3-0.3-0.3c0,0,0-0.1-0.1-0.1
					H366c0,0,0-0.1-0.1-0.1c-0.2-0.2-0.4-0.3-0.6-0.4c-0.4-0.2-0.8-0.3-1.3-0.3c-0.8,0-1.4,0.3-1.9,0.9l-0.1,0.1
					c-1.2-1.4-2.2-2.8-2.9-4.4c-0.6-1.3-1-2.7-1.3-4.1v-0.1c0.7,0,1.3-0.3,1.8-0.8l0.1-0.1c0.5-0.5,0.8-1.1,0.8-1.9
					c0-0.8-0.3-1.4-0.8-2c0,0-0.1,0-0.1-0.1c-0.5-0.5-1.1-0.7-1.8-0.8v-0.9c0.9-3.3,2.3-6,4.1-8c0,0,0,0.1,0.1,0.1
					c0,0,0,0.1,0.1,0.1c0.4,0.6,1,0.9,1.9,0.9c0.7,0,1.4-0.3,2-0.8c0,0,0.1,0,0.1-0.1c0.3-0.2,0.5-0.4,0.6-0.6
					c0.3-0.4,0.4-0.8,0.5-1.3c0.1-0.6,0-1.2-0.2-1.6c-0.1-0.1-0.2-0.2-0.3-0.3v-0.1c1.8-1,3.8-1.7,6-2c0,0,0.1,0,0.1,0
					c0,0.6,0.3,1.2,0.8,1.6c0.4,0.4,0.8,0.6,1.2,0.8c0.2,0.1,0.5,0.1,0.8,0.1c0.7,0,1.4-0.3,1.9-0.8c0,0,0.1,0,0.1-0.1
					c0.5-0.4,0.8-1,0.9-1.6c2,0.3,3.8,1,5.6,1.9c0.4,0.2,0.8,0.4,1.1,0.6v0.1c-0.1,0.1-0.1,0.2-0.2,0.2c-0.5,0.5-0.6,1.2-0.5,2
					c0.1,0.5,0.3,1,0.6,1.4c0.2,0.2,0.3,0.4,0.5,0.5c0.7,0.5,1.4,0.8,2.2,0.8c0.8,0,1.4-0.3,1.8-0.8c0,0,0.1,0,0.1-0.1
					c1.6,2,2.7,4.2,3.2,6.6c0.2,0.8,0.3,1.7,0.4,2.5c0,0-0.1,0-0.1,0c-0.1,0-0.2,0-0.2,0c-0.7,0.1-1.3,0.4-1.8,0.8
					c-0.5,0.5-0.8,1.2-0.8,2c0,0.8,0.3,1.4,0.8,2c0.5,0.5,1,0.7,1.8,0.8v0.1c-0.3,1.1-0.6,2.1-1.1,3.2c-0.8,1.6-1.8,3.2-3.2,4.6
					v-0.1l-0.1-0.1c0,0-0.1-0.1-0.1-0.1c-0.5-0.5-1-0.7-1.8-0.8c-0.5,0-1,0.1-1.5,0.3c0,0-0.1,0-0.1,0.1c-0.2,0.1-0.4,0.2-0.5,0.3
					C384.4,542.8,384.2,542.9,384.1,543.1z"/>
				<path fill-rule="evenodd" clip-rule="evenodd" d="M366.6,546.4v-3.2c0.3,0.4,0.4,0.9,0.5,1.3C367.2,545.3,367,545.9,366.6,546.4
					z M384.1,546.5C384.1,546.4,384,546.4,384.1,546.5c-0.5-0.6-0.6-1.2-0.5-2c0-0.5,0.2-0.9,0.5-1.3c0,0,0.1-0.1,0.1-0.1V546.5
					L384.1,546.5z"/>
				
					<path fill-rule="evenodd" clip-rule="evenodd" fill="none" stroke="#000000" stroke-linecap="round" stroke-linejoin="round" stroke-miterlimit="3" d="
					M357.8,534.1c0.7,0,1.3-0.3,1.8-0.8l0.1-0.1c0.5-0.5,0.8-1.1,0.8-1.9c0-0.8-0.3-1.4-0.8-2c0,0-0.1,0-0.1-0.1
					c-0.5-0.5-1.1-0.7-1.8-0.8"/>
			</g>
		</g>
		<g>
			<path fill-rule="evenodd" clip-rule="evenodd" d="M402.3,513.9c-0.6-3.2-1.8-6.1-3.7-8.9c-1.2-1.8-2.6-3.4-4.2-5
				c-0.7-0.6-1.3-1.2-2-1.7c-5-4-10.9-6.1-17.7-6.1c-6.7,0-12.6,2-17.6,6.1c-0.7,0.5-1.3,1.1-2,1.7c-4.2,3.9-6.7,8.5-7.7,13.7
				c0,0.1,0,0.2-0.1,0.3c-0.1-0.3-0.1-0.6-0.1-0.9c1-5.6,3.7-10.5,8.2-14.8c0.1-0.1,0.2-0.2,0.2-0.3c5.9-5.6,13-8.4,21.3-8.4
				c8.3,0,15.4,2.8,21.3,8.4c0.1,0.1,0.2,0.2,0.3,0.3c4.4,4.3,7.1,9.2,8.1,14.8c0.1,0.6,0,1.1-0.4,1.6c-0.3,0.5-0.8,0.8-1.5,0.9
				c-0.6,0.1-1.2-0.1-1.7-0.4C402.7,515,402.4,514.5,402.3,513.9z"/>
		</g>
		<g>
			<g>
				
					<linearGradient id="SVGID_7_" gradientUnits="userSpaceOnUse" x1="30.0088" y1="63.5254" x2="26.0335" y2="57.1006" gradientTransform="matrix(1.1666 0 0 1.1666 350.4006 461.2502)">
					<stop  offset="0" style="stop-color:#FFFFFF"/>
					<stop  offset="1" style="stop-color:#937D76"/>
				</linearGradient>
				<path fill-rule="evenodd" clip-rule="evenodd" fill="url(#SVGID_7_)" d="M388.4,528.3l-13.3,3.3v-0.1v-0.1l9.2-9.3
					c0.2,0.2,0.4,0.3,0.6,0.5c0.9,0.8,1.6,1.6,2.1,2.5C387.6,526.1,388.1,527.1,388.4,528.3L388.4,528.3z"/>
				
					<linearGradient id="SVGID_8_" gradientUnits="userSpaceOnUse" x1="28.4287" y1="63.4443" x2="26.0277" y2="56.2697" gradientTransform="matrix(1.1666 0 0 1.1666 350.4006 461.2502)">
					<stop  offset="0" style="stop-color:#B1A3A3"/>
					<stop  offset="1" style="stop-color:#937D76"/>
				</linearGradient>
				<path fill-rule="evenodd" clip-rule="evenodd" fill="url(#SVGID_8_)" d="M387.5,537.2l-12.4-5.6v-0.1l13.3-3.3
					c0.3,1,0.5,2.1,0.5,3.3c0,1.5-0.3,2.9-0.8,4.3C387.9,536.3,387.7,536.7,387.5,537.2z"/>
				
					<linearGradient id="SVGID_9_" gradientUnits="userSpaceOnUse" x1="15.7563" y1="57.1973" x2="23.1327" y2="52.3744" gradientTransform="matrix(1.1666 0 0 1.1666 350.4006 461.2502)">
					<stop  offset="0" style="stop-color:#756355"/>
					<stop  offset="1" style="stop-color:#F1EDEC"/>
				</linearGradient>
				<path fill-rule="evenodd" clip-rule="evenodd" fill="url(#SVGID_9_)" d="M375,519.1l0.2,12.4l-0.1,0.1l-9-9.2
					c1.5-1.2,3.2-2.1,5-2.7c1.2-0.3,2.4-0.5,3.8-0.6v0.1H375z"/>
				
					<linearGradient id="SVGID_10_" gradientUnits="userSpaceOnUse" x1="20.0264" y1="53.853" x2="27.0791" y2="56.6462" gradientTransform="matrix(1.1666 0 0 1.1666 350.4006 461.2502)">
					<stop  offset="0" style="stop-color:#FFFFFF"/>
					<stop  offset="0.2157" style="stop-color:#EFECEB"/>
					<stop  offset="1" style="stop-color:#937D76"/>
				</linearGradient>
				<path fill-rule="evenodd" clip-rule="evenodd" fill="url(#SVGID_10_)" d="M375.1,531.4l-0.2-12.4l0.3-0.1c1.4,0,2.7,0.2,4,0.5
					c1.9,0.5,3.6,1.4,5.1,2.6L375.1,531.4z"/>
				
					<linearGradient id="SVGID_11_" gradientUnits="userSpaceOnUse" x1="15.3218" y1="61.2227" x2="15.6984" y2="55.7728" gradientTransform="matrix(1.1666 0 0 1.1666 350.4006 461.2502)">
					<stop  offset="0" style="stop-color:#A69A90"/>
					<stop  offset="1" style="stop-color:#786759"/>
				</linearGradient>
				<path fill-rule="evenodd" clip-rule="evenodd" fill="url(#SVGID_11_)" d="M375.1,531.5L375.1,531.5l-13.4-2
					c0.2-0.9,0.4-1.8,0.7-2.6c0.7-1.6,1.8-3,3.2-4.3c0.2-0.2,0.3-0.3,0.5-0.4L375.1,531.5L375.1,531.5z M375.1,531.5L375.1,531.5
					L375.1,531.5L375.1,531.5z"/>
				
					<linearGradient id="SVGID_12_" gradientUnits="userSpaceOnUse" x1="17.6279" y1="64.4927" x2="21.9544" y2="67.7657" gradientTransform="matrix(1.1666 0 0 1.1666 350.4006 461.2502)">
					<stop  offset="0" style="stop-color:#94867A"/>
					<stop  offset="1" style="stop-color:#FFFFFF"/>
				</linearGradient>
				<path fill-rule="evenodd" clip-rule="evenodd" fill="url(#SVGID_12_)" d="M363.3,537.8l11.7-6.3h0.1v0.1l0.2,12.5h-0.1
					c-1.5,0-2.9-0.2-4.2-0.6c-1.7-0.5-3.3-1.3-4.7-2.5c0,0-0.1,0-0.1-0.1c-0.2-0.2-0.4-0.4-0.6-0.6c-0.7-0.6-1.4-1.3-1.9-2
					C363.6,538.2,363.5,538,363.3,537.8z"/>
				
					<linearGradient id="SVGID_13_" gradientUnits="userSpaceOnUse" x1="20.5752" y1="59.752" x2="24.9017" y2="63.025" gradientTransform="matrix(1.1666 0 0 1.1666 350.4006 461.2502)">
					<stop  offset="0" style="stop-color:#68554F"/>
					<stop  offset="1" style="stop-color:#FFFFFF"/>
				</linearGradient>
				<polygon fill-rule="evenodd" clip-rule="evenodd" fill="url(#SVGID_13_)" points="375.1,531.5 375.1,531.5 375.1,531.5 				"/>
				
					<linearGradient id="SVGID_14_" gradientUnits="userSpaceOnUse" x1="25.959" y1="64" x2="22.232" y2="65.9713" gradientTransform="matrix(1.1666 0 0 1.1666 350.4006 461.2502)">
					<stop  offset="0" style="stop-color:#B1A3A3"/>
					<stop  offset="1" style="stop-color:#F1EDEC"/>
				</linearGradient>
				<path fill-rule="evenodd" clip-rule="evenodd" fill="url(#SVGID_14_)" d="M375.3,544.1l-0.2-12.5l12.4,5.6
					c-0.2,0.4-0.5,0.8-0.8,1.2c-0.5,0.7-1.1,1.4-1.9,2c-0.2,0.2-0.4,0.4-0.6,0.5c0,0-0.1,0.1-0.1,0.1c-1.5,1.2-3.1,2-4.8,2.5
					c-1.2,0.3-2.5,0.5-3.8,0.5C375.5,544.1,375.4,544.1,375.3,544.1z"/>
				
					<linearGradient id="SVGID_15_" gradientUnits="userSpaceOnUse" x1="15.5337" y1="63.2705" x2="15.1798" y2="57.8208" gradientTransform="matrix(1.1666 0 0 1.1666 350.4006 461.2502)">
					<stop  offset="0" style="stop-color:#94867A"/>
					<stop  offset="1" style="stop-color:#FFFDFC"/>
				</linearGradient>
				<path fill-rule="evenodd" clip-rule="evenodd" fill="url(#SVGID_15_)" d="M375.1,531.5l-11.7,6.3c-1.2-1.9-1.8-4-1.8-6.3
					c0-0.7,0.1-1.4,0.2-2L375.1,531.5z"/>
			</g>
		</g>
		<g>
			
				<radialGradient id="SVGID_16_" cx="20.3999" cy="45.7998" r="30.225" gradientTransform="matrix(1.1666 0 0 0.5553 350.4006 489.2475)" gradientUnits="userSpaceOnUse">
				<stop  offset="0" style="stop-color:#FFFFFF;stop-opacity:0.2588"/>
				<stop  offset="1" style="stop-color:#FFFFFF;stop-opacity:0"/>
			</radialGradient>
			<path fill-rule="evenodd" clip-rule="evenodd" fill="url(#SVGID_16_)" d="M357.8,527.7c0.2-1.1,0.6-2.2,1.1-3.2
				C358.4,525.5,358,526.6,357.8,527.7L357.8,527.7z M389.7,520.5c0.5,0.6,0.9,1.3,1.3,2C390.6,521.8,390.1,521.1,389.7,520.5
				L389.7,520.5z M384.6,515.9c-1.9-1.1-4-1.9-6.2-2.2l-0.2-0.1v-0.4c0.2,0,0.4,0,0.8,0.1c1.2,0.2,2.5,0.7,4,1.6L384.6,515.9z
				 M366.6,515.7c1.8-1,3.2-1.8,4.3-2.1c1.1-0.4,1.6-0.5,1.7-0.4c0.1,0.1,0.1,0.2,0.2,0.3v0.2c-0.1,0-0.2,0-0.3,0
				C370.3,514,368.4,514.7,366.6,515.7L366.6,515.7z"/>
		</g>
		<g>
			
				<linearGradient id="SVGID_17_" gradientUnits="userSpaceOnUse" x1="50.5562" y1="32.3301" x2="61.1482" y2="32.3301" gradientTransform="matrix(0.8922 0.7517 -0.7731 0.8742 350.4001 461.2505)">
				<stop  offset="0" style="stop-color:#FFFFFF;stop-opacity:7.843138e-003"/>
				<stop  offset="0.4039" style="stop-color:#FFFFFF"/>
				<stop  offset="0.5647" style="stop-color:#FFFFFF"/>
				<stop  offset="0.898" style="stop-color:#FFFFFF"/>
				<stop  offset="1" style="stop-color:#FFFFFF;stop-opacity:0"/>
			</linearGradient>
			<path fill-rule="evenodd" clip-rule="evenodd" fill="url(#SVGID_17_)" d="M388.1,533.1c0.4-3.2-0.5-6.1-2.8-8.7
				c-2.2-2.6-5.1-4.1-8.6-4.5h-0.1c-3.5-0.4-6.7,0.4-9.5,2.4c-2.8,2-4.4,4.6-4.8,7.8c-0.4,3.2,0.5,6.1,2.8,8.7
				c2.2,2.6,5.1,4.1,8.6,4.5c3.5,0.4,6.7-0.4,9.5-2.4C386.1,538.8,387.7,536.2,388.1,533.1z M388.7,533.1c-0.4,3.4-2.1,6.1-5.1,8.2
				c-2.9,2.1-6.2,2.9-9.9,2.5c-3.7-0.4-6.7-2-9-4.7c-2.3-2.8-3.3-5.8-2.9-9.2c0.4-3.4,2.1-6.1,5-8.2c2.9-2.1,6.2-2.9,9.9-2.4
				c3.7,0.4,6.7,2,9,4.7C388.1,526.7,389.1,529.7,388.7,533.1z"/>
		</g>
		<g>
			
				<linearGradient id="SVGID_18_" gradientUnits="userSpaceOnUse" x1="3.9375" y1="44.3696" x2="39.3625" y2="44.3696" gradientTransform="matrix(1.1666 0 0 1.1666 350.4006 461.2502)">
				<stop  offset="0" style="stop-color:#FFFFFF;stop-opacity:0"/>
				<stop  offset="0.5098" style="stop-color:#FFFFFF;stop-opacity:0.6784"/>
				<stop  offset="1" style="stop-color:#FFFFFF;stop-opacity:0"/>
			</linearGradient>
			<path fill-rule="evenodd" clip-rule="evenodd" fill="url(#SVGID_18_)" d="M360.7,509.3c3.2-3.3,6.2-5.3,8.9-6
				c2.1-0.6,4.4-0.9,6.8-0.8c2.6,0.1,5,0.6,7.1,1.6c2.2,0.9,4.7,2.8,7.5,5.7c3.6,3.5,5.4,8.1,5.4,13.8v0.1h-0.1v-0.1
				c-0.1-5.6-2.1-10.4-6.1-14.3c-3-3-6.5-4.9-10.5-5.7c-0.5-0.1-1.1-0.2-1.6-0.2c-0.8-0.1-1.6-0.1-2.4-0.1c-0.3,0-0.6,0-0.9,0
				c-1.1,0-2.1,0.2-3.2,0.4c-4,0.7-7.5,2.6-10.6,5.7c-4,4-6,8.8-6,14.3l-0.1,0.1H355v-0.1C355,517.9,356.9,513.1,360.7,509.3z"/>
		</g>
		<g>
			
				<radialGradient id="SVGID_19_" cx="21.3999" cy="35.8999" r="5.7877" gradientTransform="matrix(1.1666 1.224010e-002 -2.141440e-003 0.2041 350.4789 495.5431)" gradientUnits="userSpaceOnUse">
				<stop  offset="0" style="stop-color:#FFFFFF"/>
				<stop  offset="0.1765" style="stop-color:#FFFFFF"/>
				<stop  offset="0.3059" style="stop-color:#FFFFFF;stop-opacity:0.4235"/>
				<stop  offset="0.4902" style="stop-color:#FFFFFF;stop-opacity:0.2314"/>
				<stop  offset="0.651" style="stop-color:#FFFFFF;stop-opacity:8.235294e-002"/>
				<stop  offset="1" style="stop-color:#FFFFFF;stop-opacity:0"/>
			</radialGradient>
			<path fill-rule="evenodd" clip-rule="evenodd" fill="url(#SVGID_19_)" d="M368.8,503.1c0-0.3,0.6-0.6,1.9-0.8
				c1.3-0.2,2.9-0.4,4.7-0.4c1.8,0,3.3,0.2,4.7,0.4c1.4,0.2,2,0.5,2,0.8c0,0.3-0.7,0.6-2,0.8c-1.3,0.2-2.9,0.3-4.7,0.3
				c-1.8,0-3.3-0.1-4.7-0.4C369.4,503.7,368.8,503.4,368.8,503.1z"/>
		</g>
		<g>
			
				<radialGradient id="SVGID_20_" cx="25.3501" cy="45.3999" r="3.1267" gradientTransform="matrix(1.1234 0.3146 -0.1019 0.364 356.1235 489.7157)" gradientUnits="userSpaceOnUse">
				<stop  offset="0" style="stop-color:#FFFFFF"/>
				<stop  offset="0.1765" style="stop-color:#FFFFFF"/>
				<stop  offset="0.3059" style="stop-color:#FFFFFF;stop-opacity:0.4235"/>
				<stop  offset="0.4902" style="stop-color:#FFFFFF;stop-opacity:0.2314"/>
				<stop  offset="0.651" style="stop-color:#FFFFFF;stop-opacity:8.235294e-002"/>
				<stop  offset="1" style="stop-color:#FFFFFF;stop-opacity:0"/>
			</radialGradient>
			<path fill-rule="evenodd" clip-rule="evenodd" fill="url(#SVGID_20_)" d="M382.2,515.7c-0.8,0-1.6-0.1-2.6-0.4
				c-0.9-0.3-1.7-0.6-2.3-1c-0.6-0.4-0.9-0.7-0.8-1c0.1-0.3,0.5-0.5,1.2-0.5c0.8,0,1.6,0.1,2.6,0.3c0.9,0.3,1.7,0.6,2.3,1
				c0.7,0.4,0.9,0.7,0.8,1C383.4,515.5,383,515.7,382.2,515.7z"/>
		</g>
	</g>
	<g>
		<g>
			
				<linearGradient id="SVGID_21_" gradientUnits="userSpaceOnUse" x1="-55.3877" y1="45.7251" x2="-51.3127" y2="45.7251" gradientTransform="matrix(1.1666 0 0 1.1666 350.4006 461.2502)">
				<stop  offset="0" style="stop-color:#7B838E"/>
				<stop  offset="1" style="stop-color:#535860"/>
				<stop  offset="1" style="stop-color:#1A1A1A"/>
				<stop  offset="1" style="stop-color:#7B838C"/>
			</linearGradient>
			<polygon fill-rule="evenodd" clip-rule="evenodd" fill="url(#SVGID_21_)" points="278.5,499.5 283.3,497.2 283.3,532 
				278.5,529.4 278.5,528.9 278.5,514.2 278.5,512.3 278.5,509.8 278.5,503.8 278.5,503.7 278.5,500.6 278.5,500 			"/>
			<polygon fill-rule="evenodd" clip-rule="evenodd" fill="#0E1014" points="186.8,499.6 186.8,499.5 188,499.5 277.3,499.5 
				278.5,499.5 278.5,500 278.5,500.6 278.5,503.7 278.5,503.8 278.5,509.8 278.5,512.3 278.5,514.2 278.5,528.9 278.5,529.4 
				277.3,529.4 277.3,528.9 277.3,500 188,500 			"/>
			<polygon fill-rule="evenodd" clip-rule="evenodd" fill="#1E212A" points="186.8,499.5 181.7,497.2 283.3,497.2 278.5,499.5 
				277.3,499.5 188,499.5 			"/>
			<polygon fill-rule="evenodd" clip-rule="evenodd" fill="#7E8892" points="287.3,495.1 177.3,495.1 178.1,493.3 287.6,493.3 			
				"/>
			<path fill-rule="evenodd" clip-rule="evenodd" fill="#2B303C" d="M181.6,531.9l5.2-2.5h1.2h89.2h1.2l4.8,2.6H181.6V531.9z
				 M287.3,534v-38.9l0.3-1.9v38.2L287.3,534z"/>
			<path fill-rule="evenodd" clip-rule="evenodd" fill="#5B656E" d="M181.6,531.9v0.1h101.6v-34.8H181.7h-0.1V531.9z M287.3,534
				H177.3v-38.8v-0.1h0.1h110V534z M285.9,532.1V532l0-0.3L285.9,532.1z"/>
			
				<linearGradient id="SVGID_22_" gradientUnits="userSpaceOnUse" x1="-56.2998" y1="60.5635" x2="-44.5998" y2="60.5635" gradientTransform="matrix(1.1666 0 0 1.1666 350.4006 461.2502)">
				<stop  offset="0" style="stop-color:#7B838E"/>
				<stop  offset="1" style="stop-color:#535860"/>
				<stop  offset="1" style="stop-color:#1A1A1A"/>
				<stop  offset="1" style="stop-color:#7B838C"/>
			</linearGradient>
			<polygon fill-rule="evenodd" clip-rule="evenodd" fill="url(#SVGID_22_)" points="285.9,532.1 285.9,531.7 285.9,532 			"/>
			<polygon fill-rule="evenodd" clip-rule="evenodd" fill="#323627" points="277.3,529.4 188,529.4 186.8,529.4 186.8,528.9 
				186.8,514.2 186.8,512.3 186.8,509.8 186.8,503.8 186.8,503.7 186.8,500.6 186.8,499.6 188,500 188,528.9 277.3,528.9 			"/>
			<rect x="188" y="500" fill-rule="evenodd" clip-rule="evenodd" fill="#3E0404" width="89.2" height="28.8"/>
			
				<linearGradient id="SVGID_23_" gradientUnits="userSpaceOnUse" x1="-152.1875" y1="45.6748" x2="-143.0125" y2="45.6748" gradientTransform="matrix(1.1666 0 0 1.1666 350.4006 461.2502)">
				<stop  offset="0" style="stop-color:#363D41"/>
				<stop  offset="1" style="stop-color:#59646A"/>
				<stop  offset="1" style="stop-color:#393939"/>
				<stop  offset="1" style="stop-color:#1A1A1A"/>
			</linearGradient>
			<polygon fill-rule="evenodd" clip-rule="evenodd" fill="url(#SVGID_23_)" points="186.8,529.4 181.6,531.9 181.6,497.2 
				181.7,497.2 186.8,499.5 186.8,499.6 186.8,500.6 186.8,503.7 186.8,503.8 186.8,509.8 186.8,512.3 186.8,514.2 186.8,528.9 			
				"/>
		</g>
	</g>
	<g>
		<g>
			
				<radialGradient id="SVGID_24_" cx="118.1226" cy="91.0498" r="14.0125" fx="118.1775" fy="91.0498" gradientTransform="matrix(1.1666 0 0.1093 1.1271 350.7497 464.851)" gradientUnits="userSpaceOnUse">
				<stop  offset="0" style="stop-color:#000000"/>
				<stop  offset="0.8078" style="stop-color:#000000;stop-opacity:0.498"/>
				<stop  offset="1" style="stop-color:#000000;stop-opacity:0"/>
			</radialGradient>
			<path fill-rule="evenodd" clip-rule="evenodd" fill="url(#SVGID_24_)" d="M485.8,558.1c4.2-3.8,8.4-5.4,12.5-4.8
				c4.2,0.6,8.6,2.5,13.4,5.9c4.7,3.4,7.4,7.4,8,12.1c0.5,4.7-1,8.8-4.7,12.1c-3.7,3.3-8.4,5-14.1,5c-5.7,0-10.7-1.7-15-5
				c-4.3-3.4-6.4-7.5-6.4-12.4C479.4,566.2,481.5,561.9,485.8,558.1z"/>
		</g>
		<g>
			<g>
				
					<linearGradient id="SVGID_25_" gradientUnits="userSpaceOnUse" x1="125.8779" y1="76.5" x2="125.9216" y2="101.4" gradientTransform="matrix(1.1666 0 0 1.1666 350.4006 461.2502)">
					<stop  offset="0" style="stop-color:#6B5D5D"/>
					<stop  offset="0.7176" style="stop-color:#242121"/>
					<stop  offset="1" style="stop-color:#171515"/>
				</linearGradient>
				<path fill-rule="evenodd" clip-rule="evenodd" fill="url(#SVGID_25_)" d="M477.8,565.8c0,0,0-0.1,0-0.1c0,0,0-0.1,0-0.1
					s0-0.1,0-0.2c0-0.2,0-0.4,0.1-0.6c0.3-0.9,1.1-1.7,2.5-2.6c3.8-1.7,7.3-3.8,10.4-6.1c1.9-1.1,3.8-1.7,5.7-1.9
					c0.4,0,0.8-0.1,1.1-0.1c0.3,0,0.6,0,0.9,0c0.6,0,1.3,0.1,1.9,0.3c0.2,0,0.3,0,0.4,0.1c0.8,0.2,1.6,0.5,2.3,0.8
					c0.8,0.4,1.6,0.8,2.5,1.3c2.8,1.8,5.1,3.2,6.8,4.1c2.3,1.2,3.8,2.4,4.3,3.7c0.1,0.1,0.1,0.3,0.2,0.4c0,0.1,0,0.3,0.1,0.5
					c0,0,0,0.1,0,0.2c0,0.1,0,0.2,0,0.3c0,0.2-0.1,0.4-0.2,0.6l-0.1,0.1c0,0-0.1,0.1-0.1,0.1c-1.1,1.9-3.2,3.3-6.5,4.4
					c-2.4,1-4.9,2.2-7.5,3.5c-3.6,1.8-7.2,1.7-10.7-0.4c-2.9-1.7-6-3.3-9.5-4.8C479.7,568.7,478.2,567.5,477.8,565.8
					C477.9,565.9,477.8,565.8,477.8,565.8z"/>
				
					<linearGradient id="SVGID_26_" gradientUnits="userSpaceOnUse" x1="108.9336" y1="84.25" x2="142.6416" y2="84.25" gradientTransform="matrix(1.1666 0 0 1.1666 350.4006 461.2502)">
					<stop  offset="0" style="stop-color:#232222"/>
					<stop  offset="0.2314" style="stop-color:#191919"/>
					<stop  offset="0.4275" style="stop-color:#191919"/>
					<stop  offset="0.6196" style="stop-color:#5B5958"/>
					<stop  offset="1" style="stop-color:#090909"/>
				</linearGradient>
				<path fill-rule="evenodd" clip-rule="evenodd" fill="url(#SVGID_26_)" d="M477.8,565.8c-0.1-0.4-0.2-0.6-0.2-0.8
					c-0.1-0.2-0.1-0.4-0.1-0.6c0-0.2,0.1-0.4,0.1-0.6c0.3-0.9,1.1-1.8,2.4-2.6c3.8-1.7,7.3-3.8,10.5-6.2c2-1.1,4.1-1.8,6.1-1.9
					c0.2,0,0.4-0.1,0.6-0.1c0.4,0,0.9,0,1.3,0.1c0.5,0,1,0.1,1.6,0.2c0.2,0,0.5,0.1,0.8,0.2c0.6,0.2,1.3,0.4,1.9,0.7
					c0.8,0.4,1.6,0.8,2.4,1.3c2.8,1.8,5.1,3.2,6.8,4.1c2.6,1.3,4,2.7,4.4,4c0.3,0.9,0.4,1.5,0.3,2c0-0.1,0-0.2,0-0.3
					c0-0.1,0-0.2,0-0.2c0-0.2-0.1-0.3-0.1-0.5c0-0.2-0.1-0.3-0.2-0.4c-0.5-1.2-1.9-2.5-4.3-3.7c-1.7-0.9-4-2.3-6.8-4.1
					c-0.8-0.5-1.6-1-2.5-1.3c-0.7-0.3-1.5-0.6-2.3-0.8c-0.1,0-0.3-0.1-0.4-0.1c-0.7-0.2-1.3-0.3-1.9-0.3c-0.3,0-0.6,0-0.9,0
					c-0.3,0-0.7,0-1.1,0.1c-1.9,0.2-3.8,0.8-5.7,1.9c-3.2,2.4-6.7,4.4-10.4,6.1c-1.4,0.9-2.2,1.7-2.5,2.6c0,0.2-0.1,0.4-0.1,0.6
					c0,0.1,0,0.1,0,0.2s0,0.1,0,0.1C477.8,565.8,477.8,565.8,477.8,565.8z"/>
			</g>
			<g>
				<g>
					
						<linearGradient id="SVGID_27_" gradientUnits="userSpaceOnUse" x1="124.3999" y1="93.375" x2="128.2002" y2="93.375" gradientTransform="matrix(1.1666 0 0 1.1666 350.4006 461.2502)">
						<stop  offset="0" style="stop-color:#4D4846"/>
						<stop  offset="0.2196" style="stop-color:#887973"/>
						<stop  offset="0.4235" style="stop-color:#ADADAD"/>
						<stop  offset="0.6471" style="stop-color:#7B6D67"/>
						<stop  offset="1" style="stop-color:#6A5850"/>
					</linearGradient>
					<path fill-rule="evenodd" clip-rule="evenodd" fill="url(#SVGID_27_)" d="M500,570.7c-0.2-0.3-0.3-0.6-0.5-0.8
						c-0.5-0.4-1-0.6-1.6-0.6c-0.6,0-1.1,0.2-1.5,0.6c-0.5,0.4-0.7,0.9-0.7,1.6c0,0,0,0.1,0,0.2c0-0.3-0.1-0.5-0.1-0.8
						c0-0.6,0.2-1.1,0.6-1.6c0.5-0.4,1-0.6,1.6-0.6s1.1,0.2,1.5,0.6C499.7,569.7,499.9,570.2,500,570.7z"/>
					
						<linearGradient id="SVGID_28_" gradientUnits="userSpaceOnUse" x1="126.3877" y1="92.6001" x2="126.3127" y2="96.4001" gradientTransform="matrix(1.1666 0 0 1.1666 350.4006 461.2502)">
						<stop  offset="0" style="stop-color:#988A84"/>
						<stop  offset="1" style="stop-color:#524742"/>
					</linearGradient>
					<path fill-rule="evenodd" clip-rule="evenodd" fill="url(#SVGID_28_)" d="M500,570.7c0,0.2,0.1,0.5,0.1,0.8
						c0,0.6-0.2,1.1-0.6,1.5c-0.5,0.5-1,0.7-1.6,0.7c-0.6,0-1.1-0.2-1.5-0.7c-0.4-0.3-0.7-0.8-0.7-1.3c0-0.1,0-0.1,0-0.2
						c0-0.7,0.2-1.2,0.7-1.6c0.4-0.4,0.9-0.6,1.5-0.6c0.6,0,1.2,0.2,1.6,0.6C499.6,570.2,499.8,570.4,500,570.7z M497.5,569.6v3.7
						h0.8v-3.7H497.5z"/>
					<rect x="497.5" y="569.6" fill-rule="evenodd" clip-rule="evenodd" width="0.8" height="3.7"/>
				</g>
			</g>
			<g>
				<g>
					
						<linearGradient id="SVGID_29_" gradientUnits="userSpaceOnUse" x1="124.3999" y1="93.375" x2="128.2002" y2="93.375" gradientTransform="matrix(1.1666 0 0 1.1666 350.4006 461.2502)">
						<stop  offset="0" style="stop-color:#4D4846"/>
						<stop  offset="0.2196" style="stop-color:#887973"/>
						<stop  offset="0.4235" style="stop-color:#ADADAD"/>
						<stop  offset="0.6471" style="stop-color:#7B6D67"/>
						<stop  offset="1" style="stop-color:#6A5850"/>
					</linearGradient>
					<path fill-rule="evenodd" clip-rule="evenodd" fill="url(#SVGID_29_)" d="M500,570.7c-0.2-0.3-0.3-0.6-0.5-0.8
						c-0.5-0.4-1-0.6-1.6-0.6c-0.6,0-1.1,0.2-1.5,0.6c-0.5,0.4-0.7,0.9-0.7,1.6c0,0,0,0.1,0,0.2c0-0.3-0.1-0.5-0.1-0.8
						c0-0.6,0.2-1.1,0.6-1.6c0.5-0.4,1-0.6,1.6-0.6s1.1,0.2,1.5,0.6C499.7,569.7,499.9,570.2,500,570.7z"/>
					
						<linearGradient id="SVGID_30_" gradientUnits="userSpaceOnUse" x1="126.3877" y1="92.6001" x2="126.3127" y2="96.4001" gradientTransform="matrix(1.1666 0 0 1.1666 350.4006 461.2502)">
						<stop  offset="0" style="stop-color:#988A84"/>
						<stop  offset="1" style="stop-color:#524742"/>
					</linearGradient>
					<path fill-rule="evenodd" clip-rule="evenodd" fill="url(#SVGID_30_)" d="M500,570.7c0,0.2,0.1,0.5,0.1,0.8
						c0,0.6-0.2,1.1-0.6,1.5c-0.5,0.5-1,0.7-1.6,0.7c-0.6,0-1.1-0.2-1.5-0.7c-0.4-0.3-0.7-0.8-0.7-1.3c0-0.1,0-0.1,0-0.2
						c0-0.7,0.2-1.2,0.7-1.6c0.4-0.4,0.9-0.6,1.5-0.6c0.6,0,1.2,0.2,1.6,0.6C499.6,570.2,499.8,570.4,500,570.7z M497.5,569.6v3.7
						h0.8v-3.7H497.5z"/>
					<rect x="497.5" y="569.6" fill-rule="evenodd" clip-rule="evenodd" width="0.8" height="3.7"/>
				</g>
			</g>
		</g>
		<g>
			<g>
				
					<linearGradient id="SVGID_31_" gradientUnits="userSpaceOnUse" x1="116.2749" y1="87.9253" x2="135.9248" y2="87.9253" gradientTransform="matrix(1.1666 0 0 1.1666 350.4006 461.2502)">
					<stop  offset="0" style="stop-color:#000000"/>
					<stop  offset="0.3608" style="stop-color:#454344"/>
					<stop  offset="0.6039" style="stop-color:#2F2F2F"/>
					<stop  offset="0.8549" style="stop-color:#413F40"/>
					<stop  offset="1" style="stop-color:#202020"/>
				</linearGradient>
				<path fill-rule="evenodd" clip-rule="evenodd" fill="url(#SVGID_31_)" d="M508.9,569.5c-0.3-1.7-1.2-3.2-2.6-4.4
					c-0.2-0.2-0.4-0.4-0.6-0.6c-1.8-1.6-4-2.5-6.5-2.7h-0.1c-0.5,0-0.9-0.1-1.3-0.1c-2,0-3.8,0.4-5.4,1.2l-0.1,0.1
					c-0.9,0.4-1.7,0.9-2.5,1.6c-0.5,0.4-0.9,0.9-1.2,1.3l-0.1,0.1c-0.1,0.1-0.2,0.2-0.3,0.3c-1.1,1.5-1.7,3.2-1.7,5.1
					c0,0.2,0,0.3,0,0.4l-0.6-5.3v-0.1c0-0.2,0-0.5,0-0.7c0-2.1,0.7-3.9,2-5.5c0.4-0.4,0.8-0.9,1.2-1.3c0.9-0.7,1.8-1.3,2.8-1.8
					c1.6-0.6,3.3-0.9,5.2-0.9c0.5,0,1,0,1.4,0c2.5,0.2,4.7,1.1,6.6,2.7c1.9,1.7,3.1,3.7,3.3,5.9c0,0.2,0,0.3,0,0.5L508.9,569.5z"/>
				
					<linearGradient id="SVGID_32_" gradientUnits="userSpaceOnUse" x1="126.3999" y1="71.8125" x2="126.3999" y2="88.1875" gradientTransform="matrix(1.1666 0 0 1.1666 350.4006 461.2502)">
					<stop  offset="0" style="stop-color:#2E2E2E"/>
					<stop  offset="1" style="stop-color:#1C1B1B"/>
				</linearGradient>
				<path fill-rule="evenodd" clip-rule="evenodd" fill="url(#SVGID_32_)" d="M508.9,569.5c0,0.2,0.1,0.3,0.1,0.5
					c0,0.4,0.1,0.7,0.1,1.1c0,0,0,0.1,0,0.2c0,0.2,0,0.3,0,0.5c0,0.6-0.1,1.2-0.3,1.8c-0.5,1.7-1.5,3.1-3,4.4
					c-2.2,1.9-4.8,2.8-7.9,2.8c-3.1,0-5.8-0.9-8-2.8c-1.2-1-2-2-2.6-3.2c-0.3-0.6-0.5-1.2-0.6-1.9c0-0.2-0.1-0.4-0.1-0.6
					c0-0.2,0-0.3,0-0.5c0,0,0-0.1,0-0.2c0-0.1,0-0.3,0-0.4c0-1.9,0.6-3.6,1.7-5.1c0.1-0.1,0.2-0.2,0.3-0.3l0.1-0.1
					c0.3-0.4,0.8-0.9,1.2-1.3c0.8-0.7,1.6-1.2,2.5-1.6l0.1-0.1c1.6-0.8,3.4-1.2,5.4-1.2c0.4,0,0.9,0,1.3,0.1h0.1
					c2.5,0.3,4.7,1.2,6.5,2.7c0.2,0.2,0.4,0.4,0.6,0.6C507.7,566.3,508.6,567.8,508.9,569.5z"/>
			</g>
		</g>
		<g>
			
				<linearGradient id="SVGID_33_" gradientUnits="userSpaceOnUse" x1="117.7002" y1="89.25" x2="136.4002" y2="89.25" gradientTransform="matrix(1.1666 0 0 1.1666 350.4006 461.2502)">
				<stop  offset="0" style="stop-color:#FFFFFF;stop-opacity:0"/>
				<stop  offset="0.2157" style="stop-color:#FFFFFF;stop-opacity:0.3843"/>
				<stop  offset="0.4549" style="stop-color:#FFFFFF;stop-opacity:0.5176"/>
				<stop  offset="0.8549" style="stop-color:#FFFFFF;stop-opacity:0"/>
				<stop  offset="1" style="stop-color:#FFFFFF;stop-opacity:0"/>
			</linearGradient>
			<path fill-rule="evenodd" clip-rule="evenodd" fill="url(#SVGID_33_)" d="M487,567.8c0.5-1.2,1.4-2.3,2.6-3.3
				c2.3-1.9,5-2.9,8.2-2.9c3.3,0,6,1,8.3,2.9c0.7,0.7,1.4,1.4,1.9,2.1v1.6c-0.5-1.1-1.3-2.2-2.4-3.2c-2.1-1.8-4.7-2.7-7.8-2.6
				c-3,0-5.6,0.8-7.7,2.6c-1.3,1.1-2.2,2.4-2.7,3.7c0,0.1-0.1,0.2-0.2,0.2c-0.1,0-0.2,0-0.2,0V567.8z"/>
		</g>
		<g>
			<g>
				
					<linearGradient id="SVGID_34_" gradientUnits="userSpaceOnUse" x1="122.8877" y1="93.0977" x2="129.8127" y2="93.0977" gradientTransform="matrix(1.1666 0 0 1.1666 350.4006 461.2502)">
					<stop  offset="0" style="stop-color:#000000"/>
					<stop  offset="0.2627" style="stop-color:#252525"/>
					<stop  offset="0.502" style="stop-color:#3C3B3B"/>
					<stop  offset="1" style="stop-color:#1E1E1E"/>
				</linearGradient>
				<path fill-rule="evenodd" clip-rule="evenodd" fill="url(#SVGID_34_)" d="M501.9,571.5c-0.1-0.6-0.4-1.1-0.9-1.6
					c-0.1-0.1-0.2-0.2-0.2-0.3c-0.7-0.5-1.4-0.8-2.3-0.9c-0.2,0-0.3-0.1-0.5-0.1c-0.7,0-1.3,0.1-1.9,0.4c-0.3,0.2-0.6,0.4-0.9,0.6
					c-0.2,0.2-0.4,0.4-0.5,0.5c-0.1,0.1-0.1,0.1-0.2,0.1c-0.4,0.5-0.5,1-0.6,1.6c0-0.1-0.1-0.2-0.1-0.3c0,0,0-0.1,0-0.2
					c0,0,0-0.1,0-0.2c0-0.5,0.1-0.9,0.3-1.3c0.8-1.5,2-2.2,3.7-2.1c0.2,0,0.3,0,0.6,0c0.9,0.1,1.7,0.4,2.3,1c0,0,0.1,0.1,0.2,0.2
					c0.5,0.5,0.9,1,0.9,1.8c0,0.1,0.1,0.2,0.1,0.3v0.1C501.9,571.3,501.9,571.4,501.9,571.5z"/>
				<path fill-rule="evenodd" clip-rule="evenodd" fill="#202020" d="M501.9,571.5c0,0,0,0.1,0,0.2c0,0.1,0.1,0.2,0.1,0.3
					c0,0,0,0.1,0,0.1c0,0.9-0.4,1.8-1.2,2.5c-0.8,0.7-1.7,1-2.9,1c-1,0-2-0.3-2.8-1c-0.7-0.5-1.1-1.2-1.2-2c0-0.1,0-0.1,0-0.2
					c0,0,0-0.1,0-0.2c0-0.1,0-0.1,0-0.2c0-0.6,0.2-1.1,0.6-1.6c0,0,0.1,0,0.2-0.1c0.1-0.2,0.3-0.3,0.5-0.5c0.2-0.2,0.5-0.4,0.9-0.6
					c0.6-0.3,1.2-0.4,1.9-0.4c0.2,0,0.4,0,0.5,0.1c0.9,0.1,1.7,0.4,2.3,0.9c0.1,0.1,0.2,0.2,0.2,0.3
					C501.5,570.4,501.8,570.9,501.9,571.5z M495.6,574.2c0.6,0.6,1.4,0.9,2.3,0.9c0.9,0,1.7-0.3,2.3-0.9c0.7-0.5,1-1.1,1-1.9
					c0-0.8-0.3-1.4-1-2c-0.6-0.5-1.3-0.8-2.3-0.8c-0.9,0-1.7,0.3-2.3,0.8c-0.7,0.5-1,1.2-1,2C494.6,573,494.9,573.7,495.6,574.2z"/>
				<path fill-rule="evenodd" clip-rule="evenodd" d="M495.6,574.2c-0.7-0.5-1-1.1-1-1.9c0-0.8,0.3-1.4,1-2c0.6-0.5,1.4-0.8,2.3-0.8
					c0.9,0,1.7,0.3,2.3,0.8c0.7,0.5,1,1.2,1,2c0,0.8-0.3,1.4-1,1.9c-0.6,0.6-1.3,0.9-2.3,0.9C497,575.1,496.2,574.8,495.6,574.2z"/>
			</g>
		</g>
		<g>
			<g>
				
					<linearGradient id="SVGID_35_" gradientUnits="userSpaceOnUse" x1="136.2002" y1="88.9756" x2="140.001" y2="88.9756" gradientTransform="matrix(1.1666 0 0 1.1666 350.4006 461.2502)">
					<stop  offset="0" style="stop-color:#4D4846"/>
					<stop  offset="0.2196" style="stop-color:#887973"/>
					<stop  offset="0.4235" style="stop-color:#ADADAD"/>
					<stop  offset="0.6471" style="stop-color:#7B6D67"/>
					<stop  offset="1" style="stop-color:#6A5850"/>
				</linearGradient>
				<path fill-rule="evenodd" clip-rule="evenodd" fill="url(#SVGID_35_)" d="M513.7,565.6c-0.2-0.3-0.3-0.6-0.5-0.8
					c-0.5-0.4-1-0.6-1.6-0.6c-0.6,0-1.1,0.2-1.5,0.6c-0.5,0.4-0.7,0.9-0.7,1.5c0,0.1,0,0.2,0,0.2c0-0.3-0.1-0.5-0.1-0.8
					c0-0.6,0.2-1.1,0.6-1.6c0.5-0.4,1-0.6,1.6-0.6s1.1,0.2,1.5,0.6C513.5,564.6,513.7,565.1,513.7,565.6z"/>
				
					<linearGradient id="SVGID_36_" gradientUnits="userSpaceOnUse" x1="138.188" y1="88.1494" x2="138.113" y2="91.9494" gradientTransform="matrix(1.1666 0 0 1.1666 350.4006 461.2502)">
					<stop  offset="0" style="stop-color:#988A84"/>
					<stop  offset="1" style="stop-color:#524742"/>
				</linearGradient>
				<path fill-rule="evenodd" clip-rule="evenodd" fill="url(#SVGID_36_)" d="M513.7,565.6c0,0.2,0.1,0.5,0.1,0.7
					c0,0.7-0.2,1.2-0.6,1.6c-0.5,0.4-1,0.6-1.6,0.6c-0.6,0-1.1-0.2-1.5-0.6c-0.4-0.4-0.7-0.8-0.7-1.3c0-0.1,0-0.2,0-0.2
					c0-0.6,0.2-1.1,0.7-1.5c0.4-0.4,0.9-0.6,1.5-0.6c0.6,0,1.2,0.2,1.6,0.6C513.4,565,513.6,565.3,513.7,565.6z M512,564.5h-0.8v3.7
					h0.8V564.5z"/>
				<rect x="511.2" y="564.5" fill-rule="evenodd" clip-rule="evenodd" width="0.8" height="3.7"/>
			</g>
		</g>
		<g>
			
				<linearGradient id="SVGID_37_" gradientUnits="userSpaceOnUse" x1="123.0376" y1="93.499" x2="129.8626" y2="93.499" gradientTransform="matrix(1.1666 0 0 1.1666 350.4006 461.2502)">
				<stop  offset="0" style="stop-color:#6B5D5D;stop-opacity:1.568628e-002"/>
				<stop  offset="0.4902" style="stop-color:#FFFFFF;stop-opacity:0.498"/>
				<stop  offset="1" style="stop-color:#FFFFFF;stop-opacity:0"/>
			</linearGradient>
			<path fill-rule="evenodd" clip-rule="evenodd" fill="url(#SVGID_37_)" d="M494.9,569.5c0.9-0.8,1.8-1.2,3-1.2
				c1.2,0,2.2,0.4,3,1.2c0.6,0.7,1,1.4,1.2,2.1v0.6c0,0-0.1,0-0.2,0.1c-0.1,0-0.1,0-0.2-0.1c0,0-0.1-0.1-0.1-0.2
				c-0.1-0.8-0.5-1.5-1.2-2.2c-0.7-0.7-1.5-1-2.6-1c-1,0-1.9,0.3-2.6,1c-0.6,0.6-1,1.3-1,2.2c0,0.1-0.1,0.1-0.1,0.2
				c-0.1,0-0.1,0.1-0.2,0.1l-0.2-0.1v-0.8C494,570.8,494.4,570.1,494.9,569.5z"/>
		</g>
		<g>
			
				<linearGradient id="SVGID_38_" gradientUnits="userSpaceOnUse" x1="109.25" y1="84.4004" x2="142.55" y2="84.4004" gradientTransform="matrix(1.1666 0 0 1.1666 350.4006 461.2502)">
				<stop  offset="0" style="stop-color:#6B5D5D;stop-opacity:1.568628e-002"/>
				<stop  offset="0.4902" style="stop-color:#FFFFFF;stop-opacity:0.498"/>
				<stop  offset="1" style="stop-color:#FFFFFF;stop-opacity:0"/>
			</linearGradient>
			<path fill-rule="evenodd" clip-rule="evenodd" fill="url(#SVGID_38_)" d="M490.6,556.2L490.6,556.2c1.9-1.1,3.8-1.8,5.8-1.9
				c0.4,0,0.7-0.1,1.1-0.1c0.3-0.1,0.6-0.1,0.9,0c0.6,0,1.3,0.1,1.9,0.3c0.2,0,0.3,0,0.5,0.1c0.8,0.2,1.6,0.5,2.3,0.8
				c0.8,0.4,1.6,0.9,2.5,1.4c2.8,1.8,5.1,3.2,6.8,4c2.4,1.2,3.8,2.5,4.4,3.8c0.1,0.1,0.1,0.3,0.2,0.4c0,0.1,0,0.1,0,0.2
				c0,0.1-0.1,0.1-0.2,0.2c-0.1,0-0.2,0-0.2-0.1c0,0-0.1-0.1-0.1-0.2c0-0.1-0.1-0.2-0.1-0.2c0,0-0.1,0-0.1-0.1
				c-0.5-1.2-1.9-2.4-4.1-3.6c-1.7-0.9-4-2.2-6.8-4c-0.8-0.5-1.6-1-2.5-1.4c-0.7-0.3-1.5-0.6-2.2-0.8c-0.2,0-0.3,0-0.5-0.1
				c-0.7-0.2-1.3-0.3-1.9-0.3c-0.3,0-0.6,0-0.9,0c-0.3,0-0.7,0-1,0.1c-1.9,0.2-3.7,0.8-5.5,1.8c-3.2,2.4-6.7,4.4-10.4,6.1
				c-1.3,0.8-2.1,1.6-2.4,2.4c0,0.1-0.1,0.1-0.1,0.2c-0.1,0-0.1,0-0.2,0c-0.1,0-0.2-0.1-0.2-0.1c0,0,0-0.1,0-0.2
				c0.3-0.9,1.1-1.8,2.6-2.7l0.1-0.1C483.9,560.5,487.4,558.5,490.6,556.2z"/>
		</g>
		<g>
			
				<radialGradient id="SVGID_39_" cx="138.2002" cy="88.3008" r="1.9122" gradientTransform="matrix(1.1666 0 0 0.3813 350.4006 530.5995)" gradientUnits="userSpaceOnUse">
				<stop  offset="0" style="stop-color:#FFFFFF"/>
				<stop  offset="0.1765" style="stop-color:#FFFFFF"/>
				<stop  offset="0.3059" style="stop-color:#FFFFFF;stop-opacity:0.4235"/>
				<stop  offset="0.4902" style="stop-color:#FFFFFF;stop-opacity:0.2314"/>
				<stop  offset="0.651" style="stop-color:#FFFFFF;stop-opacity:8.235294e-002"/>
				<stop  offset="1" style="stop-color:#FFFFFF;stop-opacity:0"/>
			</radialGradient>
			<path fill-rule="evenodd" clip-rule="evenodd" fill="url(#SVGID_39_)" d="M509.5,564.3c0-0.2,0.2-0.3,0.6-0.5
				c0.5-0.2,1-0.2,1.6-0.2c0.6,0,1.1,0.1,1.6,0.2c0.4,0.1,0.6,0.3,0.6,0.5c0,0.2-0.2,0.4-0.6,0.5c-0.5,0.1-1,0.2-1.6,0.2
				c-0.6,0-1.1-0.1-1.6-0.2C509.7,564.7,509.5,564.5,509.5,564.3z"/>
		</g>
		<g>
			<g>
				
					<linearGradient id="SVGID_40_" gradientUnits="userSpaceOnUse" x1="111.8999" y1="88.9756" x2="115.7002" y2="88.9756" gradientTransform="matrix(1.1666 0 0 1.1666 350.4006 461.2502)">
					<stop  offset="0" style="stop-color:#4D4846"/>
					<stop  offset="0.2196" style="stop-color:#887973"/>
					<stop  offset="0.4235" style="stop-color:#ADADAD"/>
					<stop  offset="0.6471" style="stop-color:#7B6D67"/>
					<stop  offset="1" style="stop-color:#6A5850"/>
				</linearGradient>
				<path fill-rule="evenodd" clip-rule="evenodd" fill="url(#SVGID_40_)" d="M481.1,566.5c-0.1-0.3-0.1-0.5-0.1-0.8
					c0-0.6,0.2-1.1,0.6-1.6s1-0.6,1.6-0.6c0.6,0,1.1,0.2,1.6,0.6c0.4,0.4,0.6,0.9,0.6,1.4c-0.1-0.3-0.3-0.6-0.5-0.8
					c-0.4-0.4-1-0.6-1.6-0.6s-1.1,0.2-1.6,0.6c-0.4,0.4-0.6,0.9-0.6,1.5C481.1,566.4,481.1,566.5,481.1,566.5z"/>
				
					<linearGradient id="SVGID_41_" gradientUnits="userSpaceOnUse" x1="113.9375" y1="88.1494" x2="113.8625" y2="91.9494" gradientTransform="matrix(1.1666 0 0 1.1666 350.4006 461.2502)">
					<stop  offset="0" style="stop-color:#988A84"/>
					<stop  offset="1" style="stop-color:#524742"/>
				</linearGradient>
				<path fill-rule="evenodd" clip-rule="evenodd" fill="url(#SVGID_41_)" d="M485.4,565.6c0.1,0.2,0.1,0.5,0.1,0.7
					c0,0.7-0.2,1.2-0.6,1.6c-0.4,0.4-1,0.6-1.6,0.6s-1.1-0.2-1.6-0.6c-0.4-0.4-0.6-0.8-0.6-1.3c0-0.1,0-0.2,0-0.2
					c0-0.6,0.2-1.1,0.6-1.5c0.4-0.4,1-0.6,1.6-0.6s1.1,0.2,1.6,0.6C485.1,565,485.3,565.3,485.4,565.6z M482.8,564.5l-0.8,0.4
					l1.8,3.3l0.8-0.4L482.8,564.5z"/>
				
					<rect x="481.5" y="565.9" transform="matrix(-0.4722 -0.8815 0.8815 -0.4722 212.3313 1259.7974)" fill-rule="evenodd" clip-rule="evenodd" width="3.7" height="0.9"/>
			</g>
		</g>
		<g>
			
				<radialGradient id="SVGID_42_" cx="113.8999" cy="88.3008" r="1.9122" gradientTransform="matrix(1.1666 0 0 0.3813 350.4006 530.5995)" gradientUnits="userSpaceOnUse">
				<stop  offset="0" style="stop-color:#FFFFFF"/>
				<stop  offset="0.1765" style="stop-color:#FFFFFF"/>
				<stop  offset="0.3059" style="stop-color:#FFFFFF;stop-opacity:0.4235"/>
				<stop  offset="0.4902" style="stop-color:#FFFFFF;stop-opacity:0.2314"/>
				<stop  offset="0.651" style="stop-color:#FFFFFF;stop-opacity:8.235294e-002"/>
				<stop  offset="1" style="stop-color:#FFFFFF;stop-opacity:0"/>
			</radialGradient>
			<path fill-rule="evenodd" clip-rule="evenodd" fill="url(#SVGID_42_)" d="M481.1,564.3c0-0.2,0.2-0.3,0.6-0.5
				c0.4-0.2,0.9-0.2,1.5-0.2c0.6,0,1.1,0.1,1.6,0.2c0.4,0.1,0.6,0.3,0.6,0.5c0,0.2-0.2,0.4-0.6,0.5c-0.4,0.1-1,0.2-1.6,0.2
				c-0.6,0-1.1-0.1-1.5-0.2S481.1,564.5,481.1,564.3z"/>
		</g>
		<g>
			
				<radialGradient id="SVGID_43_" cx="126.5498" cy="97.4502" r="1.9125" gradientTransform="matrix(1.1666 0 0 0.3813 350.4006 537.7853)" gradientUnits="userSpaceOnUse">
				<stop  offset="0" style="stop-color:#FFFFFF"/>
				<stop  offset="0.1765" style="stop-color:#FFFFFF"/>
				<stop  offset="0.3059" style="stop-color:#FFFFFF;stop-opacity:0.4235"/>
				<stop  offset="0.4902" style="stop-color:#FFFFFF;stop-opacity:0.2314"/>
				<stop  offset="0.651" style="stop-color:#FFFFFF;stop-opacity:8.235294e-002"/>
				<stop  offset="1" style="stop-color:#FFFFFF;stop-opacity:0"/>
			</radialGradient>
			<path fill-rule="evenodd" clip-rule="evenodd" fill="url(#SVGID_43_)" d="M496.5,575.4c-0.4-0.1-0.6-0.3-0.6-0.5s0.2-0.4,0.6-0.5
				c0.4-0.2,0.9-0.2,1.5-0.2c0.6,0,1.1,0.1,1.6,0.2c0.4,0.2,0.6,0.3,0.6,0.5s-0.2,0.4-0.6,0.5c-0.4,0.2-1,0.2-1.6,0.2
				C497.5,575.6,496.9,575.6,496.5,575.4z"/>
		</g>
		<g>
			
				<radialGradient id="SVGID_44_" cx="126.1001" cy="85.8999" r="4.5875" gradientTransform="matrix(1.1666 0 0 0.3815 350.4006 528.6961)" gradientUnits="userSpaceOnUse">
				<stop  offset="0" style="stop-color:#FFFFFF"/>
				<stop  offset="0.1765" style="stop-color:#FFFFFF"/>
				<stop  offset="0.3059" style="stop-color:#FFFFFF;stop-opacity:0.4235"/>
				<stop  offset="0.4902" style="stop-color:#FFFFFF;stop-opacity:0.2314"/>
				<stop  offset="0.651" style="stop-color:#FFFFFF;stop-opacity:8.235294e-002"/>
				<stop  offset="1" style="stop-color:#FFFFFF;stop-opacity:0"/>
			</radialGradient>
			<path fill-rule="evenodd" clip-rule="evenodd" fill="url(#SVGID_44_)" d="M493.8,562.7c-1-0.3-1.5-0.7-1.5-1.2
				c0-0.5,0.5-0.9,1.5-1.2c1-0.4,2.3-0.5,3.7-0.5c1.4,0,2.7,0.2,3.7,0.5c1,0.3,1.6,0.7,1.6,1.2c0,0.5-0.5,0.9-1.6,1.2
				c-1,0.3-2.3,0.5-3.7,0.5C496,563.2,494.8,563,493.8,562.7z"/>
		</g>
	</g>
	<g>
		<g>
			
				<radialGradient id="SVGID_45_" cx="126.4209" cy="51.9502" r="15.6375" fx="126.4822" fy="51.9502" gradientTransform="matrix(1.1666 0 2.144876e-002 1.1993 350.3696 459.5546)" gradientUnits="userSpaceOnUse">
				<stop  offset="0" style="stop-color:#000000"/>
				<stop  offset="0.8078" style="stop-color:#000000;stop-opacity:0.498"/>
				<stop  offset="1" style="stop-color:#000000;stop-opacity:0"/>
			</radialGradient>
			<path fill-rule="evenodd" clip-rule="evenodd" fill="url(#SVGID_45_)" d="M515.4,511.8c4.5,4,6.8,8.8,6.9,14.5s-2,10.5-6.5,14.5
				c-4.4,4-9.8,6-16.2,6c-6.3,0-11.8-2-16.4-6c-4.5-4-6.8-8.8-6.9-14.5c-0.1-5.6,2-10.5,6.5-14.5c4.4-4,9.8-5.9,16.2-5.9
				C505.3,505.8,510.8,507.8,515.4,511.8z"/>
		</g>
		<g>
			<g>
				
					<linearGradient id="SVGID_46_" gradientUnits="userSpaceOnUse" x1="115.4004" y1="45.2002" x2="138.2002" y2="45.2002" gradientTransform="matrix(1.1666 0 0 1.1666 350.4006 461.2502)">
					<stop  offset="0" style="stop-color:#8E8880"/>
					<stop  offset="0.4627" style="stop-color:#B6AFA5"/>
					<stop  offset="0.7961" style="stop-color:#9A958D"/>
					<stop  offset="1" style="stop-color:#5B5854"/>
				</linearGradient>
				<path fill-rule="evenodd" clip-rule="evenodd" fill="url(#SVGID_46_)" d="M511.3,522c0-0.4,0.1-0.8,0.1-1.2
					c0-3.6-1.3-6.7-3.8-9.3c-1.3-1.3-2.8-2.3-4.4-2.9c-1.4-0.5-2.8-0.8-4.4-0.9c-0.2,0-0.3-0.1-0.5-0.1c-3.6,0-6.7,1.3-9.3,3.8
					c-2.5,2.6-3.8,5.7-3.8,9.3c0,0.4,0,0.8,0.1,1.2c-0.2-0.9-0.3-1.8-0.3-2.8c0-3.7,1.3-6.8,3.9-9.4c2.6-2.6,5.7-3.9,9.4-3.9
					c0.2,0,0.4,0,0.6,0c1.6,0.1,3.2,0.4,4.6,1c1.5,0.7,2.9,1.6,4.2,2.9c2.6,2.6,3.9,5.7,3.9,9.4C511.6,520.2,511.5,521.1,511.3,522z
					"/>
				
					<radialGradient id="SVGID_47_" cx="129.4502" cy="41.2998" r="13.9" gradientTransform="matrix(1.1666 0 0 1.7877 350.4006 435.5997)" gradientUnits="userSpaceOnUse">
					<stop  offset="0" style="stop-color:#F5F2D3"/>
					<stop  offset="0.4039" style="stop-color:#584F50"/>
					<stop  offset="1" style="stop-color:#3D342F"/>
				</radialGradient>
				<path fill-rule="evenodd" clip-rule="evenodd" fill="url(#SVGID_47_)" d="M511.3,522c-0.3,3.1-1.5,5.8-3.8,8
					c-2.5,2.5-5.5,3.8-9.1,3.8c0,0-0.1,0-0.1,0c-0.4,0-0.8,0-1.2-0.1c-3.1-0.3-5.8-1.5-8-3.8c-2.2-2.2-3.5-4.9-3.7-8
					c0-0.4-0.1-0.8-0.1-1.2c0-3.6,1.3-6.7,3.8-9.3c2.6-2.6,5.7-3.8,9.3-3.8c0.2,0,0.3,0,0.5,0.1c1.6,0,3,0.3,4.4,0.9
					c1.6,0.6,3.1,1.6,4.4,2.9c2.6,2.6,3.8,5.7,3.8,9.3C511.4,521.2,511.4,521.6,511.3,522z"/>
			</g>
		</g>
		<g>
			<g>
				
					<linearGradient id="SVGID_48_" gradientUnits="userSpaceOnUse" x1="116.8252" y1="48.1006" x2="138.0752" y2="48.1006" gradientTransform="matrix(1.1666 0 0 1.1666 350.4006 461.2502)">
					<stop  offset="0" style="stop-color:#5D5D5D"/>
					<stop  offset="0.2314" style="stop-color:#998C84"/>
					<stop  offset="0.5647" style="stop-color:#998C84"/>
					<stop  offset="1" style="stop-color:#5F5D5C"/>
				</linearGradient>
				<path fill-rule="evenodd" clip-rule="evenodd" fill="url(#SVGID_48_)" d="M494.8,513.3c-1.6,0.6-3,1.5-4.3,2.8
					c-1.4,1.5-2.5,3.1-3,4.9c-0.3,1.2-0.5,2.4-0.5,3.7c-0.2-0.8-0.2-1.6-0.2-2.4c0-0.7,0.1-1.4,0.2-2c0.4-2.6,1.5-4.8,3.4-6.7
					c2.4-2.4,5.3-3.6,8.8-3.6c0.1,0,0.3,0,0.4,0c3.2,0.1,6,1.3,8.3,3.6c2.4,2.4,3.6,5.3,3.6,8.8c0,0.9-0.1,1.7-0.2,2.5
					c0-3.3-1.2-6.2-3.6-8.6c-1.2-1.2-2.5-2.1-3.9-2.7c-1.3-0.5-2.8-0.8-4.3-0.9c-0.1,0-0.2,0-0.3,0
					C497.6,512.6,496.1,512.8,494.8,513.3z"/>
				
					<linearGradient id="SVGID_49_" gradientUnits="userSpaceOnUse" x1="124.7773" y1="54.6621" x2="138.8773" y2="53.562" gradientTransform="matrix(1.1666 0 0 1.1666 350.4006 461.2502)">
					<stop  offset="0" style="stop-color:#A19295"/>
					<stop  offset="8.235294e-002" style="stop-color:#EFEFF0"/>
					<stop  offset="0.2157" style="stop-color:#CCC6C0"/>
					<stop  offset="0.3725" style="stop-color:#323642"/>
					<stop  offset="0.5647" style="stop-color:#323642"/>
					<stop  offset="1" style="stop-color:#101112"/>
				</linearGradient>
				<path fill-rule="evenodd" clip-rule="evenodd" fill="url(#SVGID_49_)" d="M494.8,513.3c1.4-0.5,2.8-0.8,4.4-0.8
					c0.1,0,0.2,0,0.3,0c1.6,0,3,0.3,4.3,0.9c1.4,0.6,2.7,1.5,3.9,2.7c2.4,2.4,3.6,5.3,3.6,8.6c0,3.4-1.2,6.3-3.6,8.6
					s-5.2,3.6-8.6,3.6c-0.2,0-0.4,0-0.6,0l0.2-0.9c0.1,0,0.3,0,0.5,0c2.8,0,5.3-1,7.3-3c2-2.1,3-4.5,3-7.4c0-2.9-1-5.3-3-7.4
					c-1-1-2.2-1.8-3.4-2.3c-1.1-0.5-2.3-0.7-3.6-0.8c-0.1,0-0.2,0-0.3,0c-1.4,0-2.6,0.2-3.8,0.6L494.8,513.3z"/>
				
					<linearGradient id="SVGID_50_" gradientUnits="userSpaceOnUse" x1="117.7861" y1="57.6519" x2="127.1638" y2="54.0838" gradientTransform="matrix(1.1666 0 0 1.1666 350.4006 461.2502)">
					<stop  offset="0" style="stop-color:#4C483F"/>
					<stop  offset="0.3804" style="stop-color:#AAA192"/>
					<stop  offset="0.749" style="stop-color:#A59993"/>
					<stop  offset="0.7961" style="stop-color:#A19295"/>
				</linearGradient>
				<path fill-rule="evenodd" clip-rule="evenodd" fill="url(#SVGID_50_)" d="M495.4,515.9c-1.3,0.5-2.5,1.3-3.6,2.4
					c-1.4,1.4-2.3,3-2.7,4.8c-0.2,0.8-0.3,1.7-0.3,2.6c0,2.9,1,5.3,3,7.4c1.9,1.9,4.3,2.9,6.9,3l-0.2,0.9c-3.1-0.2-5.8-1.3-8-3.6
					c-2.4-2.4-3.6-5.3-3.6-8.6v-0.1c0-1.3,0.2-2.5,0.5-3.7c0.6-1.8,1.6-3.4,3-4.9c1.3-1.3,2.7-2.2,4.3-2.8L495.4,515.9z"/>
				
					<linearGradient id="SVGID_51_" gradientUnits="userSpaceOnUse" x1="126.7783" y1="46.3232" x2="128.1803" y2="64.1731" gradientTransform="matrix(1.1666 0 0 1.1666 350.4006 461.2502)">
					<stop  offset="0" style="stop-color:#A39997"/>
					<stop  offset="1" style="stop-color:#040404"/>
				</linearGradient>
				<path fill-rule="evenodd" clip-rule="evenodd" fill="url(#SVGID_51_)" d="M498.7,536.1c-2.7-0.1-5-1.1-6.9-3c-2-2.1-3-4.5-3-7.4
					c0-0.9,0.1-1.8,0.3-2.6c0.4-1.8,1.3-3.4,2.7-4.8c1.1-1.1,2.3-1.9,3.6-2.4c1.2-0.4,2.4-0.6,3.8-0.6c0.1,0,0.2,0,0.3,0
					c1.3,0,2.5,0.3,3.6,0.8c1.2,0.5,2.4,1.3,3.4,2.3c2,2,3,4.5,3,7.4c0,2.9-1,5.3-3,7.4c-2.1,2-4.5,3-7.3,3
					C499,536.1,498.8,536.1,498.7,536.1z M502.8,517.1c-1-0.4-2.2-0.7-3.3-0.7c-0.1,0-0.2,0-0.3,0c-1.3,0-2.5,0.2-3.5,0.6
					c-1.1,0.5-2.2,1.1-3.1,2c-1.5,1.5-2.4,3.2-2.6,5.2c-0.1,0.5-0.1,0.9-0.1,1.4c0,2.6,0.9,4.8,2.7,6.6c1.8,1.8,3.8,2.7,6.3,2.7
					c0.1,0,0.2,0,0.3,0c2.6,0,4.7-0.9,6.5-2.7c1.8-1.8,2.7-4,2.7-6.6c0-2.6-0.9-4.8-2.7-6.6C504.8,518.2,503.9,517.5,502.8,517.1z"
					/>
				<path fill-rule="evenodd" clip-rule="evenodd" d="M502.8,517.1c1.1,0.5,2.1,1.1,2.9,2c1.8,1.8,2.7,4,2.7,6.6
					c0,2.6-0.9,4.8-2.7,6.6c-1.8,1.8-4,2.7-6.5,2.7c-0.1,0-0.2,0-0.3,0c-2.5-0.1-4.5-1-6.3-2.7c-1.8-1.8-2.7-4-2.7-6.6
					c0-0.5,0-0.9,0.1-1.4c0.3-1.9,1.1-3.7,2.6-5.2c0.9-0.9,2-1.6,3.1-2c1-0.4,2.2-0.6,3.5-0.6c0.1,0,0.2,0,0.3,0
					C500.6,516.4,501.7,516.6,502.8,517.1z"/>
			</g>
		</g>
		<g>
			<g>
				
					<linearGradient id="SVGID_52_" gradientUnits="userSpaceOnUse" x1="119.9766" y1="55.625" x2="135.3269" y2="55.084" gradientTransform="matrix(1.1666 0 0 1.1666 350.4006 461.2502)">
					<stop  offset="0" style="stop-color:#454643"/>
					<stop  offset="0.2" style="stop-color:#B1B4A3"/>
					<stop  offset="0.2784" style="stop-color:#FFFFFF"/>
					<stop  offset="0.349" style="stop-color:#FFFFFF"/>
					<stop  offset="0.4471" style="stop-color:#B1B4A3"/>
					<stop  offset="0.5922" style="stop-color:#B1B4A3"/>
					<stop  offset="0.6824" style="stop-color:#91938C"/>
					<stop  offset="0.8667" style="stop-color:#B1B4A3"/>
					<stop  offset="1" style="stop-color:#3E3F3C"/>
				</linearGradient>
				<path fill-rule="evenodd" clip-rule="evenodd" fill="url(#SVGID_52_)" d="M508.3,534.4c-0.1-1.5-0.5-2.8-1.3-4
					c-0.4-0.6-0.9-1.2-1.4-1.8c-0.9-0.9-1.9-1.6-3-2c-1-0.4-2-0.6-3.1-0.6c-0.1,0-0.2,0-0.3,0c-1.1,0-2.2,0.2-3.1,0.6
					c-1.1,0.4-2.1,1.1-3,2c-0.5,0.5-1,1.1-1.3,1.8c-0.4,0.7-0.7,1.5-0.9,2.3c-0.2,0.6-0.2,1.3-0.2,2l-0.2-9c0-0.1,0-0.2,0-0.3
					c0-0.6,0.1-1.1,0.2-1.7c0.3-1.5,1-2.9,2.2-4c0.9-0.9,1.9-1.6,3-2c1-0.4,2-0.6,3.2-0.6c0.1,0,0.2,0,0.2,0c1.1,0,2.2,0.3,3.2,0.6
					c1,0.4,2,1.1,2.9,2c1.8,1.7,2.7,3.7,2.7,6.1v0.1c0,0.2,0,0.4,0,0.5L508.3,534.4z"/>
				<path fill-rule="evenodd" clip-rule="evenodd" fill="#6E605D" d="M508.3,534.4c0,0.2,0,0.3,0,0.5v0.1c0.1,2.4-0.7,4.5-2.5,6.2
					c-1.7,1.7-3.7,2.6-6.2,2.6c-0.1,0-0.3,0-0.4,0c-2.3-0.1-4.3-0.9-5.9-2.6c-1.7-1.7-2.6-3.7-2.7-6.1l-0.1-0.5c0-0.7,0.1-1.4,0.2-2
					c0.2-0.8,0.5-1.6,0.9-2.3c0.3-0.6,0.8-1.2,1.3-1.8c0.9-0.9,1.9-1.6,3-2c1-0.4,2-0.6,3.1-0.6c0.1,0,0.2,0,0.3,0
					c1.1,0,2.1,0.3,3.1,0.6c1.1,0.4,2.1,1.1,3,2c0.5,0.5,1,1.1,1.4,1.8C507.8,531.6,508.2,532.9,508.3,534.4z"/>
			</g>
		</g>
		<g>
			<g>
				<path fill-rule="evenodd" clip-rule="evenodd" fill="#A7A49A" d="M492.7,537.3h-2l0.2-1.9h1.8V537.3z M509.4,537.3H507l0.1-1.9
					h2L509.4,537.3z"/>
				<path fill-rule="evenodd" clip-rule="evenodd" fill="#575759" d="M506.8,540.9c0.1-0.3,0.2-0.7,0.2-1.1c0-0.2,0.1-0.5,0.1-0.7
					c0-0.2,0-0.4-0.1-0.6v-0.1v-1h2.4v3.6H506.8z M490.7,537.3h2v1.5v0.3c0,0.1,0,0.1,0,0.2v0.2c0,0.5,0.1,1,0.2,1.5h-2.2V537.3z"/>
				
					<linearGradient id="SVGID_53_" gradientUnits="userSpaceOnUse" x1="120.207" y1="62.1587" x2="135.5574" y2="61.6177" gradientTransform="matrix(1.1666 0 0 1.1666 350.4006 461.2502)">
					<stop  offset="0" style="stop-color:#454643"/>
					<stop  offset="0.2" style="stop-color:#B1B4A3"/>
					<stop  offset="0.2784" style="stop-color:#FFFFFF"/>
					<stop  offset="0.349" style="stop-color:#FFFFFF"/>
					<stop  offset="0.4471" style="stop-color:#B1B4A3"/>
					<stop  offset="0.5922" style="stop-color:#B1B4A3"/>
					<stop  offset="0.6824" style="stop-color:#91938C"/>
					<stop  offset="0.8667" style="stop-color:#B1B4A3"/>
					<stop  offset="1" style="stop-color:#3E3F3C"/>
				</linearGradient>
				<path fill-rule="evenodd" clip-rule="evenodd" fill="url(#SVGID_53_)" d="M492.7,537.3v-1.9c0-0.6,0.1-1.1,0.2-1.6
					c0.3-1.2,0.9-2.4,1.9-3.3c0.7-0.7,1.6-1.3,2.5-1.6c0.8-0.3,1.6-0.5,2.6-0.5c0.1,0,0.2,0,0.2,0c0.9,0,1.7,0.2,2.5,0.5
					c0.9,0.3,1.6,0.9,2.3,1.6c1.4,1.4,2.1,3.1,2.1,5l-0.1,1.9v1c0-0.4-0.1-0.7-0.2-1v-0.1c-0.2-0.7-0.4-1.3-0.8-1.9
					c-0.3-0.5-0.6-1-1-1.4c-0.7-0.7-1.5-1.2-2.3-1.6c-0.8-0.3-1.6-0.5-2.5-0.5c-0.1,0-0.2-0.1-0.2-0.1c-0.9,0-1.8,0.2-2.6,0.5
					c-0.9,0.3-1.8,0.9-2.5,1.6c-0.4,0.4-0.8,0.9-1,1.4c-0.4,0.6-0.7,1.2-0.8,1.9v0.1c-0.1,0.4-0.2,0.9-0.2,1.4V537.3z"/>
				
					<linearGradient id="SVGID_54_" gradientUnits="userSpaceOnUse" x1="128.0933" y1="59.5498" x2="128.0718" y2="68.3498" gradientTransform="matrix(1.1666 0 0 1.1666 350.4006 461.2502)">
					<stop  offset="0" style="stop-color:#989898"/>
					<stop  offset="1" style="stop-color:#525254"/>
				</linearGradient>
				<path fill-rule="evenodd" clip-rule="evenodd" fill="url(#SVGID_54_)" d="M507,539.8c0,0.4-0.1,0.8-0.2,1.1
					c-0.3,1.2-0.9,2.3-1.9,3.3c-1.4,1.4-3.1,2.1-5.1,2.1c-0.1,0-0.2,0-0.3,0c-1.9-0.1-3.5-0.8-4.8-2.1c-0.9-0.9-1.6-2-1.9-3.3
					c-0.1-0.5-0.2-1-0.2-1.5v-0.2c0,0,0-0.1,0-0.2v-0.3c0-0.5,0.1-1,0.2-1.4v-0.1c0.2-0.7,0.4-1.3,0.8-1.9c0.3-0.5,0.6-1,1-1.4
					c0.7-0.7,1.6-1.3,2.5-1.6c0.8-0.3,1.6-0.5,2.6-0.5c0.1,0,0.2,0,0.2,0.1c0.9,0,1.7,0.2,2.5,0.5c0.9,0.3,1.6,0.9,2.3,1.6
					c0.4,0.4,0.8,0.9,1,1.4c0.4,0.6,0.7,1.2,0.8,1.9v0.1c0.1,0.3,0.2,0.6,0.2,1v0.1V539.8z M502.8,539.4c0-0.8-0.3-1.5-0.9-2.2
					c-0.6-0.6-1.3-0.9-2.2-0.9c-0.8,0-1.5,0.3-2.1,0.9c-0.6,0.6-0.9,1.3-0.9,2.2s0.3,1.5,0.9,2.2c0.6,0.6,1.3,0.9,2.1,0.9
					c0.9,0,1.6-0.3,2.2-0.9C502.5,540.9,502.8,540.2,502.8,539.4z"/>
				<path fill-rule="evenodd" clip-rule="evenodd" fill="#27262C" d="M502.8,539.4c0,0.8-0.3,1.5-0.9,2.2c-0.6,0.6-1.3,0.9-2.2,0.9
					c-0.8,0-1.5-0.3-2.1-0.9c-0.6-0.6-0.9-1.3-0.9-2.2s0.3-1.5,0.9-2.2c0.6-0.6,1.3-0.9,2.1-0.9c0.9,0,1.6,0.3,2.2,0.9
					C502.5,537.8,502.8,538.5,502.8,539.4z"/>
			</g>
		</g>
		<g>
			<g>
				
					<radialGradient id="SVGID_55_" cx="126.8501" cy="50.4502" r="8.8875" gradientTransform="matrix(1.1666 0 0 1.1371 350.4006 462.7403)" gradientUnits="userSpaceOnUse">
					<stop  offset="0" style="stop-color:#FFFFFF"/>
					<stop  offset="0.3137" style="stop-color:#FFFFFF;stop-opacity:0.8627"/>
					<stop  offset="1" style="stop-color:#FFFFFF;stop-opacity:7.843138e-003"/>
				</radialGradient>
				<path fill-rule="evenodd" clip-rule="evenodd" fill="url(#SVGID_55_)" d="M506.3,518.5c-2.1-1.9-4.5-2.9-7.2-2.9
					c-2.8,0-5.2,1-7.2,2.9c-1.7,1.6-2.7,3.6-2.9,5.9c0,0-0.1,0-0.1,0.1c0,0-0.1,0.1-0.1,0.1c0,0-0.1-0.1-0.1-0.1c0,0,0-0.1,0-0.1
					c0.2-2.3,1.2-4.4,3-6.1c2.1-2,4.5-3,7.4-3c2.8,0,5.3,1,7.4,3c1.7,1.7,2.7,3.7,3,6.1c0,0,0,0.1-0.1,0.1c0,0-0.1,0-0.1,0.1
					c-0.1,0-0.1,0-0.1-0.1l-0.1-0.1C509,522.1,508,520.1,506.3,518.5z"/>
				
					<radialGradient id="SVGID_56_" cx="126.75" cy="48.7998" r="10.325" gradientTransform="matrix(1.1666 0 0 1.144 350.4006 462.353)" gradientUnits="userSpaceOnUse">
					<stop  offset="0" style="stop-color:#FFFFFF"/>
					<stop  offset="0.3137" style="stop-color:#FFFFFF;stop-opacity:0.8627"/>
					<stop  offset="1" style="stop-color:#FFFFFF;stop-opacity:7.843138e-003"/>
				</radialGradient>
				<path fill-rule="evenodd" clip-rule="evenodd" fill="url(#SVGID_56_)" d="M499,512.6c3.3,0,6.2,1.1,8.6,3.4c2,2,3.2,4.3,3.5,7.1
					c0,0,0,0.1-0.1,0.1c0,0-0.1,0-0.1,0.1c-0.1,0-0.1,0-0.1-0.1l-0.1-0.1c-0.3-2.7-1.4-5-3.4-6.9c-2.4-2.3-5.2-3.4-8.5-3.4
					s-6.1,1.1-8.4,3.4c-1.9,1.9-3.1,4.2-3.3,6.9c0,0-0.1,0-0.1,0.1c0,0-0.1,0.1-0.1,0.1c0,0-0.1-0.1-0.1-0.1c0,0,0-0.1,0-0.1
					c0.3-2.7,1.4-5.1,3.4-7.1C492.8,513.7,495.7,512.5,499,512.6z"/>
				
					<radialGradient id="SVGID_57_" cx="126" cy="45" r="10.9625" gradientTransform="matrix(1.1666 0 0 1.1507 350.4006 461.9686)" gradientUnits="userSpaceOnUse">
					<stop  offset="0" style="stop-color:#FFFFFF"/>
					<stop  offset="0.3137" style="stop-color:#FFFFFF;stop-opacity:0.8627"/>
					<stop  offset="1" style="stop-color:#FFFFFF;stop-opacity:7.843138e-003"/>
				</radialGradient>
				<path fill-rule="evenodd" clip-rule="evenodd" fill="url(#SVGID_57_)" d="M507.4,511.4c2.1,2.1,3.4,4.6,3.7,7.5
					c0,0,0,0.1-0.1,0.1c0,0-0.1,0-0.1,0.1c-0.1,0-0.1,0-0.1-0.1l-0.1-0.1c-0.4-2.8-1.6-5.3-3.7-7.3c-2.5-2.4-5.4-3.6-8.9-3.6
					c-3.5,0-6.4,1.2-8.9,3.6c-2.1,2.1-3.2,4.5-3.6,7.3c0,0-0.1,0-0.1,0.1c0,0-0.1,0.1-0.1,0.1c0,0-0.1-0.1-0.1-0.1c0,0,0-0.1,0-0.1
					c0.3-2.9,1.5-5.4,3.6-7.5h0.1c2.5-2.5,5.6-3.7,9.1-3.7C501.8,507.7,504.8,508.9,507.4,511.4z"/>
			</g>
		</g>
		<g>
			
				<radialGradient id="SVGID_58_" cx="127.8999" cy="55.3501" r="5.975" gradientTransform="matrix(1.1666 0 0 0.4613 350.4006 500.2912)" gradientUnits="userSpaceOnUse">
				<stop  offset="0" style="stop-color:#FFFFFF"/>
				<stop  offset="0.1765" style="stop-color:#FFFFFF"/>
				<stop  offset="0.3059" style="stop-color:#FFFFFF;stop-opacity:0.4235"/>
				<stop  offset="0.4902" style="stop-color:#FFFFFF;stop-opacity:0.2314"/>
				<stop  offset="0.651" style="stop-color:#FFFFFF;stop-opacity:8.235294e-002"/>
				<stop  offset="1" style="stop-color:#FFFFFF;stop-opacity:0"/>
			</radialGradient>
			<path fill-rule="evenodd" clip-rule="evenodd" fill="url(#SVGID_58_)" d="M494.8,524c1.4-0.5,3-0.8,4.8-0.8
				c1.9,0,3.5,0.3,4.8,0.8c1.4,0.5,2.1,1.1,2.1,1.9c0,0.8-0.7,1.4-2.1,1.9c-1.4,0.5-3,0.8-4.8,0.8c-1.9,0-3.5-0.3-4.8-0.8
				c-1.3-0.5-1.9-1.1-1.9-1.9C492.8,525.1,493.5,524.5,494.8,524z"/>
		</g>
		<g>
			
				<radialGradient id="SVGID_59_" cx="128.3999" cy="60.6499" r="4.875" gradientTransform="matrix(1.1666 0 0 0.5654 350.4006 497.7167)" gradientUnits="userSpaceOnUse">
				<stop  offset="0" style="stop-color:#FFFFFF"/>
				<stop  offset="0.1765" style="stop-color:#FFFFFF"/>
				<stop  offset="0.3059" style="stop-color:#FFFFFF;stop-opacity:0.4235"/>
				<stop  offset="0.4902" style="stop-color:#FFFFFF;stop-opacity:0.2314"/>
				<stop  offset="0.651" style="stop-color:#FFFFFF;stop-opacity:8.235294e-002"/>
				<stop  offset="1" style="stop-color:#FFFFFF;stop-opacity:0"/>
			</radialGradient>
			<path fill-rule="evenodd" clip-rule="evenodd" fill="url(#SVGID_59_)" d="M496.2,530.1c1.1-0.5,2.5-0.8,4-0.8s2.8,0.3,4,0.8
				c1.1,0.5,1.7,1.1,1.7,1.9c0,0.8-0.6,1.4-1.7,1.9c-1.1,0.5-2.4,0.8-4,0.8s-2.8-0.3-4-0.8c-1-0.5-1.6-1.1-1.6-1.9
				C494.7,531.3,495.2,530.6,496.2,530.1z"/>
		</g>
		<g>
			
				<radialGradient id="SVGID_60_" cx="128" cy="69.5498" r="3.1125" gradientTransform="matrix(1.1666 0 0 0.5763 350.4006 502.3083)" gradientUnits="userSpaceOnUse">
				<stop  offset="0" style="stop-color:#FFFFFF"/>
				<stop  offset="0.1765" style="stop-color:#FFFFFF"/>
				<stop  offset="0.3059" style="stop-color:#FFFFFF;stop-opacity:0.4235"/>
				<stop  offset="0.4902" style="stop-color:#FFFFFF;stop-opacity:0.2314"/>
				<stop  offset="0.651" style="stop-color:#FFFFFF;stop-opacity:8.235294e-002"/>
				<stop  offset="1" style="stop-color:#FFFFFF;stop-opacity:0"/>
			</radialGradient>
			<path fill-rule="evenodd" clip-rule="evenodd" fill="url(#SVGID_60_)" d="M497.2,541.2c0.7-0.3,1.5-0.5,2.5-0.5s1.8,0.2,2.5,0.5
				c0.7,0.3,1.1,0.8,1.1,1.2c0,0.5-0.4,0.9-1.1,1.3c-0.7,0.4-1.5,0.5-2.5,0.5s-1.8-0.2-2.5-0.5c-0.7-0.3-1-0.8-1-1.3
				C496.2,541.9,496.5,541.5,497.2,541.2z"/>
		</g>
		<g>
			
				<radialGradient id="SVGID_61_" cx="127.3999" cy="43.8501" r="5.975" gradientTransform="matrix(1.1666 0 0 0.4613 350.4006 492.1797)" gradientUnits="userSpaceOnUse">
				<stop  offset="0" style="stop-color:#FFFFFF"/>
				<stop  offset="0.1765" style="stop-color:#FFFFFF"/>
				<stop  offset="0.3059" style="stop-color:#FFFFFF;stop-opacity:0.4235"/>
				<stop  offset="0.4902" style="stop-color:#FFFFFF;stop-opacity:0.2314"/>
				<stop  offset="0.651" style="stop-color:#FFFFFF;stop-opacity:8.235294e-002"/>
				<stop  offset="1" style="stop-color:#FFFFFF;stop-opacity:0"/>
			</radialGradient>
			<path fill-rule="evenodd" clip-rule="evenodd" fill="url(#SVGID_61_)" d="M494.2,510.5c1.4-0.5,3-0.8,4.8-0.8
				c1.9,0,3.5,0.3,4.8,0.8c1.4,0.5,2.1,1.1,2.1,1.9c0,0.8-0.7,1.4-2.1,1.9c-1.4,0.5-3,0.8-4.8,0.8c-1.9,0-3.5-0.3-4.8-0.8
				c-1.3-0.5-1.9-1.1-1.9-1.9C492.3,511.7,492.9,511,494.2,510.5z"/>
		</g>
		<g>
			
				<radialGradient id="SVGID_62_" cx="127.2002" cy="39.9502" r="7.3875" gradientTransform="matrix(1.1666 0 0 0.3731 350.4006 492.9524)" gradientUnits="userSpaceOnUse">
				<stop  offset="0" style="stop-color:#FFFFFF"/>
				<stop  offset="0.1765" style="stop-color:#FFFFFF"/>
				<stop  offset="0.3059" style="stop-color:#FFFFFF;stop-opacity:0.4235"/>
				<stop  offset="0.4902" style="stop-color:#FFFFFF;stop-opacity:0.2314"/>
				<stop  offset="0.651" style="stop-color:#FFFFFF;stop-opacity:8.235294e-002"/>
				<stop  offset="1" style="stop-color:#FFFFFF;stop-opacity:0"/>
			</radialGradient>
			<path fill-rule="evenodd" clip-rule="evenodd" fill="url(#SVGID_62_)" d="M504.8,506c1.7,0.5,2.6,1.1,2.6,1.9
				c0,0.8-0.9,1.4-2.6,1.9c-1.7,0.5-3.7,0.8-6,0.8c-2.3,0-4.3-0.3-6-0.8c-1.6-0.5-2.4-1.1-2.4-1.9c0-0.7,0.8-1.4,2.4-1.9
				c1.7-0.5,3.7-0.8,6-0.8C501.1,505.2,503.1,505.4,504.8,506z"/>
		</g>
	</g>
	<g>
		<path fill-rule="evenodd" clip-rule="evenodd" d="M441.4,467.3h3.1v0.2c-0.4,0.1-0.7,0.2-0.8,0.2c-0.1,0-0.2,0.2-0.3,0.4
			c-0.1,0.1-0.1,0.4-0.1,0.8v6.8H443l-6.3-6.8v5.2c0,0.5,0.1,0.8,0.4,1c0.2,0.2,0.5,0.2,0.8,0.2h0.2v0.2h-3.3v-0.2
			c0.5,0,0.9-0.1,1.1-0.3c0.2-0.2,0.3-0.5,0.3-0.9v-5.8L436,468c-0.2-0.2-0.3-0.3-0.5-0.4c-0.2-0.1-0.4-0.1-0.7-0.2v-0.2h3.3
			l4.5,5.1v-3.6c0-0.5-0.1-0.8-0.2-1c-0.2-0.2-0.6-0.4-1.1-0.4V467.3z M430.4,467.8c-0.2,0-0.7-0.1-1.4-0.1h-1v3.3h0.2
			c0.6,0,1-0.2,1.2-0.5c0.3-0.3,0.4-0.8,0.5-1.5h0.3v4.3H430c0-0.5-0.2-0.9-0.4-1.2c-0.2-0.3-0.3-0.5-0.6-0.6
			c-0.2-0.1-0.6-0.1-1-0.1v2.2c0,0.5,0,0.8,0.1,0.9c0,0.1,0.1,0.2,0.2,0.2c0.1,0.1,0.3,0.1,0.6,0.1h0.5c0.9,0,1.6-0.2,2.1-0.5
			c0.5-0.3,0.9-0.9,1.1-1.6h0.2l-0.4,2.6h-8v-0.2h0.3c0.3,0,0.5-0.1,0.6-0.2c0.1,0,0.2-0.1,0.3-0.2c0-0.1,0.1-0.4,0.1-0.8v-5.4
			c0-0.3,0-0.5,0-0.6c-0.1-0.2-0.2-0.3-0.3-0.3c-0.2-0.2-0.4-0.2-0.7-0.2h-0.3v-0.2h7.8v2.4h-0.3c-0.1-0.6-0.3-1-0.5-1.3
			C431.2,468.1,430.8,467.9,430.4,467.8z M422,468c-0.2,0.2-0.5,0.7-0.8,1.4l-3.2,6.2h-0.2l-3.2-6.5c-0.4-0.8-0.6-1.2-0.8-1.3
			c-0.2-0.2-0.4-0.3-0.8-0.3v-0.2h4.4v0.2h-0.2c-0.4,0-0.7,0.1-0.8,0.2c-0.1,0.1-0.1,0.2-0.1,0.2c0,0.1,0,0.2,0.1,0.3
			c0,0.1,0.2,0.4,0.3,0.8l2,4l1.8-3.6c0.2-0.5,0.4-0.8,0.4-0.9c0-0.2,0.1-0.3,0.1-0.4c0-0.2,0-0.3-0.1-0.3c-0.1-0.1-0.2-0.2-0.3-0.2
			c-0.2-0.1-0.4-0.1-0.8-0.1v-0.2h3v0.2C422.6,467.5,422.2,467.7,422,468z M410.2,474c-0.9,1-2.2,1.6-3.9,1.6c-1.7,0-3-0.5-3.8-1.5
			c-0.7-0.8-1.1-1.8-1.1-2.9c0-1.2,0.5-2.2,1.5-3c0.9-0.8,2.1-1.2,3.4-1.1c1.5-0.1,2.7,0.3,3.6,1.1c0.9,0.8,1.4,1.8,1.4,3
			C411.2,472.3,410.9,473.2,410.2,474z M406.3,467.5c-0.9,0-1.5,0.4-1.9,1.2c-0.3,0.6-0.5,1.5-0.5,2.7c0,1.4,0.3,2.4,0.8,3.1
			c0.4,0.5,0.9,0.7,1.6,0.7c0.5,0,0.9-0.1,1.2-0.3c0.4-0.3,0.7-0.7,0.9-1.2c0.2-0.5,0.3-1.3,0.3-2.2c0-1-0.1-1.8-0.3-2.4
			c-0.2-0.6-0.5-1-0.9-1.2C407.2,467.6,406.8,467.5,406.3,467.5z M386,467.6c-0.2-0.1-0.4-0.2-0.6-0.2h-0.3v-0.2h4.1
			c1.1,0,2,0.1,2.7,0.4c0.8,0.3,1.4,0.8,1.9,1.5c0.4,0.7,0.6,1.4,0.6,2.2c0,0.6-0.1,1.1-0.3,1.6c-0.2,0.5-0.5,0.9-0.8,1.2
			c-0.3,0.3-0.7,0.5-1.2,0.8c-0.4,0.2-1,0.4-1.6,0.5c-0.3,0-0.7,0.1-1.3,0.1h-4.1v-0.2h0.3c0.3,0,0.5,0,0.6-0.1
			c0.2-0.1,0.3-0.2,0.3-0.3c0.1-0.1,0.1-0.4,0.1-0.8v-5.4c0-0.4,0-0.6-0.1-0.8C386.3,467.8,386.2,467.7,386,467.6z M388.7,467.7v6.4
			c0,0.3,0,0.5,0.1,0.6c0,0.1,0.1,0.2,0.2,0.2c0.1,0,0.3,0.1,0.5,0.1c0.8,0,1.4-0.2,1.8-0.7c0.5-0.6,0.8-1.6,0.8-2.9
			c0-1-0.2-1.9-0.6-2.5c-0.3-0.5-0.6-0.8-1.1-1C389.9,467.8,389.4,467.7,388.7,467.7z M380.6,467.8c-0.2,0-0.7-0.1-1.4-0.1h-1v3.3
			h0.2c0.6,0,1-0.2,1.2-0.5c0.3-0.3,0.4-0.8,0.5-1.5h0.3v4.3h-0.3c0-0.5-0.2-0.9-0.3-1.2c-0.2-0.3-0.3-0.5-0.6-0.6
			c-0.2-0.1-0.6-0.1-1-0.1v2.2c0,0.5,0,0.8,0.1,0.9c0,0.1,0.1,0.2,0.2,0.2c0.1,0.1,0.3,0.1,0.6,0.1h0.5c0.9,0,1.6-0.2,2.1-0.5
			c0.5-0.3,0.9-0.9,1.1-1.6h0.2l-0.4,2.6h-8v-0.2h0.3c0.3,0,0.5-0.1,0.6-0.2c0.1,0,0.2-0.1,0.3-0.2c0-0.1,0.1-0.4,0.1-0.8v-5.4
			c0-0.3,0-0.5,0-0.6c-0.1-0.2-0.2-0.3-0.3-0.3c-0.2-0.2-0.4-0.2-0.7-0.2h-0.3v-0.2h7.8v2.4h-0.3c-0.1-0.6-0.3-1-0.5-1.3
			C381.4,468.1,381.1,467.9,380.6,467.8z M369.1,467.4h-0.4c-0.3,0-0.5,0.1-0.6,0.2c-0.1,0.1-0.2,0.2-0.3,0.3c0,0.1-0.1,0.3-0.1,0.7
			v5.3c0,0.4,0,0.7,0.1,0.8c0.1,0.1,0.2,0.2,0.4,0.3c0.1,0,0.4,0.1,0.8,0.1h0.8c0.5,0,0.9-0.1,1.2-0.2c0.3-0.2,0.6-0.4,0.9-0.7
			c0.2-0.3,0.5-0.9,0.7-1.5h0.3l-0.4,2.9h-8.3v-0.2h0.4c0.3,0,0.5-0.1,0.6-0.2c0.1,0,0.2-0.1,0.3-0.2c0-0.1,0.1-0.4,0.1-0.8v-5.4
			c0-0.4,0-0.6-0.1-0.8c-0.1-0.1-0.2-0.2-0.4-0.2c-0.2-0.1-0.3-0.2-0.6-0.2h-0.4v-0.2h5V467.4z M358.6,467.4h-0.4
			c-0.3,0-0.5,0.1-0.6,0.2c-0.1,0.1-0.2,0.2-0.3,0.3c0,0.1-0.1,0.3-0.1,0.7v5.3c0,0.4,0,0.7,0.1,0.8c0.1,0.1,0.2,0.2,0.4,0.3
			c0.1,0,0.4,0.1,0.8,0.1h0.8c0.5,0,0.9-0.1,1.2-0.2c0.3-0.2,0.6-0.4,0.9-0.7c0.2-0.3,0.5-0.9,0.7-1.5h0.3l-0.3,2.9h-8.3v-0.2h0.3
			c0.3,0,0.5-0.1,0.6-0.2c0.1,0,0.2-0.1,0.3-0.2c0-0.1,0.1-0.4,0.1-0.8v-5.4c0-0.4,0-0.6-0.1-0.8c-0.1-0.1-0.2-0.2-0.3-0.2
			c-0.2-0.1-0.4-0.2-0.6-0.2h-0.3v-0.2h5V467.4z M350.7,474c-0.9,1-2.2,1.6-3.9,1.6c-1.7,0-3-0.5-3.9-1.5c-0.7-0.8-1.1-1.8-1.1-2.9
			c0-1.2,0.5-2.2,1.5-3c0.9-0.8,2.1-1.2,3.4-1.1c1.5-0.1,2.7,0.3,3.6,1.1c0.9,0.8,1.4,1.8,1.4,3C351.7,472.3,351.4,473.2,350.7,474z
			 M346.8,467.5c-0.9,0-1.5,0.4-1.9,1.2c-0.3,0.6-0.5,1.5-0.5,2.7c0,1.4,0.3,2.4,0.8,3.1c0.4,0.5,0.9,0.7,1.6,0.7
			c0.5,0,0.9-0.1,1.2-0.3c0.4-0.3,0.7-0.7,0.9-1.2c0.2-0.5,0.4-1.3,0.4-2.2c0-1-0.1-1.8-0.4-2.4c-0.2-0.6-0.5-1-0.9-1.2
			C347.7,467.6,347.3,467.5,346.8,467.5z M339.7,475c0.2,0.1,0.4,0.2,0.6,0.2v0.2h-2.9l-3-3.7h-0.6v2.3c0,0.4,0,0.7,0.1,0.8
			c0.1,0.1,0.2,0.2,0.4,0.3c0.2,0.1,0.4,0.1,0.9,0.1v0.2h-4.8v-0.2c0.4,0,0.7,0,0.9-0.1c0.2-0.1,0.3-0.2,0.4-0.3
			c0-0.1,0.1-0.4,0.1-0.8v-5.3c0-0.4,0-0.7-0.1-0.8c-0.1-0.1-0.2-0.2-0.4-0.3c-0.2-0.1-0.4-0.1-0.9-0.1v-0.2h4.3
			c1.1,0,1.9,0.1,2.5,0.2c0.5,0.2,1,0.4,1.3,0.8c0.4,0.4,0.5,0.8,0.5,1.3c0,0.6-0.3,1.1-0.8,1.5c-0.3,0.2-0.8,0.4-1.3,0.6l2.3,2.7
			C339.4,474.7,339.6,474.9,339.7,475z M334.5,467.7h-0.7v3.5h0.4c0.7,0,1.1,0,1.5-0.1c0.3-0.1,0.6-0.3,0.8-0.5
			c0.2-0.3,0.2-0.6,0.2-1.1c0-0.6-0.2-1.1-0.5-1.3C335.8,467.9,335.3,467.7,334.5,467.7z M327,467.8c-0.2,0-0.4-0.1-0.9-0.1h-0.7
			v6.3c0,0.4,0,0.6,0.1,0.8c0.1,0.1,0.2,0.2,0.4,0.2c0.1,0.1,0.3,0.2,0.6,0.2h0.4v0.2h-4.9v-0.2h0.4c0.3,0,0.5-0.1,0.6-0.2
			c0.1,0,0.2-0.1,0.3-0.2c0-0.1,0.1-0.4,0.1-0.8v-6.3h-0.7c-0.6,0-1.1,0.1-1.3,0.4c-0.4,0.3-0.6,0.8-0.8,1.3h-0.2v-2.2h8.3v2.2h-0.2
			c-0.2-0.5-0.3-0.9-0.5-1C327.5,468.1,327.3,467.9,327,467.8z M315.1,467.4v-0.2h3.1v0.2c-0.4,0.1-0.7,0.2-0.8,0.2
			c-0.1,0-0.2,0.2-0.3,0.4c-0.1,0.1-0.1,0.4-0.1,0.8v6.8h-0.2l-6.3-6.8v5.2c0,0.5,0.1,0.8,0.4,1c0.2,0.2,0.5,0.2,0.8,0.2h0.2v0.2
			h-3.3v-0.2c0.5,0,0.9-0.1,1.1-0.3c0.2-0.2,0.3-0.5,0.3-0.9v-5.8l-0.2-0.2c-0.2-0.2-0.4-0.3-0.5-0.4c-0.2-0.1-0.4-0.1-0.7-0.2v-0.2
			h3.3l4.5,5.1v-3.6c0-0.5-0.1-0.8-0.2-1C315.9,467.5,315.6,467.4,315.1,467.4z M304.2,471.4c0-1-0.1-1.8-0.3-2.4
			c-0.2-0.6-0.5-1-0.9-1.2c-0.4-0.2-0.8-0.4-1.2-0.4c-0.9,0-1.5,0.4-1.9,1.2c-0.3,0.6-0.5,1.5-0.5,2.7c0,1.4,0.3,2.4,0.8,3.1
			c0.4,0.5,0.9,0.7,1.6,0.7c0.5,0,0.9-0.1,1.2-0.3c0.4-0.3,0.7-0.7,0.9-1.2C304.1,473.1,304.2,472.3,304.2,471.4z M305.6,474
			c-0.9,1-2.2,1.6-3.9,1.6c-1.7,0-3-0.5-3.8-1.5c-0.7-0.8-1.1-1.8-1.1-2.9c0-1.2,0.5-2.2,1.5-3c0.9-0.8,2.1-1.2,3.4-1.1
			c1.5-0.1,2.7,0.3,3.6,1.1c0.9,0.8,1.4,1.8,1.4,3C306.7,472.3,306.3,473.2,305.6,474z M294.3,467v2.9h-0.2
			c-0.2-0.7-0.6-1.3-1.2-1.8c-0.5-0.3-1.1-0.5-1.8-0.5c-0.6,0-1.1,0.2-1.6,0.5c-0.5,0.3-0.8,0.6-1,1.1c-0.3,0.6-0.4,1.3-0.4,2
			c0,0.8,0.1,1.5,0.3,2c0.2,0.6,0.5,1.1,1,1.3c0.4,0.3,1,0.5,1.8,0.5c0.6,0,1.1-0.1,1.6-0.3c0.5-0.2,1-0.6,1.6-1.2v0.7
			c-0.5,0.5-1.1,0.9-1.6,1.1c-0.6,0.2-1.2,0.3-2,0.3c-1,0-1.9-0.2-2.6-0.6c-0.8-0.3-1.4-0.8-1.8-1.5s-0.6-1.4-0.6-2.1
			c0-0.8,0.2-1.5,0.7-2.2c0.5-0.7,1.1-1.2,1.9-1.6c0.8-0.4,1.6-0.6,2.5-0.6c0.7,0,1.4,0.1,2.1,0.4c0.4,0.2,0.7,0.2,0.8,0.2
			s0.2-0.1,0.3-0.2c0.1-0.1,0.2-0.3,0.2-0.5H294.3z M273.4,467.3c1.1,0,2,0.1,2.7,0.4c0.8,0.3,1.4,0.8,1.9,1.5
			c0.4,0.7,0.6,1.4,0.6,2.2c0,0.6-0.1,1.1-0.3,1.6c-0.2,0.5-0.5,0.9-0.8,1.2c-0.3,0.3-0.7,0.5-1.2,0.8c-0.4,0.2-1,0.4-1.6,0.5
			c-0.3,0-0.7,0.1-1.3,0.1h-4.1v-0.2h0.3c0.3,0,0.5,0,0.6-0.1c0.2-0.1,0.3-0.2,0.3-0.3c0.1-0.1,0.1-0.4,0.1-0.8v-5.4
			c0-0.4,0-0.6-0.1-0.8c0-0.1-0.1-0.2-0.3-0.2c-0.2-0.1-0.4-0.2-0.6-0.2h-0.3v-0.2H273.4z M273.6,475c0.8,0,1.4-0.2,1.8-0.7
			c0.5-0.6,0.8-1.6,0.8-2.9c0-1-0.2-1.9-0.6-2.5c-0.3-0.5-0.6-0.8-1.1-1c-0.4-0.1-0.9-0.2-1.6-0.2v6.4c0,0.3,0,0.5,0.1,0.6
			c0,0.1,0.1,0.2,0.2,0.2C273.2,474.9,273.3,475,273.6,475z M263.7,467.6c-0.2-0.1-0.4-0.2-0.6-0.2h-0.3v-0.2h4.8v0.2h-0.3
			c-0.3,0-0.5,0.1-0.7,0.2c-0.1,0.1-0.2,0.2-0.2,0.3c-0.1,0.1-0.1,0.3-0.1,0.7v5.4c0,0.4,0,0.6,0.1,0.8c0,0.1,0.1,0.2,0.3,0.2
			c0.2,0.1,0.4,0.2,0.6,0.2h0.3v0.2h-4.8v-0.2h0.3c0.3,0,0.5-0.1,0.6-0.2c0.1,0,0.2-0.1,0.3-0.2c0-0.1,0.1-0.4,0.1-0.8v-5.4
			c0-0.4,0-0.6-0.1-0.8C264,467.8,263.9,467.7,263.7,467.6z M260,467.8c0.6,0.4,0.9,1,0.9,1.6c0,0.5-0.2,1-0.5,1.3
			c-0.4,0.4-0.9,0.7-1.6,0.8c-0.4,0.1-1.2,0.1-2.2,0.1v2.3c0,0.4,0,0.7,0.1,0.8c0.1,0.1,0.2,0.2,0.3,0.3c0.2,0.1,0.4,0.1,0.9,0.1
			v0.2h-4.7v-0.2c0.4,0,0.7,0,0.9-0.1c0.2-0.1,0.3-0.2,0.3-0.3c0-0.1,0.1-0.4,0.1-0.8v-5.3c0-0.4,0-0.7-0.1-0.8
			c-0.1-0.1-0.2-0.2-0.3-0.3c-0.2-0.1-0.4-0.1-0.9-0.1v-0.2h4C258.5,467.3,259.4,467.5,260,467.8z M256.8,467.7h-0.3v3.5
			c0.2,0,0.3,0,0.4,0c0.5,0,1-0.1,1.3-0.4c0.3-0.3,0.4-0.8,0.4-1.4c0-0.6-0.1-1-0.4-1.3C257.9,467.9,257.4,467.7,256.8,467.7z"/>
	</g>
	<g>
		<g>
			
				<radialGradient id="SVGID_63_" cx="126.0815" cy="16.1001" r="9.1125" fx="126.1173" fy="16.1001" gradientTransform="matrix(1.1666 0 0.1056 1.1986 350.3549 460.735)" gradientUnits="userSpaceOnUse">
				<stop  offset="0.5725" style="stop-color:#000000;stop-opacity:0.698"/>
				<stop  offset="0.7176" style="stop-color:#000000;stop-opacity:0.498"/>
				<stop  offset="1" style="stop-color:#000000;stop-opacity:0"/>
			</radialGradient>
			<path fill-rule="evenodd" clip-rule="evenodd" fill="url(#SVGID_63_)" d="M508.3,474.2c2.8,2.3,4.4,5.2,4.7,8.5
				c0.3,3.3-0.8,6.1-3.2,8.4c-2.4,2.3-5.4,3.5-9.2,3.5c-3.7,0-7-1.2-9.8-3.5c-2.8-2.3-4.3-5.1-4.6-8.5c-0.3-3.3,0.7-6.1,3.2-8.4
				c2.4-2.3,5.5-3.5,9.2-3.5C502.2,470.7,505.5,471.9,508.3,474.2z"/>
		</g>
		<g>
			<g>
				
					<linearGradient id="SVGID_64_" gradientUnits="userSpaceOnUse" x1="119.75" y1="13.1255" x2="133.775" y2="13.1255" gradientTransform="matrix(1.1666 0 0 1.1666 350.4006 461.2502)">
					<stop  offset="0" style="stop-color:#5F5F5F"/>
					<stop  offset="0.149" style="stop-color:#A09A9A"/>
					<stop  offset="0.3137" style="stop-color:#A09A9A"/>
					<stop  offset="0.4471" style="stop-color:#D6D3D3"/>
					<stop  offset="0.5843" style="stop-color:#A09A9A"/>
					<stop  offset="1" style="stop-color:#625C5C"/>
				</linearGradient>
				<path fill-rule="evenodd" clip-rule="evenodd" fill="url(#SVGID_64_)" d="M506.5,478c-0.4-1.3-1.1-2.4-2.2-3.5
					c-1.6-1.6-3.5-2.4-5.8-2.4c-0.3,0-0.6,0-0.9,0.1c-0.6,0-1.1,0.1-1.6,0.3c-1.2,0.4-2.3,1.1-3.3,2c-1.6,1.6-2.4,3.6-2.4,5.8
					c0,0.5,0,1,0.1,1.5c-0.2-0.7-0.3-1.5-0.3-2.3c0-2.3,0.8-4.2,2.4-5.8c1-1,2.2-1.7,3.4-2.1c0.5-0.2,1-0.3,1.6-0.3
					c0.3,0,0.5,0,0.8,0c2.3,0,4.2,0.8,5.8,2.4C505.4,474.9,506.2,476.4,506.5,478z"/>
				<path fill-rule="evenodd" clip-rule="evenodd" fill="#756C6D" d="M506.5,478c0.2,0.7,0.3,1.5,0.3,2.3c0,2.3-0.8,4.2-2.4,5.8
					c-1.6,1.6-3.5,2.4-5.8,2.4c-2.3,0-4.2-0.8-5.8-2.4c-1.2-1.3-2-2.7-2.3-4.4c-0.1-0.5-0.1-1-0.1-1.5c0-2.3,0.8-4.2,2.4-5.8
					c1-1,2.1-1.7,3.3-2c0.5-0.2,1.1-0.3,1.6-0.3c0.3,0,0.6-0.1,0.9-0.1c2.3,0,4.2,0.8,5.8,2.4C505.4,475.6,506.1,476.8,506.5,478z"
					/>
			</g>
		</g>
		<g>
			<g>
				<polygon fill-rule="evenodd" clip-rule="evenodd" fill="#7D787C" points="502.8,474.6 502.7,474.5 494.7,474.5 494.7,474.6 
					494.5,473.3 494.5,473.3 502.5,473.3 502.6,473.4 				"/>
				<polygon fill-rule="evenodd" clip-rule="evenodd" fill="#6D676B" points="502.6,473.4 506.4,480.3 506.6,481.5 506.2,480.8 
					502.8,474.6 				"/>
				<polygon fill-rule="evenodd" clip-rule="evenodd" fill="#504F5D" points="490.6,481.4 494.7,474.6 494.7,474.5 502.7,474.5 
					502.8,474.6 506.2,480.8 506.6,481.5 506.6,481.6 502.6,488.4 494.5,488.4 				"/>
				<polygon fill-rule="evenodd" clip-rule="evenodd" fill="#B3AEB1" points="494.7,474.6 490.6,481.4 490.5,480.2 490.5,480.1 
					494.5,473.3 				"/>
			</g>
		</g>
		<g>
			<g>
				<path fill-rule="evenodd" clip-rule="evenodd" fill="#414046" d="M504.7,481.5c0.3,0.7,0.4,1.4,0.4,2.2c0,1.7-0.6,3.1-1.8,4.3
					c-1.2,1.2-2.6,1.8-4.3,1.8s-3.1-0.6-4.3-1.8c-1.1-1.1-1.7-2.5-1.8-4.1c0-0.1,0-0.1,0-0.2c0-1.6,0.6-3.1,1.8-4.3
					c1.2-1.2,2.6-1.8,4.3-1.8s3.1,0.6,4.3,1.8C504,480,504.4,480.7,504.7,481.5z M502.2,480.9c-0.8-0.8-1.8-1.2-3-1.2
					c-1.2,0-2.2,0.4-3,1.2c-0.8,0.8-1.2,1.8-1.2,3c0,1.2,0.4,2.2,1.2,3c0.8,0.9,1.8,1.3,3,1.3c1.2,0,2.2-0.4,3-1.3
					c0.8-0.8,1.2-1.8,1.2-3C503.4,482.7,503,481.7,502.2,480.9z"/>
				<path fill-rule="evenodd" clip-rule="evenodd" d="M502.2,480.9c0.8,0.8,1.2,1.8,1.2,3c0,1.2-0.4,2.2-1.2,3
					c-0.8,0.9-1.8,1.3-3,1.3c-1.2,0-2.2-0.4-3-1.3c-0.8-0.8-1.2-1.8-1.2-3c0-1.2,0.4-2.2,1.2-3c0.8-0.8,1.8-1.2,3-1.2
					C500.4,479.7,501.4,480.1,502.2,480.9z"/>
				
					<linearGradient id="SVGID_65_" gradientUnits="userSpaceOnUse" x1="121.9507" y1="15.8252" x2="132.25" y2="15.8252" gradientTransform="matrix(1.1666 0 0 1.1666 350.4006 461.2502)">
					<stop  offset="0" style="stop-color:#484545"/>
					<stop  offset="0.2588" style="stop-color:#A29C9E"/>
					<stop  offset="0.4471" style="stop-color:#D0C8CB"/>
					<stop  offset="0.5843" style="stop-color:#A09A9A"/>
					<stop  offset="1" style="stop-color:#544B4E"/>
				</linearGradient>
				<path fill-rule="evenodd" clip-rule="evenodd" fill="url(#SVGID_65_)" d="M493.1,483.8c-0.3-0.7-0.4-1.4-0.4-2.2
					c0-1.6,0.6-3.1,1.8-4.3c1.2-1.2,2.6-1.8,4.2-1.8c1.7,0,3.1,0.6,4.3,1.8c1.1,1.2,1.7,2.5,1.8,4.1c-0.3-0.8-0.7-1.5-1.3-2.1
					c-1.2-1.2-2.6-1.8-4.3-1.8s-3.1,0.6-4.3,1.8c-1.2,1.2-1.8,2.6-1.8,4.3C493.1,483.7,493.1,483.7,493.1,483.8z"/>
			</g>
		</g>
		<g>
			<g>
				<polygon fill-rule="evenodd" clip-rule="evenodd" fill="#FFFFFF" fill-opacity="0.2471" points="494.6,474.5 494.6,474.5 
					494.7,474.5 502.7,474.5 502.7,474.6 494.7,474.6 494.7,474.5 494.7,474.5 				"/>
				<polygon fill-rule="evenodd" clip-rule="evenodd" fill="#FFFFFF" fill-opacity="0.3451" points="494.7,474.6 493.7,476.2 
					493.7,476.2 493.7,476.2 494.6,474.5 494.7,474.5 494.7,474.5 				"/>
				
					<radialGradient id="SVGID_66_" cx="126.6499" cy="10.0498" r="5.95" gradientTransform="matrix(1.1666 0 0 0.8088 350.4006 464.8464)" gradientUnits="userSpaceOnUse">
					<stop  offset="0" style="stop-color:#FFFFFF"/>
					<stop  offset="0.4471" style="stop-color:#FFFFFF;stop-opacity:0.7804"/>
					<stop  offset="1" style="stop-color:#FFFFFF;stop-opacity:7.843138e-003"/>
				</radialGradient>
				<path fill-rule="evenodd" clip-rule="evenodd" fill="url(#SVGID_66_)" d="M498.6,472.2c-2.2,0-4.1,0.8-5.7,2.3
					c-0.5,0.5-1,1.1-1.3,1.8h-0.1c0,0,0-0.1,0-0.1c0.3-0.6,0.8-1.2,1.3-1.8c1.6-1.6,3.5-2.3,5.8-2.3c2.2,0,4.1,0.8,5.7,2.3
					c0.5,0.5,1,1.1,1.3,1.8v0.1h-0.1c-0.4-0.6-0.8-1.2-1.3-1.8C502.6,473,500.7,472.2,498.6,472.2z"/>
			</g>
		</g>
		<g>
			
				<radialGradient id="SVGID_67_" cx="123.5503" cy="11.4502" r="0.7997" gradientTransform="matrix(1.1666 0 0 0.9479 350.4006 463.7549)" gradientUnits="userSpaceOnUse">
				<stop  offset="0" style="stop-color:#FFFFFF"/>
				<stop  offset="0.1765" style="stop-color:#FFFFFF"/>
				<stop  offset="0.3059" style="stop-color:#FFFFFF;stop-opacity:0.4235"/>
				<stop  offset="0.4902" style="stop-color:#FFFFFF;stop-opacity:0.2314"/>
				<stop  offset="0.651" style="stop-color:#FFFFFF;stop-opacity:8.235294e-002"/>
				<stop  offset="1" style="stop-color:#FFFFFF;stop-opacity:0"/>
			</radialGradient>
			<path fill-rule="evenodd" clip-rule="evenodd" fill="url(#SVGID_67_)" d="M493.9,475.1c-0.2-0.2-0.3-0.3-0.3-0.5
				c0-0.2,0.1-0.4,0.3-0.5s0.4-0.2,0.6-0.2c0.3,0,0.5,0.1,0.6,0.2c0.2,0.2,0.3,0.3,0.3,0.5c0,0.2-0.1,0.4-0.3,0.5
				c-0.2,0.2-0.4,0.2-0.6,0.2C494.3,475.4,494.1,475.3,493.9,475.1z"/>
		</g>
		<g>
			
				<radialGradient id="SVGID_68_" cx="127.25" cy="13.9502" r="3.9" gradientTransform="matrix(1.1666 0 0 0.2804 350.4006 473.6127)" gradientUnits="userSpaceOnUse">
				<stop  offset="0" style="stop-color:#FFFFFF"/>
				<stop  offset="0.1765" style="stop-color:#FFFFFF"/>
				<stop  offset="0.3059" style="stop-color:#FFFFFF;stop-opacity:0.4235"/>
				<stop  offset="0.4902" style="stop-color:#FFFFFF;stop-opacity:0.2314"/>
				<stop  offset="0.651" style="stop-color:#FFFFFF;stop-opacity:8.235294e-002"/>
				<stop  offset="1" style="stop-color:#FFFFFF;stop-opacity:0"/>
			</radialGradient>
			<path fill-rule="evenodd" clip-rule="evenodd" fill="url(#SVGID_68_)" d="M495.7,476.8c0.9-0.2,1.9-0.3,3.2-0.3s2.3,0.1,3.2,0.3
				c0.9,0.2,1.3,0.4,1.3,0.8s-0.4,0.6-1.3,0.8c-0.9,0.2-2,0.3-3.2,0.3s-2.3-0.1-3.2-0.3c-0.9-0.2-1.3-0.4-1.3-0.8
				S494.8,477,495.7,476.8z"/>
		</g>
		<g>
			<g>
				
					<linearGradient id="SVGID_69_" gradientUnits="userSpaceOnUse" x1="125.29" y1="22.0156" x2="130.3895" y2="21.4855" gradientTransform="matrix(1.1666 0 0 1.1666 350.4006 461.2502)">
					<stop  offset="0" style="stop-color:#2A2A2A"/>
					<stop  offset="0.1529" style="stop-color:#777670"/>
					<stop  offset="0.2588" style="stop-color:#BDB9AC"/>
					<stop  offset="0.3765" style="stop-color:#C8C2BF"/>
					<stop  offset="0.4863" style="stop-color:#FFFFFF"/>
					<stop  offset="0.698" style="stop-color:#8C8571"/>
					<stop  offset="0.8667" style="stop-color:#8C8571"/>
					<stop  offset="1" style="stop-color:#35332F"/>
				</linearGradient>
				<path fill-rule="evenodd" clip-rule="evenodd" fill="url(#SVGID_69_)" d="M503.1,490.8c-0.2-0.5-0.4-0.9-0.8-1.2
					c-0.6-0.6-1.3-0.9-2.2-0.9c-0.5,0-1,0.1-1.4,0.3c-0.3,0.2-0.5,0.3-0.7,0.6c-0.6,0.5-0.9,1.2-0.9,2v0.1l-0.6-7.6
					c0-0.7,0.3-1.3,0.9-1.8c0.2-0.2,0.3-0.3,0.5-0.4c0.3-0.2,0.7-0.3,1.2-0.4c0.1,0,0.2,0,0.3,0c0.7,0,1.4,0.3,1.9,0.8
					c0.4,0.4,0.6,0.7,0.8,1.2c0,0.2,0.1,0.4,0.1,0.6v0.1L503.1,490.8z"/>
				
					<radialGradient id="SVGID_70_" cx="128.2998" cy="24" r="3.6625" gradientTransform="matrix(1.1666 0 0 1.2264 350.4006 459.8168)" gradientUnits="userSpaceOnUse">
					<stop  offset="0" style="stop-color:#FFFFFF"/>
					<stop  offset="0.2627" style="stop-color:#FEF9FD"/>
					<stop  offset="0.6314" style="stop-color:#897F8C"/>
					<stop  offset="1" style="stop-color:#382D3B"/>
				</radialGradient>
				<path fill-rule="evenodd" clip-rule="evenodd" fill="url(#SVGID_70_)" d="M497.2,491.8v-0.1c0-0.8,0.3-1.5,0.9-2
					c0.2-0.2,0.4-0.4,0.7-0.6c0.4-0.2,0.9-0.3,1.4-0.3c0.9,0,1.6,0.3,2.2,0.9c0.3,0.3,0.6,0.7,0.8,1.2c0.1,0.3,0.2,0.6,0.2,0.9
					c0,0.9-0.3,1.6-0.9,2.2c-0.6,0.6-1.3,0.9-2.2,0.9c-0.9,0-1.6-0.3-2.2-0.9c-0.5-0.5-0.8-1.1-0.9-1.8V491.8z"/>
			</g>
		</g>
		<g>
			
				<radialGradient id="SVGID_71_" cx="123.7637" cy="42.6104" r="0.824" gradientTransform="matrix(1.1503 -0.1947 0.5486 5.1497 332.3011 291.3444)" gradientUnits="userSpaceOnUse">
				<stop  offset="0" style="stop-color:#FFFFFF"/>
				<stop  offset="0.1765" style="stop-color:#FFFFFF"/>
				<stop  offset="0.3059" style="stop-color:#FFFFFF;stop-opacity:0.4235"/>
				<stop  offset="0.4902" style="stop-color:#FFFFFF;stop-opacity:0.2314"/>
				<stop  offset="0.651" style="stop-color:#FFFFFF;stop-opacity:8.235294e-002"/>
				<stop  offset="1" style="stop-color:#FFFFFF;stop-opacity:0"/>
			</radialGradient>
			<path fill-rule="evenodd" clip-rule="evenodd" fill="url(#SVGID_71_)" d="M498.5,490.9c-0.3,0-0.5-0.3-0.8-1.1
				c-0.3-0.7-0.5-1.7-0.6-2.9c-0.1-1.1-0.1-2.1-0.1-2.9c0.1-0.9,0.3-1.4,0.5-1.4c0.3,0,0.5,0.3,0.8,1.2c0.3,0.7,0.5,1.7,0.6,2.8
				c0.2,1.2,0.2,2.2,0.1,3C498.9,490.4,498.7,490.8,498.5,490.9z"/>
		</g>
	</g>
</g>
</svg>
