<?xml version="1.0" encoding="utf-8"?>
<!-- Generator: Adobe Illustrator 16.0.0, SVG Export Plug-In . SVG Version: 6.00 Build 0)  -->
<!DOCTYPE svg PUBLIC "-//W3C//DTD SVG 1.1//EN" "http://www.w3.org/Graphics/SVG/1.1/DTD/svg11.dtd">
<svg version="1.1" id="Layer_1" xmlns="http://www.w3.org/2000/svg" xmlns:xlink="http://www.w3.org/1999/xlink" x="0px" y="0px"
	 width="700px" height="700px" viewBox="0 0 700 700" enable-background="new 0 0 700 700" xml:space="preserve">
<symbol  id="glacee" viewBox="-2.3 -2.4 4.6 4.6">
	<g id="Layer_3_1_">
		<radialGradient id="SVGID_1_" cx="0" cy="0" r="2.3625" gradientUnits="userSpaceOnUse">
			<stop  offset="0" style="stop-color:#FFFFFF"/>
			<stop  offset="0.1765" style="stop-color:#FFFFFF"/>
			<stop  offset="0.3059" style="stop-color:#FFFFFF;stop-opacity:0.4235"/>
			<stop  offset="0.4902" style="stop-color:#FFFFFF;stop-opacity:0.2314"/>
			<stop  offset="0.651" style="stop-color:#FFFFFF;stop-opacity:8.235294e-002"/>
			<stop  offset="1" style="stop-color:#FFFFFF;stop-opacity:0"/>
		</radialGradient>
		<path fill-rule="evenodd" clip-rule="evenodd" fill="url(#SVGID_1_)" d="M1.6,1.6c0.5-0.4,0.7-1,0.7-1.6c0-0.7-0.2-1.2-0.7-1.6
			C1.2-2.1,0.6-2.4,0-2.4s-1.2,0.2-1.6,0.7c-0.4,0.4-0.6,1-0.6,1.6c0,0.6,0.2,1.2,0.6,1.6c0.5,0.5,1,0.7,1.6,0.7S1.2,2.1,1.6,1.6z"
			/>
	</g>
</symbol>
<g>
	<g>
		
			<radialGradient id="SVGID_2_" cx="0.1123" cy="-11.7998" r="26.8125" fx="0.2175" fy="-11.7998" gradientTransform="matrix(0.299 0 2.927233e-003 0.3072 170.0008 285.2971)" gradientUnits="userSpaceOnUse">
			<stop  offset="0" style="stop-color:#000000;stop-opacity:0.498"/>
			<stop  offset="0.749" style="stop-color:#000000;stop-opacity:0.498"/>
			<stop  offset="1" style="stop-color:#000000;stop-opacity:0"/>
		</radialGradient>
		<path fill-rule="evenodd" clip-rule="evenodd" fill="url(#SVGID_2_)" d="M177.2,277.2c2,1.8,3,3.9,3,6.4s-0.9,4.6-2.9,6.4
			c-1.9,1.8-4.3,2.6-7.1,2.6c-2.8,0-5.2-0.9-7.2-2.6c-2-1.7-3-3.9-3-6.4c0-2.5,0.9-4.6,2.9-6.4c2-1.8,4.3-2.6,7.1-2.6
			C172.8,274.6,175.2,275.5,177.2,277.2z"/>
	</g>
	<g>
		<g>
			<path fill-rule="evenodd" clip-rule="evenodd" fill="#756C6D" d="M176,282.4c-0.2,1.2-0.8,2.3-1.7,3.3c-1.2,1.2-2.7,1.8-4.4,1.8
				s-3.2-0.6-4.4-1.8c-1.2-1.2-1.8-2.7-1.8-4.4c0-0.6,0.1-1.2,0.2-1.7c0.3-1,0.8-1.9,1.6-2.6c1.2-1.2,2.7-1.8,4.4-1.8
				c0.2,0,0.5,0,0.7,0c0.4,0,0.8,0.1,1.2,0.3c0.9,0.3,1.7,0.8,2.5,1.5c1.2,1.2,1.8,2.7,1.8,4.4C176.1,281.7,176.1,282.1,176,282.4z"
				/>
			
				<linearGradient id="SVGID_3_" gradientUnits="userSpaceOnUse" x1="-20.9985" y1="22.6255" x2="20.251" y2="22.6255" gradientTransform="matrix(-0.299 0 0 -0.299 170.0002 285.2003)">
				<stop  offset="0" style="stop-color:#5F5F5F"/>
				<stop  offset="0.149" style="stop-color:#A09A9A"/>
				<stop  offset="0.3137" style="stop-color:#A09A9A"/>
				<stop  offset="0.4471" style="stop-color:#D6D3D3"/>
				<stop  offset="0.5843" style="stop-color:#A09A9A"/>
				<stop  offset="1" style="stop-color:#625C5C"/>
			</linearGradient>
			<path fill-rule="evenodd" clip-rule="evenodd" fill="url(#SVGID_3_)" d="M163.9,279.6c0.2-1.3,0.8-2.4,1.7-3.3
				c1.2-1.2,2.7-1.8,4.4-1.8c0.2,0,0.4,0,0.6,0c0.4,0,0.8,0.1,1.2,0.2c1,0.3,1.8,0.8,2.6,1.6c1.2,1.2,1.8,2.7,1.8,4.4
				c0,0.6-0.1,1.2-0.2,1.8c0.1-0.4,0.1-0.7,0.1-1.1c0-1.7-0.6-3.2-1.8-4.4c-0.7-0.7-1.5-1.2-2.5-1.5c-0.4-0.1-0.8-0.2-1.2-0.3
				c-0.2,0-0.5,0-0.7,0c-1.7,0-3.2,0.6-4.4,1.8C164.8,277.7,164.2,278.6,163.9,279.6z"/>
		</g>
	</g>
	<g>
		<g>
			<polygon fill-rule="evenodd" clip-rule="evenodd" fill="#504F5D" points="172.8,277 175.9,282.1 175.9,282.1 173,287.4 
				166.8,287.4 163.8,282.3 163.8,282.2 163.9,282.2 164.2,281.6 166.8,277 166.8,276.9 172.8,276.9 			"/>
			<polygon fill-rule="evenodd" clip-rule="evenodd" fill="#7D787C" points="166.8,277 166.9,276.1 166.9,276 173,276 173,276 
				172.8,277 172.8,276.9 166.8,276.9 			"/>
			<polygon fill-rule="evenodd" clip-rule="evenodd" fill="#B3AEB1" points="173,276 176,281.1 176,281.2 175.9,282.1 172.8,277 			
				"/>
			<polygon fill-rule="evenodd" clip-rule="evenodd" fill="#6D676B" points="163.9,282.2 164,281.3 166.9,276.1 166.8,277 
				164.2,281.6 			"/>
		</g>
	</g>
	<g>
		<g>
			<path fill-rule="evenodd" clip-rule="evenodd" d="M171.7,281.7c0.6,0.6,0.9,1.4,0.9,2.3c0,0.9-0.3,1.6-0.9,2.2
				c-0.6,0.6-1.4,0.9-2.3,0.9c-0.9,0-1.6-0.3-2.2-0.9c-0.6-0.6-0.9-1.4-0.9-2.2c0-0.9,0.3-1.6,0.9-2.3c0.6-0.6,1.4-0.9,2.2-0.9
				C170.3,280.8,171.1,281.1,171.7,281.7z"/>
			<path fill-rule="evenodd" clip-rule="evenodd" fill="#414046" d="M171.7,281.7c-0.6-0.6-1.4-0.9-2.3-0.9c-0.9,0-1.6,0.3-2.2,0.9
				c-0.6,0.6-0.9,1.4-0.9,2.3c0,0.9,0.3,1.6,0.9,2.2c0.6,0.6,1.4,0.9,2.2,0.9c0.9,0,1.6-0.3,2.3-0.9c0.6-0.6,0.9-1.4,0.9-2.2
				C172.6,283.1,172.3,282.3,171.7,281.7z M165.3,282.2c0.2-0.6,0.6-1.1,1-1.6c0.9-0.9,1.9-1.3,3.2-1.3c1.3,0,2.3,0.4,3.2,1.3
				c0.9,0.9,1.3,2,1.3,3.2c0,0,0,0.1,0,0.1c0,1.2-0.5,2.2-1.3,3.1c-0.9,0.9-1.9,1.3-3.2,1.3c-1.3,0-2.3-0.4-3.2-1.3
				c-0.9-0.9-1.3-2-1.3-3.2C165,283.2,165.1,282.7,165.3,282.2z"/>
			
				<linearGradient id="SVGID_4_" gradientUnits="userSpaceOnUse" x1="-14.499" y1="14.625" x2="15.8013" y2="14.625" gradientTransform="matrix(-0.299 0 0 -0.299 170.0002 285.2003)">
				<stop  offset="0" style="stop-color:#484545"/>
				<stop  offset="0.2588" style="stop-color:#A29C9E"/>
				<stop  offset="0.4471" style="stop-color:#D0C8CB"/>
				<stop  offset="0.5843" style="stop-color:#A09A9A"/>
				<stop  offset="1" style="stop-color:#544B4E"/>
			</linearGradient>
			<path fill-rule="evenodd" clip-rule="evenodd" fill="url(#SVGID_4_)" d="M174,283.9c0,0,0-0.1,0-0.1c0-1.2-0.4-2.3-1.3-3.2
				c-0.9-0.9-1.9-1.3-3.2-1.3c-1.3,0-2.3,0.4-3.2,1.3c-0.5,0.5-0.8,1-1,1.6c0-1.2,0.5-2.2,1.3-3.1c0.9-0.9,1.9-1.3,3.2-1.3
				s2.3,0.4,3.2,1.3c0.9,0.9,1.3,2,1.3,3.2C174.3,282.9,174.2,283.4,174,283.9z"/>
		</g>
	</g>
	<g>
		
			<radialGradient id="SVGID_5_" cx="-0.75" cy="31.6001" r="17.5" gradientTransform="matrix(-0.299 0 0 0.2072 170.0002 269.2057)" gradientUnits="userSpaceOnUse">
			<stop  offset="0" style="stop-color:#FFFFFF"/>
			<stop  offset="0.4471" style="stop-color:#FFFFFF;stop-opacity:0.7804"/>
			<stop  offset="1" style="stop-color:#FFFFFF;stop-opacity:7.843138e-003"/>
		</radialGradient>
		<path fill-rule="evenodd" clip-rule="evenodd" fill="url(#SVGID_5_)" d="M174.2,276.9L174.2,276.9c-1.2-1.2-2.6-1.7-4.3-1.7
			c-1.7,0-3.1,0.6-4.2,1.7c-0.4,0.4-0.7,0.8-1,1.3c0,0,0,0,0,0c0,0,0,0,0,0c0,0,0,0,0,0c0,0,0,0,0,0c0.3-0.5,0.6-0.9,1-1.3
			c1.2-1.2,2.6-1.8,4.3-1.8C171.6,275.1,173.1,275.7,174.2,276.9L174.2,276.9c0.5,0.4,0.8,0.8,1.1,1.3c0,0,0,0,0,0c0,0,0,0,0,0
			c0,0,0,0,0,0c0,0,0,0,0,0C174.9,277.7,174.6,277.3,174.2,276.9z"/>
	</g>
	<g>
		
			<radialGradient id="SVGID_6_" cx="1.0498" cy="20.2002" r="11.475" gradientTransform="matrix(-0.299 0 0 7.165480e-002 170.0002 277.7131)" gradientUnits="userSpaceOnUse">
			<stop  offset="0" style="stop-color:#FFFFFF"/>
			<stop  offset="0.1765" style="stop-color:#FFFFFF"/>
			<stop  offset="0.3059" style="stop-color:#FFFFFF;stop-opacity:0.4235"/>
			<stop  offset="0.4902" style="stop-color:#FFFFFF;stop-opacity:0.2314"/>
			<stop  offset="0.651" style="stop-color:#FFFFFF;stop-opacity:8.235294e-002"/>
			<stop  offset="1" style="stop-color:#FFFFFF;stop-opacity:0"/>
		</radialGradient>
		<path fill-rule="evenodd" clip-rule="evenodd" fill="url(#SVGID_6_)" d="M173,279.2c0,0.2-0.3,0.4-0.9,0.6
			c-0.7,0.2-1.5,0.3-2.4,0.3s-1.7-0.1-2.4-0.3c-0.7-0.1-1-0.3-1-0.6c0-0.2,0.3-0.4,1-0.6c0.7-0.2,1.5-0.3,2.4-0.3s1.7,0.1,2.4,0.3
			C172.7,278.8,173,278.9,173,279.2z"/>
	</g>
	<g>
		<g>
			<g>
				
					<linearGradient id="SVGID_7_" gradientUnits="userSpaceOnUse" x1="-11.4092" y1="-6.6455" x2="-2.9923" y2="5.91" gradientTransform="matrix(0.299 0 0 0.299 169.9998 285.2)">
					<stop  offset="0" style="stop-color:#2A2A2A"/>
					<stop  offset="0.1529" style="stop-color:#777670"/>
					<stop  offset="0.2588" style="stop-color:#BDB9AC"/>
					<stop  offset="0.3765" style="stop-color:#C8C2BF"/>
					<stop  offset="0.4863" style="stop-color:#FFFFFF"/>
					<stop  offset="0.698" style="stop-color:#8C8571"/>
					<stop  offset="0.8667" style="stop-color:#8C8571"/>
					<stop  offset="1" style="stop-color:#35332F"/>
				</linearGradient>
				<path fill-rule="evenodd" clip-rule="evenodd" fill="url(#SVGID_7_)" d="M166.3,289c0.2-0.3,0.4-0.6,0.5-0.9
					c0.2-0.6,0.1-1.2-0.2-1.7c-0.2-0.3-0.4-0.6-0.7-0.8c-0.2-0.1-0.4-0.2-0.6-0.3c-0.6-0.2-1.2-0.2-1.7,0.1l4.8-3
					c0.5-0.2,1-0.2,1.5,0c0.2,0,0.3,0.1,0.4,0.2c0.2,0.2,0.5,0.4,0.6,0.6c0,0.1,0.1,0.1,0.1,0.2c0.3,0.5,0.3,1,0.2,1.6
					c-0.1,0.3-0.3,0.6-0.5,0.9c-0.1,0.1-0.3,0.2-0.4,0.3h0L166.3,289z"/>
				
					<radialGradient id="SVGID_8_" cx="-12.4502" cy="4" r="10.7692" gradientTransform="matrix(0.1396 0.2644 -0.278 0.1467 169.127 289.1012)" gradientUnits="userSpaceOnUse">
					<stop  offset="0" style="stop-color:#FFFFFF"/>
					<stop  offset="0.2627" style="stop-color:#FEF9FD"/>
					<stop  offset="0.6314" style="stop-color:#897F8C"/>
					<stop  offset="1" style="stop-color:#382D3B"/>
				</radialGradient>
				<path fill-rule="evenodd" clip-rule="evenodd" fill="url(#SVGID_8_)" d="M163.6,285.3c0.5-0.3,1.1-0.3,1.7-0.1
					c0.2,0.1,0.4,0.2,0.6,0.3c0.3,0.2,0.5,0.5,0.7,0.8c0.3,0.5,0.3,1.1,0.2,1.7c-0.1,0.3-0.3,0.7-0.5,0.9c-0.1,0.1-0.3,0.3-0.6,0.4
					c-0.6,0.3-1.1,0.4-1.7,0.2c-0.6-0.2-1.1-0.6-1.4-1.1c-0.3-0.6-0.4-1.2-0.2-1.8c0.2-0.5,0.5-0.9,0.9-1.2L163.6,285.3L163.6,285.3
					L163.6,285.3z"/>
			</g>
		</g>
		
			<use xlink:href="#glacee"  width="4.6" height="4.6" x="-2.3" y="-2.4" transform="matrix(0.1856 0.2442 1.1274 -0.7622 167.4502 284.2002)" overflow="visible"/>
	</g>
</g>
</svg>
