<?xml version="1.0" encoding="utf-8"?>
<!-- Generator: Adobe Illustrator 16.0.0, SVG Export Plug-In . SVG Version: 6.00 Build 0)  -->
<!DOCTYPE svg PUBLIC "-//W3C//DTD SVG 1.1//EN" "http://www.w3.org/Graphics/SVG/1.1/DTD/svg11.dtd">
<svg version="1.1" id="Layer_1" xmlns="http://www.w3.org/2000/svg" xmlns:xlink="http://www.w3.org/1999/xlink" x="0px" y="0px"
	 width="700px" height="700px" viewBox="0 0 700 700" enable-background="new 0 0 700 700" xml:space="preserve">
<g>
	<path fill-rule="evenodd" clip-rule="evenodd" fill="#999999" d="M385.1,227.5c2.4,0.7,4.5,1.5,6.3,2.4h-80.8
		c1.7-0.8,3.8-1.6,6.3-2.4c9.4-2.9,20.8-4.4,34.2-4.4c11.3,0,21.2,1.1,29.6,3.1C382.1,226.6,383.6,227,385.1,227.5z"/>
	<g>
		<g>
			<linearGradient id="SVGID_1_" gradientUnits="userSpaceOnUse" x1="355.8271" y1="213.7603" x2="345.506" y2="266.586">
				<stop  offset="0" style="stop-color:#B3B0AB"/>
				<stop  offset="0.3804" style="stop-color:#BBB8B2"/>
				<stop  offset="1" style="stop-color:#8E8C8A"/>
				<stop  offset="1" style="stop-color:#B2AEAB"/>
			</linearGradient>
			<path fill-rule="evenodd" clip-rule="evenodd" fill="url(#SVGID_1_)" d="M417,240.9c0,0.8-0.2,1.6-0.5,2.3
				c-0.2,0.4-0.3,0.8-0.5,1.1c-0.1,0.3-0.3,0.6-0.5,0.9c-1,1.5-2.4,2.9-4.3,4.2c-3.2,2.4-7.8,4.5-13.7,6.5c-9.5,3.2-20.5,5.1-33,5.9
				c-1.8,0.1-3.6,0.2-5.5,0.3c-0.9,0-1.9,0.1-2.8,0.1c-1.8,0-3.7,0-5.6,0c-4.9,0-9.6-0.2-14.2-0.5c-12.4-0.8-23.3-2.8-32.8-5.9
				c-9.3-3.1-15.2-6.7-17.9-10.7c-0.2-0.3-0.3-0.6-0.5-0.9c-0.2-0.4-0.4-0.8-0.5-1.1c-0.3-0.7-0.4-1.5-0.5-2.4c0-0.2,0-0.4,0-0.5
				c0-0.1,0-0.2,0-0.3c0-0.2,0-0.3,0-0.4c0.4-5.8,6.9-10.8,19.4-15c1.5-0.5,3-0.9,4.5-1.4c12.1-3.4,26.3-5.1,42.6-5.1
				c18.3,0,34,2.2,46.9,6.5c12.6,4.2,19.1,9.2,19.4,15c0,0.2,0,0.4,0,0.6c0,0.1,0,0.3,0,0.4C417,240.8,417,240.9,417,240.9z"/>
			<linearGradient id="SVGID_2_" gradientUnits="userSpaceOnUse" x1="284.2998" y1="254.4751" x2="417" y2="254.4751">
				<stop  offset="0" style="stop-color:#2C251E"/>
				<stop  offset="0.1843" style="stop-color:#5D5044"/>
				<stop  offset="0.3608" style="stop-color:#A49F97"/>
				<stop  offset="0.4902" style="stop-color:#B6B4AD"/>
				<stop  offset="0.5647" style="stop-color:#D8D6D1"/>
				<stop  offset="0.6" style="stop-color:#FFFFFF"/>
				<stop  offset="0.6941" style="stop-color:#EDE9E6"/>
				<stop  offset="0.7529" style="stop-color:#C3B6AD"/>
				<stop  offset="0.8471" style="stop-color:#C0C2C1"/>
				<stop  offset="1" style="stop-color:#3F3E3C"/>
				<stop  offset="1" style="stop-color:#B2AEAB"/>
			</linearGradient>
			<path fill-rule="evenodd" clip-rule="evenodd" fill="url(#SVGID_2_)" d="M416.9,247.2c-0.8,5.6-7.2,10.4-19.4,14.5
				c-9.5,3.1-20.5,5.1-33,6c-1.8,0.1-3.6,0.2-5.5,0.3c-0.9,0-1.9,0-2.8,0c-1.8,0-3.7,0.1-5.6,0.1c-4.9,0-9.6-0.1-14.2-0.5
				c-12.4-0.8-23.3-2.8-32.8-5.9c-12.1-4.1-18.5-8.9-19.3-14.5c0-0.3-0.1-0.5-0.1-0.8c0-0.1,0-0.3,0-0.4c0-0.2,0-0.4,0-0.5v-4.7
				c0,0.8,0.2,1.6,0.5,2.4c0.2,0.4,0.4,0.8,0.5,1.1c0.2,0.3,0.3,0.6,0.5,0.9c2.6,4,8.6,7.6,17.9,10.7c9.5,3.1,20.4,5.1,32.8,5.9
				c4.6,0.3,9.3,0.5,14.2,0.5c1.9,0,3.8,0,5.6,0c1-0.1,1.9-0.1,2.8-0.1c1.9-0.1,3.7-0.2,5.5-0.3c12.5-0.8,23.5-2.8,33-5.9
				c5.9-2,10.5-4.1,13.7-6.5c1.9-1.3,3.3-2.7,4.3-4.2c0.2-0.3,0.3-0.6,0.5-0.9c0.2-0.4,0.4-0.8,0.5-1.1c0.3-0.7,0.4-1.5,0.5-2.3v4.6
				c0,0.1,0,0.3,0,0.5c0,0.2,0,0.3,0,0.5C417,246.7,416.9,247,416.9,247.2z"/>
			<path fill-rule="evenodd" clip-rule="evenodd" fill="#E7EAE3" d="M284.4,247.2c0.8,5.6,7.2,10.4,19.3,14.5
				c9.5,3.1,20.4,5.1,32.8,5.9c4.6,0.3,9.3,0.5,14.2,0.5c1.9,0,3.8,0,5.6-0.1c1,0,1.9,0,2.8,0c1.9-0.1,3.7-0.2,5.5-0.3
				c12.5-0.9,23.5-2.9,33-6c12.1-4.1,18.6-8.9,19.4-14.5c0.1,0.4,0.1,0.8,0.1,1.1c0,6.1-6.5,11.3-19.5,15.6c-9.5,3.2-20.5,5.2-33,6
				c-1.8,0.1-3.6,0.2-5.5,0.3c-0.9,0-1.9,0-2.8,0c-1.8,0.1-3.7,0.2-5.6,0.2c-4.9,0-9.6-0.2-14.2-0.5c-12.4-0.8-23.3-2.8-32.8-6
				c-12.9-4.3-19.4-9.5-19.4-15.6C284.3,248,284.3,247.6,284.4,247.2z"/>
		</g>
	</g>
	<g>
		<g>
			
				<radialGradient id="SVGID_3_" cx="318.8999" cy="226.2002" r="11.3875" gradientTransform="matrix(1 0 0 0.708 0 66.0475)" gradientUnits="userSpaceOnUse">
				<stop  offset="0" style="stop-color:#000000;stop-opacity:0.7373"/>
				<stop  offset="1" style="stop-color:#000000;stop-opacity:0"/>
			</radialGradient>
			<path fill-rule="evenodd" clip-rule="evenodd" fill="url(#SVGID_3_)" d="M324.5,236c0,0.2-0.1,0.3-0.3,0.5
				c-0.2,0.2-0.6,0.3-1.1,0.5c-0.1,0-0.1,0-0.3,0c-0.6,0.2-1.3,0.3-2.1,0.4c-0.1,0-0.1,0-0.2,0c-0.1,0-0.3,0-0.4,0
				c-0.1,0-0.2,0-0.3,0c-0.2,0-0.3,0-0.4,0c-0.1,0-0.3,0-0.3,0c-0.2,0-0.5,0-0.8,0c-0.2,0-0.3,0-0.5,0c-0.5-0.1-1-0.1-1.4-0.2
				c-0.2-0.1-0.4-0.2-0.6-0.2c-0.8-0.3-1.2-0.6-1.4-1h0v0c0,0-0.1-0.2-0.2-0.5v-6c0.1,0,0.1,0,0.2-0.1l0,0.1
				c0.2,0.3,0.6,0.6,1.4,0.9l0.6,0.2c0.4,0.1,0.9,0.2,1.4,0.2l2.3,0.1h0.7c0.8-0.1,1.5-0.3,2.1-0.5l0.1,0c0.5-0.1,0.8-0.3,1.1-0.5
				c0.2-0.1,0.3-0.3,0.3-0.4V236z"/>
		</g>
		<g>
			<g>
				<linearGradient id="SVGID_4_" gradientUnits="userSpaceOnUse" x1="314.2998" y1="221.8496" x2="324.5" y2="221.8496">
					<stop  offset="0" style="stop-color:#3C3B39"/>
					<stop  offset="5.098039e-002" style="stop-color:#5E5A54"/>
					<stop  offset="0.1686" style="stop-color:#45423F"/>
					<stop  offset="0.2863" style="stop-color:#83807C"/>
					<stop  offset="0.3255" style="stop-color:#C2BFBA"/>
					<stop  offset="0.3765" style="stop-color:#FFFFFF"/>
					<stop  offset="0.4627" style="stop-color:#4D4A43"/>
					<stop  offset="0.6353" style="stop-color:#34312A"/>
					<stop  offset="0.8314" style="stop-color:#666159"/>
					<stop  offset="1" style="stop-color:#4D4A42"/>
				</linearGradient>
				<path fill-rule="evenodd" clip-rule="evenodd" fill="url(#SVGID_4_)" d="M314.3,213.1L314.3,213.1c0.2,0.4,0.7,0.7,1.5,1
					c0.2,0,0.4,0.1,0.6,0.1c0.5,0.1,1,0.2,1.5,0.3c0.2,0,0.3,0,0.4,0c0.2,0,0.3,0,0.4,0c0.1,0,0.3,0,0.3,0c0.1,0,0.3,0,0.4,0h0.6
					l0.5,0c0.1,0,0.2,0,0.3,0c0.8-0.1,1.5-0.2,2.1-0.4c0.1,0,0.2,0,0.3,0c0.4-0.2,0.8-0.4,1.1-0.6c0.1-0.1,0.3-0.2,0.4-0.4l0-0.1
					v16.2c0,0,0,0,0,0c-0.1,0.2-0.2,0.3-0.4,0.4c-0.2,0.2-0.6,0.4-1.1,0.5c-0.1,0-0.2,0.1-0.3,0.1c-0.6,0.2-1.3,0.3-2.1,0.4
					c-0.1,0-0.2,0-0.3,0c-0.1,0-0.2,0-0.4,0c-0.1,0-0.1,0-0.2,0c-0.2,0-0.3,0-0.5,0c-0.1,0-0.2,0-0.4,0c-0.3,0-0.5,0-0.8,0
					c-0.1,0-0.3,0-0.4,0c-0.5-0.1-1-0.1-1.5-0.3c-0.2-0.1-0.4-0.1-0.6-0.2c-0.8-0.2-1.3-0.5-1.4-0.9l-0.1,0c0-0.1,0-0.2,0-0.3v-0.1
					c0,0,0-0.1,0-0.1V213.1z"/>
				<linearGradient id="SVGID_5_" gradientUnits="userSpaceOnUse" x1="324.0146" y1="206.8564" x2="315.8995" y2="217.4007">
					<stop  offset="7.843138e-003" style="stop-color:#999999"/>
					<stop  offset="1" style="stop-color:#686868"/>
				</linearGradient>
				<path fill-rule="evenodd" clip-rule="evenodd" fill="url(#SVGID_5_)" d="M324.5,213l0,0.1c-0.1,0.2-0.2,0.3-0.4,0.4
					c-0.3,0.2-0.6,0.4-1.1,0.6c-0.1,0-0.2,0-0.3,0c-0.6,0.2-1.3,0.3-2.1,0.4c-0.1,0-0.2,0-0.3,0l-0.5,0h-0.6c-0.1,0-0.2,0-0.4,0
					c-0.1,0-0.2,0-0.3,0c-0.1,0-0.2,0-0.4,0c-0.1,0-0.3,0-0.4,0c-0.5-0.1-1-0.1-1.5-0.3c-0.2-0.1-0.4-0.1-0.6-0.1
					c-0.8-0.3-1.3-0.6-1.4-1l-0.1,0v-0.4c0.1-0.4,0.6-0.8,1.5-1.1l0.3,0c0.8-0.2,1.6-0.4,2.6-0.5c0.2,0,0.5,0,0.7,0
					c0.2,0,0.4,0,0.6,0c1.2,0.1,2.2,0.2,3,0.5c0.9,0.3,1.4,0.6,1.5,1.1V213z M322.8,213.2c0.3-0.1,0.5-0.3,0.5-0.5
					c0-0.3-0.4-0.5-1.1-0.8c-0.4-0.1-0.9-0.2-1.4-0.3c-0.2,0-0.4,0-0.7,0c-0.2,0-0.4,0-0.6,0c-0.2,0-0.5,0-0.7,0
					c-0.3,0-0.6,0.1-0.9,0.1c-0.4,0-0.8,0.1-1.1,0.3c-0.8,0.2-1.2,0.4-1.2,0.8c0,0.3,0.4,0.5,1.2,0.8c0.3,0.1,0.7,0.2,1.1,0.3
					c0.3,0,0.5,0.1,0.9,0.1c0.1,0,0.3,0,0.3,0c0.1,0,0.3,0,0.4,0c0.2,0,0.4,0,0.6,0c0.3,0,0.5,0,0.7,0c0.5-0.1,1-0.2,1.4-0.3
					C322.4,213.4,322.6,213.3,322.8,213.2z"/>
				<linearGradient id="SVGID_6_" gradientUnits="userSpaceOnUse" x1="315.5498" y1="212.7002" x2="323.25" y2="212.7002">
					<stop  offset="0" style="stop-color:#68635D"/>
					<stop  offset="0.1686" style="stop-color:#45423F"/>
					<stop  offset="0.3137" style="stop-color:#646158"/>
					<stop  offset="0.6667" style="stop-color:#34312A"/>
					<stop  offset="1" style="stop-color:#272520"/>
				</linearGradient>
				<path fill-rule="evenodd" clip-rule="evenodd" fill="url(#SVGID_6_)" d="M322.8,213.2c-0.2,0.1-0.4,0.2-0.7,0.3
					c-0.4,0.1-0.9,0.2-1.4,0.3c-0.2,0-0.4,0-0.7,0c-0.2,0-0.4,0-0.6,0c-0.1,0-0.2,0-0.4,0c-0.1,0-0.2,0-0.3,0
					c-0.3,0-0.6-0.1-0.9-0.1c-0.4-0.1-0.8-0.2-1.1-0.3c-0.8-0.2-1.2-0.5-1.2-0.8c0-0.3,0.4-0.6,1.2-0.8c0.3-0.1,0.7-0.2,1.1-0.3
					c0.3,0,0.5-0.1,0.9-0.1c0.2,0,0.5,0,0.7,0c0.2,0,0.4,0,0.6,0c0.3,0,0.5,0,0.7,0c0.5,0.1,1,0.2,1.4,0.3c0.8,0.2,1.1,0.5,1.1,0.8
					C323.3,212.9,323.1,213.1,322.8,213.2z"/>
			</g>
		</g>
		<g>
			<linearGradient id="SVGID_7_" gradientUnits="userSpaceOnUse" x1="314.3125" y1="213.7998" x2="324.4875" y2="213.7998">
				<stop  offset="0" style="stop-color:#FFFFFF;stop-opacity:0"/>
				<stop  offset="0.149" style="stop-color:#FFFFFF;stop-opacity:0.6902"/>
				<stop  offset="0.4941" style="stop-color:#FFFFFF;stop-opacity:0.5216"/>
				<stop  offset="0.8235" style="stop-color:#FFFFFF;stop-opacity:0.502"/>
				<stop  offset="1" style="stop-color:#FFFFFF;stop-opacity:0"/>
			</linearGradient>
			<path fill-rule="evenodd" clip-rule="evenodd" fill="url(#SVGID_7_)" d="M324,213.5c0.2-0.1,0.3-0.2,0.4-0.4l0-0.1v0h0v0l0,0.1
				c-0.1,0.2-0.2,0.3-0.4,0.5c-0.2,0.2-0.6,0.3-1.1,0.5c-0.1,0-0.2,0.1-0.2,0.1c-0.6,0.2-1.3,0.3-2.1,0.3c-0.1,0-0.2,0-0.3,0
				l-1.1,0.1c-0.1,0-0.2,0-0.4,0c-0.1,0-0.2,0-0.3,0c-0.1,0-0.2-0.1-0.4-0.1c-0.1,0-0.3,0-0.4,0c-0.5-0.1-1-0.1-1.5-0.3
				c-0.2-0.1-0.4-0.1-0.6-0.2c-0.8-0.3-1.2-0.6-1.4-1l-0.1,0V213h0.1l0,0.1c0.2,0.3,0.6,0.6,1.4,0.9c0.2,0,0.4,0.1,0.7,0.2
				c0.4,0.1,0.9,0.1,1.4,0.3c0.2,0,0.3,0,0.4,0c0.2,0,0.3,0,0.4,0c0.1,0,0.3,0,0.3,0c0.1,0,0.3,0,0.4,0l1.1,0c0.1,0,0.2,0,0.3,0
				c0.8-0.1,1.5-0.2,2.1-0.4c0.1,0,0.1-0.1,0.2-0.1C323.5,213.9,323.8,213.7,324,213.5z"/>
		</g>
		<g>
			
				<radialGradient id="SVGID_8_" cx="319.5" cy="211.6001" r="3.475" gradientTransform="matrix(1 0 0 0.2446 0 159.8418)" gradientUnits="userSpaceOnUse">
				<stop  offset="0" style="stop-color:#FFFFFF"/>
				<stop  offset="0.1765" style="stop-color:#FFFFFF"/>
				<stop  offset="0.3059" style="stop-color:#FFFFFF;stop-opacity:0.4235"/>
				<stop  offset="0.4902" style="stop-color:#FFFFFF;stop-opacity:0.2314"/>
				<stop  offset="0.651" style="stop-color:#FFFFFF;stop-opacity:8.235294e-002"/>
				<stop  offset="1" style="stop-color:#FFFFFF;stop-opacity:0"/>
			</radialGradient>
			<path fill-rule="evenodd" clip-rule="evenodd" fill="url(#SVGID_8_)" d="M323,211.6c0,0.2-0.4,0.4-1,0.5
				c-0.7,0.2-1.5,0.3-2.5,0.3c-0.9,0-1.7-0.1-2.4-0.3c-0.7-0.1-1-0.3-1-0.5s0.3-0.4,1-0.6c0.7-0.2,1.5-0.3,2.4-0.3
				c0.9,0,1.8,0.1,2.5,0.3C322.6,211.2,323,211.4,323,211.6z"/>
		</g>
		<g>
			
				<radialGradient id="SVGID_9_" cx="319.8501" cy="214.5498" r="3.475" gradientTransform="matrix(1 0 0 0.2446 0 162.07)" gradientUnits="userSpaceOnUse">
				<stop  offset="0" style="stop-color:#FFFFFF"/>
				<stop  offset="0.1765" style="stop-color:#FFFFFF"/>
				<stop  offset="0.3059" style="stop-color:#FFFFFF;stop-opacity:0.4235"/>
				<stop  offset="0.4902" style="stop-color:#FFFFFF;stop-opacity:0.2314"/>
				<stop  offset="0.651" style="stop-color:#FFFFFF;stop-opacity:8.235294e-002"/>
				<stop  offset="1" style="stop-color:#FFFFFF;stop-opacity:0"/>
			</radialGradient>
			<path fill-rule="evenodd" clip-rule="evenodd" fill="url(#SVGID_9_)" d="M323.3,214.5c0,0.2-0.4,0.4-1,0.6
				c-0.6,0.1-1.4,0.2-2.4,0.2c-0.9,0-1.8-0.1-2.5-0.2c-0.6-0.2-0.9-0.4-0.9-0.6c0-0.2,0.3-0.4,0.9-0.6c0.7-0.1,1.5-0.2,2.5-0.2
				c0.9,0,1.7,0.1,2.4,0.2C322.9,214.1,323.3,214.3,323.3,214.5z"/>
		</g>
		<g>
			
				<radialGradient id="SVGID_10_" cx="316.3999" cy="230.2998" r="2.9996" gradientTransform="matrix(0.9617 0.2741 -0.1153 0.4046 38.6763 50.393)" gradientUnits="userSpaceOnUse">
				<stop  offset="0" style="stop-color:#FFFFFF"/>
				<stop  offset="0.1765" style="stop-color:#FFFFFF"/>
				<stop  offset="0.3059" style="stop-color:#FFFFFF;stop-opacity:0.4235"/>
				<stop  offset="0.4902" style="stop-color:#FFFFFF;stop-opacity:0.2314"/>
				<stop  offset="0.651" style="stop-color:#FFFFFF;stop-opacity:8.235294e-002"/>
				<stop  offset="1" style="stop-color:#FFFFFF;stop-opacity:0"/>
			</radialGradient>
			<path fill-rule="evenodd" clip-rule="evenodd" fill="url(#SVGID_10_)" d="M314.1,229c0.1,0,0.3-0.1,0.5-0.1
				c0.6-0.1,1.4,0,2.1,0.3c0.8,0.2,1.4,0.5,1.9,0.9c0.5,0.4,0.7,0.8,0.6,1.1c-0.1,0.4-0.5,0.6-1.1,0.6c-0.6,0.1-1.3,0-2.1-0.2
				c-0.7-0.2-1.4-0.5-1.9-0.9V229z"/>
		</g>
	</g>
	<g>
		<g>
			<g>
				<g>
					<path fill-rule="evenodd" clip-rule="evenodd" fill="#A7ABAE" d="M371,217.4c0,0.3-0.1,0.5-0.2,0.8l-0.1,0.4
						c-0.7,1.4-2.6,2.6-5.7,3.6c-0.9,0.3-1.8,0.6-2.7,0.8c-0.5,0.1-1,0.2-1.5,0.3c-1.3,0.3-2.6,0.4-4,0.5c-0.5,0.1-0.9,0.1-1.4,0.1
						c-0.2,0-0.5,0.1-0.8,0.1c-0.7,0-1.3,0.1-1.7,0.1h-1.9l-0.8,0.1c-0.2,0-0.5,0-0.7,0c-1.1,0-2.1-0.1-3.1-0.1c-0.1,0-0.3,0-0.3,0
						c-0.1,0-0.2,0-0.3,0c-1.5-0.1-3-0.2-4.4-0.5c-0.5-0.1-0.9-0.2-1.4-0.3c-0.4-0.1-0.8-0.1-1.2-0.3c-1.2-0.3-2.3-0.6-3.3-0.9
						c-0.1-0.1-0.3-0.1-0.4-0.1c-2.9-1-4.6-2.2-5.4-3.5l-0.2-0.4c-0.1-0.2-0.1-0.3-0.1-0.4v-0.8c0.3-1.8,2.3-3.3,6-4.5
						c1-0.4,2.1-0.7,3.3-0.9c2.3-0.5,4.8-0.8,7.5-1c1-0.1,2-0.1,3.1-0.1c0.2,0,0.5,0,0.7,0c3.9,0,7.4,0.3,10.5,0.9
						c1.4,0.3,2.8,0.6,4.2,1.1c4,1.4,6,3,6,4.9V217.4z M368.5,217.5c0.1-0.2,0.1-0.5,0.1-0.8c0-1.6-1.8-2.9-5.3-4
						c-0.8-0.3-1.6-0.5-2.4-0.7c-3.1-0.7-6.6-1.1-10.5-1.1c-0.2,0-0.5,0-0.7,0c-1.1,0-2.1,0.1-3.1,0.1c-2.8,0.2-5.3,0.5-7.5,1.1
						c-0.5,0.1-1.1,0.3-1.6,0.5c-3.5,1.1-5.3,2.5-5.3,4c0,0.2,0,0.5,0.1,0.8l0.1,0.3c0.5,0.8,1.5,1.6,3,2.3c0.6,0.3,1.3,0.5,2,0.8
						c0.5,0.2,1.1,0.4,1.6,0.4c0.4,0.1,0.8,0.2,1.2,0.3c0.5,0.1,0.9,0.2,1.4,0.3c1.4,0.2,3,0.4,4.6,0.6c0.1,0,0.1,0,0.3,0
						c0,0,0.1,0,0.1,0c0.9,0,2,0.1,3.1,0.1c0.2,0,0.5,0,0.7,0l0.8-0.1l3.1,0c0.4,0,0.8-0.1,1.3-0.1c0.5,0,0.9-0.1,1.4-0.1
						c1.4-0.2,2.8-0.4,4-0.7c0.5-0.1,1-0.2,1.5-0.4c0.3-0.1,0.6-0.2,1-0.3c2.7-0.9,4.4-1.9,5-3.1L368.5,217.5z"/>
					<linearGradient id="SVGID_11_" gradientUnits="userSpaceOnUse" x1="329.7002" y1="229.2754" x2="371.0498" y2="229.2754">
						<stop  offset="0" style="stop-color:#464543"/>
						<stop  offset="9.803922e-002" style="stop-color:#7E7973"/>
						<stop  offset="0.1882" style="stop-color:#D5DCE2"/>
						<stop  offset="0.2471" style="stop-color:#D5DCE2"/>
						<stop  offset="0.3176" style="stop-color:#787E87"/>
						<stop  offset="0.4078" style="stop-color:#3D4048"/>
						<stop  offset="0.5176" style="stop-color:#A99789"/>
						<stop  offset="0.5882" style="stop-color:#C2B5AE"/>
						<stop  offset="0.6392" style="stop-color:#FFFFFF"/>
						<stop  offset="0.6784" style="stop-color:#FFFFFF"/>
						<stop  offset="0.7922" style="stop-color:#606063"/>
						<stop  offset="0.8824" style="stop-color:#808588"/>
						<stop  offset="0.9373" style="stop-color:#787B7B"/>
						<stop  offset="1" style="stop-color:#4C514A"/>
					</linearGradient>
					<path fill-rule="evenodd" clip-rule="evenodd" fill="url(#SVGID_11_)" d="M329.7,217.7c0,0.1,0,0.2,0.1,0.4l0.2,0.4
						c0.7,1.3,2.5,2.5,5.4,3.5c0.1,0,0.2,0,0.4,0.1c1,0.3,2.1,0.6,3.3,0.9c0.4,0.1,0.8,0.2,1.2,0.3c0.5,0.1,0.9,0.1,1.4,0.3
						c1.4,0.2,2.9,0.4,4.4,0.5c0.1,0,0.2,0,0.3,0c0.1,0,0.2,0,0.3,0c1,0,2,0.1,3.1,0.1c0.2,0,0.5,0,0.7,0l0.8-0.1h1.9
						c0.4,0,1-0.1,1.7-0.1c0.3,0,0.5,0,0.8-0.1c0.5,0,0.9-0.1,1.4-0.1c1.4-0.1,2.8-0.3,4-0.5c0.5-0.1,1-0.2,1.5-0.3
						c0.9-0.2,1.8-0.5,2.7-0.8c3.1-1.1,5-2.3,5.7-3.6l0.1-0.4c0.1-0.2,0.2-0.5,0.2-0.8v17c0,0.3-0.1,0.5-0.2,0.8
						c0,0.1-0.1,0.3-0.1,0.4c-0.7,1.4-2.6,2.6-5.7,3.6c-0.9,0.3-1.8,0.5-2.7,0.8c-0.5,0.1-1,0.2-1.5,0.3c-1.3,0.3-2.6,0.5-4,0.6
						c-0.5,0.1-0.9,0.2-1.4,0.2c-0.2,0-0.5,0-0.8,0c-0.5,0-1.1,0.1-1.7,0.1c-0.3,0-0.5,0-0.9,0.1c-0.4,0-0.7,0-1,0
						c-0.2,0-0.5,0-0.8,0c-1.4,0-2.8,0-4.1-0.1c-0.1,0-0.2,0-0.3-0.1c-1.5-0.1-3-0.3-4.4-0.5c-0.5-0.1-0.9-0.1-1.4-0.2
						c-1.6-0.3-3.1-0.7-4.5-1.1c-0.1-0.1-0.3-0.1-0.4-0.1c-2.9-1-4.6-2.2-5.4-3.5c-0.1-0.1-0.2-0.3-0.2-0.4
						c-0.1-0.2-0.1-0.3-0.1-0.5V217.7z"/>
					<linearGradient id="SVGID_12_" gradientUnits="userSpaceOnUse" x1="313.4873" y1="216.7754" x2="378.8123" y2="216.7754">
						<stop  offset="0" style="stop-color:#464543"/>
						<stop  offset="9.803922e-002" style="stop-color:#7E7973"/>
						<stop  offset="0.1882" style="stop-color:#D5DCE2"/>
						<stop  offset="0.2471" style="stop-color:#D5DCE2"/>
						<stop  offset="0.3176" style="stop-color:#787E87"/>
						<stop  offset="0.4078" style="stop-color:#3D4048"/>
						<stop  offset="0.5176" style="stop-color:#A99789"/>
						<stop  offset="0.5882" style="stop-color:#C2B5AE"/>
						<stop  offset="0.6392" style="stop-color:#FFFFFF"/>
						<stop  offset="0.6784" style="stop-color:#FFFFFF"/>
						<stop  offset="0.7922" style="stop-color:#606063"/>
						<stop  offset="0.8824" style="stop-color:#808588"/>
						<stop  offset="0.9373" style="stop-color:#787B7B"/>
						<stop  offset="1" style="stop-color:#4C514A"/>
					</linearGradient>
					<path fill-rule="evenodd" clip-rule="evenodd" fill="url(#SVGID_12_)" d="M368.5,217.5l-0.2,0.3c-0.6,1.2-2.3,2.2-5,3.1
						c-0.3,0.1-0.7,0.2-1,0.3c-0.5,0.2-1,0.3-1.5,0.4c-1.3,0.3-2.6,0.5-4,0.7c-0.5,0-0.9,0.1-1.4,0.1c-0.4,0.1-0.9,0.1-1.3,0.1
						l-3.1,0l-0.8,0.1c-0.2,0-0.5,0-0.7,0c-1.1,0-2.2-0.1-3.1-0.1c0,0-0.1,0-0.1,0c-0.1,0-0.2,0-0.3,0c-1.6-0.1-3.2-0.3-4.6-0.6
						c-0.5-0.1-0.9-0.2-1.4-0.3c-0.4-0.1-0.8-0.2-1.2-0.3c-0.5-0.1-1.1-0.3-1.6-0.4c-0.7-0.2-1.4-0.5-2-0.8c-1.5-0.7-2.5-1.5-3-2.3
						l-0.1-0.3c-0.1-0.3-0.1-0.6-0.1-0.8c0-1.6,1.8-2.9,5.3-4c0.5-0.2,1.1-0.4,1.6-0.5c2.3-0.6,4.8-0.9,7.5-1.1c1-0.1,2-0.1,3.1-0.1
						c0.2,0,0.5,0,0.7,0c3.9,0,7.4,0.4,10.5,1.1c0.8,0.2,1.6,0.4,2.4,0.7c3.6,1.1,5.3,2.5,5.3,4C368.6,217,368.6,217.3,368.5,217.5z
						"/>
				</g>
			</g>
			<g>
				
					<radialGradient id="SVGID_13_" cx="355.5381" cy="224.0498" r="7.7625" gradientTransform="matrix(1 0 -3.220612e-003 0.1723 -3.4661 185.4454)" gradientUnits="userSpaceOnUse">
					<stop  offset="0" style="stop-color:#FFFFFF"/>
					<stop  offset="0.1765" style="stop-color:#FFFFFF"/>
					<stop  offset="0.3059" style="stop-color:#FFFFFF;stop-opacity:0.4235"/>
					<stop  offset="0.4902" style="stop-color:#FFFFFF;stop-opacity:0.2314"/>
					<stop  offset="0.651" style="stop-color:#FFFFFF;stop-opacity:8.235294e-002"/>
					<stop  offset="1" style="stop-color:#FFFFFF;stop-opacity:0"/>
				</radialGradient>
				<path fill-rule="evenodd" clip-rule="evenodd" fill="url(#SVGID_13_)" d="M356.8,223.1c1.5,0.2,2.3,0.5,2.3,0.9s-0.8,0.7-2.3,1
					c-1.5,0.3-3.4,0.4-5.5,0.4c-2,0-3.8-0.1-5.4-0.4c-1.4-0.2-2.1-0.5-2.1-1c0-0.3,0.7-0.6,2.1-0.9c1.6-0.3,3.4-0.4,5.4-0.4
					C353.5,222.7,355.3,222.9,356.8,223.1z"/>
			</g>
			<g>
				<linearGradient id="SVGID_14_" gradientUnits="userSpaceOnUse" x1="329.6875" y1="220.6504" x2="371.0125" y2="220.6504">
					<stop  offset="0" style="stop-color:#FFFFFF;stop-opacity:7.843138e-003"/>
					<stop  offset="0.1529" style="stop-color:#FFFFFF;stop-opacity:0.7098"/>
					<stop  offset="0.8941" style="stop-color:#FFFFFF;stop-opacity:0.8588"/>
					<stop  offset="1" style="stop-color:#FFFFFF;stop-opacity:0"/>
				</linearGradient>
				<path fill-rule="evenodd" clip-rule="evenodd" fill="url(#SVGID_14_)" d="M364.8,221.8c3-1,4.9-2.2,5.6-3.4l0.2-0.4
					c0.1-0.2,0.1-0.4,0.1-0.6c0-0.1,0-0.2,0.1-0.3v1.5c-0.8,1.3-2.7,2.5-5.7,3.5c-0.9,0.3-1.8,0.5-2.8,0.8c-0.5,0.1-0.9,0.2-1.4,0.4
					h-0.1c-1.3,0.2-2.6,0.4-4,0.6c-0.5,0-0.9,0.1-1.4,0.1c-0.2,0-0.5,0-0.8,0c-0.7,0-1.2,0-1.7,0l-2.7,0.2c-0.2,0-0.5,0-0.7,0
					c-1.1-0.1-2.1-0.1-3.1-0.2c-0.1,0-0.3,0-0.3,0c-0.1,0-0.2,0-0.3,0c-1.5-0.1-2.9-0.3-4.3-0.5c-0.5-0.1-1-0.2-1.5-0.3
					c-0.4-0.1-0.8-0.1-1.2-0.3c-1.2-0.2-2.3-0.5-3.4-0.9h0c-0.2,0-0.3-0.1-0.4-0.1c-2.8-1-4.7-2.1-5.5-3.4v-1.2c0,0,0.1,0.1,0.1,0.1
					c0.1,0.1,0.1,0.2,0.1,0.3c0,0,0,0.1,0.1,0.3v0l0.1,0.4c0.7,1.2,2.4,2.3,5.2,3.3c0.1,0.1,0.3,0.1,0.3,0.1
					c1.1,0.3,2.2,0.6,3.4,0.9c0.3,0.1,0.7,0.2,1.1,0.3c0.5,0.1,0.9,0.2,1.4,0.3c1.4,0.2,2.8,0.4,4.3,0.5c0.1,0,0.2,0,0.3,0h0
					c0.1,0,0.2,0,0.3,0h0.1c1,0.1,2,0.1,3,0.1c0.2,0,0.5,0,0.7,0l2.6,0c0.4,0,1-0.1,1.7-0.1c0.2,0,0.5,0,0.7,0c0.5,0,1-0.1,1.5-0.1
					c1.4-0.2,2.7-0.4,4-0.6h0c0.5-0.1,0.9-0.3,1.4-0.4C363.2,222.3,364,222.1,364.8,221.8z"/>
			</g>
		</g>
	</g>
	<g>
		<g>
			<path fill-rule="evenodd" clip-rule="evenodd" d="M370.5,222.3c0.1,0,0.2,0.3,0.3,0.9c0.1,0.6,0.1,1.3,0.1,2.2
				c0,0.8,0,1.6-0.1,2.1c-0.1,0.6-0.2,0.9-0.3,0.9c-0.1,0-0.2-0.3-0.2-0.9c-0.1-0.6-0.2-1.3-0.2-2.2c0-0.8,0.1-1.6,0.2-2.1
				C370.3,222.6,370.3,222.3,370.5,222.3z"/>
		</g>
		<g>
			<g>
				<linearGradient id="SVGID_15_" gradientUnits="userSpaceOnUse" x1="375.9707" y1="221.5737" x2="375.6608" y2="229.1233">
					<stop  offset="0" style="stop-color:#8C8B7E"/>
					<stop  offset="0.2275" style="stop-color:#CAC8B3"/>
					<stop  offset="0.2784" style="stop-color:#FAF2DD"/>
					<stop  offset="0.4275" style="stop-color:#E9E3CE"/>
					<stop  offset="0.4627" style="stop-color:#CAC8B3"/>
					<stop  offset="0.7451" style="stop-color:#777668"/>
					<stop  offset="1" style="stop-color:#33332F"/>
				</linearGradient>
				<path fill-rule="evenodd" clip-rule="evenodd" fill="url(#SVGID_15_)" d="M374.5,229.1c0.1,0,0.1-0.4,0.2-1.1c0-0.7,0-1.6,0-2.6
					v-0.1c0-0.4,0-0.8,0-1.3c0-0.5,0-0.9,0-1.3c0-0.7-0.1-1.1-0.2-1.1h2.5c0,0,0.1,0.4,0.2,1.1c0.1,0.4,0.1,0.8,0.1,1.3
					c0,0.4,0,0.8,0,1.3v0.1c0,1.1,0,2-0.1,2.6c-0.1,0.8-0.1,1.1-0.2,1.1H374.5z"/>
				<path fill-rule="evenodd" clip-rule="evenodd" fill="#444033" d="M374.5,229.1c-0.1,0-0.2-0.3-0.2-1c0-0.1,0-0.4,0-0.6
					c0-0.3,0-0.5,0.1-0.8c0-0.4,0-0.8,0-1.3c0-0.4,0-0.9,0-1.3V224c-0.1-0.3-0.1-0.5-0.1-0.8c0-0.3,0-0.5,0-0.7c0-0.1,0-0.1,0-0.1
					c0-0.6,0.1-0.9,0.2-0.9c0.1,0,0.1,0.4,0.2,1.1c0,0.4,0,0.8,0,1.3c0,0.4,0,0.8,0,1.3v0.1c0,1,0,1.9,0,2.6
					C374.6,228.7,374.6,229.1,374.5,229.1z"/>
			</g>
		</g>
		<g>
			<linearGradient id="SVGID_16_" gradientUnits="userSpaceOnUse" x1="372.4199" y1="222.3877" x2="372.4927" y2="228.3127">
				<stop  offset="0" style="stop-color:#6B6658"/>
				<stop  offset="0.2196" style="stop-color:#AAA289"/>
				<stop  offset="0.6196" style="stop-color:#68614E"/>
				<stop  offset="1" style="stop-color:#333028"/>
			</linearGradient>
			<path fill-rule="evenodd" clip-rule="evenodd" fill="url(#SVGID_16_)" d="M374.3,222.6c0.1,0.2,0.1,0.4,0.2,0.7
				c0,0.2,0,0.5,0,0.8v0.1c0,0.4,0,0.8,0,1.3c0,0.5,0,0.9,0,1.3c0,0.3,0,0.5,0,0.8c0,0.3-0.1,0.5-0.2,0.6v0.1h-3.8
				c-0.1,0-0.2-0.3-0.2-0.8c0-0.6-0.1-1.3-0.1-2.1c0-0.8,0-1.5,0.1-2.1c0-0.5,0.1-0.8,0.2-0.8h3.7
				C374.3,222.5,374.3,222.5,374.3,222.6z"/>
		</g>
	</g>
	<g>
		<g>
			<g>
				<linearGradient id="SVGID_17_" gradientUnits="userSpaceOnUse" x1="364.3574" y1="130.6719" x2="336.3476" y2="146.7299">
					<stop  offset="0" style="stop-color:#A7ABAE"/>
					<stop  offset="1" style="stop-color:#8D8E8E"/>
				</linearGradient>
				<path fill-rule="evenodd" clip-rule="evenodd" fill="url(#SVGID_17_)" d="M332.1,139.1v-0.8c0.2-1.5,2-2.8,5.3-4
					c0.9-0.3,1.9-0.6,2.9-0.8c2.1-0.4,4.3-0.7,6.6-0.9c0.9,0,1.8-0.1,2.8-0.1c0.2,0,0.4,0,0.6,0c3.4,0,6.5,0.3,9.3,0.8
					c1.3,0.2,2.5,0.5,3.7,0.9c3.5,1.2,5.3,2.6,5.3,4.3v0.3c0,0.2,0,0.3-0.1,0.5l-0.2,0.3c-0.6,1.2-2.3,2.3-5,3.3
					c-0.8,0.3-1.6,0.5-2.4,0.7c-0.4,0.1-0.9,0.2-1.3,0.3c-1.1,0.2-2.3,0.4-3.5,0.5c-0.4,0-0.8,0.1-1.2,0.1c-0.2,0-0.4,0-0.6,0
					c-0.6,0-1.2,0-1.5,0.1l-1.7,0h-0.7c-0.2,0-0.4,0-0.6,0c-0.9,0-1.9,0-2.8-0.1c-0.1,0-0.2,0-0.3,0c-0.1,0-0.1,0-0.2,0
					c-1.4-0.1-2.6-0.3-3.9-0.4c-0.4,0-0.9-0.1-1.3-0.2c-0.3-0.1-0.7-0.2-1-0.3c-1-0.2-2-0.5-2.9-0.8c-0.1,0-0.2,0-0.3-0.1
					c-2.6-0.9-4.2-1.9-4.8-3.1l-0.1-0.3C332.2,139.3,332.2,139.2,332.1,139.1z M352.3,138.9c0.1,0,0.2-0.1,0.3-0.1c0,0,0.1,0,0.2,0
					c0.5-0.2,0.8-0.4,0.9-0.6v-0.1c0.1,0,0.1-0.1,0.1-0.2c0-0.3-0.3-0.5-1-0.8c-0.2,0-0.3-0.1-0.5-0.1c-0.6-0.2-1.2-0.3-2-0.3
					c0,0-0.1,0-0.1,0c-0.2,0-0.4,0-0.6,0c-0.5,0-1,0.1-1.4,0.3c-0.1,0-0.2,0-0.3,0.1c-0.7,0.2-1,0.5-1,0.8c0,0.1,0,0.2,0,0.2l0,0.1
					c0.1,0.2,0.3,0.3,0.6,0.4c0.1,0,0.2,0.1,0.4,0.2c0.1,0,0.2,0,0.3,0.1c0.1,0,0.1,0,0.2,0c0.1,0,0.2,0,0.3,0.1
					c0.3,0,0.6,0.1,0.9,0.1h0c0.2,0,0.4,0,0.6,0c0.1,0,0.1,0,0.1,0h0.2h0.6c0.1,0,0.2,0,0.3,0c0.1,0,0.1,0,0.2,0
					C351.8,139,352.1,138.9,352.3,138.9z"/>
				<linearGradient id="SVGID_18_" gradientUnits="userSpaceOnUse" x1="332.1499" y1="180.8379" x2="368.5996" y2="180.8379">
					<stop  offset="0" style="stop-color:#464543"/>
					<stop  offset="9.803922e-002" style="stop-color:#7E7973"/>
					<stop  offset="0.1882" style="stop-color:#D5DCE2"/>
					<stop  offset="0.2471" style="stop-color:#D5DCE2"/>
					<stop  offset="0.3176" style="stop-color:#787E87"/>
					<stop  offset="0.4078" style="stop-color:#3D4048"/>
					<stop  offset="0.5176" style="stop-color:#A99789"/>
					<stop  offset="0.5882" style="stop-color:#C2B5AE"/>
					<stop  offset="0.6392" style="stop-color:#FFFFFF"/>
					<stop  offset="0.6784" style="stop-color:#FFFFFF"/>
					<stop  offset="0.7922" style="stop-color:#606063"/>
					<stop  offset="0.8824" style="stop-color:#808588"/>
					<stop  offset="0.9373" style="stop-color:#787B7B"/>
					<stop  offset="1" style="stop-color:#4C514A"/>
				</linearGradient>
				<path fill-rule="evenodd" clip-rule="evenodd" fill="url(#SVGID_18_)" d="M368.6,139v9.5v0.9v64.7v0.1v2.5c0,0.2,0,0.5-0.1,0.8
					c-0.1,0.1-0.1,0.2-0.2,0.3c-0.6,1.2-2.3,2.3-5,3.2c-0.8,0.2-1.6,0.4-2.4,0.6c-0.4,0.1-0.9,0.2-1.3,0.3c-1.1,0.2-2.3,0.4-3.5,0.6
					c-0.4,0-0.8,0.1-1.2,0.1c-0.2,0-0.4,0.1-0.6,0.1c-0.5,0-1,0-1.5,0c-0.2,0-0.5,0-0.8,0.1c-0.3,0-0.6,0-0.9,0c-0.2,0-0.4,0-0.7,0
					c-1.3,0-2.5,0-3.6-0.1c-0.1,0-0.1,0-0.2,0c-1.4-0.1-2.6-0.2-3.9-0.4c-0.4-0.1-0.9-0.2-1.3-0.3c-1.4-0.3-2.8-0.6-3.9-1
					c-0.1,0-0.2-0.1-0.3-0.1c-2.6-0.9-4.2-1.9-4.8-3.1c0-0.1-0.1-0.2-0.1-0.3c-0.1-0.1-0.1-0.3-0.1-0.5v-2.8v-0.1v-64.7v-0.9v-9.3
					c0,0.1,0,0.2,0.1,0.4l0.1,0.3c0.6,1.2,2.2,2.3,4.8,3.1c0.1,0.1,0.2,0.1,0.3,0.1c0.9,0.3,1.9,0.6,2.9,0.8c0.4,0.1,0.7,0.2,1,0.3
					c0.4,0.1,0.8,0.1,1.3,0.2c1.2,0.2,2.5,0.3,3.9,0.4c0.1,0,0.1,0,0.2,0c0.1,0,0.2,0,0.3,0c0.9,0.1,1.8,0.1,2.8,0.1
					c0.2,0,0.4,0,0.6,0h0.7l1.7,0c0.4-0.1,0.9-0.1,1.5-0.1c0.2,0,0.4,0,0.6,0c0.4,0,0.8-0.1,1.2-0.1c1.2-0.1,2.4-0.3,3.5-0.5
					c0.4-0.1,0.9-0.2,1.3-0.3c0.8-0.2,1.6-0.4,2.4-0.7c2.7-0.9,4.4-2,5-3.3l0.2-0.3C368.6,139.3,368.6,139.1,368.6,139z"/>
				<path fill-rule="evenodd" clip-rule="evenodd" d="M352.3,138.9c-0.2,0-0.5,0.1-0.8,0.1c-0.1,0-0.1,0-0.2,0c-0.1,0-0.2,0-0.3,0
					h-0.6h-0.2c0,0-0.1,0-0.1,0c-0.2,0-0.4,0-0.6,0h0c-0.3,0-0.6-0.1-0.9-0.1c-0.1,0-0.2-0.1-0.3-0.1c-0.1,0-0.1,0-0.2,0
					c-0.1,0-0.2-0.1-0.3-0.1c-0.1-0.1-0.3-0.2-0.4-0.2c-0.3-0.1-0.5-0.2-0.6-0.4l0-0.1c0,0,0-0.1,0-0.2c0-0.3,0.3-0.5,1-0.8
					c0.1,0,0.2-0.1,0.3-0.1c0.4-0.1,0.9-0.2,1.4-0.3c0.2,0,0.4,0,0.6,0c0.1,0,0.1,0,0.1,0c0.7,0,1.4,0.1,2,0.3
					c0.2,0,0.3,0.1,0.5,0.1c0.7,0.2,1,0.5,1,0.8c0,0.1,0,0.2-0.1,0.2v0.1c-0.1,0.2-0.4,0.4-0.9,0.6c-0.1,0-0.2,0-0.2,0
					C352.5,138.8,352.4,138.9,352.3,138.9z"/>
				
					<path fill-rule="evenodd" clip-rule="evenodd" fill="none" stroke="#000000" stroke-linecap="round" stroke-linejoin="round" stroke-miterlimit="3" d="
					M352.3,138.9c-0.2,0-0.5,0.1-0.8,0.1c-0.1,0-0.1,0-0.2,0c-0.1,0-0.2,0-0.3,0h-0.6h-0.2c0,0-0.1,0-0.1,0c-0.2,0-0.4,0-0.6,0h0
					c-0.3,0-0.6-0.1-0.9-0.1c-0.1,0-0.2-0.1-0.3-0.1c-0.1,0-0.1,0-0.2,0c-0.1,0-0.2-0.1-0.3-0.1c-0.1-0.1-0.3-0.2-0.4-0.2
					c-0.3-0.1-0.5-0.2-0.6-0.4l0-0.1c0,0,0-0.1,0-0.2c0-0.3,0.3-0.5,1-0.8c0.1,0,0.2-0.1,0.3-0.1c0.4-0.1,0.9-0.2,1.4-0.3
					c0.2,0,0.4,0,0.6,0c0.1,0,0.1,0,0.1,0c0.7,0,1.4,0.1,2,0.3c0.2,0,0.3,0.1,0.5,0.1c0.7,0.2,1,0.5,1,0.8c0,0.1,0,0.2-0.1,0.2v0.1
					c-0.1,0.2-0.4,0.4-0.9,0.6c-0.1,0-0.2,0-0.2,0C352.5,138.8,352.4,138.9,352.3,138.9z"/>
			</g>
		</g>
		<g>
			<linearGradient id="SVGID_19_" gradientUnits="userSpaceOnUse" x1="332.6377" y1="142.5498" x2="367.9627" y2="142.5498">
				<stop  offset="0" style="stop-color:#FFFFFF;stop-opacity:7.843138e-003"/>
				<stop  offset="0.1529" style="stop-color:#FFFFFF;stop-opacity:0.7098"/>
				<stop  offset="0.8941" style="stop-color:#FFFFFF;stop-opacity:0.8588"/>
				<stop  offset="1" style="stop-color:#FFFFFF;stop-opacity:0"/>
			</linearGradient>
			<path fill-rule="evenodd" clip-rule="evenodd" fill="url(#SVGID_19_)" d="M365,142c1.4-0.6,2.4-1.1,3-1.5c-0.8,1-2.4,1.9-4.8,2.7
				c-0.8,0.3-1.6,0.5-2.4,0.6c-0.4,0.1-0.9,0.2-1.3,0.3c-1.1,0.2-2.3,0.4-3.5,0.5c-0.4,0.1-0.8,0.1-1.3,0.1c-0.2,0-0.4,0.1-0.7,0.1
				c-0.6,0-1.1,0-1.5,0l-2.3,0.1c-0.2,0-0.4,0-0.6,0c-0.9,0-1.8,0-2.7-0.1c-0.1,0-0.2,0-0.4,0c-0.1,0-0.1,0-0.3,0
				c-1.3-0.1-2.6-0.2-3.9-0.4c-0.4-0.1-0.8-0.2-1.3-0.3c-0.3-0.1-0.7-0.1-1-0.2c-1-0.2-2-0.5-2.9-0.8c-0.1,0-0.3-0.1-0.4-0.1
				c-2.3-0.8-3.8-1.7-4.5-2.7c0,0,0-0.1,0-0.1c0,0,0-0.1,0-0.1c0-0.1,0.1-0.1,0.1,0c0,0,0.1,0,0.1,0c0.8,0.9,2.3,1.8,4.4,2.5h0
				c0.1,0,0.2,0.1,0.3,0.1c0.9,0.3,1.9,0.6,2.9,0.8c0.4,0.1,0.7,0.1,1,0.1c0.4,0.1,0.9,0.2,1.3,0.3c1.2,0.2,2.5,0.4,3.9,0.4
				c0,0,0.1,0,0.1,0h0c0.1,0,0.2,0,0.3,0c0.9,0.1,1.8,0.1,2.7,0.1c0.2,0,0.4,0,0.6,0l2.3,0c0.4,0,0.9-0.1,1.5-0.1c0.2,0,0.4,0,0.7,0
				c0.4,0,0.8-0.1,1.3-0.1c1.2-0.1,2.4-0.3,3.5-0.5c0.4-0.1,0.9-0.1,1.3-0.3C361.6,143.4,363,142.9,365,142z"/>
		</g>
		<g>
			
				<radialGradient id="SVGID_20_" cx="365.8008" cy="169.1499" r="2.425" gradientTransform="matrix(1 0 0 17.6856 0 -2822.3621)" gradientUnits="userSpaceOnUse">
				<stop  offset="0" style="stop-color:#FFFFFF"/>
				<stop  offset="0.1765" style="stop-color:#FFFFFF"/>
				<stop  offset="0.3059" style="stop-color:#FFFFFF;stop-opacity:0.4235"/>
				<stop  offset="0.4902" style="stop-color:#FFFFFF;stop-opacity:0.2314"/>
				<stop  offset="0.651" style="stop-color:#FFFFFF;stop-opacity:8.235294e-002"/>
				<stop  offset="1" style="stop-color:#FFFFFF;stop-opacity:0"/>
			</radialGradient>
			<path fill-rule="evenodd" clip-rule="evenodd" fill="url(#SVGID_20_)" d="M367.5,140.1c0.5,7.9,0.7,17.6,0.7,29
				c0,12.1-0.2,22.1-0.7,30c-0.5,8.5-1,12.7-1.7,12.7c-0.7,0-1.2-4.2-1.7-12.7c-0.5-7.9-0.7-17.9-0.7-30c0-11.5,0.2-21.1,0.7-29
				c0.5-8.4,1-12.6,1.7-12.6C366.5,127.5,367,131.7,367.5,140.1z"/>
		</g>
		<g>
			
				<radialGradient id="SVGID_21_" cx="351.0996" cy="144.6499" r="17.504" gradientTransform="matrix(0.9998 -2.166814e-002 5.649253e-003 0.2607 -0.7347 114.5537)" gradientUnits="userSpaceOnUse">
				<stop  offset="0" style="stop-color:#FFFFFF"/>
				<stop  offset="0.1765" style="stop-color:#FFFFFF"/>
				<stop  offset="0.3059" style="stop-color:#FFFFFF;stop-opacity:0.4235"/>
				<stop  offset="0.4902" style="stop-color:#FFFFFF;stop-opacity:0.2314"/>
				<stop  offset="0.651" style="stop-color:#FFFFFF;stop-opacity:8.235294e-002"/>
				<stop  offset="1" style="stop-color:#FFFFFF;stop-opacity:0"/>
			</radialGradient>
			<path fill-rule="evenodd" clip-rule="evenodd" fill="url(#SVGID_21_)" d="M363.3,141.4c3.4,0.8,5.2,1.8,5.3,2.9
				c0,1.3-1.7,2.4-5.2,3.4c-3.4,1-7.5,1.5-12.2,1.6c-4.7,0.1-8.8-0.2-12.3-1.1c-3.2-0.8-4.9-1.8-4.9-3c0-1.3,1.6-2.4,4.8-3.3
				c3.4-1,7.5-1.5,12.2-1.6C355.7,140.1,359.8,140.5,363.3,141.4z"/>
		</g>
		<g>
			
				<radialGradient id="SVGID_22_" cx="338.4048" cy="143.25" r="5.9962" gradientTransform="matrix(0.9729 0.231 -0.1063 0.4479 24.3891 0.9109)" gradientUnits="userSpaceOnUse">
				<stop  offset="0" style="stop-color:#FFFFFF"/>
				<stop  offset="0.1765" style="stop-color:#FFFFFF"/>
				<stop  offset="0.3059" style="stop-color:#FFFFFF;stop-opacity:0.4235"/>
				<stop  offset="0.4902" style="stop-color:#FFFFFF;stop-opacity:0.2314"/>
				<stop  offset="0.651" style="stop-color:#FFFFFF;stop-opacity:8.235294e-002"/>
				<stop  offset="1" style="stop-color:#FFFFFF;stop-opacity:0"/>
			</radialGradient>
			<path fill-rule="evenodd" clip-rule="evenodd" fill="url(#SVGID_22_)" d="M344.1,144.6c-0.2,0.8-0.9,1.3-2.1,1.5
				c-1.3,0.2-2.7,0.1-4.3-0.3c-1.6-0.4-2.9-0.9-3.9-1.8c-0.9-0.7-1.3-1.5-1.2-2.3c0.2-0.7,0.9-1.2,2.1-1.4c1.3-0.3,2.8-0.2,4.3,0.2
				c1.6,0.4,2.9,1,3.9,1.8C343.9,143.2,344.3,143.9,344.1,144.6z"/>
		</g>
	</g>
	<g>
		<g>
			
				<radialGradient id="SVGID_23_" cx="378" cy="242.6499" r="8.4875" gradientTransform="matrix(1 0 0 0.4138 0 142.2307)" gradientUnits="userSpaceOnUse">
				<stop  offset="0" style="stop-color:#4D4D4D"/>
				<stop  offset="0.5255" style="stop-color:#4B4B4B;stop-opacity:0.5961"/>
				<stop  offset="1" style="stop-color:#484847;stop-opacity:0"/>
			</radialGradient>
			<path fill-rule="evenodd" clip-rule="evenodd" fill="url(#SVGID_23_)" d="M374.2,243.7L374.2,243.7l0,0.1c0.1,0.2,0.4,0.4,1,0.6
				h0c0.2,0.1,0.4,0.1,0.7,0.1c0,0,0.1,0.1,0.1,0.1c0.1,0,0.2,0,0.3,0c0.2,0.1,0.5,0.1,0.8,0.1h0.2c0.2,0,0.3,0,0.5,0
				c0,0,0.1,0,0.2,0h0.1h0.4c0.1,0,0.1,0,0.1,0c0.1,0,0.1,0,0.2,0c0,0,0.1,0,0.1,0c0.1,0,0.2,0,0.3,0c0.3-0.1,0.5-0.1,0.8-0.1
				c0.1,0,0.1-0.1,0.2-0.1c0,0,0.1,0,0.1,0c0.2,0,0.3-0.1,0.4-0.1c0.6-0.2,1-0.4,1.1-0.6l0-0.1l-0.1,2.5l0,0c-0.1,0.2-0.5,0.5-1,0.7
				l-0.8,0.2c0,0-0.3,0-0.7,0.1l-0.5,0.1H377l-1.3-0.2c-0.2,0-0.3-0.1-0.5-0.1H375c-0.5-0.2-0.8-0.5-1-0.7L374.2,243.7z"/>
		</g>
		<g>
			<g>
				<linearGradient id="SVGID_24_" gradientUnits="userSpaceOnUse" x1="374.1621" y1="243.1748" x2="381.7371" y2="243.1748">
					<stop  offset="0" style="stop-color:#4D4D4D"/>
					<stop  offset="0.1137" style="stop-color:#6E6D6B"/>
					<stop  offset="0.3765" style="stop-color:#6E6D6B"/>
					<stop  offset="0.5216" style="stop-color:#BCBBBA"/>
					<stop  offset="0.6627" style="stop-color:#BCBBBA"/>
					<stop  offset="0.7686" style="stop-color:#6E6D6B"/>
					<stop  offset="1" style="stop-color:#484847"/>
				</linearGradient>
				<path fill-rule="evenodd" clip-rule="evenodd" fill="url(#SVGID_24_)" d="M374.2,241.7L374.2,241.7L374.2,241.7
					c0.1,0.3,0.5,0.5,1,0.8h0c0.2,0.1,0.4,0.1,0.7,0.1c0,0,0.1,0,0.1,0c0.1,0,0.2,0,0.3,0.1c0.2,0,0.5,0,0.8,0h0.2
					c0.2,0,0.3,0.1,0.5,0.1c0,0,0.1,0,0.2,0h0.1h0.4c0.1,0,0.1,0,0.1,0c0.1,0,0.1-0.1,0.2-0.1c0,0,0.1,0,0.1,0c0.1,0,0.2,0,0.3,0
					c0.3,0,0.5-0.1,0.8-0.1c0.1,0,0.1,0,0.2,0c0,0,0.1,0,0.1,0c0.2,0,0.3-0.1,0.4-0.1c0.6-0.2,1-0.4,1.1-0.7l0,0v1.8l0,0.1
					c-0.1,0.2-0.5,0.4-1.1,0.6c-0.1,0-0.3,0.1-0.4,0.1c0,0-0.1,0-0.1,0c-0.1,0-0.1,0-0.2,0c-0.2,0.1-0.5,0.1-0.8,0.1
					c-0.1,0-0.1,0-0.3,0.1c0,0-0.1,0-0.1,0c-0.1,0-0.1,0-0.2,0c0,0-0.1,0-0.1,0l-0.4,0H378c-0.1,0-0.1,0-0.2,0c-0.2,0-0.4,0-0.5,0
					h-0.2c-0.3,0-0.5-0.1-0.8-0.1c-0.1,0-0.2,0-0.3-0.1c-0.1,0-0.1,0-0.1,0c-0.2,0-0.5-0.1-0.7-0.1h0c-0.6-0.2-0.9-0.4-1-0.6v-0.1
					c0,0,0,0,0,0V241.7z"/>
				<path fill-rule="evenodd" clip-rule="evenodd" fill="#7D7777" d="M381.7,241.8L381.7,241.8c-0.2,0.3-0.5,0.5-1.1,0.7
					c-0.1,0.1-0.3,0.1-0.4,0.1c0,0-0.1,0-0.1,0c-0.1,0-0.1,0-0.2,0c-0.2,0.1-0.5,0.1-0.8,0.1c-0.1,0-0.1,0-0.3,0c0,0-0.1,0-0.1,0
					c-0.1,0-0.1,0-0.2,0.1c0,0-0.1,0-0.1,0H378H378c-0.1,0-0.1,0-0.2,0c-0.2,0-0.4,0-0.5-0.1h-0.2c-0.3,0-0.5,0-0.8,0
					c-0.1-0.1-0.2-0.1-0.3-0.1c-0.1,0-0.1,0-0.1,0c-0.2,0-0.5-0.1-0.7-0.1h0c-0.6-0.2-0.9-0.4-1-0.7v0l0,0v-0.2
					c0-0.3,0.4-0.6,1.1-0.8c0.2-0.1,0.4-0.2,0.7-0.2c0.4-0.1,0.8-0.1,1.3-0.1c0.2,0,0.3,0,0.5,0c0,0,0.1,0,0.2,0
					c0.7,0,1.3,0,1.9,0.1c0.3,0.1,0.5,0.1,0.8,0.3c0.7,0.2,1.1,0.5,1.1,0.8V241.8z"/>
			</g>
		</g>
		<g>
			<g>
				<path fill-rule="evenodd" clip-rule="evenodd" fill="#7D7777" d="M374.9,241.2l-0.5-0.1c0.2-0.2,0.4-0.3,0.8-0.4
					c0.1-0.1,0.2-0.2,0.4-0.2l0.4,0.2c-0.1,0-0.3,0-0.4,0.1C375.4,240.9,375.1,241.1,374.9,241.2z"/>
				<path fill-rule="evenodd" clip-rule="evenodd" d="M374.9,241.2c0.2-0.1,0.5-0.3,0.8-0.4c0.1-0.1,0.3-0.1,0.4-0.1l4.6,1.2
					c-0.1,0.4-0.5,0.5-1.2,0.4L374.9,241.2z"/>
			</g>
		</g>
		<g>
			
				<radialGradient id="SVGID_25_" cx="377.9502" cy="242.8496" r="3.5626" gradientTransform="matrix(1 0 0 0.2386 0 184.9066)" gradientUnits="userSpaceOnUse">
				<stop  offset="0" style="stop-color:#FFFFFF"/>
				<stop  offset="0.1765" style="stop-color:#FFFFFF"/>
				<stop  offset="0.3059" style="stop-color:#FFFFFF;stop-opacity:0.4235"/>
				<stop  offset="0.4902" style="stop-color:#FFFFFF;stop-opacity:0.2314"/>
				<stop  offset="0.651" style="stop-color:#FFFFFF;stop-opacity:8.235294e-002"/>
				<stop  offset="1" style="stop-color:#FFFFFF;stop-opacity:0"/>
			</radialGradient>
			<path fill-rule="evenodd" clip-rule="evenodd" fill="url(#SVGID_25_)" d="M380.5,242.3c0.7,0.2,1,0.4,1,0.6s-0.3,0.4-1,0.6
				c-0.7,0.1-1.6,0.2-2.5,0.2c-1,0-1.9-0.1-2.5-0.2c-0.6-0.2-1-0.4-1-0.6s0.3-0.4,1-0.6c0.7-0.1,1.5-0.2,2.5-0.2
				C378.9,242,379.7,242.1,380.5,242.3z"/>
		</g>
	</g>
	<g>
		<g>
			
				<radialGradient id="SVGID_26_" cx="321.8501" cy="242.6499" r="8.4875" gradientTransform="matrix(1 0 0 0.4138 0 142.2307)" gradientUnits="userSpaceOnUse">
				<stop  offset="0" style="stop-color:#4D4D4D"/>
				<stop  offset="0.5255" style="stop-color:#4B4B4B;stop-opacity:0.5961"/>
				<stop  offset="1" style="stop-color:#484847;stop-opacity:0"/>
			</radialGradient>
			<path fill-rule="evenodd" clip-rule="evenodd" fill="url(#SVGID_26_)" d="M325.5,246l0,0.2v0c-0.2,0.2-0.5,0.5-1,0.7l-0.8,0.2
				c-0.1,0-0.4,0-0.8,0.1l-0.5,0.1H321l-1.3-0.2c-0.2,0-0.4-0.1-0.6-0.1h0c-0.5-0.2-0.9-0.5-1-0.7l0,0l0-2.5l0.1,0.1v0.1
				c0.1,0.2,0.4,0.4,0.9,0.6h0.1c0.2,0.1,0.4,0.1,0.6,0.1c0.1,0,0.2,0.1,0.2,0.1c0.1,0,0.2,0,0.3,0c0.2,0.1,0.5,0.1,0.8,0.1h0.1
				c0.2,0,0.4,0,0.6,0c0,0,0.1,0,0.1,0h0.2h0.4c0,0,0.1,0,0.1,0c0,0,0.1,0,0.1,0c0,0,0.1,0,0.1,0c0.1,0,0.2,0,0.3,0
				c0.2-0.1,0.5-0.1,0.7-0.1c0.1,0,0.1-0.1,0.1-0.1s0.1,0,0.1,0c0.1,0,0.3-0.1,0.5-0.1c0.6-0.2,0.9-0.4,1-0.6l0.1-0.1L325.5,246z"/>
		</g>
		<g>
			<g>
				<linearGradient id="SVGID_27_" gradientUnits="userSpaceOnUse" x1="318.0127" y1="243.1748" x2="325.5877" y2="243.1748">
					<stop  offset="0" style="stop-color:#4D4D4D"/>
					<stop  offset="0.1137" style="stop-color:#6E6D6B"/>
					<stop  offset="0.3765" style="stop-color:#6E6D6B"/>
					<stop  offset="0.5216" style="stop-color:#BCBBBA"/>
					<stop  offset="0.6627" style="stop-color:#BCBBBA"/>
					<stop  offset="0.7686" style="stop-color:#6E6D6B"/>
					<stop  offset="1" style="stop-color:#484847"/>
				</linearGradient>
				<path fill-rule="evenodd" clip-rule="evenodd" fill="url(#SVGID_27_)" d="M325.6,241.8v1.8l-0.1,0.1c-0.1,0.2-0.5,0.4-1,0.6
					c-0.2,0-0.3,0.1-0.5,0.1c-0.1,0-0.1,0-0.1,0s-0.1,0-0.1,0c-0.2,0.1-0.5,0.1-0.7,0.1c-0.1,0-0.2,0-0.3,0.1c0,0-0.1,0-0.1,0
					c-0.1,0-0.1,0-0.1,0c-0.1,0-0.1,0-0.1,0l-0.4,0h-0.2c0,0-0.1,0-0.1,0c-0.2,0-0.4,0-0.6,0H321c-0.3,0-0.6-0.1-0.8-0.1
					c-0.1,0-0.2,0-0.3-0.1c0,0-0.1,0-0.2,0c-0.2,0-0.4-0.1-0.6-0.1H319c-0.5-0.2-0.8-0.4-0.9-0.6v-0.1c-0.1,0-0.1,0-0.1,0v-1.8
					l0.1,0v0c0.1,0.2,0.4,0.5,0.9,0.7h0.1c0.2,0.1,0.4,0.1,0.6,0.1c0.1,0,0.2,0,0.2,0c0.1,0,0.2,0,0.3,0.1c0.2,0,0.5,0,0.8,0h0.1
					c0.2,0,0.4,0.1,0.6,0.1c0,0,0.1,0,0.1,0h0.2h0.4c0,0,0.1,0,0.1,0c0,0,0.1-0.1,0.1-0.1c0,0,0.1,0,0.1,0c0.1,0,0.2,0,0.3,0
					c0.2,0,0.5-0.1,0.7-0.1c0.1,0,0.1,0,0.1,0s0.1,0,0.1,0c0.1,0,0.3-0.1,0.5-0.1C325.1,242.3,325.4,242,325.6,241.8L325.6,241.8z"
					/>
				<path fill-rule="evenodd" clip-rule="evenodd" fill="#7D7777" d="M318,241.7v-0.2c0.1-0.3,0.5-0.6,1.1-0.8
					c0.2-0.1,0.4-0.2,0.6-0.2c0.4-0.1,0.9-0.1,1.4-0.1c0.2,0,0.4,0,0.6,0c0,0,0.1,0,0.1,0c0.7,0,1.4,0,2,0.1
					c0.3,0.1,0.5,0.1,0.8,0.3c0.7,0.2,1.1,0.5,1.1,0.8v0.1c0,0.1,0,0.1,0,0.1l-0.1,0c-0.1,0.2-0.5,0.5-1,0.7
					c-0.2,0.1-0.3,0.1-0.5,0.1c-0.1,0-0.1,0-0.1,0s-0.1,0-0.1,0c-0.2,0.1-0.5,0.1-0.7,0.1c-0.1,0-0.2,0-0.3,0c0,0-0.1,0-0.1,0
					c-0.1,0-0.1,0-0.1,0.1c-0.1,0-0.1,0-0.1,0H322h-0.2c0,0-0.1,0-0.1,0c-0.2,0-0.4,0-0.6-0.1H321c-0.3,0-0.6,0-0.8,0
					c-0.1-0.1-0.2-0.1-0.3-0.1c0,0-0.1,0-0.2,0c-0.2,0-0.4-0.1-0.6-0.1H319c-0.5-0.2-0.8-0.4-0.9-0.7v0L318,241.7z"/>
			</g>
		</g>
		<g>
			<g>
				<path fill-rule="evenodd" clip-rule="evenodd" fill="#7D7777" d="M318.9,241.2l-0.6-0.1c0.2-0.2,0.5-0.3,0.9-0.4
					c0.1-0.1,0.3-0.2,0.5-0.2l0.4,0.2c-0.1,0-0.3,0-0.4,0.1C319.2,240.9,319,241.1,318.9,241.2z"/>
				<path fill-rule="evenodd" clip-rule="evenodd" d="M318.9,241.2c0.1-0.1,0.4-0.3,0.8-0.4c0.2-0.1,0.3-0.1,0.4-0.1l4.6,1.2
					c-0.1,0.4-0.5,0.5-1.2,0.4L318.9,241.2z"/>
			</g>
		</g>
		<g>
			
				<radialGradient id="SVGID_28_" cx="321.7998" cy="242.8496" r="3.5626" gradientTransform="matrix(1 0 0 0.2386 0 184.9066)" gradientUnits="userSpaceOnUse">
				<stop  offset="0" style="stop-color:#FFFFFF"/>
				<stop  offset="0.1765" style="stop-color:#FFFFFF"/>
				<stop  offset="0.3059" style="stop-color:#FFFFFF;stop-opacity:0.4235"/>
				<stop  offset="0.4902" style="stop-color:#FFFFFF;stop-opacity:0.2314"/>
				<stop  offset="0.651" style="stop-color:#FFFFFF;stop-opacity:8.235294e-002"/>
				<stop  offset="1" style="stop-color:#FFFFFF;stop-opacity:0"/>
			</radialGradient>
			<path fill-rule="evenodd" clip-rule="evenodd" fill="url(#SVGID_28_)" d="M325.4,242.9c0,0.2-0.4,0.4-1.1,0.6
				c-0.7,0.1-1.5,0.2-2.5,0.2c-0.9,0-1.8-0.1-2.5-0.2c-0.6-0.2-0.9-0.4-0.9-0.6s0.3-0.4,0.9-0.6c0.7-0.1,1.6-0.2,2.5-0.2
				c1,0,1.8,0.1,2.5,0.2C325,242.4,325.4,242.6,325.4,242.9z"/>
		</g>
	</g>
</g>
</svg>
