<?xml version="1.0" encoding="utf-8"?>
<!-- Generator: Adobe Illustrator 16.0.0, SVG Export Plug-In . SVG Version: 6.00 Build 0)  -->
<!DOCTYPE svg PUBLIC "-//W3C//DTD SVG 1.1//EN" "http://www.w3.org/Graphics/SVG/1.1/DTD/svg11.dtd">
<svg version="1.1" id="Layer_1" xmlns="http://www.w3.org/2000/svg" xmlns:xlink="http://www.w3.org/1999/xlink" x="0px" y="0px"
	 width="700px" height="700px" viewBox="0 0 700 700" enable-background="new 0 0 700 700" xml:space="preserve">
<g>
	<g>
		<path fill-rule="evenodd" clip-rule="evenodd" fill-opacity="0.2471" d="M545,532.4v-5.2l59.2,30.3c0.1,0.1,0.3,0.1,0.4,0.3
			c20.4,17.4,26.1,31.2,16.9,41.5c-8.1,9.8-30,16-65.9,18.6c-19.6,3.1-34.2,0.9-43.8-6.6c-10-7.5-14.8-20.2-14.6-38.3
			c0-0.7,0.2-1.2,0.7-1.7c0.5-0.5,1-0.7,1.7-0.7c0.6,0,1.2,0.2,1.7,0.7c0.4,0.5,0.6,1,0.6,1.7c-0.2,16.3,4.1,27.8,12.8,34.5
			c8.9,6.6,22.4,8.5,40.5,5.7c0,0,0.1,0,0.2,0c34-2.5,54.8-8.1,62.7-17c6.7-8.3,1.3-19.9-16.2-34.8L545,532.4z M448.1,376v-4.7
			c10.1-0.9,16.7-0.8,20,0.4c3.2,1.2,5.6,2.7,7.3,4.5c1.6,1.8,5.5,2.7,11.6,2.8c6.1,0,9.1,0,9.2,0l32.9,1.5c0.6,0.1,1.2,0.3,1.7,0.8
			c0.4,0.5,0.6,1,0.6,1.6c-0.1,0.6-0.3,1.2-0.8,1.7c-0.5,0.4-1,0.6-1.7,0.6l-44.8-0.8c-0.3,0-0.6,0-0.9,0c-0.1,0-0.1,0-0.2,0l-1.6,0
			c0.2,0,0.4,0,0.6,0c-5.6-0.4-10.4-2.5-14.3-6.2C463.5,376,457,375.2,448.1,376z"/>
	</g>
	<g>
		<path fill-rule="evenodd" clip-rule="evenodd" d="M469.3,336.4c-1.8-3.2-5.3-4.2-10.5-3c-0.8,0.1-1.5,0-2.2-0.4
			c-0.7-0.4-1.1-1-1.3-1.8c-0.2-0.8,0-1.5,0.3-2.2c0.4-0.7,1-1.1,1.9-1.3c8.6-2,14.3,0,17,6c2.7,5,2.8,13.4,0.3,25.3v-0.1
			c-1.1,5.7,0.9,9.9,6.2,12.5c6.1,3,16,4.2,29.8,3.5c22.6-2.4,37.1,13.6,43.3,48.1c0,0,0,0.1,0.1,0.2c2,14.5,5,34.9,9.1,61
			c4,25.4,19.4,49.2,46.3,71.3c15.4,12.6,19.8,23.7,13.2,33.3c-5.5,8.9-21.1,16.2-46.7,21.9c-30.6,6.7-52.5,6.9-65.8,0.7
			c-14.4-6.4-19.5-19.7-15.4-39.8c0.2-0.8,0.6-1.4,1.3-1.8c0.7-0.5,1.4-0.6,2.2-0.4c0.8,0.1,1.4,0.5,1.9,1.3
			c0.4,0.7,0.5,1.4,0.4,2.2c-3.4,16.7,0.6,27.7,12.1,33.2c12.6,5.6,33.3,5.2,62.1-1.1c23.4-5.2,37.7-11.6,43-19.4
			c4.1-7.1,0.1-15.7-12-25.6c-28.2-23.1-44.4-48.1-48.4-74.9c-4.1-26.2-7.2-46.5-9.1-61.1c-5.6-30.3-17.9-44.7-37.1-43.2H511
			c-15.1,0.7-26-0.7-32.8-4.2c-7.8-3.9-10.9-10.2-9.2-18.8v0C471.2,347.7,471.2,340.6,469.3,336.4z"/>
	</g>
	<g>
		<g>
			<radialGradient id="SVGID_1_" cx="468.75" cy="340.2998" r="11.2625" gradientUnits="userSpaceOnUse">
				<stop  offset="3.921569e-003" style="stop-color:#FFFFFF"/>
				<stop  offset="1" style="stop-color:#FFFFFF;stop-opacity:0"/>
			</radialGradient>
			<path fill-rule="evenodd" clip-rule="evenodd" fill="url(#SVGID_1_)" d="M471.9,336c-1.4-3-5-5.3-10.7-6.9l3,0.1
				c4.4,0.3,7.5,2.3,9.2,6c1.4,2.9,1.2,7.1-0.5,12.6C473.5,342.8,473.1,338.8,471.9,336z"/>
			<radialGradient id="SVGID_2_" cx="487.6504" cy="373.2002" r="14.6375" gradientUnits="userSpaceOnUse">
				<stop  offset="3.921569e-003" style="stop-color:#FFFFFF"/>
				<stop  offset="1" style="stop-color:#FFFFFF;stop-opacity:0"/>
			</radialGradient>
			<path fill-rule="evenodd" clip-rule="evenodd" fill="url(#SVGID_2_)" d="M496.5,378.3c-14.6-0.9-22.7-5.1-24.5-12.6
				C476.5,372.9,484.6,377.1,496.5,378.3z"/>
			<radialGradient id="SVGID_3_" cx="499.5498" cy="587.1504" r="14.35" gradientUnits="userSpaceOnUse">
				<stop  offset="3.921569e-003" style="stop-color:#FFFFFF"/>
				<stop  offset="1" style="stop-color:#FFFFFF;stop-opacity:0"/>
			</radialGradient>
			<path fill-rule="evenodd" clip-rule="evenodd" fill="url(#SVGID_3_)" d="M497.3,571.5c0-0.2,0.2-0.4,0.4-0.5
				c0.2-0.1,0.4-0.1,0.7,0c0.2,0,0.4,0.2,0.5,0.4c0.1,0.2,0.2,0.4,0.1,0.7c-3.9,14.1-1.6,24.9,6.8,32.3c0.2,0.2,0.3,0.4,0.3,0.6
				s-0.1,0.5-0.2,0.7c-0.2,0.2-0.4,0.3-0.6,0.3s-0.5-0.1-0.7-0.2C495.7,597.8,493.3,586.5,497.3,571.5z"/>
			<radialGradient id="SVGID_4_" cx="576.9004" cy="512.0498" r="35.5875" gradientUnits="userSpaceOnUse">
				<stop  offset="3.921569e-003" style="stop-color:#FFFFFF"/>
				<stop  offset="1" style="stop-color:#FFFFFF;stop-opacity:0"/>
			</radialGradient>
			<path fill-rule="evenodd" clip-rule="evenodd" fill="url(#SVGID_4_)" d="M588.6,539.7c-15.6-14.8-25.3-33-29-54.7
				C564.4,504.9,574.1,523.1,588.6,539.7z"/>
			<radialGradient id="SVGID_5_" cx="575.9004" cy="603.5498" r="38.35" gradientUnits="userSpaceOnUse">
				<stop  offset="3.921569e-003" style="stop-color:#FFFFFF"/>
				<stop  offset="1" style="stop-color:#FFFFFF;stop-opacity:0"/>
			</radialGradient>
			<path fill-rule="evenodd" clip-rule="evenodd" fill="url(#SVGID_5_)" d="M543.5,612.3c22.3-1.9,43.6-7,63.8-15
				C585.9,607.4,564.7,612.4,543.5,612.3z"/>
			<radialGradient id="SVGID_6_" cx="543.9004" cy="398.4004" r="35.7" gradientUnits="userSpaceOnUse">
				<stop  offset="3.921569e-003" style="stop-color:#FFFFFF"/>
				<stop  offset="1" style="stop-color:#FFFFFF;stop-opacity:0"/>
			</radialGradient>
			<path fill-rule="evenodd" clip-rule="evenodd" fill="url(#SVGID_6_)" d="M524.2,379.4c15,5.1,24.1,20,27.3,44.8
				C547,399.8,537.9,384.9,524.2,379.4z"/>
		</g>
	</g>
</g>
<g>
	<g>
		<path fill-rule="evenodd" clip-rule="evenodd" fill-opacity="0.2471" d="M318.3,212.5c0.4-0.3,0.8-0.5,1.3-0.4
			c0.5,0,0.9,0.3,1.1,0.6c0.3,0.3,0.5,0.8,0.4,1.3l-1.1,15.1c0.9,3.8-2.6,8.5-10.5,14c0,0-0.1,0-0.1,0c-5.2,3-7.9,6.2-7.9,9.5
			l-0.3,10.4c-0.1,10.6-1.8,15.8-5.1,15.5c-1.9,0.2-3.3,2.9-4.2,8v-0.1l-14.3,132c-0.2,3-0.9,5.1-2.1,6.4c-1.2,1.5-3,2.1-5.2,1.9
			c-0.9,0.5-1.4,1.1-1.4,2c0.2,1.5,1.3,3.6,3.3,6.1c0.1,0.2,0.2,0.4,0.3,0.6c0.4,0.4,1.9,0.9,4.7,1.5c8.5,2,15.9,3.5,22.2,4.4
			c6.3,0.7,10.2,5.2,11.9,13.6c0.2,0,0.3,0.1,0.5,0.3c0.4,0.3,0.6,0.7,0.6,1.2c2.5,49.7,13.9,85.4,34.1,107.1c0.3,0.3,0.5,0.6,0.5,1
			c8.7,9.3,13.6,16.3,14.7,21.2c0.7,3.2,0.2,5.6-1.7,7.2c-1.6,1.5-4.2,2.3-8,2.5c-7.2,2.3-11.7,4.3-13.4,5.9
			c-0.1,0.1-0.2,0.1-0.3,0.1c0.5,0.4,1.5,0.8,3,1.1h0c8.2,2.1,20.3,3.6,36.4,4.7c11.6,0.7,22-1.5,31-6.8c0-0.2,0-0.4,0.1-0.5
			c0.1-0.5,0.3-0.8,0.8-1.1c2.8-1.8,5.6-3.5,8.3-5c0,0,0,0,0.1,0h0c0.1-0.2,0.3-0.3,0.5-0.3c14.9-8.4,28.7-12.6,41.5-12.8
			c22.6-0.4,35.3-13.9,38.2-40.4c0-0.5,0.3-0.9,0.7-1.2c0.4-0.3,0.8-0.4,1.3-0.4c0.5,0,0.9,0.3,1.3,0.6c0.3,0.4,0.4,0.8,0.3,1.3
			c-3.1,28.8-17,43.3-41.6,43.5c-12.3,0.2-25.5,4.3-39.9,12.4c-11.8,10.5-26,15.3-42.7,14.3c-16.4-1-28.7-2.6-37.1-4.8
			c-2.6-0.6-4.2-1.4-4.9-2.4c-1.4-1.4-1.2-3,0.6-4.7c1.9-1.9,6.9-4.2,15-6.8c0.2-0.1,0.3-0.1,0.5-0.1c2.8-0.1,4.8-0.6,6-1.5
			c0.9-0.9,1.1-2.2,0.7-3.8c-1.2-4.6-6.1-11.5-14.8-20.6c-0.3-0.3-0.5-0.6-0.5-1c-19.6-21.7-30.9-56.4-33.8-104.3l0,0
			c-0.4-0.3-0.6-0.7-0.6-1.2c-0.8-8.9-4-13.8-9.4-14.7c-6.4-0.9-13.9-2.4-22.6-4.5c-4.4-1-6.8-2.3-7.1-3.8c-2.4-3.1-3.6-5.7-3.7-7.7
			c-0.2-2.7,1.1-4.6,4-5.7c0.3-0.1,0.6-0.1,0.9,0c1.1,0.2,2-0.1,2.6-0.7c0.7-0.9,1.1-2.4,1.2-4.3c0,0,0-0.1,0-0.2l14.3-132
			c0,0,0-0.1,0-0.1c1.3-7.5,3.9-11.1,7.6-10.9h0.1c0.9-0.1,1.4-4.2,1.5-12.1l0.3-10.4c-0.2-4.4,3-8.6,9.7-12.5
			c6.3-4.4,9.3-7.9,8.9-10.5c0-0.2,0-0.4,0-0.5l1.1-15.4C317.7,213.3,317.9,212.9,318.3,212.5z"/>
	</g>
	<g>
		<path fill-rule="evenodd" clip-rule="evenodd" fill="#9F0000" d="M314.4,202c-0.2,0.1-0.3,0.3-0.5,0.5
			c-2.9,2.9-6.5,12.7-10.9,29.5l-24.4,94.3v0.1c-11.6,37.5-17,65.5-16.1,83.9c0.4,8.8,2.3,15.3,5.7,19.5c3.2,4,7.9,5.8,14,5.3
			c0.1,0,0.2,0,0.2,0c10.3,0.4,17.8,2.3,22.5,5.7c5,3.6,7.1,8.7,6.3,15.3c-0.8,58.3,9.5,95,31,110.2c0,0,0.1,0,0.1,0
			c8.6,6.7,13.5,12.1,14.6,16.3c0.7,2.6,0.3,4.8-1.3,6.6c-1.3,1.6-3.7,2.8-7,3.6c-4.1,1.6-6.9,3-8.5,4.4c-0.7,0.6-0.9,1-0.7,1.4
			c2,2,9,3.7,21.1,4.9c32,3.4,53.8-4.1,65.5-22.5v0c11-16.3,25.8-25,44.3-26.3c10-0.9,17.3-2.7,22-5.4c4.1-2.3,6-5.4,5.7-9.2
			c0-0.5,0.1-0.9,0.4-1.3c0.3-0.4,0.7-0.6,1.2-0.7c0.5,0,0.9,0.1,1.3,0.5c0.4,0.3,0.6,0.7,0.7,1.2c0.7,5.2-1.8,9.5-7.5,12.6
			c-5,2.8-12.8,4.8-23.5,5.8h0c-17.5,1.2-31.3,9.5-41.7,24.8c-12.2,19.6-35.1,27.6-68.8,24.1c-13.5-1.4-21.3-3.4-23.4-6
			c-1.9-1.9-1.6-4.1,1.1-6.4c1.7-1.6,4.9-3.3,9.4-5c0.1,0,0.2,0,0.3,0c2.5-0.6,4.4-1.5,5.4-2.5c0.7-0.9,0.9-2,0.6-3.4
			c-1.2-3.7-5.7-8.5-13.5-14.5c-22.4-15.5-33.3-53.2-32.5-113c0-0.1,0-0.2,0-0.3c0.7-5.2-1-9.3-4.9-12c-4.3-3-11.1-4.7-20.4-5.1
			c-7.4,0.4-13.1-1.8-17-6.6c-3.8-4.7-6-11.8-6.5-21.5c-0.9-18.6,4.5-47,16.2-85l0-0.1l24.4-94.3c4.6-17.7,8.6-28,11.8-31.1
			c1.3-1.3,2.5-1.8,3.6-1.3c1.1,0.1,2.1,1,3,2.6c0.7,1.2,1.2,2.4,1.6,3.7c0.4,1.5,0.8,3.6,1.3,6.3c0,0.5-0.1,0.9-0.4,1.3
			c-0.3,0.4-0.7,0.6-1.2,0.7c-0.5,0.1-0.9,0-1.3-0.4c-0.4-0.3-0.6-0.6-0.6-1.1c-0.4-2.4-0.7-4.3-1.1-5.6c-0.3-1-0.8-2-1.4-3.1
			C314.8,202.5,314.6,202.2,314.4,202z"/>
	</g>
	<g>
		<g>
			
				<radialGradient id="SVGID_7_" cx="316.1499" cy="205.8501" r="4.825" gradientTransform="matrix(1 0 0 2.1917 0 -245.3136)" gradientUnits="userSpaceOnUse">
				<stop  offset="0" style="stop-color:#FFFFFF"/>
				<stop  offset="1" style="stop-color:#FFFFFF;stop-opacity:0"/>
			</radialGradient>
			<path fill-rule="evenodd" clip-rule="evenodd" fill="url(#SVGID_7_)" d="M316.4,202c-0.5-0.9-0.9-1.5-1.4-1.8
				c-0.5-0.2-1-0.2-1.5,0.2c-0.1,0-0.2,0.1-0.3,0.1c-0.1,0-0.1-0.1-0.2-0.2c0-0.1-0.1-0.1-0.1-0.2c0-0.1,0.1-0.2,0.2-0.2
				c0.7-0.5,1.4-0.6,2.1-0.2c0.6,0.3,1.1,0.9,1.6,2c0.9,2,1.7,5.4,2.4,10.3c0,0,0,0.1,0,0.1c0,0.1-0.1,0.1-0.2,0.1
				c-0.1,0-0.1,0-0.2-0.1c-0.1,0-0.1-0.1-0.1-0.2C318,207.3,317.3,203.9,316.4,202z"/>
			
				<radialGradient id="SVGID_8_" cx="283.9873" cy="300.2666" r="20.9687" gradientTransform="matrix(1 0 0 3.8892 0 -867.5164)" gradientUnits="userSpaceOnUse">
				<stop  offset="0" style="stop-color:#FFFFFF"/>
				<stop  offset="1" style="stop-color:#FFFFFF;stop-opacity:0"/>
			</radialGradient>
			<path fill-rule="evenodd" clip-rule="evenodd" fill="url(#SVGID_8_)" d="M305,218.4c0.1,0,0.2,0.1,0.2,0.2c0,0,0,0.1,0,0.2
				c-1.1,3.7-2.3,8-3.6,12.9L277.2,326c-6.7,21.9-11.4,40.5-13.9,56c0,0.1,0,0.1-0.1,0.2c-0.1,0-0.2,0.1-0.3,0.1
				c-0.1,0-0.1-0.1-0.2-0.2c-0.1-0.1-0.1-0.1-0.1-0.2c2.5-15.4,7.2-34.1,13.9-56l24.4-94.3c1.3-4.8,2.5-9.1,3.6-12.8
				c0-0.1,0.1-0.2,0.2-0.2C304.9,218.4,305,218.4,305,218.4z"/>
			
				<radialGradient id="SVGID_9_" cx="285.4634" cy="437.4004" r="24.2042" gradientTransform="matrix(1 0 0 0.8286 0 74.97)" gradientUnits="userSpaceOnUse">
				<stop  offset="0" style="stop-color:#FFFFFF"/>
				<stop  offset="1" style="stop-color:#FFFFFF;stop-opacity:0"/>
			</radialGradient>
			<path fill-rule="evenodd" clip-rule="evenodd" fill="url(#SVGID_9_)" d="M261.5,415.5c1.9,14.8,8.8,21.8,20.9,21.1
				c9.8,0.4,17,2.2,21.6,5.4c4.6,3.1,6.6,7.7,5.9,13.7c0,0.1,0,0.1-0.1,0.1c-0.1,0-0.2,0-0.2,0c-0.1,0-0.2,0-0.2-0.1
				c-0.1-0.1-0.1-0.1-0.1-0.2c0.7-5.7-1.2-10.1-5.6-13.2c-4.5-3.1-11.6-4.8-21.1-5.3h-0.1c-12.3,0.7-19.5-6.5-21.4-21.7
				c0-0.1,0-0.2,0.1-0.3c0-0.1,0.1-0.1,0.2-0.1c0,0,0.1,0,0.2,0C261.5,415.2,261.5,415.3,261.5,415.5z"/>
			
				<radialGradient id="SVGID_10_" cx="316.5" cy="523.7002" r="21.5" gradientTransform="matrix(1 0 0 2.1273 0 -590.3806)" gradientUnits="userSpaceOnUse">
				<stop  offset="0" style="stop-color:#FFFFFF"/>
				<stop  offset="1" style="stop-color:#FFFFFF;stop-opacity:0"/>
			</radialGradient>
			<path fill-rule="evenodd" clip-rule="evenodd" fill="url(#SVGID_10_)" d="M310.6,489c0.1,0,0.1,0.1,0.1,0.3
				c3,40,13.2,66,30.6,78.2l0.1,0c5.8,5.2,9.9,9.5,12.2,13c0,0.1,0,0.1,0,0.2c0,0.1-0.1,0.1-0.1,0.1c-0.1,0.1-0.1,0.1-0.3,0.1
				c-0.1-0.1-0.1-0.1-0.1-0.2c-2.3-3.5-6.4-7.8-12.2-13c-17.6-12.2-27.9-38.4-30.9-78.6c0-0.1,0-0.2,0.1-0.3c0-0.1,0.1-0.1,0.3-0.1
				C310.5,488.9,310.6,488.9,310.6,489z"/>
			
				<radialGradient id="SVGID_11_" cx="487.5498" cy="553.0498" r="16.9125" gradientTransform="matrix(1 0 0 0.5499 0 248.9337)" gradientUnits="userSpaceOnUse">
				<stop  offset="0" style="stop-color:#FFFFFF"/>
				<stop  offset="1" style="stop-color:#FFFFFF;stop-opacity:0"/>
			</radialGradient>
			<path fill-rule="evenodd" clip-rule="evenodd" fill="url(#SVGID_11_)" d="M500,540c0-0.1,0-0.2,0.1-0.3c0.1-0.1,0.1-0.1,0.2-0.1
				s0.2,0,0.3,0.1c0,0,0,0.1,0,0.1c0.5,9.2-9.4,14.8-29.9,16.8c-1.4,0.1-2.8,0.3-4.2,0.4c-0.1,0-0.1,0-0.2-0.1
				c-0.1,0-0.2-0.1-0.2-0.2c0-0.1,0-0.1,0.1-0.3c0-0.1,0.1-0.1,0.2-0.1c1.3-0.2,2.7-0.3,4.2-0.4C490.6,554.2,500.4,548.8,500,540z"
				/>
			
				<radialGradient id="SVGID_12_" cx="384.25" cy="604.5996" r="47.1625" gradientTransform="matrix(1 0 0 0.3159 0 413.5891)" gradientUnits="userSpaceOnUse">
				<stop  offset="0" style="stop-color:#FFFFFF"/>
				<stop  offset="1" style="stop-color:#FFFFFF;stop-opacity:0"/>
			</radialGradient>
			<path fill-rule="evenodd" clip-rule="evenodd" fill="url(#SVGID_12_)" d="M342.8,593.6c0,0,0,0.1,0,0.2c0,0.1-0.1,0.1-0.1,0.2
				c-2.5,1.3-4,2.5-4.5,3.7c-0.5,1,0,2,1.4,2.8c2.9,1.9,10,3.5,21.1,4.5c33.3,3.2,56.1-4.5,68.4-23.2c0.7-2.1,1.6-4,2.8-5.8
				c0-0.1,0.1-0.2,0.2-0.2c0.1,0,0.1,0,0.2,0c0,0.1,0.1,0.1,0.2,0.2c0,0.1,0,0.1,0,0.3c-1.1,1.7-2,3.6-2.8,5.7l0,0.1
				c-12.3,18.8-35.3,26.6-68.9,23.4c-11.2-1.1-18.4-2.7-21.4-4.6c-1.7-1.1-2.2-2.3-1.6-3.6c0.5-1.2,2.1-2.6,4.8-4
				c0-0.1,0.1-0.1,0.3,0C342.6,593.4,342.7,593.5,342.8,593.6z"/>
		</g>
	</g>
</g>
<g>
	<g>
		<path fill-rule="evenodd" clip-rule="evenodd" fill-opacity="0.2471" d="M448.4,325.7c0.2-0.1,0.4-0.1,0.6,0
			c29.1,4.7,48.8,4.8,59,0.4c4.5-2,6.9-5,7.3-8.9c0.3-4.3-1.7-9.7-5.9-16.3c-0.3-0.4-0.4-0.8-0.3-1.3c0.1-0.5,0.4-0.8,0.8-1.1
			c0.4-0.3,0.8-0.3,1.3-0.3c0.4,0.1,0.8,0.4,1,0.8c4.8,7.3,6.9,13.5,6.5,18.4c-0.4,5.3-3.5,9.2-9.3,11.8c-10.5,4.7-30.9,4.6-61-0.2
			V325.7z M448.8,242c1.8,1.9,2.4,2.9,1.6,2.8c-0.8,0-2.1-0.5-3.7-1.3c-1.7-0.9-2.7-1.5-3.2-1.7c-5.5-3.4-14.5-3.8-27-1.4
			c-0.5,0.1-0.9,0-1.3-0.3c-0.4-0.3-0.6-0.6-0.8-1.1c-1.4-4.7-6.3-7.3-14.6-7.6c-9.4-0.4-17-0.4-22.8,0.2c-1.9,0.1-4,0.3-6.3,0.5
			v-3.6c2.2-0.2,4.4-0.4,6.5-0.5c5.6-0.5,13.2-0.5,22.8-0.1c9.6,0.4,15.4,3.3,17.5,8.7c12.8-2.3,22.1-1.6,27.9,2.1
			C445.8,239,446.9,240,448.8,242z M369,140c-0.3,0.4-0.7,0.5-1.2,0.5l-15.6-0.6c-0.2-0.3-0.3-0.7-0.3-1c0-0.5,0.2-0.9,0.5-1.3
			c0.3-0.3,0.7-0.5,1.2-0.5l14-0.1c0.5,0,0.9,0.2,1.3,0.5c0.3,0.3,0.5,0.7,0.5,1.3C369.5,139.3,369.3,139.7,369,140z"/>
	</g>
	<g>
		<path fill-rule="evenodd" clip-rule="evenodd" d="M350,137.1c1.3-9,3.6-13.9,6.8-14.6c3.3-1.2,7.1,2,11.6,9.6
			c7.7,13.1,18,40.9,31,83.4l-0.1-0.3c4,8.4,12.6,12.6,25.9,12.6h0c17.9-1.1,28.4,11.5,31.5,37.8c0,0,0,0.1,0,0.2
			c0.3,40.3,10.5,60.7,30.5,61.1c10.1,0.1,17.1-1,21.1-3.5c3.3-2.2,4-5.4,2.2-9.7c0-0.1-0.1-0.2-0.1-0.3c-1.9-6.8-2.5-12.8-1.9-17.8
			c0.1-0.5,0.3-0.8,0.7-1.1c0.4-0.3,0.8-0.4,1.3-0.4c0.5,0,0.9,0.3,1.2,0.7c0.3,0.4,0.4,0.8,0.3,1.3c-0.6,4.6,0,10.1,1.8,16.4
			c2.6,6.2,1.4,10.9-3.6,13.9c-4.3,2.8-12,4.1-23,4c-22.3,0-33.6-21.5-33.9-64.4c-2.8-23.8-12.1-35.3-27.9-34.6c0,0-0.1,0-0.1,0
			c-15.1,0-24.8-4.9-29.1-14.6c-0.1-0.1-0.1-0.1-0.1-0.2c-12.8-42-23-69.6-30.6-82.6c-3.3-5.6-5.8-8.2-7.6-7.9
			c-1.9,0.7-3.3,4.6-4.5,11.6c-0.1,0.5-0.3,0.8-0.7,1.1c-0.4,0.3-0.8,0.4-1.3,0.3c-0.5-0.1-0.9-0.3-1.2-0.7
			C349.9,138,349.9,137.6,350,137.1z"/>
	</g>
	<g>
		<g>
			
				<radialGradient id="SVGID_13_" cx="383.0996" cy="176.0498" r="19.4375" gradientTransform="matrix(1 0 0 2.7119 0 -301.3792)" gradientUnits="userSpaceOnUse">
				<stop  offset="0" style="stop-color:#FFFFFF"/>
				<stop  offset="1" style="stop-color:#FFFFFF;stop-opacity:0"/>
			</radialGradient>
			<path fill-rule="evenodd" clip-rule="evenodd" fill="url(#SVGID_13_)" d="M367.7,135.1c-0.1-0.1-0.1-0.1,0-0.3
				c0-0.1,0.1-0.1,0.2-0.1c0-0.1,0.1-0.1,0.2-0.1c0.1,0,0.1,0.1,0.2,0.1c7.5,13.8,17.5,40.8,29.8,81.2v-0.1c0.1,0.2,0.2,0.4,0.3,0.6
				h-0.6c-0.1-0.1-0.1-0.3-0.2-0.4h0C385.1,175.9,375.2,148.8,367.7,135.1z"/>
			
				<radialGradient id="SVGID_14_" cx="353.25" cy="127.9502" r="4.4375" gradientTransform="matrix(1 0 0 1.4845 0 -61.9928)" gradientUnits="userSpaceOnUse">
				<stop  offset="0" style="stop-color:#FFFFFF"/>
				<stop  offset="1" style="stop-color:#FFFFFF;stop-opacity:0"/>
			</radialGradient>
			<path fill-rule="evenodd" clip-rule="evenodd" fill="url(#SVGID_14_)" d="M354.9,125.9c1.6-2.2,3.5-2.6,5.8-1.1
				c0.1,0,0.1,0.1,0.1,0.2c0,0.1,0,0.1-0.1,0.3c0,0.1-0.1,0.1-0.2,0.1s-0.1,0-0.3,0c-1.9-1.3-3.6-1-5,0.9c-1.4,2-2.6,5.8-3.4,11.3
				c0,0.1,0,0.1-0.1,0.1c-0.1,0-0.1,0.1-0.3,0.1c-0.1,0-0.1,0-0.1-0.1c0-0.1-0.1-0.1-0.1-0.3C352.2,131.7,353.4,127.9,354.9,125.9z"
				/>
			
				<radialGradient id="SVGID_15_" cx="452.2002" cy="257" r="18.9" gradientTransform="matrix(1 0 0 2.1931 0 -306.6323)" gradientUnits="userSpaceOnUse">
				<stop  offset="0" style="stop-color:#FFFFFF"/>
				<stop  offset="1" style="stop-color:#FFFFFF;stop-opacity:0"/>
			</radialGradient>
			<path fill-rule="evenodd" clip-rule="evenodd" fill="url(#SVGID_15_)" d="M456.8,292.6c-1.3-7-2.1-15.1-2.4-24.3
				c-0.9-16.7-5.6-28.4-13.9-35.3c8.7,6.3,13.7,17.2,14.9,32.9l0.1,3.2C455.7,278.6,456.2,286.5,456.8,292.6z"/>
			<radialGradient id="SVGID_16_" cx="411.5996" cy="224.5498" r="13.225" gradientUnits="userSpaceOnUse">
				<stop  offset="0" style="stop-color:#FFFFFF"/>
				<stop  offset="1" style="stop-color:#FFFFFF;stop-opacity:0"/>
			</radialGradient>
			<path fill-rule="evenodd" clip-rule="evenodd" fill="url(#SVGID_16_)" d="M400.8,221.1c0,0,0.1,0,0.1,0
				c4.1,4.6,11.1,7.3,20.8,8.2c-10.3,0.4-17.4-2.6-21.3-8.8L400.8,221.1z"/>
			
				<radialGradient id="SVGID_17_" cx="504.75" cy="321.2002" r="15.4875" gradientTransform="matrix(1 0 0 1.0565 0 -18.1469)" gradientUnits="userSpaceOnUse">
				<stop  offset="0" style="stop-color:#FFFFFF"/>
				<stop  offset="1" style="stop-color:#FFFFFF;stop-opacity:0"/>
			</radialGradient>
			<path fill-rule="evenodd" clip-rule="evenodd" fill="url(#SVGID_17_)" d="M510.1,295.8c0.1,0,0.2,0,0.3,0c0.1,0,0.1,0,0.2,0.1
				c0,0.1,0,0.2,0,0.3c-0.6,4.6,0.2,10.7,2.3,18.2c1.7,4.9,0.5,8.5-3.4,11c-0.7,0.5-1.5,0.9-2.4,1.3c0.8-0.5,1.9-1.3,3.2-2.5
				c2.6-2.3,3.1-6.3,1.4-12.1c-1.7-5.8-2.4-9.9-2.1-12.4C509.8,297,510,295.8,510.1,295.8z"/>
		</g>
	</g>
</g>
<g>
	<g>
		<path fill-rule="evenodd" clip-rule="evenodd" fill-opacity="0.2471" d="M51.8,335.8c-4.5-10.4-4-21,1.4-31.7
			c0.2-0.5,0.6-0.8,1.1-0.9c0.4-0.2,0.9-0.1,1.3,0.1c0.4,0.2,0.7,0.6,0.9,1.1c0.2,0.4,0.1,0.8-0.1,1.3c-4.9,9.8-5.3,19.4-1.3,28.9
			c0,0.1,0,0.1,0.1,0.1c1.7,4.9-0.3,11.9-6.1,20.9c-0.6,0.9-1.2,1.8-1.8,2.7c-1.4,2-1,3.9,1.4,5.5c6.2,4.4,22.4,7.5,48.8,9.3h0
			c14-1.7,22.9-4.9,26.8-9.8c3.3-4.7,2-11-4.1-19c0-0.1-0.1-0.1-0.1-0.1c-4.6-7.7-5.6-14.1-3.2-19c2.2-5.1,7.9-8.7,17-11
			c5.7-1.9,32.8,0.2,81.3,6.4c7.3,0.7,20,0.8,38.2,0.4c0.1,0,0.3,0,0.5,0v3.5c-0.2,0-0.4,0-0.5,0c-18.4,0.4-31.3,0.3-38.6-0.4h-0.1
			c-48-6.1-74.6-8.3-79.8-6.5c-0.1,0-0.1,0-0.1,0c-7.7,1.9-12.5,4.9-14.5,9c-1.8,4.1-0.8,9.4,3,15.8c7.3,9.6,8.6,17.2,4.1,23.1
			c-4.1,5.6-13.9,9.4-29.3,11.2c-0.1,0-0.2,0-0.4,0c-27.4-1.9-44.3-5.2-50.8-9.9c-4.2-3-4.9-6.5-2.1-10.4c0.6-0.9,1.1-1.7,1.7-2.5
			C51,346,52.9,340,51.8,335.8z M329.8,231.3L329.8,231.3c-3,0.1-7,0.2-12,0.5c-4.5,0.2-8.1,0.2-10.8,0.1c-4.2-0.2-7.3,0.8-9.1,2.8
			c-1.1,1.4-2.1,2.5-2.8,3.3h0c-1.4,1.4-3.1,2.5-5.3,3.3c-3.1,1-4.8,2.4-5.2,4.2c-0.6,3.5-2.1,6-4.7,7.7c-1.4,1.1-5.8,1.7-12.9,1.8
			c-4.8,0-9.3,0.4-13.4,1.1c0.3-0.5,0.7-0.9,1-1.1c4-2.6,8.8-3.8,14.4-3.8c4.7,0.1,7.6-0.2,8.8-0.9h0.1c1.7-1.2,2.8-3,3.1-5.4v0
			c0.4-3,2.9-5.4,7.5-7c1.5-0.5,2.8-1.3,3.9-2.4c0.7-0.7,1.5-1.7,2.5-3l0.1-0.1c2.4-2.9,6.3-4.3,11.9-4c2.5,0.1,6,0.1,10.4-0.1
			c5.1-0.2,9.2-0.4,12.2-0.5h0V231.3z"/>
	</g>
	<g>
		<path fill-rule="evenodd" clip-rule="evenodd" d="M326.5,133.8c6-7.1,11-10.5,15.1-10c4.4,0,7.5,4.1,9.4,12.2
			c0.1,0.5,0,0.9-0.2,1.3c-0.3,0.4-0.6,0.7-1.1,0.8c-0.5,0.1-0.9,0-1.4-0.2c-0.4-0.3-0.6-0.6-0.8-1.1c-1.4-6-3.5-9.2-6.3-9.5
			c-3.1-0.1-7.1,2.9-12.1,8.8l-0.1,0.1c-11.2,14-18.7,29.8-22.5,47.4c0,0,0,0,0,0c-2,7.8-4.4,21.1-7.3,40
			c-1.4,8.5-4.8,12.7-10.2,12.6c-3.7,0.1-6.4,2.3-8.1,6.7c-2.1,5.8-8.9,9.2-20.5,10.1c-0.1,0-0.2,0-0.3,0c-3.5-0.2-6.4,2.2-8.5,7.3
			c-2.4,5.8-4,14.8-4.6,26.9c-0.7,12.7-3,22-7,27.8c-4.2,6.2-10.2,8.6-17.9,7.5c-14.1-2.3-36.1-5-66-8.1c-14.3-1.5-23.9-0.1-29,4.3
			c-4.6,4.3-4.8,11.5-0.7,21.7c4.9,12,3.3,20.7-4.6,26.1c-7.3,5.2-20.6,7.3-39.9,6.3c0,0-0.1,0-0.1,0c-15.2-1.9-25.4-4.2-30.5-7
			c-3.3-1.8-4.9-3.7-4.9-5.9c-0.3-2.1,1.1-4.3,4.1-6.5c0-0.1,0-0.1,0-0.1c7.3-5.3,9-11.9,5-19.8c-0.1-0.1-0.1-0.2-0.1-0.4
			c-3.3-12-3.9-23-1.6-33c0.1-0.5,0.4-0.9,0.8-1.1c0.4-0.3,0.8-0.4,1.3-0.3c0.5,0.1,0.9,0.3,1.1,0.8c0.2,0.4,0.3,0.9,0.2,1.4
			c-2.2,9.5-1.6,19.9,1.5,31.3c4.8,9.5,2.7,17.5-6.3,24l0.1-0.1c-1.8,1.3-2.7,2.6-2.8,3.7c0.2,1,1.2,2,3,3c5,2.7,14.7,4.9,29.3,6.6
			c18.1,1,30.7-0.8,37.6-5.6c6.3-4.6,7.4-11.9,3.3-21.9c-4.8-12-4.3-20.6,1.6-25.7c5.4-5.1,16-6.8,31.6-5.1
			c30,3.2,52.1,5.9,66.2,8.2c6.3,1,11.1-1,14.5-6c3.6-5.4,5.8-14.1,6.4-25.9c0.7-12.6,2.3-22,4.9-28.1c2.9-6.9,6.9-10,12-9.4
			c9.6-0.9,15.4-3.5,17.3-8v0.1c2.3-6,6.1-9,11.4-9c3.5-0.2,5.8-3.5,6.8-9.7c2.9-19.1,5.3-32.5,7.3-40.3v0.1
			C307.1,164.5,314.9,148.2,326.5,133.8z"/>
	</g>
	<g>
		<g>
			
				<radialGradient id="SVGID_18_" cx="340.6499" cy="123.8999" r="10.0375" gradientTransform="matrix(1 0 0 0.543 0 56.6267)" gradientUnits="userSpaceOnUse">
				<stop  offset="0" style="stop-color:#FFFFFF"/>
				<stop  offset="1" style="stop-color:#FFFFFF;stop-opacity:0"/>
			</radialGradient>
			<path fill-rule="evenodd" clip-rule="evenodd" fill="url(#SVGID_18_)" d="M333.9,128.7c3.2-3,6-4.4,8.5-4.1
				c2.4,0.4,4.2,2.4,5.5,6.2c1.2,3.7,1.7,5.6,1.6,5.7c0,0-0.1,0.1-0.1,0.2c-0.1,0-0.1,0-0.2-0.1c-0.1,0-0.1-0.1-0.1-0.1
				c-1.5-6.6-3.9-10.1-7.1-10.6c-3.3-0.5-7.4,2-12.4,7.7c-0.1,0-0.1,0.1-0.2,0.1c-0.1,0-0.2,0-0.3-0.1c-0.1-0.1-0.1-0.2-0.1-0.2
				C329,133.3,330.6,131.7,333.9,128.7z"/>
			
				<radialGradient id="SVGID_19_" cx="309.7998" cy="180.9502" r="11.4625" gradientTransform="matrix(1 0 0 3.2366 0 -404.7206)" gradientUnits="userSpaceOnUse">
				<stop  offset="0" style="stop-color:#FFFFFF"/>
				<stop  offset="1" style="stop-color:#FFFFFF;stop-opacity:0"/>
			</radialGradient>
			<path fill-rule="evenodd" clip-rule="evenodd" fill="url(#SVGID_19_)" d="M321,143.7c0-0.1,0.1-0.2,0.2-0.2c0.1,0,0.1,0,0.2,0.1
				c0,0.1,0.1,0.1,0.1,0.2c0,0.1-1.9,3.1-5.7,9.2c-3.7,6-7.5,17-11.2,33.1c-1.7,6.1-3.7,16.7-6.1,32c0,0.1,0,0.2-0.1,0.2
				c-0.1,0-0.2,0.1-0.3,0.1c-0.1,0-0.1,0-0.1-0.1c-0.1-0.1-0.1-0.2-0.1-0.3c2.5-16.3,4.7-28,6.6-35
				C307.7,168.7,313.1,155.6,321,143.7z"/>
			
				<radialGradient id="SVGID_20_" cx="52.0498" cy="316.0498" r="10.95" gradientTransform="matrix(1 0 0 1.5 0 -158.0249)" gradientUnits="userSpaceOnUse">
				<stop  offset="0" style="stop-color:#FFFFFF"/>
				<stop  offset="1" style="stop-color:#FFFFFF;stop-opacity:0"/>
			</radialGradient>
			<path fill-rule="evenodd" clip-rule="evenodd" fill="url(#SVGID_20_)" d="M55.8,299.9c0.1,0,0.2,0.1,0.2,0.1
				c0,0.1-0.2,2.9-0.8,8.5c-0.6,4.7-0.2,11.7,1,20.9c-2.5-10.5-2.8-20.3-0.8-29.3c0.1-0.1,0.1-0.2,0.2-0.2
				C55.7,299.9,55.7,299.9,55.8,299.9z"/>
			
				<radialGradient id="SVGID_21_" cx="86" cy="365.4502" r="39.575" gradientTransform="matrix(1 0 0 0.4119 0 214.93)" gradientUnits="userSpaceOnUse">
				<stop  offset="0" style="stop-color:#FFFFFF"/>
				<stop  offset="1" style="stop-color:#FFFFFF;stop-opacity:0"/>
			</radialGradient>
			<path fill-rule="evenodd" clip-rule="evenodd" fill="url(#SVGID_21_)" d="M52.8,364.6c-2.7-1.4-4.3-2.8-4.7-4.4
				c-0.4-1.6,0.4-3.3,2.4-5.1c0-0.1,0.1-0.1,0.2-0.1c0.1,0,0.1,0,0.2,0.1c0,0.1,0,0.1,0,0.2s0,0.2,0,0.3c-1.8,1.6-2.5,3.2-2.1,4.5
				c0.4,1.4,2.5,3.1,6.3,5c3.9,1.9,12.8,3.6,26.7,5c19,1.2,32-0.6,39-5.5c7-5,8.3-12.9,3.9-23.7c-0.3-0.8-0.6-1.5-0.9-2.4
				c-0.1-0.1-0.1-0.1,0-0.2c0-0.1,0.1-0.1,0.2-0.1c0,0,0.1,0,0.2,0c0.1,0,0.1,0.1,0.1,0.2c0.3,0.7,0.6,1.5,0.9,2.3
				c4.5,11.2,3.1,19.3-4.1,24.4c-7.2,5.1-20.2,7.1-39,6C67.8,369.3,58,367.2,52.8,364.6z"/>
			
				<radialGradient id="SVGID_22_" cx="285.6001" cy="237.3999" r="11" gradientTransform="matrix(1 0 0 0.9148 0 20.2329)" gradientUnits="userSpaceOnUse">
				<stop  offset="0" style="stop-color:#FFFFFF"/>
				<stop  offset="1" style="stop-color:#FFFFFF;stop-opacity:0"/>
			</radialGradient>
			<path fill-rule="evenodd" clip-rule="evenodd" fill="url(#SVGID_22_)" d="M296.5,227.1c0-0.1,0.1-0.1,0.3,0
				c0.1,0,0.1,0.1,0.1,0.1s0,0.1,0,0.3c-1.5,4.7-4.1,7.1-7.8,7.2c-4.4,0-7.5,2.6-9.4,7.6c-0.4,1.1-1,2.1-1.8,3c-0.1,0-0.2,0-0.3,0
				c-0.1,0-0.1,0-0.1,0c-0.1-0.1-0.1-0.2-0.1-0.3s0.2-0.3,0.6-0.8c0.4-0.5,1.4-2.3,2.9-5.5c1.6-3.3,4.2-4.9,7.9-4.9
				c3.6,0,5.8-1.1,6.5-3.3C296,228.3,296.4,227.2,296.5,227.1z"/>
			
				<radialGradient id="SVGID_23_" cx="266.8501" cy="250.1499" r="8.2149" gradientTransform="matrix(0.9818 -0.1899 5.531054e-002 0.286 -8.9802 229.2907)" gradientUnits="userSpaceOnUse">
				<stop  offset="0" style="stop-color:#FFFFFF"/>
				<stop  offset="1" style="stop-color:#FFFFFF;stop-opacity:1.176471e-002"/>
			</radialGradient>
			<path fill-rule="evenodd" clip-rule="evenodd" fill="url(#SVGID_23_)" d="M275.6,247L275.6,247c-0.4,0.2-0.6,0.3-0.9,0.5
				c-2.8,1.7-5.7,2.8-8.9,3.3c-3,0.4-5.5,0.6-7.4,0.5c-0.1,0-0.1,0-0.2,0v-0.6c0.1,0,0.1-0.1,0.2-0.1c2.6-0.2,5.2-0.5,7.8-0.8
				c3.4-0.5,6.1-1.4,8.1-2.8h0c0.3-0.2,0.6-0.4,0.9-0.5c0.3-0.2,0.5-0.4,0.9-0.6c0.1,0,0.1,0,0.2,0c0.1,0,0.2,0,0.2,0.1
				c0,0.1,0,0.2,0,0.3c0,0.1,0,0.1-0.1,0.2C276.1,246.6,275.9,246.9,275.6,247z"/>
			
				<radialGradient id="SVGID_24_" cx="246.6001" cy="285.6499" r="17.7375" gradientTransform="matrix(1 0 0 1.9683 0 -276.5912)" gradientUnits="userSpaceOnUse">
				<stop  offset="0" style="stop-color:#FFFFFF"/>
				<stop  offset="1" style="stop-color:#FFFFFF;stop-opacity:1.176471e-002"/>
			</radialGradient>
			<path fill-rule="evenodd" clip-rule="evenodd" fill="url(#SVGID_24_)" d="M253.6,253.5v0.9c-4.4,4.7-7.1,15.6-7.9,32.7
				c-0.6,11.7-2.7,20.4-6.2,26.1c3-5.8,4.8-16,5.5-30.6C245.8,267.8,248.6,258.1,253.6,253.5z"/>
			
				<radialGradient id="SVGID_25_" cx="176.8501" cy="315.2998" r="33.3625" gradientTransform="matrix(1 0 0 0.1042 0 282.4585)" gradientUnits="userSpaceOnUse">
				<stop  offset="0" style="stop-color:#FFFFFF"/>
				<stop  offset="1" style="stop-color:#FFFFFF;stop-opacity:0"/>
			</radialGradient>
			<path fill-rule="evenodd" clip-rule="evenodd" fill="url(#SVGID_25_)" d="M169.2,313.2c13.4,1.3,23.7,2.5,30.7,3.6
				c2.3,0.4,4.3,0.7,5.9,0.9c-13-1.3-27.4-2.9-43.4-5c-2-0.3-3.8-0.5-5.4-0.7C160.3,312.4,164.4,312.7,169.2,313.2z"/>
		</g>
	</g>
</g>
</svg>
